<svg width="28" height="28" viewBox="0 0 28 28" fill="none" xmlns="http://www.w3.org/2000/svg">
<path d="M22 1C23.6569 1 25 2.34315 25 4C25 5.30574 24.1645 6.413 23 6.8252V21.1738C24.1647 21.5859 25 22.6941 25 24C25 25.6569 23.6569 27 22 27C20.6941 27 19.5859 26.1647 19.1738 25H8.82617C8.41406 26.1647 7.30585 27 6 27C4.34315 27 3 25.6569 3 24C3 22.6941 3.83532 21.5859 5 21.1738V6.8252C3.83548 6.413 3 5.30574 3 4C3 2.34315 4.34315 1 6 1C7.30585 1 8.41406 1.83532 8.82617 3H19.1738C19.5859 1.83532 20.6941 1 22 1ZM8.97266 4.40039C8.79436 5.73687 7.73687 6.79436 6.40039 6.97266V21.0264C7.73693 21.2046 8.79435 22.2631 8.97266 23.5996H19.0273C19.2056 22.2631 20.2631 21.2046 21.5996 21.0264V6.97266C20.2631 6.79436 19.2056 5.73687 19.0273 4.40039H8.97266Z" fill="#FFFFFF" style="fill:#FFFFFF;fill:#FFFFFF;fill-opacity:1;"/>
</svg>
