<svg width="140" height="140" viewBox="0 0 140 140" fill="none" xmlns="http://www.w3.org/2000/svg">
<circle cx="70" cy="45" r="25" fill="#EEEFF1"/>
<path d="M94.354 50.1991L93.3237 49.8605L94.354 50.1991ZM92.1528 56.8755L93.1284 57.3489L92.1528 56.8755ZM87.8375 62.3983L88.611 63.1584L87.8375 62.3983ZM85.2925 64.8295L86.0166 65.6368L85.2925 64.8295ZM79.1484 68.1168L79.4224 69.166L79.1484 68.1168ZM68.8505 70.1351L68.8272 69.0509L68.8505 70.1351ZM58.7324 67.3392L58.2755 68.3227L58.7324 67.3392ZM55.616 65.6754L55.0534 66.6025L55.616 65.6754ZM48.4771 57.9637L47.4992 58.4325L48.4771 57.9637ZM46.9307 54.7768L47.904 54.2987L46.9307 54.7768ZM45.9505 51.4326L44.8731 51.556L45.9505 51.4326ZM44.7989 44.4894L43.7173 44.4102L44.7989 44.4894ZM46.0621 37.5507L45.0213 37.2465L46.0621 37.5507ZM59.6413 22.1875L59.2425 21.1791L59.6413 22.1875ZM66.412 20.3563L66.1684 19.2995L66.412 20.3563ZM88.8016 28.1071L89.6106 27.385L88.8016 28.1071ZM90.7509 31.0414L91.7301 30.5755L90.7509 31.0414ZM92.3698 34.1777L93.3165 33.6488L92.3698 34.1777ZM93.7693 37.3769L94.8002 37.0403L93.7693 37.3769ZM94.5608 40.7843L95.6345 40.6321L94.5608 40.7843ZM94.9521 46.7622L93.8681 46.7328C93.839 47.8025 93.6578 48.844 93.3237 49.8605L94.354 50.1991L95.3842 50.5376C95.7839 49.3213 96.0014 48.0715 96.0362 46.7917L94.9521 46.7622ZM94.354 50.1991L93.3237 49.8605C92.9495 50.9994 92.6131 52.1485 92.3145 53.3078L93.3647 53.5782L94.4148 53.8487C94.7016 52.7353 95.0247 51.6316 95.3842 50.5376L94.354 50.1991ZM93.3647 53.5782L92.3145 53.3078C92.04 54.3737 91.661 55.4048 91.1772 56.4021L92.1528 56.8755L93.1284 57.3489C93.675 56.2224 94.104 55.0554 94.4148 53.8487L93.3647 53.5782ZM92.1528 56.8755L91.1772 56.4021C90.703 57.3791 90.1119 58.2774 89.4025 59.099L90.2233 59.8077L91.0441 60.5165C91.8768 59.5521 92.572 58.4956 93.1284 57.3489L92.1528 56.8755ZM90.2233 59.8077L89.4025 59.099C88.6465 59.9745 87.867 60.821 87.0639 61.6383L87.8375 62.3983L88.611 63.1584C89.4469 62.3075 90.258 61.4269 91.0441 60.5165L90.2233 59.8077ZM87.8375 62.3983L87.0639 61.6383C86.2605 62.456 85.4287 63.2507 84.5685 64.0222L85.2925 64.8295L86.0166 65.6368C86.9106 64.835 87.7754 64.0089 88.611 63.1584L87.8375 62.3983ZM85.2925 64.8295L84.5685 64.0222C83.7566 64.7503 82.8696 65.3703 81.9058 65.8831L82.4152 66.8405L82.9246 67.7978C84.043 67.2028 85.0742 66.4821 86.0166 65.6368L85.2925 64.8295ZM82.4152 66.8405L81.9058 65.8831C80.939 66.3975 79.929 66.792 78.8743 67.0675L79.1484 68.1168L79.4224 69.166C80.6413 68.8477 81.8092 68.3913 82.9246 67.7978L82.4152 66.8405ZM79.1484 68.1168L78.8743 67.0675C77.6859 67.3779 76.5213 67.7755 75.3811 68.2599L75.8051 69.258L76.2291 70.2561C77.273 69.8127 78.3373 69.4494 79.4224 69.166L79.1484 68.1168ZM75.8051 69.258L75.3811 68.2599C74.409 68.6728 73.4016 68.8995 72.353 68.9418L72.3967 70.0254L72.4405 71.109C73.7521 71.056 75.017 70.771 76.2291 70.2561L75.8051 69.258ZM72.3967 70.0254L72.353 68.9418C71.1797 68.9893 70.0044 69.0256 68.8272 69.0509L68.8505 70.1351L68.8739 71.2193C70.0646 71.1937 71.2535 71.1569 72.4405 71.109L72.3967 70.0254ZM68.8505 70.1351L68.8272 69.0509C67.7629 69.0738 66.7257 68.9238 65.7109 68.6002L65.3814 69.6334L65.052 70.6666C66.2946 71.0628 67.5702 71.2473 68.8739 71.2193L68.8505 70.1351ZM65.3814 69.6334L65.7109 68.6002C64.5767 68.2385 63.4471 67.8882 62.3222 67.5492L62.0093 68.5875L61.6964 69.6258C62.8101 69.9614 63.9286 70.3084 65.052 70.6666L65.3814 69.6334ZM62.0093 68.5875L62.3222 67.5492C61.2523 67.2268 60.2081 66.829 59.1892 66.3557L58.7324 67.3392L58.2755 68.3227C59.3872 68.8391 60.5276 69.2736 61.6964 69.6258L62.0093 68.5875ZM58.7324 67.3392L59.1892 66.3557C58.1605 65.8779 57.157 65.3422 56.1786 64.7484L55.616 65.6754L55.0534 66.6025C56.0996 67.2375 57.1737 67.8109 58.2755 68.3227L58.7324 67.3392ZM55.616 65.6754L56.1786 64.7484C55.2853 64.2063 54.525 63.5167 53.8928 62.6738L53.0253 63.3246L52.1578 63.9753C52.9551 65.0382 53.922 65.9159 55.0534 66.6025L55.616 65.6754ZM53.0253 63.3246L53.8928 62.6738C53.131 61.6582 52.2685 60.736 51.3062 59.9083L50.599 60.7304L49.8918 61.5525C50.7351 62.2779 51.4901 63.0851 52.1578 63.9753L53.0253 63.3246ZM50.599 60.7304L51.3062 59.9083C50.5165 59.229 49.9017 58.4269 49.455 57.495L48.4771 57.9637L47.4992 58.4325C48.0763 59.6364 48.876 60.6787 49.8918 61.5525L50.599 60.7304ZM48.4771 57.9637L49.455 57.495C48.9416 56.4239 48.4246 55.3585 47.904 54.2987L46.9307 54.7768L45.9573 55.2549C46.4748 56.3085 46.9888 57.3676 47.4992 58.4325L48.4771 57.9637ZM46.9307 54.7768L47.904 54.2987C47.4398 53.3537 47.1482 52.359 47.0279 51.3091L45.9505 51.4326L44.8731 51.556C45.0216 52.8518 45.3834 54.0866 45.9573 55.2549L46.9307 54.7768ZM45.9505 51.4326L47.0279 51.3091C46.8854 50.0664 46.6236 48.8432 46.2428 47.6403L45.209 47.9676L44.1751 48.2948C44.5142 49.3663 44.7467 50.4531 44.8731 51.556L45.9505 51.4326ZM45.209 47.9676L46.2428 47.6403C45.9241 46.6335 45.804 45.612 45.8804 44.5686L44.7989 44.4894L43.7173 44.4102C43.6207 45.7301 43.7739 47.0274 44.1751 48.2948L45.209 47.9676ZM44.7989 44.4894L45.8804 44.5686C45.9641 43.4258 46.1088 42.2953 46.3145 41.1767L45.2479 40.9806L44.1813 40.7845C43.9614 41.9809 43.8067 43.1895 43.7173 44.4102L44.7989 44.4894ZM45.2479 40.9806L46.3145 41.1767C46.5206 40.0556 46.7834 38.9484 47.103 37.8549L46.0621 37.5507L45.0213 37.2465C44.6809 38.4111 44.4009 39.5905 44.1813 40.7845L45.2479 40.9806ZM46.0621 37.5507L47.103 37.8549C47.404 36.825 47.8433 35.8597 48.4222 34.956L47.5091 34.371L46.5959 33.7861C45.9056 34.8638 45.3802 36.0182 45.0213 37.2465L46.0621 37.5507ZM47.5091 34.371L48.4222 34.956C49.0723 33.9411 49.6793 32.9048 50.2431 31.8471L49.2861 31.337L48.3291 30.8269C47.7927 31.8333 47.215 32.8196 46.5959 33.7861L47.5091 34.371ZM49.2861 31.337L50.2431 31.8471C50.7546 30.8875 51.3678 29.9965 52.0838 29.1731L51.2655 28.4616L50.4471 27.75C49.6241 28.6965 48.9178 29.7225 48.3291 30.8269L49.2861 31.337ZM51.2655 28.4616L52.0838 29.1731C52.7907 28.3601 53.59 27.6545 54.4834 27.0545L53.8788 26.1542L53.2742 25.254C52.2222 25.9605 51.2792 26.7931 50.4471 27.75L51.2655 28.4616ZM53.8788 26.1542L54.4834 27.0545C55.4952 26.3749 56.4623 25.6301 57.3844 24.8204L56.6688 24.0055L55.9532 23.1907C55.1008 23.9393 54.2078 24.6269 53.2742 25.254L53.8788 26.1542ZM56.6688 24.0055L57.3844 24.8204C58.1783 24.1232 59.062 23.5828 60.0402 23.1959L59.6413 22.1875L59.2425 21.1791C58.0317 21.6579 56.9338 22.3295 55.9532 23.1907L56.6688 24.0055ZM59.6413 22.1875L60.0402 23.1959C61.0845 22.7829 62.149 22.4515 63.2342 22.2015L62.9907 21.1447L62.7472 20.088C61.5554 20.3626 60.387 20.7264 59.2425 21.1791L59.6413 22.1875ZM62.9907 21.1447L63.2342 22.2015C64.3727 21.9392 65.5132 21.6763 66.6556 21.413L66.412 20.3563L66.1684 19.2995C65.0261 19.5629 63.8857 19.8257 62.7472 20.088L62.9907 21.1447ZM66.412 20.3563L66.6556 21.413C67.7217 21.1672 68.8037 21.0382 69.9029 21.0259L69.8908 19.9415L69.8786 18.8571C68.6242 18.8712 67.387 19.0187 66.1684 19.2995L66.412 20.3563ZM69.8908 19.9415L69.9029 21.0259C70.9767 21.0138 72.0284 21.1526 73.0613 21.4426L73.3544 20.3985L73.6475 19.3545C72.4159 19.0087 71.1585 18.8428 69.8786 18.8571L69.8908 19.9415ZM73.3544 20.3985L73.0613 21.4426C74.2572 21.7784 75.4797 22.0042 76.7278 22.1203L76.8283 21.0405L76.9287 19.9607C75.8095 19.8566 74.716 19.6545 73.6475 19.3545L73.3544 20.3985ZM76.8283 21.0405L76.7278 22.1203C77.7338 22.2139 78.6493 22.5364 79.4895 23.0927L80.0882 22.1885L80.6869 21.2843C79.548 20.5302 78.2901 20.0874 76.9287 19.9607L76.8283 21.0405ZM80.0882 22.1885L79.4895 23.0927C80.4946 23.7582 81.5049 24.3899 82.5204 24.9878L83.0706 24.0533L83.6208 23.1187C82.6389 22.5407 81.6609 21.9292 80.6869 21.2843L80.0882 22.1885ZM83.0706 24.0533L82.5204 24.9878C83.5152 25.5735 84.5189 26.1726 85.5314 26.7853L86.0928 25.8575L86.6542 24.9298C85.6345 24.3127 84.6233 23.709 83.6208 23.1187L83.0706 24.0533ZM86.0928 25.8575L85.5314 26.7853C86.4553 27.3444 87.2747 28.025 87.9925 28.8293L88.8016 28.1071L89.6106 27.385C88.7489 26.4196 87.7625 25.6004 86.6542 24.9298L86.0928 25.8575ZM88.8016 28.1071L87.9925 28.8293C88.7137 29.6372 89.3061 30.529 89.7716 31.5073L90.7509 31.0414L91.7301 30.5755C91.1761 29.4111 90.469 28.3468 89.6106 27.385L88.8016 28.1071ZM90.7509 31.0414L89.7716 31.5073C90.2914 32.5997 90.8419 33.6661 91.4231 34.7065L92.3698 34.1777L93.3165 33.6488C92.7587 32.6502 92.2299 31.6258 91.7301 30.5755L90.7509 31.0414ZM92.3698 34.1777L91.4231 34.7065C91.9583 35.6647 92.3966 36.6666 92.7384 37.7135L93.7693 37.3769L94.8002 37.0403C94.415 35.8605 93.9203 34.7297 93.3165 33.6488L92.3698 34.1777ZM93.7693 37.3769L92.7384 37.7135C93.0823 38.7667 93.3318 39.8408 93.4871 40.9365L94.5608 40.7843L95.6345 40.6321C95.4615 39.4111 95.1833 38.2136 94.8002 37.0403L93.7693 37.3769ZM94.5608 40.7843L93.4871 40.9365C93.6474 42.0675 93.7316 43.0131 93.7459 43.7811L94.8301 43.7609L95.9144 43.7407C95.8979 42.8565 95.8026 41.8178 95.6345 40.6321L94.5608 40.7843ZM94.8301 43.7609L93.7459 43.7811C93.7537 44.1989 93.766 44.5348 93.7846 44.7744C93.7934 44.8877 93.8063 45.0161 93.8289 45.1315C93.8384 45.1799 93.8614 45.2905 93.914 45.4118C93.9387 45.4689 93.9979 45.5954 94.1145 45.7238C94.2336 45.8551 94.506 46.0844 94.9266 46.0844V45V43.9156C95.341 43.9156 95.6075 44.1416 95.7208 44.2665C95.8314 44.3885 95.8849 44.5053 95.9041 44.5495C95.9279 44.6046 95.9408 44.6482 95.9464 44.6686C95.9527 44.6915 95.956 44.7076 95.9572 44.7136C95.9595 44.7258 95.9542 44.6993 95.9469 44.6061C95.9334 44.4326 95.922 44.149 95.9144 43.7407L94.8301 43.7609ZM94.9266 45V46.0844C94.3287 46.0844 94.0497 45.639 94.0045 45.5632C93.9298 45.4383 93.9014 45.3303 93.8946 45.3048C93.8766 45.2364 93.8743 45.1937 93.8764 45.2157C93.8791 45.2427 93.8833 45.3162 93.8854 45.4563C93.8893 45.7265 93.884 46.1487 93.8681 46.7328L94.9521 46.7622L96.0362 46.7917C96.0522 46.2009 96.0586 45.742 96.054 45.4248C96.0518 45.2712 96.0467 45.1244 96.035 45.0046C96.03 44.9532 96.0192 44.8554 95.9914 44.7503C95.9798 44.7064 95.9463 44.5847 95.8661 44.4505C95.8154 44.3656 95.5306 43.9156 94.9266 43.9156V45Z" fill="#EEEFF1"/>
<path d="M102 120C110.561 120 114.842 120 117.448 115.541C120.053 111.082 118.499 108.323 115.39 102.805C112.942 98.4597 109.562 94.4584 105.355 91.0086C95.9785 83.3196 83.2608 79 70 79C56.7392 79 44.0215 83.3196 34.6447 91.0086C30.4376 94.4584 27.0577 98.4597 24.6095 102.805C21.501 108.323 19.9467 111.082 22.5525 115.541C25.1583 120 29.4389 120 38 120L70 120H102Z" fill="#EEEFF1" stroke="#EEEFF1" stroke-width="2.16887"/>
<path d="M126.658 105.346L129.14 105.644L126.658 105.346ZM116.367 118.075L115.366 115.784L116.367 118.075ZM96.3484 111.212L94.1744 112.447L96.3484 111.212ZM95.7516 94.7557L93.6228 93.4449L95.7516 94.7557ZM124.073 93.408L126.41 92.5188L124.073 93.408ZM126.398 98.7572L128.642 97.6554L126.398 98.7572ZM127.342 101.938L125.207 100.638L127.342 101.938ZM126.658 105.346L124.176 105.047C124 106.504 123.479 107.785 122.6 108.935L124.586 110.454L126.572 111.972C127.998 110.107 128.858 107.982 129.14 105.644L126.658 105.346ZM124.586 110.454L122.6 108.935C121.49 110.386 120.322 111.784 119.096 113.129L120.943 114.813L122.791 116.498C124.115 115.046 125.375 113.537 126.572 111.972L124.586 110.454ZM120.943 114.813L119.096 113.129C118.063 114.262 116.828 115.145 115.366 115.784L116.367 118.075L117.368 120.366C119.457 119.453 121.273 118.162 122.791 116.498L120.943 114.813ZM116.367 118.075L115.366 115.784C113.966 116.395 112.53 116.635 111.021 116.513L110.818 119.005L110.616 121.496C112.952 121.686 115.215 121.306 117.368 120.366L116.367 118.075ZM110.818 119.005L111.021 116.513C109.303 116.373 107.657 116.029 106.079 115.483L105.261 117.845L104.443 120.207C106.428 120.895 108.488 121.324 110.616 121.496L110.818 119.005ZM105.261 117.845L106.079 115.483C104.5 114.935 102.996 114.19 101.565 113.243L100.185 115.327L98.8041 117.411C100.578 118.586 102.459 119.52 104.443 120.207L105.261 117.845ZM100.185 115.327L101.565 113.243C100.292 112.4 99.2845 111.32 98.5224 109.978L96.3484 111.212L94.1744 112.447C95.3221 114.468 96.8718 116.132 98.8041 117.411L100.185 115.327ZM96.3484 111.212L98.5224 109.978C97.7546 108.626 97.3407 107.216 97.2606 105.721L94.7642 105.855L92.2678 105.989C92.3903 108.274 93.0326 110.436 94.1744 112.447L96.3484 111.212ZM94.7642 105.855L97.2606 105.721C97.1587 103.82 97.0428 101.9 96.9129 99.9607L94.4185 100.128L91.924 100.295C92.0525 102.212 92.1671 104.11 92.2678 105.989L94.7642 105.855ZM94.4185 100.128L96.9129 99.9607C96.8186 98.5539 97.1336 97.2794 97.8805 96.0664L95.7516 94.7557L93.6228 93.4449C92.3337 95.5387 91.7599 97.8456 91.924 100.295L94.4185 100.128ZM95.7516 94.7557L97.8805 96.0664C98.8116 94.5542 99.8842 93.1461 101.1 91.8404L99.2707 90.1365L97.4413 88.4327C96.001 89.9792 94.7276 91.6505 93.6228 93.4449L95.7516 94.7557ZM99.2707 90.1365L101.1 91.8404C102.099 90.7679 103.279 90.0738 104.69 89.7245L104.089 87.2977L103.488 84.871C101.131 85.4546 99.0987 86.653 97.4413 88.4327L99.2707 90.1365ZM104.089 87.2977L104.69 89.7245C106.455 89.2876 108.209 88.9908 109.955 88.8323L109.729 86.3425L109.503 83.8528C107.497 84.0349 105.492 84.375 103.488 84.871L104.089 87.2977ZM109.729 86.3425L109.955 88.8323C111.539 88.6885 113.111 88.8193 114.683 89.2301L115.315 86.8114L115.947 84.3926C113.823 83.8376 111.671 83.6559 109.503 83.8528L109.729 86.3425ZM115.315 86.8114L114.683 89.2301C116.275 89.646 117.785 90.3055 119.22 91.2173L120.561 89.1071L121.901 86.9968C120.038 85.8135 118.052 84.9425 115.947 84.3926L115.315 86.8114ZM120.561 89.1071L119.22 91.2173C120.416 91.977 121.237 92.9831 121.737 94.2971L124.073 93.408L126.41 92.5188C125.525 90.1935 124.004 88.3323 121.901 86.9968L120.561 89.1071ZM124.073 93.408L121.737 94.2971C122.456 96.189 123.262 98.043 124.154 99.8589L126.398 98.7572L128.642 97.6554C127.819 95.9784 127.075 94.2663 126.41 92.5188L124.073 93.408ZM126.398 98.7572L124.154 99.8589C124.56 100.685 124.782 101.242 124.88 101.574C124.93 101.743 124.921 101.763 124.916 101.68C124.913 101.633 124.909 101.514 124.937 101.349C124.965 101.184 125.033 100.923 125.207 100.638L127.342 101.938L129.477 103.239C129.92 102.511 129.93 101.771 129.907 101.378C129.88 100.936 129.781 100.512 129.674 100.151C129.457 99.4226 129.094 98.5753 128.642 97.6554L126.398 98.7572ZM127.342 101.938L125.207 100.638C124.833 101.252 124.656 102.047 124.549 102.579C124.416 103.238 124.293 104.069 124.176 105.047L126.658 105.346L129.14 105.644C129.25 104.725 129.355 104.04 129.451 103.563C129.499 103.325 129.538 103.172 129.564 103.085C129.6 102.965 129.585 103.062 129.477 103.239L127.342 101.938Z" fill="#D2D3D9"/>
<path d="M98.3238 112.547C97.3261 113.502 97.2908 115.084 98.2452 116.082C99.1995 117.08 100.782 117.115 101.78 116.161L100.052 114.354L98.3238 112.547ZM100.124 114.285L101.852 116.091L102.026 115.925L102.164 115.729L100.124 114.285ZM122.566 94.189L124.103 96.1609L122.566 94.189ZM124.017 93.0223L125.979 91.4726L124.794 89.9721L123.035 90.7233L124.017 93.0223ZM123.922 93.063L122.355 91.1154L124.904 95.362L123.922 93.063ZM125.567 94.9479C126.643 94.0822 126.813 92.5085 125.947 91.4329C125.082 90.3572 123.508 90.187 122.432 91.0527L124 93.0003L125.567 94.9479ZM100.052 114.354L101.78 116.161L101.852 116.091L100.124 114.285L98.3961 112.478L98.3238 112.547L100.052 114.354ZM100.124 114.285L102.164 115.729C104.288 112.729 105.953 110.954 107.156 110.122L105.733 108.066L104.311 106.01C102.362 107.358 100.287 109.729 98.0837 112.84L100.124 114.285ZM105.733 108.066L107.156 110.122C108.878 108.931 110.455 107.57 111.884 106.043L110.058 104.335L108.232 102.627C107.047 103.894 105.741 105.021 104.311 106.01L105.733 108.066ZM110.058 104.335L111.884 106.043C113.14 104.699 114.451 103.418 115.814 102.199L114.148 100.335L112.482 98.4715C111.007 99.7903 109.59 101.175 108.232 102.627L110.058 104.335ZM114.148 100.335L115.814 102.199C117.135 101.018 118.543 99.9474 120.039 98.9858L118.687 96.8828L117.335 94.7797C115.618 95.8836 114 97.1144 112.482 98.4715L114.148 100.335ZM118.687 96.8828L120.039 98.9858C121.679 97.9314 123.041 96.9881 124.103 96.1609L122.566 94.189L121.029 92.2171C120.132 92.9161 118.908 93.7687 117.335 94.7797L118.687 96.8828ZM122.566 94.189L124.103 96.1609C124.594 95.7776 124.972 95.4802 125.229 95.2735C125.355 95.1728 125.469 95.0798 125.557 95.004C125.595 94.9714 125.664 94.9126 125.733 94.8452C125.758 94.822 125.849 94.7346 125.947 94.6138C125.983 94.5699 126.121 94.403 126.245 94.1592C126.303 94.0444 126.434 93.769 126.491 93.3889C126.548 93.0022 126.562 92.21 125.979 91.4726L124.017 93.0223L122.056 94.572C121.473 93.8351 121.487 93.0435 121.544 92.6576C121.6 92.2784 121.731 92.0039 121.789 91.8903C121.912 91.6489 122.047 91.4852 122.08 91.4451C122.172 91.332 122.253 91.2552 122.263 91.2455C122.305 91.2052 122.33 91.1851 122.309 91.203C122.279 91.2281 122.213 91.2827 122.097 91.3765C121.87 91.5587 121.516 91.8373 121.029 92.2171L122.566 94.189ZM124.017 93.0223L123.035 90.7233L122.94 90.764L123.922 93.063L124.904 95.362L124.999 95.3213L124.017 93.0223ZM123.922 93.063L125.489 95.0106L125.567 94.9479L124 93.0003L122.432 91.0527L122.355 91.1154L123.922 93.063Z" fill="#D2D3D9"/>
</svg>
