<svg width="20" height="20" viewBox="0 0 20 20" fill="none" xmlns="http://www.w3.org/2000/svg">
<path fill-rule="evenodd" clip-rule="evenodd" d="M13.6581 13.5609L13.0371 11.4639H14.2791L13.6581 13.5609ZM9.38402 9.66458L10.005 7.56758L10.626 9.66458H9.38402ZM6.35149 13.5609L5.72949 11.4639H6.97249L6.35149 13.5609ZM18.099 9.66458H16.69L18.175 4.65658C18.315 4.17958 18.044 3.67858 17.567 3.53758C17.085 3.39558 16.59 3.66858 16.448 4.14458L14.812 9.66458H12.504L10.868 4.14458C10.755 3.76258 10.403 3.50058 10.005 3.50058C9.60602 3.50058 9.25502 3.76258 9.14102 4.14458L7.50602 9.66458H5.19602L3.56002 4.14458C3.42002 3.66958 2.92002 3.39658 2.44102 3.53758C1.96502 3.67858 1.69302 4.17958 1.83402 4.65658L3.31802 9.66458H1.89902C1.40202 9.66458 0.999023 10.0666 0.999023 10.5636C0.999023 11.0606 1.40202 11.4636 1.89902 11.4636H3.85202L5.48802 16.9836C5.60102 17.3656 5.95302 17.6276 6.35102 17.6276C6.75002 17.6276 7.10102 17.3656 7.21502 16.9836L8.85002 11.4636H11.159L12.795 16.9836C12.908 17.3656 13.26 17.6276 13.658 17.6276C14.056 17.6276 14.408 17.3656 14.521 16.9836L16.157 11.4636H18.099C18.596 11.4636 19 11.0606 19 10.5636C19 10.0666 18.596 9.66458 18.099 9.66458Z" fill="#2A3038"/>
</svg>
