<svg width="20" height="20" viewBox="0 0 20 20" fill="none" xmlns="http://www.w3.org/2000/svg">
<path fill-rule="evenodd" clip-rule="evenodd" d="M19.7692 15.6296L18.1012 12.9086V8.19961C18.1012 3.73361 14.4672 0.0996094 10.0002 0.0996094C5.53416 0.0996094 1.90016 3.73361 1.90016 8.19961V12.9086L0.232162 15.6296C0.0621624 15.9076 0.0551625 16.2556 0.214162 16.5396C0.373162 16.8236 0.673162 17.0006 0.999162 17.0006H6.78116C6.96016 18.6266 8.32816 19.9006 10.0002 19.9006C11.6732 19.9006 13.0402 18.6266 13.2202 17.0006H19.0012C19.3282 17.0006 19.6272 16.8236 19.7872 16.5396C19.9462 16.2556 19.9392 15.9076 19.7692 15.6296Z" fill="#2A3038" style="fill:#2A3038;fill:color(display-p3 0.1647 0.1882 0.2196);fill-opacity:1;"/>
</svg>
