<svg width="28" height="28" viewBox="0 0 28 28" fill="none" xmlns="http://www.w3.org/2000/svg">
<path d="M27.9893 22.2041C27.887 23.2128 27.0356 24 26 24L2 24L1.7959 23.9893C0.854346 23.8938 0.106199 23.1457 0.0107414 22.2041L-7.86805e-07 22L-8.74227e-08 6C1.9947e-07 4.96435 0.787223 4.113 1.7959 4.01074L2 4L26 4C27.1046 4 28 4.89543 28 6L28 22L27.9893 22.2041ZM26.5 6C26.5 5.72386 26.2761 5.5 26 5.5L2 5.5C1.72386 5.5 1.5 5.72386 1.5 6L1.5 22C1.5 22.2761 1.72386 22.5 2 22.5L26 22.5C26.2761 22.5 26.5 22.2761 26.5 22L26.5 6Z" fill="#2A3038" style="fill:#2A3038;fill:color(display-p3 0.1647 0.1882 0.2196);fill-opacity:1;"/>
</svg>
