<svg width="42" height="42" viewBox="0 0 42 42" fill="none" xmlns="http://www.w3.org/2000/svg">
<circle cx="21" cy="21" r="20.3438" fill="#F7F8F9" stroke="#EEEFF1" style="fill:#F7F8F9;fill:color(display-p3 0.9686 0.9725 0.9765);fill-opacity:1;stroke:#EEEFF1;stroke:color(display-p3 0.9333 0.9373 0.9451);stroke-opacity:1;" stroke-width="1.3125"/>
<path d="M12.941 13.943C12.6548 11.6779 12.5118 10.5453 13.1266 9.75274C13.7414 8.96016 14.8739 8.81709 17.1391 8.53096L21.667 7.959C23.9321 7.67286 25.0647 7.5298 25.8573 8.1446C26.6499 8.7594 26.7929 9.89197 27.0791 12.1571L29.0897 28.0741C29.3758 30.3392 29.5189 31.4718 28.9041 32.2644C28.2893 33.0569 27.1567 33.2 24.8916 33.4861L20.3637 34.0581C18.0985 34.3442 16.966 34.4873 16.1734 33.8725C15.3808 33.2577 15.2377 32.1251 14.9516 29.86L12.941 13.943Z" fill="#D2D3D9" style="fill:#D2D3D9;fill:color(display-p3 0.8235 0.8275 0.8510);fill-opacity:1;"/>
<path d="M22.5046 7.28857C23.0598 7.20129 23.6202 7.1772 24.1821 7.22161C24.779 7.26896 25.332 7.44598 25.8315 7.74929C26.3513 8.06507 26.7393 8.51276 26.9911 9.07877C27.2238 9.60208 27.3762 10.1498 27.446 10.7186C27.5122 11.258 27.5458 11.8005 27.5487 12.3456C27.5512 12.8253 27.6222 13.2972 27.7617 13.7604C27.9248 14.3016 28.0291 14.8528 28.0691 15.411C28.1051 15.914 28.1699 16.4166 28.2665 16.9119C28.3726 17.4564 28.4254 18.0088 28.426 18.5661C28.4266 19.067 28.4662 19.5629 28.5449 20.0535C28.628 20.5703 28.7115 21.0879 28.7943 21.6047C28.8762 22.1166 28.9666 22.6282 29.0643 23.1381C29.1704 23.6918 29.2091 24.2556 29.1784 24.8249C29.1532 25.2973 29.2119 25.7588 29.3534 26.2102C29.5253 26.7587 29.6178 27.3209 29.6343 27.8907C29.6489 28.3951 29.6972 28.8964 29.7748 29.3948C29.8654 29.9767 29.837 30.5523 29.6947 31.1174C29.5538 31.6763 29.3179 32.1957 28.9866 32.6676C28.6152 33.1963 28.0935 33.5276 27.4526 33.6547C26.9172 33.7608 26.3811 33.8459 25.8479 33.9069C25.3328 33.9659 24.8184 34.0319 24.3055 34.1056C23.7645 34.1834 23.2188 34.2215 22.6688 34.2208C22.1769 34.2203 21.6907 34.2714 21.2126 34.3779C20.6851 34.4953 20.1533 34.5885 19.619 34.6556C19.0647 34.7251 18.5114 34.7328 17.9593 34.6782C17.4055 34.6233 16.8681 34.505 16.351 34.3246C15.7251 34.1057 15.2942 33.6579 15.0767 33.0248C14.8931 32.4902 14.7719 31.9429 14.7172 31.3846C14.6679 30.8825 14.5911 30.3838 14.4861 29.8883C14.3746 29.3627 14.284 28.8326 14.2132 28.3019C14.141 27.7603 14.106 27.2138 14.1129 26.6629C14.1189 26.1874 14.0518 25.7204 13.9057 25.263C13.7268 24.7027 13.6486 24.1282 13.6731 23.5417C13.6939 23.0427 13.6675 22.5498 13.5932 22.0641C13.5172 21.5683 13.4065 21.0762 13.2657 20.5879C13.112 20.0554 13.0023 19.5149 12.9355 18.9705C12.8689 18.4278 12.8408 17.8776 12.8536 17.3256C12.865 16.8303 12.8264 16.3422 12.7371 15.8605C12.64 15.337 12.5577 14.8096 12.4882 14.2823C12.4189 13.7553 12.3627 13.227 12.3223 12.6976C12.2806 12.1497 12.2872 11.6061 12.3373 11.0674C12.3943 10.4548 12.6265 9.92005 13.0417 9.48724C13.4255 9.08773 13.8902 8.77382 14.4256 8.54561C14.953 8.32093 15.505 8.18208 16.0779 8.13116C16.5953 8.08519 16.9075 8.05864 16.9951 8.05349C17.0005 8.05295 17.0184 8.05085 17.0549 8.04594C17.097 8.04025 17.1551 8.03144 17.227 8.0203C17.3723 7.99777 17.5752 7.96449 17.8324 7.92084C18.3724 7.8292 18.9187 7.78135 19.4687 7.77141C19.9608 7.76247 20.4463 7.70091 20.9258 7.59125C21.4488 7.47159 21.9758 7.37172 22.5046 7.28857ZM22.6558 8.24201C22.1493 8.32163 21.6457 8.42153 21.1445 8.53616C20.5993 8.66091 20.0435 8.72802 19.4841 8.73812C18.9829 8.74724 18.4867 8.79334 17.9952 8.87671C17.497 8.96127 17.1609 9.01619 17.0485 9.02279C16.9767 9.02712 16.6851 9.05011 16.1617 9.09663C15.6901 9.1387 15.2379 9.25148 14.805 9.43595C14.3799 9.6171 14.027 9.85978 13.7405 10.158C13.487 10.4223 13.3402 10.7473 13.3019 11.1552C13.2569 11.6387 13.2516 12.1307 13.2893 12.6253C13.3283 13.1371 13.3814 13.6477 13.4485 14.1571C13.5157 14.6674 13.5971 15.1761 13.6911 15.6827C13.7927 16.2306 13.8379 16.7865 13.825 17.3479C13.8133 17.8528 13.8356 18.3541 13.8962 18.8491C13.9567 19.3425 14.0565 19.8333 14.1963 20.3176C14.3487 20.8459 14.4686 21.3787 14.551 21.9167C14.6349 22.4647 14.662 23.0196 14.6387 23.5799C14.619 24.0529 14.6815 24.5182 14.8262 24.971C15.0034 25.5263 15.0902 26.0942 15.083 26.674C15.0766 27.1782 15.1075 27.6784 15.1733 28.1728C15.2408 28.6784 15.3267 29.1836 15.4329 29.6846C15.5454 30.2152 15.6288 30.7516 15.6816 31.2896C15.7289 31.7722 15.8312 32.2471 15.9905 32.711C16.1159 33.0758 16.3367 33.2944 16.67 33.4111C17.1133 33.5658 17.5762 33.669 18.0552 33.7165C18.5343 33.7639 19.0149 33.7549 19.4976 33.6945C20.0013 33.6312 20.5044 33.5466 21.0021 33.4358C21.5495 33.3139 22.1059 33.2516 22.6684 33.2522C23.1726 33.2528 23.6742 33.2175 24.1691 33.1464C24.6909 33.0715 25.214 33.0044 25.738 32.9444C26.2443 32.8864 26.7541 32.807 27.2637 32.706C27.6686 32.6258 27.9721 32.4295 28.1955 32.1114C28.4589 31.7362 28.6454 31.3254 28.7574 30.8813C28.8674 30.4442 28.8879 29.9978 28.817 29.5423C28.7333 29.004 28.6809 28.4627 28.6652 27.918C28.6513 27.4376 28.5745 26.9636 28.4286 26.4984C28.2523 25.9363 28.1789 25.3602 28.2105 24.7718C28.237 24.2797 28.2058 23.7949 28.1147 23.3193C28.0151 22.7998 27.9208 22.2779 27.8374 21.7564C27.7548 21.2405 27.6713 20.7244 27.5885 20.2086C27.5014 19.6667 27.4576 19.1184 27.457 18.5661C27.4564 18.0703 27.4115 17.58 27.3173 17.0965C27.2132 16.5627 27.1405 16.0219 27.1018 15.4798C27.0669 14.9941 26.9785 14.5148 26.8359 14.0413C26.6696 13.4893 26.5836 12.9236 26.5806 12.3498C26.5778 11.8425 26.546 11.3378 26.4844 10.8361L26.3471 10.1405C26.2841 9.91315 26.2034 9.69097 26.1065 9.473C25.9317 9.08 25.6737 8.78496 25.3292 8.57565C24.9646 8.3543 24.5582 8.22446 24.1059 8.18858C23.6194 8.15011 23.1358 8.16657 22.6558 8.24201Z" fill="#D2D3D9" style="fill:#D2D3D9;fill:color(display-p3 0.8235 0.8275 0.8510);fill-opacity:1;"/>
<path d="M21.8481 30.4323C21.9046 30.4175 21.9863 30.4047 22.0723 30.4274C22.0617 30.4246 22.0648 30.4269 22.0932 30.4267C22.1193 30.4265 22.1567 30.4244 22.206 30.4187C22.3553 30.4013 22.5036 30.4161 22.6471 30.4619C22.7297 30.4884 22.8183 30.5032 22.9134 30.5062C23.0169 30.5095 23.1271 30.539 23.2197 30.6148C23.3114 30.6902 23.3624 30.7909 23.387 30.8902C23.4109 30.987 23.4441 31.0713 23.4846 31.1452C23.5549 31.2732 23.5951 31.4116 23.6079 31.5566C23.62 31.695 23.6098 31.8341 23.5761 31.9709C23.5357 32.1344 23.449 32.2755 23.3236 32.3878C23.2464 32.457 23.1808 32.527 23.1247 32.5961C23.0219 32.7227 22.8865 32.8074 22.7298 32.8501C22.6457 32.873 22.5586 32.9084 22.4697 32.9566C22.2922 33.0526 22.0975 33.0605 21.9127 32.9763C21.8039 32.9267 21.6996 32.8774 21.5995 32.8289C21.4887 32.7751 21.3814 32.7119 21.2813 32.6419C21.142 32.5442 21.0464 32.4085 20.9976 32.2464C20.953 32.0982 20.9451 31.9462 20.9744 31.7946C20.9939 31.6938 21.0088 31.5914 21.0198 31.4881C21.0319 31.3748 21.0466 31.2591 21.0622 31.1418C21.0879 30.9491 21.1878 30.7896 21.3516 30.6844C21.4563 30.6172 21.5631 30.557 21.6696 30.5032C21.7278 30.4739 21.7882 30.4482 21.8481 30.4323ZM21.9587 30.9592C21.9457 30.9644 21.9278 30.9707 21.9087 30.9803C21.8197 31.0253 21.7298 31.0765 21.6399 31.1343C21.6088 31.1543 21.5958 31.1743 21.5908 31.2118C21.5758 31.3248 21.5623 31.4367 21.5507 31.5453C21.5381 31.6634 21.5209 31.781 21.4985 31.8967C21.486 31.9618 21.4908 32.0265 21.5108 32.0931C21.5267 32.1452 21.5512 32.1795 21.5881 32.2053C21.6645 32.2587 21.7456 32.3058 21.8309 32.3473C21.9271 32.3939 22.0297 32.4415 22.1352 32.4896C22.1644 32.5028 22.1822 32.5033 22.2146 32.4858C22.3364 32.4198 22.4616 32.368 22.5889 32.3333C22.6433 32.3185 22.6812 32.2947 22.7101 32.2592C22.7857 32.1661 22.8704 32.075 22.9663 31.9891C23.0141 31.9463 23.0434 31.899 23.0573 31.8428C23.0774 31.7609 23.0841 31.6819 23.0775 31.6049C23.0713 31.5343 23.0492 31.4665 23.0141 31.4025C22.9523 31.2898 22.905 31.1676 22.8714 31.0375C22.7383 31.0313 22.6085 31.0105 22.4842 30.9707C22.4127 30.9479 22.3417 30.9411 22.2688 30.9496C22.1736 30.9607 22.0685 30.9671 21.978 30.9521C21.9732 30.9538 21.9668 30.9559 21.9587 30.9592Z" fill="#F7F8F9" style="fill:#F7F8F9;fill:color(display-p3 0.9686 0.9725 0.9765);fill-opacity:1;"/>
<path d="M20.9645 8.93915C20.9831 8.93667 21.0088 8.9338 21.0378 8.93613L21.1355 8.95964L21.2692 9.01873L21.2744 9.06015C21.3036 9.096 21.3292 9.13581 21.3365 9.18479C21.358 9.33073 21.2559 9.46735 21.11 9.48888L21.0705 9.49387L20.9756 9.50818C20.8239 9.60239 20.6533 9.64072 20.4759 9.61729C20.3777 9.60438 20.2821 9.59935 20.1884 9.60529C20.0972 9.61115 20.006 9.62746 19.9168 9.65441C19.7932 9.69185 19.6667 9.72019 19.5397 9.73555C19.4131 9.75084 19.2851 9.75504 19.1564 9.74851C19.0665 9.74396 18.9779 9.752 18.892 9.77139C18.7942 9.79351 18.6968 9.8212 18.6 9.85659C18.4532 9.91033 18.2995 9.92895 18.1441 9.91185C18.0766 9.90436 17.9584 9.91392 17.7777 9.96046L17.7615 9.96446L17.7074 9.97129C17.5613 9.99043 17.4266 9.88799 17.4072 9.74192C17.3881 9.5959 17.4907 9.46133 17.6366 9.44175L17.6738 9.43705C17.8672 9.38922 18.0466 9.3641 18.2009 9.38099C18.2746 9.38916 18.3459 9.38103 18.4148 9.35592C18.5334 9.3125 18.6544 9.27692 18.7758 9.24953C18.9096 9.21935 19.0458 9.20778 19.1836 9.21477C19.2825 9.21977 19.381 9.21659 19.477 9.20499C19.5725 9.19338 19.6679 9.17215 19.7618 9.14368C19.8897 9.105 20.0202 9.08181 20.1527 9.07326C20.2829 9.06491 20.4159 9.06902 20.5479 9.08646C20.6003 9.09315 20.645 9.08305 20.693 9.05333C20.7488 9.01857 20.8079 8.98809 20.8628 8.96681C20.8902 8.95624 20.9251 8.9445 20.9645 8.93915Z" fill="#F7F8F9" style="fill:#F7F8F9;fill:color(display-p3 0.9686 0.9725 0.9765);fill-opacity:1;"/>
</svg>
