<svg width="42" height="42" viewBox="0 0 42 42" fill="none" xmlns="http://www.w3.org/2000/svg">
<circle cx="21" cy="21" r="20.3438" fill="#F7F8F9" stroke="#EEEFF1" style="fill:#F7F8F9;fill:color(display-p3 0.9686 0.9725 0.9765);fill-opacity:1;stroke:#EEEFF1;stroke:color(display-p3 0.9333 0.9373 0.9451);stroke-opacity:1;" stroke-width="1.3125"/>
<path d="M9.31317 28.4382L12.7429 10.812C13.1765 8.58359 13.3933 7.46937 14.2127 6.87914C15.0321 6.28891 16.1576 6.43616 18.4086 6.73066L26.5234 7.79231C28.7248 8.08033 29.8256 8.22433 30.4635 8.98409C31.1014 9.74386 31.0527 10.8529 30.9554 13.0709L30.9554 13.0709L30.1618 31.1551C30.0984 32.6002 30.0667 33.3227 29.771 33.851C29.4671 34.394 28.9751 34.8071 28.3877 35.0124C27.8162 35.2122 27.0991 35.1184 25.6649 34.9308C24.4514 34.772 23.8447 34.6926 23.3864 34.4151C22.9146 34.1295 22.5482 33.6985 22.3421 33.1869C22.142 32.69 22.1612 32.0784 22.1997 30.8553L22.1997 30.8552L22.5547 19.5652C22.5794 18.7785 22.0036 18.1013 21.2232 17.9992C20.4285 17.8952 19.6881 18.4218 19.5256 19.2067L17.2825 30.0386C17.0144 31.3334 16.8804 31.9808 16.5319 32.4401C16.2178 32.8542 15.7845 33.1624 15.2902 33.3233C14.742 33.5017 14.0865 33.416 12.7754 33.2444C11.2925 33.0504 10.5511 32.9534 10.0358 32.5892C9.57209 32.2613 9.23111 31.788 9.06701 31.2443C8.8847 30.6402 9.02752 29.9062 9.31317 28.4382Z" fill="#D2D3D9" style="fill:#D2D3D9;fill:color(display-p3 0.8235 0.8275 0.8510);fill-opacity:1;"/>
<path d="M24.0562 6.85913C24.6282 6.91955 25.1954 7.02006 25.7562 7.16197C26.2788 7.29418 26.8049 7.40111 27.3325 7.48475C27.8915 7.57336 28.4408 7.68819 28.9787 7.82857C29.5797 7.98549 30.102 8.27331 30.537 8.69109C30.9896 9.12593 31.2678 9.67116 31.3741 10.3071C31.469 10.8772 31.5045 11.4561 31.4806 12.0401C31.4578 12.5943 31.4315 13.1505 31.3954 13.7042C31.3597 14.2534 31.3232 14.8038 31.2881 15.353C31.2538 15.8898 31.2385 16.4275 31.242 16.9659C31.2457 17.5254 31.2346 18.0865 31.2111 18.6449C31.1883 19.1901 31.1736 19.7362 31.1656 20.2821C31.1571 20.8572 31.1056 21.4303 31.0129 22.0013C30.9294 22.5151 30.8982 23.0337 30.9184 23.5517C30.9407 24.1255 30.9245 24.698 30.8707 25.2686C30.8219 25.7854 30.8234 26.3055 30.8715 26.8274C30.9252 27.409 30.9264 27.9898 30.881 28.5678C30.838 29.1148 30.7983 29.6638 30.7625 30.2111C30.7263 30.763 30.685 31.3147 30.6383 31.8659C30.5884 32.4548 30.4717 33.0281 30.2857 33.5795C30.0785 34.1929 29.7054 34.6993 29.1768 35.085C28.6199 35.4911 27.9815 35.6387 27.2995 35.5263C26.7564 35.4369 26.2153 35.3543 25.6764 35.282C25.1332 35.2091 24.5857 35.1406 24.0369 35.0716C23.3568 34.9858 22.7847 34.6674 22.3394 34.1383C21.8886 33.6026 21.686 32.9725 21.7433 32.2768C21.786 31.7567 21.7677 31.2404 21.6887 30.7274C21.595 30.1203 21.5984 29.5119 21.7016 28.9095C21.7911 28.3868 21.8421 27.863 21.855 27.3385C21.8682 26.801 21.8612 26.2598 21.8336 25.7209C21.8041 25.1457 21.8148 24.571 21.8665 23.9983C21.9159 23.4506 21.9641 22.9015 22.009 22.3536C22.051 21.8394 22.0425 21.322 21.9791 20.8034C21.9129 20.2613 21.8315 19.7404 21.7374 19.2411C21.7045 19.0665 21.6401 18.9602 21.5704 18.8901C21.5 18.8193 21.3884 18.7525 21.204 18.7137C21.0178 18.6748 20.8876 18.6888 20.7931 18.724C20.7002 18.7586 20.6018 18.8294 20.504 18.9673C20.2413 19.3374 20.0245 19.7624 19.8587 20.2449C19.6866 20.746 19.5521 21.2545 19.4544 21.7703C19.3507 22.3179 19.2366 22.8657 19.1115 23.4089C18.9869 23.9502 18.8527 24.4897 18.711 25.0275C18.5812 25.52 18.5124 26.0271 18.504 26.5468C18.4941 27.1637 18.3836 27.7625 18.1731 28.3391C17.9939 28.8301 17.8645 29.332 17.7875 29.8432C17.6997 30.4265 17.5473 30.9879 17.3305 31.5267C17.1107 32.0729 16.819 32.5794 16.4534 33.0428C16.0068 33.6083 15.3876 33.865 14.6672 33.7973C14.1198 33.7459 13.5728 33.7011 13.0295 33.6676C12.4651 33.6328 11.903 33.5738 11.3458 33.4876C10.7232 33.391 10.1572 33.1545 9.65489 32.78C9.10592 32.3704 8.78642 31.8104 8.7255 31.1322C8.67504 30.5698 8.67655 30.0007 8.73206 29.4259C8.78717 28.8557 8.88558 28.2884 9.02631 27.7289C9.15132 27.2314 9.22083 26.722 9.23393 26.2015C9.24929 25.5951 9.35211 25.0041 9.53794 24.4299C9.70378 23.9174 9.84485 23.3999 9.96212 22.8783C10.0791 22.358 10.1694 21.8301 10.2327 21.2993C10.2995 20.739 10.386 20.1822 10.4954 19.6301C10.605 19.0774 10.7361 18.5269 10.8879 17.9825C11.0306 17.4702 11.1441 16.952 11.2238 16.4276C11.3051 15.8931 11.3685 15.3552 11.4189 14.8145C11.4734 14.229 11.5908 13.6544 11.7644 13.0922C11.9203 12.5879 12.0357 12.0741 12.1141 11.5551C12.1546 11.2866 12.1839 11.0831 12.1982 10.9435C12.2047 10.8801 12.2078 10.834 12.2089 10.805C12.2003 10.7558 12.1992 10.7147 12.1988 10.6945C12.198 10.656 12.1984 10.6185 12.201 10.5864C12.2064 10.5214 12.2166 10.4459 12.2299 10.3653C12.2571 10.2016 12.3035 9.98007 12.364 9.7078C12.487 9.15411 12.6373 8.60358 12.8132 8.05569C13.0192 7.41407 13.406 6.89429 13.9633 6.51087C14.5121 6.13348 15.1241 5.93951 15.7857 5.93796C16.3682 5.93674 16.9461 5.97849 17.5166 6.06388C18.0706 6.14686 18.6231 6.24807 19.1726 6.36097C19.7012 6.46958 20.2353 6.55716 20.7688 6.62602C21.2967 6.69409 21.8285 6.73289 22.3638 6.74605C22.9309 6.75999 23.4949 6.79984 24.0562 6.85913ZM23.9483 7.86932C23.4149 7.81301 22.8783 7.78038 22.339 7.76712C21.768 7.75308 21.2002 7.70987 20.6365 7.63713C20.0783 7.56508 19.5227 7.47232 18.9699 7.35875C18.4384 7.24956 17.9039 7.15314 17.3682 7.07288C16.8486 6.99506 16.3206 6.95741 15.7884 6.95853C15.335 6.95952 14.9224 7.08708 14.5405 7.3497C14.1673 7.60645 13.9209 7.94241 13.7844 8.36743C13.6179 8.88615 13.4754 9.40751 13.3592 9.93034C13.3002 10.196 13.2586 10.3968 13.236 10.5331L13.2184 10.6674L13.2273 10.7248C13.2294 10.7597 13.2271 10.7942 13.2262 10.8248C13.2243 10.8878 13.2176 10.9632 13.2094 11.0438C13.1927 11.2075 13.1641 11.432 13.1226 11.7071C13.0366 12.2769 12.9085 12.8394 12.7376 13.3923C12.5847 13.8872 12.4828 14.3919 12.4348 14.9072C12.3826 15.4673 12.3165 16.0256 12.2324 16.5797C12.1465 17.1445 12.026 17.7043 11.8723 18.2558C11.7276 18.7749 11.6027 19.2989 11.4982 19.8258C11.3938 20.3525 11.3092 20.8847 11.2454 21.4195C11.178 21.9849 11.0819 22.5468 10.9573 23.1013C10.833 23.6539 10.6805 24.2028 10.505 24.7452C10.35 25.2248 10.2679 25.7185 10.2549 26.2268C10.24 26.8219 10.1616 27.4076 10.0179 27.9793C9.88956 28.4893 9.79759 29.0039 9.74741 29.5226C9.6978 30.0361 9.69714 30.5426 9.74174 31.0403C9.77615 31.4232 9.9415 31.7239 10.2635 31.9642C10.6309 32.2381 11.0419 32.4082 11.5015 32.4795C12.0282 32.561 12.5601 32.6189 13.0939 32.6517C13.6486 32.6859 14.2053 32.7295 14.7639 32.782C15.1502 32.8183 15.4258 32.6982 15.652 32.4119C15.9579 32.0243 16.2004 31.602 16.3839 31.146C16.5706 30.6821 16.7027 30.1977 16.779 29.6912C16.8662 29.1118 17.0123 28.5433 17.2147 27.9888C17.3858 27.52 17.4739 27.0334 17.482 26.5296C17.4917 25.9296 17.5736 25.3425 17.7245 24.7696C17.8637 24.2417 17.9951 23.7097 18.1174 23.1783C18.2393 22.6487 18.3494 22.1166 18.4505 21.5828C18.5574 21.0179 18.7057 20.4609 18.8938 19.9135C19.0884 19.347 19.3491 18.8337 19.6734 18.3768C19.8692 18.1012 20.1216 17.8869 20.4358 17.7695C20.7482 17.6529 21.0813 17.6469 21.4148 17.717C21.7514 17.7879 22.0571 17.9298 22.2954 18.1695C22.5342 18.4098 22.6751 18.7143 22.7386 19.0507C22.8371 19.5737 22.9181 20.1189 22.9869 20.6821C23.0585 21.2687 23.0741 21.8548 23.0263 22.4387C22.9812 22.9894 22.932 23.5405 22.8823 24.091C22.835 24.6159 22.8256 25.1421 22.8527 25.6695C22.8817 26.2341 22.8898 26.8004 22.876 27.3638C22.8619 27.9385 22.805 28.5135 22.7071 29.085C22.6229 29.5775 22.6207 30.0716 22.6975 30.5701C22.7889 31.1631 22.8099 31.7619 22.7606 32.3619C22.7258 32.7866 22.8411 33.1497 23.1201 33.4813C23.4045 33.8191 23.7453 34.0072 24.1652 34.06C24.7168 34.1293 25.2666 34.1981 25.8127 34.2714C26.3622 34.3452 26.9139 34.4287 27.4673 34.5199C27.8817 34.5881 28.2396 34.5027 28.5737 34.2592C28.9362 33.9946 29.182 33.6618 29.3202 33.2521C29.4794 32.7801 29.5819 32.2903 29.625 31.7818C29.6712 31.2362 29.7114 30.6889 29.7471 30.1427C29.7832 29.5912 29.8239 29.0384 29.8672 28.4873C29.908 27.9682 29.9031 27.4467 29.8548 26.9229C29.8008 26.3384 29.8001 25.7524 29.8549 25.1719C29.9044 24.6463 29.9179 24.1192 29.8972 23.5904C29.8744 23.0043 29.9116 22.4182 30.0059 21.8376C30.0907 21.3153 30.1399 20.7902 30.1476 20.265C30.1558 19.7102 30.1694 19.1544 30.1927 18.6003C30.2154 18.0589 30.2244 17.5157 30.2209 16.9731C30.2172 16.4107 30.2327 15.8489 30.2685 15.2882C30.3037 14.739 30.3398 14.1881 30.3756 13.6389C30.4111 13.0933 30.4392 12.5451 30.4616 11.9992C30.4827 11.484 30.4511 10.9769 30.3678 10.4767C30.2954 10.0423 30.1148 9.69987 29.8301 9.42636C29.5278 9.13604 29.1629 8.93042 28.7212 8.81509C28.2161 8.68327 27.6996 8.57578 27.1728 8.49227C26.6145 8.40377 26.0586 8.28921 25.5064 8.14949C24.9922 8.0194 24.4718 7.92462 23.9483 7.86932Z" fill="#D2D3D9" style="fill:#D2D3D9;fill:color(display-p3 0.8235 0.8275 0.8510);fill-opacity:1;"/>
<path d="M21.9405 11.084C22.0909 11.1037 22.1935 11.2381 22.1798 11.3878C22.2379 11.6114 22.2453 11.8516 22.0982 12.0464L22.0506 12.4104C22.0367 12.5163 21.9641 12.5969 21.8709 12.6327L21.8378 12.6661L21.7026 12.6484C21.5699 12.6309 21.501 12.537 21.4754 12.4878C21.4506 12.4399 21.4418 12.3935 21.4381 12.3676C21.4302 12.312 21.4329 12.2492 21.4364 12.1925C21.4477 12.0097 21.533 11.848 21.6501 11.7108C21.6519 11.7086 21.6579 11.6983 21.6599 11.6698C21.6624 11.6341 21.6582 11.5746 21.6309 11.4867L21.6118 11.4288L21.6253 11.3263C21.6454 11.1723 21.7865 11.0638 21.9405 11.084Z" fill="#F7F8F9" style="fill:#F7F8F9;fill:color(display-p3 0.9686 0.9725 0.9765);fill-opacity:1;"/>
<path d="M21.6189 13.5512C21.7729 13.5713 21.8814 13.7124 21.8612 13.8665L21.8558 13.908C21.8526 14.0571 21.8376 14.1982 21.8014 14.324L21.7289 14.8776C21.7122 15.0053 21.6114 15.0967 21.4899 15.1143L21.4726 15.1276L21.3657 15.1136C21.27 15.1007 21.1955 15.0462 21.1506 14.9792C21.1124 14.9222 21.0997 14.8645 21.095 14.8299C21.0857 14.7607 21.0959 14.6878 21.1056 14.6298C21.128 14.4951 21.1745 14.3603 21.2402 14.2284C21.2678 14.1723 21.2941 14.0613 21.2957 13.87L21.2959 13.8524L21.3036 13.7935C21.3238 13.6395 21.4649 13.531 21.6189 13.5512Z" fill="#F7F8F9" style="fill:#F7F8F9;fill:color(display-p3 0.9686 0.9725 0.9765);fill-opacity:1;"/>
<path d="M17.1226 8.03477C17.2766 8.05492 17.385 8.19602 17.3649 8.35004L17.3643 8.35448C17.3969 8.50703 17.4108 8.6684 17.353 8.81387L17.3508 8.81562C17.3557 8.82683 17.364 8.83834 17.3683 8.85115C17.3787 8.88331 17.396 8.95648 17.3695 9.04215C17.3358 9.14989 17.2528 9.21373 17.1756 9.23838C17.1126 9.25839 17.0558 9.25348 17.028 9.24985L16.9449 9.23898L16.9393 9.23168C16.7996 9.19974 16.7035 9.07121 16.7223 8.92629L16.8073 8.27709C16.8274 8.12307 16.9685 8.01462 17.1226 8.03477Z" fill="#F7F8F9" style="fill:#F7F8F9;fill:color(display-p3 0.9686 0.9725 0.9765);fill-opacity:1;"/>
<path d="M26.6942 8.98417C26.8482 9.00432 26.9567 9.14543 26.9365 9.29945L26.9311 9.34101C26.9245 9.54358 26.9114 9.71584 26.8848 9.84875C26.8755 9.89467 26.8604 9.9392 26.847 9.98375L26.8011 10.3344C26.7828 10.4748 26.6637 10.5715 26.5261 10.5733L26.5141 10.5804L26.427 10.569C26.3432 10.558 26.245 10.5103 26.1915 10.4052C26.1485 10.3208 26.1568 10.2396 26.1627 10.202C26.1747 10.1245 26.2109 10.0492 26.2409 9.99309C26.2844 9.91181 26.3141 9.82536 26.3319 9.73661C26.3505 9.64361 26.3661 9.49973 26.3718 9.29657L26.3718 9.28097L26.3789 9.2265C26.3991 9.07248 26.5402 8.96402 26.6942 8.98417Z" fill="#F7F8F9" style="fill:#F7F8F9;fill:color(display-p3 0.9686 0.9725 0.9765);fill-opacity:1;"/>
<path d="M16.4944 10.9672L16.6317 11.0032L16.6481 11.0472C16.7435 11.1353 16.7714 11.2771 16.7025 11.3933L16.6823 11.4284L16.5804 11.5989C16.5672 11.6547 16.5526 11.7119 16.5399 11.7709C16.4992 11.9591 16.3922 12.1134 16.239 12.2261C16.1874 12.2641 16.1589 12.3065 16.146 12.36C16.1088 12.5135 16.0452 12.655 15.9535 12.7801C15.8826 12.8768 15.809 12.9733 15.732 13.0683C15.6684 13.1467 15.6096 13.2325 15.5589 13.3247C15.4874 13.4547 15.3984 13.5728 15.2934 13.6758C15.199 13.7682 15.0987 13.8546 14.9918 13.933C14.8665 14.0249 14.7266 14.0902 14.5763 14.129C14.4765 14.1547 14.38 14.1894 14.288 14.2312C14.1645 14.2872 14.0344 14.3316 13.9004 14.3643C13.7321 14.4051 13.5425 14.3739 13.3475 14.3207C13.2222 14.3414 13.0948 14.2813 13.0433 14.159C12.9837 14.0163 13.0508 13.8513 13.1932 13.7909L13.2329 13.7759L13.3269 13.7353L13.4271 13.7661C13.6227 13.8275 13.7263 13.8273 13.768 13.8172C13.8691 13.7925 13.9651 13.7587 14.056 13.7174C14.1783 13.6619 14.306 13.6172 14.4371 13.5834C14.5175 13.5626 14.5912 13.529 14.6588 13.4795C14.7445 13.4166 14.8254 13.3477 14.9007 13.2739C14.9656 13.2103 15.0214 13.137 15.0669 13.0544C15.1334 12.9334 15.2099 12.8193 15.2953 12.7141C15.3667 12.6261 15.4354 12.5375 15.5008 12.4484C15.5456 12.3871 15.5799 12.3133 15.6008 12.2267C15.646 12.0399 15.7517 11.886 15.906 11.7725C15.9587 11.7336 15.9792 11.6942 15.9882 11.6524C16.0138 11.5342 16.0425 11.421 16.0704 11.3131C16.0853 11.2555 16.105 11.1891 16.1358 11.1333C16.1505 11.1066 16.1785 11.0597 16.228 11.021C16.2866 10.9755 16.3833 10.9373 16.4944 10.9672Z" fill="#F7F8F9" style="fill:#F7F8F9;fill:color(display-p3 0.9686 0.9725 0.9765);fill-opacity:1;"/>
<path d="M27.1377 12.2094L26.9958 12.2089L26.9686 12.2472C26.8537 12.3078 26.7902 12.4377 26.827 12.5676L26.8374 12.6068L26.8921 12.7978C26.8905 12.8551 26.8899 12.9141 26.887 12.9744C26.8779 13.1667 26.9416 13.3434 27.0606 13.4916C27.1008 13.5416 27.1174 13.5899 27.1161 13.645C27.1125 13.8029 27.1376 13.956 27.194 14.1004C27.2376 14.2122 27.2839 14.3244 27.3339 14.436C27.3752 14.528 27.41 14.6261 27.4352 14.7283C27.4709 14.8723 27.5265 15.0093 27.6015 15.1358C27.6689 15.2494 27.7436 15.3586 27.8268 15.462C27.9242 15.583 28.0426 15.6821 28.1779 15.7582C28.2677 15.8088 28.352 15.8671 28.4302 15.9312C28.5351 16.0171 28.6494 16.0935 28.7705 16.1596C28.9226 16.2422 29.1139 16.2609 29.3159 16.2596C29.4317 16.3118 29.5703 16.2865 29.6516 16.1817C29.7459 16.0591 29.7235 15.8823 29.6014 15.7873L29.5668 15.7627L29.4865 15.6992L29.3817 15.7032C29.1769 15.7122 29.0768 15.6854 29.0392 15.6649C28.9478 15.615 28.8637 15.5576 28.7865 15.4944C28.6826 15.4093 28.5707 15.3332 28.4527 15.2668C28.3803 15.2261 28.3178 15.1746 28.2652 15.1094C28.1986 15.0265 28.1382 14.9392 28.0843 14.8485C28.038 14.7704 28.0029 14.6852 27.9802 14.5936C27.9471 14.4596 27.9025 14.3297 27.847 14.206C27.8007 14.1026 27.7571 13.9993 27.7168 13.8963C27.6892 13.8256 27.6752 13.7455 27.6772 13.6564C27.6816 13.4642 27.619 13.2884 27.4991 13.139C27.4582 13.0879 27.4485 13.0445 27.4506 13.0018C27.4563 12.881 27.4577 12.7643 27.4585 12.6527C27.4589 12.5932 27.4569 12.524 27.4416 12.4621C27.4342 12.4326 27.4192 12.3801 27.3813 12.3299C27.3364 12.2709 27.2527 12.2091 27.1377 12.2094Z" fill="#F7F8F9" style="fill:#F7F8F9;fill:color(display-p3 0.9686 0.9725 0.9765);fill-opacity:1;"/>
<path d="M22.0364 8.28908C22.1057 8.23273 22.1404 8.20455 22.1818 8.20226C22.2231 8.19996 22.2607 8.22414 22.3358 8.27248L22.4794 8.36494C22.4994 8.37781 22.5094 8.38425 22.518 8.39237C22.5266 8.40048 22.5336 8.4101 22.5477 8.42932L22.8609 8.85926C22.92 8.94041 22.9495 8.98098 22.9469 9.02662C22.9442 9.07226 22.9102 9.10914 22.8421 9.18291L22.5331 9.51756C22.5257 9.5256 22.522 9.52961 22.5179 9.5333C22.5139 9.53698 22.5096 9.54031 22.5009 9.54696L22.2965 9.70373C22.2158 9.76558 22.1755 9.79651 22.1294 9.79467C22.0832 9.79284 22.0455 9.75881 21.97 9.69076L21.7058 9.45257C21.6979 9.44545 21.694 9.44189 21.6903 9.43802C21.6867 9.43415 21.6834 9.42998 21.6768 9.42165L21.4557 9.14302C21.3925 9.06341 21.3609 9.02361 21.362 8.97744C21.3631 8.93127 21.3965 8.89298 21.4633 8.81638L21.6326 8.62224C21.6398 8.614 21.6433 8.60988 21.6473 8.60609C21.6512 8.60229 21.6554 8.59884 21.6639 8.59194L22.0364 8.28908Z" fill="#F7F8F9" style="fill:#F7F8F9;fill:color(display-p3 0.9686 0.9725 0.9765);fill-opacity:1;"/>
<path d="M22.8504 8.41115C22.9836 8.55274 23.0818 8.7273 23.0843 8.93006C23.0865 9.13389 22.992 9.30965 22.8597 9.45182C22.6081 9.72214 22.2927 9.86235 21.9367 9.78493C21.7691 9.74842 21.6187 9.66807 21.5046 9.53643C21.3927 9.40707 21.3328 9.24684 21.3075 9.07625C21.2808 8.89452 21.3019 8.71252 21.3926 8.55039C21.4822 8.39055 21.6252 8.27608 21.791 8.19473C21.9202 8.13136 22.0209 8.08244 22.0923 8.0502C22.1274 8.03437 22.1608 8.01938 22.1869 8.00942C22.199 8.00481 22.2169 7.99895 22.2354 7.99396C22.2444 7.99156 22.2628 7.98694 22.2841 7.98455C22.2949 7.98317 22.3668 7.97527 22.4432 8.01317L22.498 8.04886C22.5046 8.05424 22.5105 8.05983 22.5145 8.06348C22.5229 8.07113 22.5334 8.08077 22.5419 8.0891C22.5592 8.1062 22.5822 8.12986 22.6097 8.15831C22.6656 8.21608 22.7466 8.30091 22.8504 8.41115ZM22.0377 8.69821C21.9456 8.74339 21.9032 8.78974 21.8831 8.82549C21.8642 8.85938 21.8514 8.91084 21.8637 8.99443C21.8775 9.08763 21.905 9.13872 21.9296 9.16751C21.9526 9.19405 21.9893 9.22046 22.0568 9.23512C22.1709 9.25989 22.2941 9.23169 22.4472 9.0672C22.5165 8.99255 22.5232 8.95032 22.523 8.93572C22.5228 8.91963 22.5138 8.87446 22.4402 8.79638C22.3625 8.71396 22.3001 8.64615 22.2508 8.59466C22.1944 8.62121 22.1236 8.65604 22.0377 8.69821Z" fill="#F7F8F9" style="fill:#F7F8F9;fill:color(display-p3 0.9686 0.9725 0.9765);fill-opacity:1;"/>
<path d="M21.1762 15.9902C21.3303 16.0103 21.4387 16.1515 21.4186 16.3055L21.4174 16.3144C21.4483 16.5517 21.421 16.7934 21.2596 16.9782C21.2476 16.9919 21.2386 17.0063 21.23 17.0187L21.3268 17.0071L21.2735 17.4146C21.253 17.5683 21.112 17.6771 20.9582 17.657C20.9351 17.6539 20.9156 17.6412 20.8948 17.6331L20.8742 17.6369L20.7851 17.5744C20.6782 17.4992 20.6462 17.3842 20.6352 17.3311C20.6216 17.2659 20.6206 17.1942 20.6223 17.1255C20.627 16.9287 20.708 16.7543 20.836 16.608C20.8502 16.5918 20.8849 16.5318 20.8559 16.3558L20.8501 16.3152L20.861 16.2325C20.8811 16.0785 21.0222 15.97 21.1762 15.9902Z" fill="#F7F8F9" style="fill:#F7F8F9;fill:color(display-p3 0.9686 0.9725 0.9765);fill-opacity:1;"/>
</svg>
