<svg width="36" height="36" viewBox="0 0 36 36" fill="none" xmlns="http://www.w3.org/2000/svg">
<path d="M0 18C0 8.05887 8.05887 0 18 0V0C27.9411 0 36 8.05887 36 18V18C36 27.9411 27.9411 36 18 36V36C8.05887 36 0 27.9411 0 18V18Z" fill="black"/>
<path d="M26.6437 23.5861C26.3385 24.2848 25.9772 24.928 25.5586 25.5193C24.9881 26.3255 24.5209 26.8835 24.1609 27.1934C23.6027 27.702 23.0048 27.9625 22.3644 27.9773C21.9047 27.9773 21.3504 27.8477 20.705 27.5847C20.0576 27.323 19.4626 27.1934 18.9186 27.1934C18.348 27.1934 17.7361 27.323 17.0815 27.5847C16.426 27.8477 15.8979 27.9847 15.4942 27.9983C14.8801 28.0242 14.2681 27.7563 13.6571 27.1934C13.2672 26.8563 12.7795 26.2786 12.1952 25.4601C11.5683 24.586 11.0529 23.5725 10.6492 22.417C10.2168 21.1689 10 19.9603 10 18.7902C10 17.4498 10.2923 16.2938 10.8777 15.3251C11.3377 14.547 11.9498 13.9332 12.7158 13.4826C13.4818 13.0319 14.3095 12.8023 15.2009 12.7876C15.6886 12.7876 16.3282 12.9371 17.123 13.231C17.9156 13.5258 18.4245 13.6753 18.6476 13.6753C18.8144 13.6753 19.3798 13.5005 20.3382 13.1519C21.2445 12.8287 22.0094 12.6949 22.636 12.7476C24.334 12.8834 25.6097 13.5467 26.4581 14.7418C24.9395 15.6536 24.1883 16.9307 24.2032 18.5691C24.2169 19.8452 24.6841 20.9071 25.6022 21.7503C26.0183 22.1417 26.483 22.4441 27 22.6589C26.8879 22.9812 26.7695 23.2898 26.6437 23.5861V23.5861ZM22.7494 8.40011C22.7494 9.40034 22.3806 10.3343 21.6456 11.1987C20.7586 12.2263 19.6857 12.8201 18.5223 12.7264C18.5075 12.6064 18.4989 12.4801 18.4989 12.3474C18.4989 11.3872 18.9207 10.3596 19.6698 9.51934C20.0438 9.09392 20.5194 8.74019 21.0962 8.45801C21.6718 8.18005 22.2162 8.02632 22.7282 8C22.7432 8.13371 22.7494 8.26744 22.7494 8.4001V8.40011Z" fill="white"/>
</svg>
