<svg width="140" height="140" viewBox="0 0 140 140" fill="none" xmlns="http://www.w3.org/2000/svg">
<path d="M108.631 108.308C110.602 106.46 111.588 105.536 112.109 104.333C112.631 103.129 112.631 101.778 112.631 99.0759V37.6552C112.631 31.6899 112.631 28.7067 110.778 26.8534C108.925 25.0002 105.942 24.9999 99.9766 24.9999H48.6543C42.6888 24.9999 39.7058 25.0002 37.8525 26.8534C35.9994 28.7067 36 31.6898 36 37.6552V109.412C36 115.377 35.9993 118.361 37.8525 120.214C39.7058 122.067 42.6888 122.067 48.6543 122.067H88.95C91.4217 122.067 92.6576 122.067 93.7788 121.624C94.8999 121.181 95.8016 120.335 97.6049 118.645L108.631 108.308Z" fill="#EEEFF1"/>
<path d="M112.703 97.3882L111.662 97.344L112.703 97.3882ZM112.578 90.6374L111.541 90.5341L112.578 90.6374ZM112.816 87.262L111.775 87.219L112.816 87.262ZM112.751 83.8867L113.789 83.8038L112.751 83.8867ZM112.551 70.3851L111.516 70.5106L112.551 70.3851ZM112.63 67.0097L113.657 67.1829L112.63 67.0097ZM112.705 50.1327L111.663 50.0983L112.705 50.1327ZM112.669 43.3819L111.644 43.568L112.669 43.3819ZM112.095 29.9829L113.069 29.6121L112.095 29.9829ZM110.555 27.0112L111.42 26.4301L110.555 27.0112ZM107.911 25.2966L108.099 24.272L107.911 25.2966ZM101.135 24.8837L101.114 25.9253L101.135 24.8837ZM91.0074 24.9507L91.0155 23.9089L91.0074 24.9507ZM84.2566 25.0693L84.4154 24.0397L84.2566 25.0693ZM80.8812 24.8939L80.8289 23.8534L80.8812 24.8939ZM77.5058 25.0776L77.4449 24.0376L77.5058 25.0776ZM67.3796 25.108L67.236 24.0761L67.3796 25.108ZM50.5027 24.6754L50.4989 23.6336L50.5027 24.6754ZM36.5181 30.3027L37.5463 30.4704L36.5181 30.3027ZM36.0297 37.0011L34.9977 36.8584L36.0297 37.0011ZM35.9786 91.0075L34.9426 90.8978L35.9786 91.0075ZM38.7317 120.408L38.0212 121.17L38.7317 120.408ZM41.5781 121.879L41.8032 120.862V120.862L41.5781 121.879ZM82.075 122.09L81.8784 121.067L82.075 122.09ZM85.4504 121.781L85.4597 120.739V120.739L85.4504 121.781ZM88.8262 121.938L88.7393 122.976L88.8262 121.938ZM92.2233 121.957L92.1489 120.917L92.2233 121.957ZM97.9678 118.671L98.6705 119.44L97.9678 118.671ZM102.6 113.74L101.936 112.937L102.6 113.74ZM105.09 111.46L104.348 110.728L105.09 111.46ZM107.571 109.171L106.901 108.372L107.571 109.171ZM110.024 106.862L109.267 106.146L110.024 106.862ZM112.572 100.965L113.603 100.813L112.572 100.965ZM112.703 97.3882L111.662 97.344C111.707 96.2712 111.672 95.1983 111.556 94.1247L112.592 94.0128L113.628 93.901C113.755 95.0777 113.793 96.255 113.743 97.4325L112.703 97.3882ZM112.592 94.0128L111.556 94.1247C111.427 92.9281 111.422 91.7309 111.541 90.5341L112.578 90.6374L113.615 90.7407C113.51 91.7942 113.514 92.8473 113.628 93.901L112.592 94.0128ZM112.578 90.6374L111.541 90.5341C111.651 89.429 111.729 88.3239 111.775 87.219L112.816 87.262L113.857 87.3051C113.809 88.4504 113.729 89.5956 113.615 90.7407L112.578 90.6374ZM112.816 87.262L111.775 87.219C111.82 86.1359 111.799 85.0529 111.713 83.9695L112.751 83.8867L113.789 83.8038C113.883 84.9707 113.905 86.1379 113.857 87.3051L112.816 87.262ZM112.751 83.8867L111.713 83.9695C111.621 82.8181 111.573 81.6666 111.569 80.515L112.61 80.5113L113.652 80.5076C113.656 81.6062 113.702 82.7049 113.789 83.8038L112.751 83.8867ZM112.61 80.5113L111.569 80.515C111.564 79.363 111.605 78.2111 111.69 77.0593L112.729 77.1359L113.768 77.2124C113.687 78.3109 113.648 79.4093 113.652 80.5076L112.61 80.5113ZM112.729 77.1359L111.69 77.0593C111.77 75.9696 111.794 74.8801 111.763 73.7906L112.804 73.7605L113.846 73.7304C113.879 74.8911 113.853 76.0519 113.768 77.2124L112.729 77.1359ZM112.804 73.7605L111.763 73.7906C111.731 72.6976 111.649 71.6043 111.516 70.5106L112.551 70.3851L113.585 70.2595C113.725 71.4161 113.812 72.5731 113.846 73.7304L112.804 73.7605ZM112.551 70.3851L111.516 70.5106C111.368 69.2854 111.397 68.0597 111.603 66.8365L112.63 67.0097L113.657 67.1829C113.484 68.21 113.46 69.2345 113.585 70.2595L112.551 70.3851ZM112.63 67.0097L111.603 66.8365C111.78 65.7863 111.84 64.7382 111.783 63.6908L112.823 63.6343L113.863 63.5778C113.929 64.7807 113.86 65.9829 113.657 67.1829L112.63 67.0097ZM112.823 63.6343L111.783 63.6908C111.719 62.5236 111.727 61.3563 111.805 60.1892L112.845 60.2589L113.884 60.3287C113.811 61.4118 113.804 62.4948 113.863 63.5778L112.823 63.6343ZM112.845 60.2589L111.805 60.1892C111.876 59.1308 111.845 58.0724 111.713 57.013L112.747 56.8835L113.78 56.7541C113.929 57.9449 113.964 59.1367 113.884 60.3287L112.845 60.2589ZM112.747 56.8835L111.713 57.013C111.565 55.8337 111.511 54.6535 111.551 53.4731L112.592 53.5081L113.633 53.5432C113.597 54.613 113.646 55.6831 113.78 56.7541L112.747 56.8835ZM112.592 53.5081L111.551 53.4731C111.589 52.3482 111.626 51.2232 111.663 50.0983L112.705 50.1327L113.746 50.1672C113.709 51.2925 113.671 52.4178 113.633 53.5432L112.592 53.5081ZM112.705 50.1327L111.663 50.0983C111.701 48.9625 111.756 47.8268 111.828 46.6911L112.868 46.7573L113.908 46.8236C113.837 47.9381 113.783 49.0527 113.746 50.1672L112.705 50.1327ZM112.868 46.7573L111.828 46.6911C111.894 45.6515 111.833 44.6111 111.644 43.568L112.669 43.3819L113.694 43.1959C113.913 44.4031 113.985 45.6129 113.908 46.8236L112.868 46.7573ZM112.669 43.3819L111.644 43.568C111.418 42.3203 111.417 41.0696 111.642 39.8219L112.667 40.0066L113.692 40.1912C113.512 41.1937 113.512 42.1933 113.694 43.1959L112.669 43.3819ZM112.667 40.0066L111.642 39.8219C111.827 38.7906 111.869 37.7619 111.767 36.7331L112.804 36.6303L113.84 36.5276C113.961 37.7502 113.912 38.9723 113.692 40.1912L112.667 40.0066ZM112.804 36.6303L111.767 36.7331C111.651 35.5675 111.603 34.3997 111.623 33.2298L112.664 33.2472L113.706 33.2645C113.688 34.3542 113.733 35.4418 113.84 36.5276L112.804 36.6303ZM112.664 33.2472L111.623 33.2298C111.639 32.2313 111.472 31.275 111.121 30.3536L112.095 29.9829L113.069 29.6121C113.515 30.7836 113.727 32.0035 113.706 33.2645L112.664 33.2472ZM112.095 29.9829L111.121 30.3536C110.751 29.3817 110.275 28.4617 109.69 27.5924L110.555 27.0112L111.42 26.4301C112.092 27.4301 112.642 28.4912 113.069 29.6121L112.095 29.9829ZM110.555 27.0112L109.69 27.5924C109.223 26.8969 108.589 26.4803 107.723 26.3213L107.911 25.2966L108.099 24.272C109.502 24.5297 110.631 25.2562 111.42 26.4301L110.555 27.0112ZM107.911 25.2966L107.723 26.3213C106.642 26.1228 105.567 26.0134 104.496 25.9923L104.517 24.9507L104.537 23.9091C105.723 23.9325 106.91 24.0537 108.099 24.272L107.911 25.2966ZM104.517 24.9507L104.496 25.9923C103.368 25.9701 102.24 25.9478 101.114 25.9253L101.135 24.8837L101.156 23.8421C102.282 23.8646 103.409 23.8869 104.537 23.9091L104.517 24.9507ZM101.135 24.8837L101.114 25.9253C100.039 25.9039 98.9648 25.9616 97.8899 26.0987L97.7581 25.0653L97.6264 24.0318C98.8017 23.882 99.9783 23.8187 101.156 23.8421L101.135 24.8837ZM97.7581 25.0653L97.8899 26.0987C96.6891 26.2518 95.4872 26.2721 94.2855 26.1594L94.3828 25.1222L94.48 24.085C95.5286 24.1833 96.5769 24.1657 97.6264 24.0318L97.7581 25.0653ZM94.3828 25.1222L94.2855 26.1594C93.1898 26.0567 92.0944 26.001 90.9992 25.9924L91.0074 24.9507L91.0155 23.9089C92.1705 23.918 93.3254 23.9767 94.48 24.085L94.3828 25.1222ZM91.0074 24.9507L90.9992 25.9924C89.9172 25.9839 88.835 26.0425 87.7522 26.1684L87.632 25.1335L87.5117 24.0987C88.6792 23.9631 89.8472 23.8998 91.0155 23.9089L91.0074 24.9507ZM87.632 25.1335L87.7522 26.1684C86.5338 26.3099 85.3148 26.2866 84.0978 26.0989L84.2566 25.0693L84.4154 24.0397C85.4486 24.1991 86.4799 24.2186 87.5117 24.0987L87.632 25.1335ZM84.2566 25.0693L84.0978 26.0989C83.0417 25.9361 81.9873 25.8814 80.9335 25.9344L80.8812 24.8939L80.8289 23.8534C82.0253 23.7932 83.2212 23.8555 84.4154 24.0397L84.2566 25.0693ZM80.8812 24.8939L80.9335 25.9344C79.8112 25.9908 78.689 26.0519 77.5667 26.1176L77.5058 25.0776L77.4449 24.0376C78.5729 23.9715 79.7009 23.9101 80.8289 23.8534L80.8812 24.8939ZM77.5058 25.0776L77.5667 26.1176C76.3925 26.1864 75.2182 26.172 74.0443 26.0747L74.1304 25.0365L74.2165 23.9982C75.2928 24.0875 76.3688 24.1006 77.4449 24.0376L77.5058 25.0776ZM74.1304 25.0365L74.0443 26.0747C72.9453 25.9836 71.8465 25.9342 70.7478 25.9266L70.755 24.8848L70.7622 23.843C71.9138 23.851 73.0652 23.9028 74.2165 23.9982L74.1304 25.0365ZM70.755 24.8848L70.7478 25.9266C69.6736 25.9191 68.5989 25.9901 67.5232 26.1398L67.3796 25.108L67.236 24.0761C68.4106 23.9127 69.5862 23.8349 70.7622 23.843L70.755 24.8848ZM67.3796 25.108L67.5232 26.1398C66.2863 26.3119 65.0485 26.283 63.8141 26.0538L64.0042 25.0295L64.1944 24.0052C65.2102 24.1938 66.2227 24.2171 67.236 24.0761L67.3796 25.108ZM64.0042 25.0295L63.8141 26.0538C62.8087 25.8672 61.8067 25.8589 60.8024 26.0286L60.6288 25.0014L60.4553 23.9742C61.7012 23.7636 62.9495 23.7741 64.1944 24.0052L64.0042 25.0295ZM60.6288 25.0014L60.8024 26.0286C59.6118 26.2298 58.4194 26.315 57.226 26.2835L57.2534 25.2421L57.2809 24.2007C58.3378 24.2285 59.3956 24.1532 60.4553 23.9742L60.6288 25.0014ZM57.2534 25.2421L57.226 26.2835C56.0556 26.2527 54.8858 26.1456 53.7169 25.9627L53.878 24.9334L54.0392 23.9042C55.1206 24.0734 56.2011 24.1722 57.2809 24.2007L57.2534 25.2421ZM53.878 24.9334L53.7169 25.9627C52.6457 25.795 51.5757 25.7133 50.5064 25.7172L50.5027 24.6754L50.4989 23.6336C51.6799 23.6293 52.8601 23.7196 54.0392 23.9042L53.878 24.9334ZM50.5027 24.6754L50.5064 25.7172C49.4338 25.7211 48.3607 25.8057 47.2867 25.9714L47.1278 24.9418L46.969 23.9122C48.1445 23.7309 49.3212 23.6379 50.4989 23.6336L50.5027 24.6754ZM47.1278 24.9418L47.2867 25.9714C46.1078 26.1533 44.9281 26.2406 43.7479 26.233L43.7547 25.1912L43.7614 24.1494C44.8293 24.1563 45.8983 24.0774 46.969 23.9122L47.1278 24.9418ZM43.7547 25.1912L43.7479 26.233C42.7193 26.2263 41.7129 26.3589 40.726 26.6307L40.4493 25.6263L40.1727 24.622C41.3449 24.2991 42.542 24.1415 43.7614 24.1494L43.7547 25.1912ZM40.4493 25.6263L40.726 26.6307C39.8557 26.8705 39.1663 27.3268 38.6255 28.0107L37.8083 27.3645L36.9911 26.7184C37.8126 25.6794 38.884 24.9769 40.1727 24.622L40.4493 25.6263ZM37.8083 27.3645L38.6255 28.0107C38.0557 28.7314 37.6972 29.5456 37.5463 30.4704L36.5181 30.3027L35.4899 30.135C35.6971 28.8651 36.1987 27.7206 36.9911 26.7184L37.8083 27.3645ZM36.5181 30.3027L37.5463 30.4704C37.3766 31.5104 37.2938 32.5624 37.2981 33.6268L36.2564 33.631L35.2146 33.6352C35.2098 32.4566 35.3015 31.2896 35.4899 30.135L36.5181 30.3027ZM36.2564 33.631L37.2981 33.6268C37.3029 34.7981 37.224 35.9706 37.0617 37.1439L36.0297 37.0011L34.9977 36.8584C35.1467 35.7813 35.2189 34.707 35.2146 33.6352L36.2564 33.631ZM36.0297 37.0011L37.0617 37.1439C36.9149 38.205 36.8683 39.2648 36.9216 40.3242L35.8812 40.3766L34.8407 40.4289C34.7808 39.2381 34.8332 38.0476 34.9977 36.8584L36.0297 37.0011ZM35.8812 40.3766L36.9216 40.3242C36.9806 41.4957 36.9614 42.6671 36.8641 43.8382L35.8259 43.752L34.7877 43.6658C34.8773 42.5866 34.895 41.5078 34.8407 40.4289L35.8812 40.3766ZM35.8259 43.752L36.8641 43.8382C36.7765 44.8938 36.7948 45.9492 36.9192 47.0055L35.8846 47.1274L34.8499 47.2492C34.7093 46.0553 34.6885 44.8604 34.7877 43.6658L35.8259 43.752ZM35.8846 47.1274L36.9192 47.0055C37.0576 48.1808 37.1098 49.3568 37.0754 50.5332L36.0341 50.5028L34.9927 50.4724C35.0241 49.3984 34.9765 48.3242 34.8499 47.2492L35.8846 47.1274ZM36.0341 50.5028L37.0754 50.5332C37.0429 51.6488 37.0255 52.7645 37.0234 53.8801L35.9816 53.8782L34.9398 53.8762C34.942 52.7416 34.9596 51.607 34.9927 50.4724L36.0341 50.5028ZM35.9816 53.8782L37.0234 53.8801C37.0212 55.0221 36.9913 56.1641 36.9337 57.306L35.8933 57.2536L34.8528 57.2011C34.9087 56.0927 34.9377 54.9844 34.9398 53.8762L35.9816 53.8782ZM35.8933 57.2536L36.9337 57.306C36.8782 58.4068 36.8615 59.5074 36.8836 60.6081L35.842 60.6289L34.8004 60.6498C34.7774 59.5002 34.7948 58.3506 34.8528 57.2011L35.8933 57.2536ZM35.842 60.6289L36.8836 60.6081C36.9061 61.7328 36.9293 62.8576 36.9531 63.9823L35.9115 64.0043L34.8699 64.0264C34.8461 62.9008 34.823 61.7753 34.8004 60.6498L35.842 60.6289ZM35.9115 64.0043L36.9531 63.9823C36.9769 65.1106 36.9957 66.2388 37.0094 67.3671L35.9677 67.3797L34.926 67.3924C34.9124 66.2704 34.8937 65.1484 34.8699 64.0264L35.9115 64.0043ZM35.9677 67.3797L37.0094 67.3671C37.0233 68.5088 37.0099 69.6505 36.9693 70.7922L35.9281 70.7551L34.887 70.718C34.9265 69.6095 34.9395 68.5009 34.926 67.3924L35.9677 67.3797ZM35.9281 70.7551L36.9693 70.7922C36.9292 71.9166 36.8903 73.0411 36.8525 74.1655L35.8113 74.1305L34.7701 74.0956C34.8079 72.9697 34.8469 71.8439 34.887 70.718L35.9281 70.7551ZM35.8113 74.1305L36.8525 74.1655C36.8152 75.2766 36.8004 76.3877 36.808 77.4987L35.7663 77.5059L34.7245 77.5131C34.7167 76.3739 34.7319 75.2347 34.7701 74.0956L35.8113 74.1305ZM35.7663 77.5059L36.808 77.4987C36.8157 78.6197 36.8302 79.7406 36.8515 80.8615L35.8099 80.8813L34.7683 80.9011C34.7469 79.7717 34.7323 78.6424 34.7245 77.5131L35.7663 77.5059ZM35.8099 80.8813L36.8515 80.8615C36.8722 81.9521 36.9471 83.043 37.0761 84.1343L36.0416 84.2567L35.007 84.3791C34.8699 83.2201 34.7903 82.0607 34.7683 80.9011L35.8099 80.8813ZM36.0416 84.2567L37.0761 84.1343C37.215 85.3083 37.2699 86.483 37.2407 87.658L36.1992 87.6321L35.1578 87.6062C35.1845 86.5309 35.1343 85.4553 35.007 84.3791L36.0416 84.2567ZM36.1992 87.6321L37.2407 87.658C37.2121 88.8112 37.1367 89.9643 37.0146 91.1172L35.9786 91.0075L34.9426 90.8978C35.0588 89.8003 35.1305 88.7032 35.1578 87.6062L36.1992 87.6321ZM35.9786 91.0075L37.0146 91.1172C36.8992 92.2067 36.8406 93.2958 36.8387 94.3847L35.7969 94.3829L34.7551 94.3811C34.7571 93.2197 34.8197 92.0585 34.9426 90.8978L35.9786 91.0075ZM35.7969 94.3829L36.8387 94.3847C36.8368 95.4839 36.8758 96.5833 36.9557 97.6827L35.9167 97.7583L34.8776 97.8338C34.794 96.683 34.7531 95.5321 34.7551 94.3811L35.7969 94.3829ZM35.9167 97.7583L36.9557 97.6827C37.0386 98.8222 37.0977 99.9618 37.1331 101.101L36.0918 101.134L35.0505 101.166C35.016 100.055 34.9584 98.9446 34.8776 97.8338L35.9167 97.7583ZM36.0918 101.134L37.1331 101.101C37.1681 102.231 37.1956 103.361 37.2156 104.491L36.1739 104.509L35.1323 104.527C35.1125 103.407 35.0853 102.286 35.0505 101.166L36.0918 101.134ZM36.1739 104.509L37.2156 104.491C37.2354 105.615 37.2561 106.74 37.2776 107.865L36.236 107.885L35.1945 107.905C35.1729 106.779 35.1522 105.653 35.1323 104.527L36.1739 104.509ZM36.236 107.885L37.2776 107.865C37.2995 109.008 37.2934 110.15 37.2593 111.291L36.218 111.259L35.1767 111.228C35.2098 110.122 35.2157 109.014 35.1945 107.905L36.236 107.885ZM36.218 111.259L37.2593 111.291C37.2268 112.378 37.2509 113.461 37.3317 114.54L36.2928 114.618L35.2539 114.695C35.1677 113.544 35.142 112.388 35.1767 111.228L36.218 111.259ZM36.2928 114.618L37.3317 114.54C37.4081 115.56 37.6181 116.523 37.9589 117.432L36.9835 117.798L36.0081 118.164C35.595 117.062 35.3445 115.905 35.2539 114.695L36.2928 114.618ZM36.9835 117.798L37.9589 117.432C38.2791 118.285 38.7709 119.02 39.4422 119.646L38.7317 120.408L38.0212 121.17C37.1155 120.325 36.4418 119.32 36.0081 118.164L36.9835 117.798ZM38.7317 120.408L39.4422 119.646C40.0872 120.248 40.8657 120.655 41.8032 120.862L41.5781 121.879L41.353 122.896C40.0723 122.613 38.9532 122.039 38.0212 121.17L38.7317 120.408ZM41.5781 121.879L41.8032 120.862C42.8315 121.09 43.868 121.192 44.9144 121.17L44.9367 122.211L44.959 123.253C43.7455 123.279 42.5429 123.16 41.353 122.896L41.5781 121.879ZM44.9367 122.211L44.9144 121.17C46.0481 121.145 47.1796 121.127 48.309 121.115L48.3202 122.157L48.3315 123.198C47.2095 123.21 46.0853 123.229 44.959 123.253L44.9367 122.211ZM48.3202 122.157L48.309 121.115C49.4438 121.103 50.5784 121.105 51.7127 121.123L51.6965 122.165L51.6802 123.206C50.5643 123.189 49.448 123.186 48.3315 123.198L48.3202 122.157ZM51.6965 122.165L51.7127 121.123C52.8339 121.141 53.9552 121.152 55.0764 121.157L55.0719 122.198L55.0673 123.24C53.9383 123.235 52.8093 123.224 51.6802 123.206L51.6965 122.165ZM55.0719 122.198L55.0764 121.157C56.1631 121.161 57.25 121.106 58.3373 120.991L58.4472 122.027L58.5572 123.063C57.3943 123.186 56.2309 123.245 55.0673 123.24L55.0719 122.198ZM58.4472 122.027L58.3373 120.991C59.53 120.864 60.7235 120.855 61.9166 120.963L61.8226 122L61.7287 123.038C60.6715 122.942 59.6147 122.95 58.5572 123.063L58.4472 122.027ZM61.8226 122L61.9166 120.963C63.0035 121.061 64.0902 121.099 65.1767 121.077L65.198 122.118L65.2193 123.16C64.0556 123.184 62.892 123.143 61.7287 123.038L61.8226 122ZM65.198 122.118L65.1767 121.077C66.3115 121.054 67.4462 121.046 68.581 121.054L68.5734 122.096L68.5659 123.138C67.4504 123.13 66.3349 123.137 65.2193 123.16L65.198 122.118ZM68.5734 122.096L68.581 121.054C69.6987 121.062 70.8164 121.059 71.9341 121.043L71.9488 122.085L71.9635 123.126C70.831 123.142 69.6984 123.146 68.5659 123.138L68.5734 122.096ZM71.9488 122.085L71.9341 121.043C73.0395 121.027 74.145 120.98 75.2505 120.902L75.3242 121.941L75.3979 122.98C74.2532 123.061 73.1084 123.11 71.9635 123.126L71.9488 122.085ZM75.3242 121.941L75.2505 120.902C76.4616 120.816 77.6721 120.88 78.88 121.092L78.6996 122.118L78.5192 123.144C77.4769 122.961 76.437 122.906 75.3979 122.98L75.3242 121.941ZM78.6996 122.118L78.88 121.092C79.8799 121.268 80.8773 121.26 81.8784 121.067L82.075 122.09L82.2716 123.113C81.0224 123.353 79.7695 123.364 78.5192 123.144L78.6996 122.118ZM82.075 122.09L81.8784 121.067C83.0701 120.838 84.2642 120.729 85.4597 120.739L85.4504 121.781L85.4411 122.823C84.3863 122.813 83.3301 122.91 82.2716 123.113L82.075 122.09ZM85.4504 121.781L85.4597 120.739C86.6108 120.75 87.762 120.803 88.9132 120.899L88.8262 121.938L88.7393 122.976C87.6396 122.884 86.5402 122.833 85.4411 122.823L85.4504 121.781ZM88.8262 121.938L88.9132 120.899C89.9843 120.989 91.0627 120.995 92.1489 120.917L92.2233 121.957L92.2977 122.996C91.1053 123.081 89.919 123.074 88.7393 122.976L88.8262 121.938ZM92.2233 121.957L92.1489 120.917C93.0931 120.85 93.9415 120.54 94.7146 119.979L95.3265 120.822L95.9384 121.665C94.8525 122.454 93.6321 122.9 92.2977 122.996L92.2233 121.957ZM95.3265 120.822L94.7146 119.979C95.613 119.327 96.4631 118.635 97.2651 117.902L97.9678 118.671L98.6705 119.44C97.8097 120.226 96.8989 120.968 95.9384 121.665L95.3265 120.822ZM97.9678 118.671L97.2651 117.902C98.0508 117.184 98.7721 116.397 99.4295 115.54L100.256 116.174L101.083 116.808C100.352 117.761 99.5476 118.639 98.6705 119.44L97.9678 118.671ZM100.256 116.174L99.4295 115.54C100.171 114.574 101.007 113.706 101.936 112.937L102.6 113.74L103.264 114.543C102.456 115.21 101.729 115.965 101.083 116.808L100.256 116.174ZM102.6 113.74L101.936 112.937C102.778 112.241 103.582 111.505 104.348 110.728L105.09 111.46L105.831 112.191C105.016 113.018 104.16 113.802 103.264 114.543L102.6 113.74ZM105.09 111.46L104.348 110.728C105.162 109.903 106.013 109.118 106.901 108.372L107.571 109.171L108.24 109.969C107.402 110.672 106.599 111.413 105.831 112.191L105.09 111.46ZM107.571 109.171L106.901 108.372C107.735 107.674 108.523 106.932 109.267 106.146L110.024 106.862L110.78 107.579C109.981 108.422 109.134 109.219 108.24 109.969L107.571 109.171ZM110.024 106.862L109.267 106.146C109.978 105.396 110.585 104.565 111.09 103.65L112.002 104.154L112.914 104.657C112.324 105.725 111.613 106.7 110.78 107.579L110.024 106.862ZM112.002 104.154L111.09 103.65C111.526 102.862 111.676 102.029 111.542 101.117L112.572 100.965L113.603 100.813C113.803 102.17 113.573 103.464 112.914 104.657L112.002 104.154ZM112.572 100.965L111.542 101.117C111.457 100.54 111.401 100.069 111.383 99.7202C111.373 99.5516 111.371 99.3702 111.388 99.2048C111.397 99.1247 111.415 99.0024 111.462 98.8704C111.498 98.7684 111.614 98.4721 111.939 98.2767L112.476 99.1691L113.014 100.062C113.312 99.8816 113.407 99.6176 113.426 99.5647C113.442 99.5189 113.45 99.4833 113.454 99.4642C113.458 99.444 113.46 99.4311 113.46 99.4278C113.46 99.4275 113.456 99.4784 113.463 99.609C113.476 99.859 113.521 100.254 113.603 100.813L112.572 100.965ZM112.476 99.1691L111.939 98.2767C111.804 98.358 111.718 98.4528 111.672 98.5129C111.624 98.575 111.595 98.6289 111.579 98.6599C111.563 98.6926 111.554 98.7175 111.549 98.7297C111.547 98.7365 111.545 98.7415 111.545 98.7445C111.544 98.7461 111.544 98.7472 111.543 98.748C111.543 98.7483 111.543 98.7486 111.543 98.7488C111.543 98.749 111.543 98.7491 111.543 98.7491C111.543 98.7491 111.543 98.749 111.543 98.7488C111.543 98.7486 111.543 98.7484 111.543 98.748C111.544 98.7473 111.544 98.7463 111.544 98.745C111.545 98.7423 111.546 98.7385 111.547 98.7335C111.549 98.7234 111.552 98.7096 111.555 98.6916C111.561 98.6552 111.569 98.6072 111.577 98.5459C111.609 98.293 111.638 97.898 111.662 97.344L112.703 97.3882L113.743 97.4325C113.719 98.0036 113.687 98.4679 113.644 98.8087C113.622 98.9749 113.595 99.1456 113.553 99.2966C113.533 99.3705 113.501 99.4739 113.448 99.5819C113.409 99.6605 113.286 99.8972 113.014 100.062L112.476 99.1691Z" fill="#EEEFF1"/>
<path d="M91.2104 116.444C91.2097 117.039 90.7266 117.521 90.1315 117.52C89.5363 117.519 89.0544 117.036 89.0552 116.441L90.1328 116.442L91.2104 116.444ZM90.1329 116.342L89.0553 116.341L89.0553 116.312L89.057 116.283L90.1329 116.342ZM94.4947 100.521L94.7163 101.575L94.4947 100.521ZM96.8952 100.009L97.1228 101.062L96.8952 100.009ZM99.343 100.007L99.5667 98.9529L99.343 100.007ZM104.264 100.197L104.192 101.273L104.264 100.197ZM107.78 99.9026L108.858 99.8871L108.868 100.598L108.219 100.887L107.78 99.9026ZM107.681 99.9469L107.687 101.024L107.242 98.9625L107.681 99.9469ZM107.774 98.8686C108.369 98.8651 108.855 99.3446 108.858 99.9398C108.862 100.535 108.382 101.02 107.787 101.024L107.781 99.9463L107.774 98.8686ZM90.1328 116.442L89.0552 116.441L89.0553 116.341L90.1329 116.342L91.2106 116.344L91.2104 116.444L90.1328 116.442ZM90.1329 116.342L89.057 116.283C89.1431 114.73 89.1266 113.617 89.03 112.901L90.0979 112.757L91.1659 112.613C91.2903 113.535 91.2971 114.812 91.2089 116.402L90.1329 116.342ZM90.0979 112.757L89.03 112.901C88.9069 111.99 88.9032 111.077 89.0189 110.164L90.0879 110.3L91.157 110.436C91.0649 111.162 91.0678 111.887 91.1659 112.613L90.0979 112.757ZM90.0879 110.3L89.0189 110.164C89.1196 109.37 89.1926 108.576 89.2377 107.782L90.3136 107.843L91.3895 107.905C91.3415 108.748 91.264 109.592 91.157 110.436L90.0879 110.3ZM90.3136 107.843L89.2377 107.782C89.2822 106.999 89.2874 106.217 89.2532 105.435L90.3298 105.388L91.4064 105.341C91.4438 106.195 91.4381 107.05 91.3895 107.905L90.3136 107.843ZM90.3298 105.388L89.2532 105.435C89.2104 104.457 89.3815 103.514 89.7665 102.619L90.7565 103.045L91.7464 103.47C91.491 104.064 91.3776 104.684 91.4064 105.341L90.3298 105.388ZM90.7565 103.045L89.7665 102.619C90.1783 101.661 90.845 100.912 91.7494 100.407L92.2746 101.348L92.7997 102.289C92.3206 102.557 91.9752 102.939 91.7464 103.47L90.7565 103.045ZM92.2746 101.348L91.7494 100.407C92.5377 99.9676 93.3802 99.6539 94.273 99.4663L94.4947 100.521L94.7163 101.575C94.0325 101.719 93.395 101.957 92.7997 102.289L92.2746 101.348ZM94.4947 100.521L94.273 99.4663C95.0592 99.3011 95.8574 99.1309 96.6676 98.9559L96.8952 100.009L97.1228 101.062C96.3088 101.238 95.5066 101.409 94.7163 101.575L94.4947 100.521ZM96.8952 100.009L96.6676 98.9559C97.6297 98.748 98.5995 98.7475 99.5667 98.9529L99.343 100.007L99.1192 101.061C98.4469 100.918 97.7848 100.919 97.1228 101.062L96.8952 100.009ZM99.343 100.007L99.5667 98.9529C100.293 99.107 101.015 99.1607 101.736 99.1158L101.803 100.191L101.87 101.267C100.95 101.324 100.033 101.255 99.1192 101.061L99.343 100.007ZM101.803 100.191L101.736 99.1158C102.603 99.0618 103.47 99.0639 104.336 99.1223L104.264 100.197L104.192 101.273C103.418 101.221 102.644 101.219 101.87 101.267L101.803 100.191ZM104.264 100.197L104.336 99.1223C105.073 99.1719 105.773 99.1331 106.441 99.0099L106.637 100.07L106.832 101.129C105.977 101.287 105.096 101.334 104.192 101.273L104.264 100.197ZM106.637 100.07L106.441 99.0099C106.825 98.9391 107.127 98.8871 107.338 98.8562C107.439 98.8415 107.544 98.8279 107.634 98.8216C107.67 98.8191 107.754 98.8137 107.851 98.8217C107.887 98.8247 108.015 98.8353 108.163 98.8927C108.238 98.9214 108.847 99.1701 108.858 99.8871L107.78 99.9026L106.703 99.9181C106.707 100.248 106.858 100.506 107.023 100.668C107.168 100.81 107.316 100.876 107.388 100.904C107.53 100.959 107.649 100.968 107.673 100.97C107.716 100.973 107.748 100.973 107.76 100.973C107.774 100.972 107.783 100.972 107.783 100.972C107.784 100.972 107.774 100.972 107.748 100.976C107.724 100.978 107.691 100.983 107.65 100.989C107.48 101.014 107.21 101.06 106.832 101.129L106.637 100.07ZM107.78 99.9026L108.219 100.887L108.119 100.931L107.681 99.9469L107.242 98.9625L107.342 98.9182L107.78 99.9026ZM107.681 99.9469L107.674 98.8693L107.774 98.8686L107.781 99.9463L107.787 101.024L107.687 101.024L107.681 99.9469Z" fill="white"/>
<path d="M32.1729 31.6989C38.5106 20.7216 41.6795 15.2329 46.4328 15.2329C51.1862 15.2329 54.355 20.7216 60.6928 31.6989L63.7246 36.9501C70.0624 47.9275 73.2313 53.4161 70.8546 57.5326C68.4779 61.6491 62.1402 61.6491 49.4646 61.6491H43.401C30.7255 61.6491 24.3877 61.6491 22.0111 57.5326C19.6344 53.4161 22.8033 47.9275 29.1411 36.9501L32.1729 31.6989Z" fill="#D2D3D9"/>
<path d="M61.8716 33.554L63.0157 32.827L61.8716 33.554ZM63.9432 37.4315L62.7031 37.979L63.9432 37.4315ZM66.1087 41.2563L67.216 40.4744L66.1087 41.2563ZM68.4898 44.9631L67.3182 45.645L68.4898 44.9631ZM70.2939 48.9642L71.5805 48.5372L70.2939 48.9642ZM70.6226 57.3566L69.3949 56.782L70.6226 57.3566ZM67.6239 60.1825L67.1154 58.9259L67.6239 60.1825ZM63.3487 61.0408L63.3354 59.6853L63.3487 61.0408ZM41.4057 61.5953L41.3622 60.2404L41.4057 61.5953ZM28.3074 60.9889L27.8292 62.2573L28.3074 60.9889ZM24.1753 59.3479L23.653 60.5988L24.1753 59.3479ZM21.6698 56.2988L20.3425 56.5744L21.6698 56.2988ZM23.2617 47.9134L22.1281 47.1702L23.2617 47.9134ZM31.5723 32.4242L32.7576 33.0819L31.5723 32.4242ZM33.9856 28.7468L35.0611 29.5719L33.9856 28.7468ZM36.2991 25.0111L35.0809 24.4165L36.2991 25.0111ZM38.5082 21.2174L39.6265 21.9835L38.5082 21.2174ZM41.4573 18.0657L42.2936 19.1325V19.1325L41.4573 18.0657ZM45.132 15.8742L44.5925 14.6307L45.132 15.8742ZM52.3036 18.8799L53.3783 18.0539L52.3036 18.8799ZM59.4732 29.8752L60.7287 29.3641L59.4732 29.8752ZM60.4996 31.8105L59.8218 30.6365L60.4996 31.8105ZM61.8716 33.554L60.7275 34.281C61.4767 35.4601 62.1352 36.6925 62.7031 37.979L63.9432 37.4315L65.1833 36.8841C64.5608 35.474 63.8382 34.1215 63.0157 32.827L61.8716 33.554ZM63.9432 37.4315L62.7031 37.979C63.3346 39.4095 64.1009 40.763 65.0014 42.0382L66.1087 41.2563L67.216 40.4744C66.4195 39.3465 65.7422 38.1502 65.1833 36.8841L63.9432 37.4315ZM66.1087 41.2563L65.0014 42.0382C65.8271 43.2074 66.5993 44.4096 67.3182 45.645L68.4898 44.9631L69.6614 44.2813C68.9025 42.9773 68.0874 41.7083 67.216 40.4744L66.1087 41.2563ZM68.4898 44.9631L67.3182 45.645C68.01 46.8337 68.5729 48.0819 69.0074 49.3912L70.2939 48.9642L71.5805 48.5372C71.0873 47.051 70.4474 45.6319 69.6614 44.2813L68.4898 44.9631ZM70.2939 48.9642L69.0074 49.3912C69.4446 50.7086 69.751 52.0413 69.9276 53.39L71.2717 53.214L72.6158 53.038C72.4164 51.5158 72.071 50.0152 71.5805 48.5372L70.2939 48.9642ZM71.2717 53.214L69.9276 53.39C70.0816 54.5663 69.9074 55.687 69.3949 56.782L70.6226 57.3566L71.8504 57.9312C72.5793 56.3738 72.8377 54.7328 72.6158 53.038L71.2717 53.214ZM70.6226 57.3566L69.3949 56.782C68.9218 57.7928 68.1822 58.4943 67.1154 58.9259L67.6239 60.1825L68.1323 61.4391C69.8226 60.7551 71.0821 59.5726 71.8504 57.9312L70.6226 57.3566ZM67.6239 60.1825L67.1154 58.9259C65.8926 59.4207 64.6354 59.6726 63.3354 59.6853L63.3487 61.0408L63.362 62.3963C65.0052 62.3802 66.5981 62.0599 68.1323 61.4391L67.6239 60.1825ZM63.3487 61.0408L63.3354 59.6853C61.7739 59.7007 60.2236 59.8702 58.6858 60.1935L58.9647 61.5201L59.2435 62.8466C60.608 62.5598 61.9804 62.4099 63.362 62.3963L63.3487 61.0408ZM58.9647 61.5201L58.6858 60.1935C57.3453 60.4753 56.0014 60.5849 54.6516 60.5236L54.59 61.8777L54.5284 63.2318C56.1092 63.3037 57.6817 63.1749 59.2435 62.8466L58.9647 61.5201ZM54.59 61.8777L54.6516 60.5236C53.1353 60.4546 51.6188 60.4714 50.1024 60.5737L50.1937 61.9262L50.285 63.2787C51.6998 63.1831 53.1142 63.1676 54.5284 63.2318L54.59 61.8777ZM50.1937 61.9262L50.1024 60.5737C48.7239 60.6668 47.3461 60.6272 45.9678 60.4546L45.7994 61.7996L45.631 63.1447C47.1807 63.3387 48.7325 63.3835 50.285 63.2787L50.1937 61.9262ZM45.7994 61.7996L45.9678 60.4546C44.434 60.2625 42.8986 60.1911 41.3622 60.2404L41.4057 61.5953L41.4492 62.9501C42.8431 62.9053 44.2368 62.9701 45.631 63.1447L45.7994 61.7996ZM41.4057 61.5953L41.3622 60.2404C39.9032 60.2873 38.4441 60.3242 36.985 60.3511L37.01 61.7064L37.035 63.0617C38.5065 63.0346 39.9779 62.9974 41.4492 62.9501L41.4057 61.5953ZM37.01 61.7064L36.985 60.3511C35.5254 60.378 34.0612 60.3959 32.5924 60.4048L32.6006 61.7603L32.6088 63.1158C34.0887 63.1069 35.5641 63.0888 37.035 63.0617L37.01 61.7064ZM32.6006 61.7603L32.5924 60.4048C31.2852 60.4127 30.0189 60.1855 28.7856 59.7205L28.3074 60.9889L27.8292 62.2573C29.3715 62.8387 30.9674 63.1258 32.6088 63.1158L32.6006 61.7603ZM28.3074 60.9889L28.7856 59.7205C27.4125 59.2029 26.0499 58.6618 24.6977 58.0971L24.1753 59.3479L23.653 60.5988C25.0345 61.1757 26.4266 61.7286 27.8292 62.2573L28.3074 60.9889ZM24.1753 59.3479L24.6977 58.0971C23.7476 57.7003 23.2105 57.0514 22.997 56.0232L21.6698 56.2988L20.3425 56.5744C20.7361 58.4701 21.8694 59.8539 23.653 60.5988L24.1753 59.3479ZM21.6698 56.2988L22.997 56.0232C22.7293 54.7337 22.7184 53.4601 22.9614 52.1921L21.6301 51.937L20.2988 51.6819C19.9876 53.3058 20.0032 54.9401 20.3425 56.5744L21.6698 56.2988ZM21.6301 51.937L22.9614 52.1921C23.205 50.921 23.6815 49.7455 24.3953 48.6567L23.2617 47.9134L22.1281 47.1702C21.2207 48.5542 20.6094 50.0611 20.2988 51.6819L21.6301 51.937ZM23.2617 47.9134L24.3953 48.6567C25.2736 47.317 25.9586 45.8785 26.4494 44.3443L25.1583 43.9312L23.8673 43.5182C23.4505 44.8207 22.8711 46.0369 22.1281 47.1702L23.2617 47.9134ZM25.1583 43.9312L26.4494 44.3443C26.8675 43.0376 27.4414 41.8201 28.1712 40.6883L27.032 39.9537L25.8927 39.2191C25.032 40.5539 24.3568 41.9881 23.8673 43.5182L25.1583 43.9312ZM27.032 39.9537L28.1712 40.6883C28.9732 39.4446 29.7576 38.1912 30.5244 36.9279L29.3657 36.2245L28.2069 35.5211C27.4528 36.7634 26.6814 37.996 25.8927 39.2191L27.032 39.9537ZM29.3657 36.2245L30.5244 36.9279C31.294 35.6601 32.0384 34.3781 32.7576 33.0819L31.5723 32.4242L30.387 31.7665C29.6849 33.0319 28.9582 34.2834 28.2069 35.5211L29.3657 36.2245ZM31.5723 32.4242L32.7576 33.0819C33.4356 31.86 34.2033 30.6901 35.0611 29.5719L33.9856 28.7468L32.91 27.9217C31.9715 29.1452 31.1303 30.4269 30.387 31.7665L31.5723 32.4242ZM33.9856 28.7468L35.0611 29.5719C36.0141 28.3295 36.8332 27.0072 37.5172 25.6058L36.2991 25.0111L35.0809 24.4165C34.4767 25.6543 33.7534 26.8224 32.91 27.9217L33.9856 28.7468ZM36.2991 25.0111L37.5172 25.6058C38.1324 24.3456 38.8354 23.1383 39.6265 21.9835L38.5082 21.2174L37.3899 20.4514C36.5238 21.7156 35.7541 23.0375 35.0809 24.4165L36.2991 25.0111ZM38.5082 21.2174L39.6265 21.9835C40.3781 20.8863 41.2664 19.9376 42.2936 19.1325L41.4573 18.0657L40.6211 16.9988C39.3732 17.9769 38.2954 19.1294 37.3899 20.4514L38.5082 21.2174ZM41.4573 18.0657L42.2936 19.1325C43.3411 18.3115 44.4664 17.6406 45.6715 17.1178L45.132 15.8742L44.5925 14.6307C43.1731 15.2465 41.8486 16.0366 40.6211 16.9988L41.4573 18.0657ZM45.132 15.8742L45.6715 17.1178C46.5864 16.7208 47.4479 16.7576 48.383 17.2712L49.0356 16.0831L49.6881 14.8949C48.043 13.9914 46.3021 13.8889 44.5925 14.6307L45.132 15.8742ZM49.0356 16.0831L48.383 17.2712C49.5106 17.8905 50.4556 18.7 51.2288 19.706L52.3036 18.8799L53.3783 18.0539C52.3745 16.7478 51.1409 15.6928 49.6881 14.8949L49.0356 16.0831ZM52.3036 18.8799L51.2288 19.706C52.1205 20.8661 53.0211 22.0241 53.9306 23.18L54.9959 22.3418L56.0612 21.5036C55.158 20.3557 54.2637 19.2058 53.3783 18.0539L52.3036 18.8799ZM54.9959 22.3418L53.9306 23.18C54.8032 24.2892 55.6061 25.4468 56.3393 26.6531L57.4977 25.9491L58.656 25.245C57.8663 23.9456 57.0013 22.6984 56.0612 21.5036L54.9959 22.3418ZM57.4977 25.9491L56.3393 26.6531C57.0632 27.8441 57.6892 29.0882 58.2177 30.3863L59.4732 29.8752L60.7287 29.3641C60.1461 27.9331 59.4552 26.5598 58.656 25.245L57.4977 25.9491ZM59.4732 29.8752L58.2177 30.3863C58.499 31.0775 58.7444 31.632 58.9489 32.0176C59.0444 32.1976 59.1683 32.4133 59.3175 32.5941C59.3839 32.6746 59.5319 32.8444 59.7619 32.9776C60.0102 33.1214 60.5777 33.3306 61.1774 32.9844L60.4996 31.8105L59.8218 30.6365C60.0726 30.4917 60.3504 30.4414 60.608 30.4672C60.8446 30.4909 61.0201 30.5733 61.1207 30.6316C61.3051 30.7385 61.401 30.8594 61.4085 30.8686C61.44 30.9067 61.4195 30.8897 61.3439 30.7473C61.2063 30.4877 61.0028 30.0375 60.7287 29.3641L59.4732 29.8752ZM60.4996 31.8105L61.1774 32.9844C60.66 33.2831 60.1821 33.1241 60.0337 33.0611C59.8711 32.9921 59.7783 32.9092 59.7712 32.903C59.7444 32.8798 59.7742 32.9021 59.8739 33.0288C60.059 33.264 60.3402 33.6716 60.7275 34.281L61.8716 33.554L63.0157 32.827C62.6171 32.1998 62.2768 31.6983 62.0045 31.3523C61.8756 31.1885 61.7178 31.0021 61.5444 30.8522C61.464 30.7827 61.3083 30.6569 61.0929 30.5655C60.8918 30.4801 60.3714 30.3192 59.8218 30.6365L60.4996 31.8105Z" fill="#D2D3D9"/>
<path d="M44.2533 28.1195C44.386 28.0338 46.5714 28.0001 47.6406 28.0001C47.7998 28.0553 48.2639 28.264 48.3529 28.2758C48.4418 28.2875 48.6417 28.5197 48.7162 28.5482C48.8463 28.6249 48.7419 28.434 48.8279 28.5629C48.9095 28.6852 49.0797 28.7995 48.9568 31.5786C48.8362 34.3062 48.5405 39.5501 48.3262 42.35C48.1118 45.15 47.9826 45.4956 47.8748 45.685C47.767 45.8744 47.6903 45.9247 47.5904 45.9367C46.931 46.0163 45.9899 46.0442 45.6737 45.8802C45.5207 45.8008 45.3545 45.7031 45.2663 45.5646C45.1891 45.4432 45.0996 45.2294 44.9701 43.2121C44.8504 41.3471 44.6516 37.8737 44.4762 35.5971C44.3007 33.3204 44.153 32.2722 44.0788 31.2868C44.0046 30.3013 43.9779 29.4048 44.0199 28.9242C44.0676 28.3771 44.1068 28.214 44.2533 28.1195Z" fill="#868B94"/>
<path d="M44.4464 34.2674L43.8844 34.2973L44.4464 34.2674ZM44.5649 36.834L44.0237 36.9883L44.5649 36.834ZM44.8681 40.6725L44.3077 40.6195L44.8681 40.6725ZM45.0088 43.2353L44.4492 43.2957L45.0088 43.2353ZM45.1931 44.5005L44.6395 44.6024L45.1931 44.5005ZM45.6412 45.6103L45.1778 45.9298L45.6412 45.6103ZM48.2743 43.2314L48.8169 43.381L48.2743 43.2314ZM48.3224 40.6638L48.8802 40.739L48.3224 40.6638ZM48.9534 32.9863L48.4011 32.8777L48.9534 32.9863ZM48.9301 29.1277L48.3695 29.1786V29.1786L48.9301 29.1277ZM48.2814 28.2749L48.0981 28.807L48.2814 28.2749ZM47.6661 28.036L47.2077 28.3625L47.6661 28.036ZM46.9996 28.0399L46.9647 27.4782C46.5695 27.5027 46.173 27.4934 45.7749 27.4502L45.7142 28.0098L45.6534 28.5693C46.1145 28.6194 46.5749 28.6302 47.0345 28.6017L46.9996 28.0399ZM45.7142 28.0098L45.7749 27.4502C45.2415 27.3923 44.7384 27.483 44.2984 27.7551L44.5944 28.2338L44.8905 28.7125C45.0842 28.5927 45.3276 28.534 45.6534 28.5693L45.7142 28.0098ZM44.5944 28.2338L44.2984 27.7551C43.7898 28.0696 43.5565 28.5773 43.559 29.1647L44.1218 29.1623L44.6847 29.1599C44.6835 28.9012 44.7653 28.7899 44.8905 28.7125L44.5944 28.2338ZM44.1218 29.1623L43.559 29.1647C43.5607 29.577 43.5507 29.992 43.5287 30.4098L44.0908 30.4393L44.6529 30.4688C44.6759 30.0301 44.6865 29.5938 44.6847 29.1599L44.1218 29.1623ZM44.0908 30.4393L43.5287 30.4098C43.5049 30.8637 43.5121 31.3167 43.5505 31.7687L44.1113 31.7211L44.6722 31.6735C44.6382 31.2729 44.6317 30.8714 44.6529 30.4688L44.0908 30.4393ZM44.1113 31.7211L43.5505 31.7687C43.5884 32.2153 43.6504 32.6594 43.7365 33.101L44.2889 32.9933L44.8414 32.8856C44.763 32.4836 44.7066 32.0795 44.6722 31.6735L44.1113 31.7211ZM44.2889 32.9933L43.7365 33.101C43.8137 33.4973 43.863 33.896 43.8844 34.2973L44.4464 34.2674L45.0085 34.2374C44.9843 33.7837 44.9286 33.333 44.8414 32.8856L44.2889 32.9933ZM44.4464 34.2674L43.8844 34.2973C43.9059 34.7008 43.9016 35.1065 43.8715 35.5145L44.4328 35.5559L44.9942 35.5973C45.0277 35.1423 45.0325 34.689 45.0085 34.2374L44.4464 34.2674ZM44.4328 35.5559L43.8715 35.5145C43.8348 36.0126 43.8859 36.5048 44.0237 36.9883L44.5649 36.834L45.1062 36.6797C45.0043 36.3219 44.9673 35.9621 44.9942 35.5973L44.4328 35.5559ZM44.5649 36.834L44.0237 36.9883C44.1294 37.3592 44.1812 37.7315 44.1801 38.1066L44.7429 38.1082L45.3058 38.1098C45.3072 37.6272 45.2403 37.15 45.1062 36.6797L44.5649 36.834ZM44.7429 38.1082L44.1801 38.1066C44.1788 38.5636 44.2116 39.0184 44.2784 39.4709L44.8352 39.3887L45.392 39.3065C45.3334 38.9094 45.3046 38.5106 45.3058 38.1098L44.7429 38.1082ZM44.8352 39.3887L44.2784 39.4709C44.3344 39.8505 44.3443 40.2331 44.3077 40.6195L44.8681 40.6725L45.4284 40.7255C45.4734 40.2498 45.4614 39.7764 45.392 39.3065L44.8352 39.3887ZM44.8681 40.6725L44.3077 40.6195C44.2635 41.0871 44.2653 41.553 44.3136 42.0164L44.8734 41.9582L45.4332 41.8999C45.3928 41.5112 45.3911 41.1199 45.4284 40.7255L44.8681 40.6725ZM44.8734 41.9582L44.3136 42.0164C44.358 42.4432 44.4032 42.8697 44.4492 43.2957L45.0088 43.2353L45.5684 43.1748C45.5225 42.7503 45.4775 42.3253 45.4332 41.8999L44.8734 41.9582ZM45.0088 43.2353L44.4492 43.2957C44.4966 43.7348 44.5601 44.1704 44.6395 44.6024L45.1931 44.5005L45.7467 44.3987C45.6723 43.9943 45.6128 43.5864 45.5684 43.1748L45.0088 43.2353ZM45.1931 44.5005L44.6395 44.6024C44.7296 45.0917 44.9071 45.5372 45.1778 45.9298L45.6412 45.6103L46.1046 45.2908C45.9317 45.0401 45.8105 44.7458 45.7467 44.3987L45.1931 44.5005ZM45.6412 45.6103L45.1778 45.9298C45.3471 46.1753 45.576 46.3669 45.8664 46.4681C46.1514 46.5673 46.4502 46.5636 46.7388 46.4996L46.6169 45.9501L46.4949 45.4006C46.3549 45.4317 46.2767 45.419 46.2366 45.405C46.2018 45.3928 46.1571 45.367 46.1046 45.2908L45.6412 45.6103ZM46.6169 45.9501L46.7388 46.4996C47.2325 46.39 47.668 46.1985 48.0129 45.9003L47.6447 45.4746L47.2766 45.0488C47.1083 45.1944 46.8586 45.3199 46.4949 45.4006L46.6169 45.9501ZM47.6447 45.4746L48.0129 45.9003C48.4133 45.554 48.5973 45.0696 48.6272 44.5323L48.0652 44.5011L47.5032 44.4698C47.4856 44.7867 47.3893 44.9513 47.2766 45.0488L47.6447 45.4746ZM48.0652 44.5011L48.6272 44.5323C48.6487 44.1459 48.7117 43.7624 48.8169 43.381L48.2743 43.2314L47.7317 43.0818C47.6056 43.5391 47.5293 44.002 47.5032 44.4698L48.0652 44.5011ZM48.2743 43.2314L48.8169 43.381C48.9543 42.8828 48.9809 42.3744 48.8977 41.8615L48.3421 41.9517L47.7865 42.0419C47.8441 42.3966 47.8256 42.7414 47.7317 43.0818L48.2743 43.2314ZM48.3421 41.9517L48.8977 41.8615C48.8359 41.481 48.8305 41.1075 48.8802 40.739L48.3224 40.6638L47.7646 40.5885C47.6997 41.0696 47.7074 41.5547 47.7865 42.0419L48.3421 41.9517ZM48.3224 40.6638L48.8802 40.739C48.9386 40.3062 48.9876 39.8725 49.0271 39.438L48.4665 39.3871L47.906 39.3361C47.868 39.7543 47.8209 40.1718 47.7646 40.5885L48.3224 40.6638ZM48.4665 39.3871L49.0271 39.438C49.0667 39.002 49.095 38.5653 49.1119 38.128L48.5495 38.1063L47.9871 38.0845C47.9709 38.5023 47.9439 38.9195 47.906 39.3361L48.4665 39.3871ZM48.5495 38.1063L49.1119 38.128C49.1272 37.7342 49.1776 37.342 49.2634 36.9509L48.7136 36.8302L48.1639 36.7095C48.0639 37.1648 48.0049 37.6233 47.9871 38.0845L48.5495 38.1063ZM48.7136 36.8302L49.2634 36.9509C49.3674 36.477 49.4047 35.998 49.3749 35.5155L48.8131 35.5502L48.2513 35.5849C48.2747 35.9627 48.2457 36.3371 48.1639 36.7095L48.7136 36.8302ZM48.8131 35.5502L49.3749 35.5155C49.3495 35.1048 49.3455 34.6957 49.363 34.2881L48.8007 34.2639L48.2384 34.2398C48.2192 34.6869 48.2235 35.1353 48.2513 35.5849L48.8131 35.5502ZM48.8007 34.2639L49.363 34.2881C49.3801 33.8894 49.4276 33.4918 49.5057 33.0949L48.9534 32.9863L48.4011 32.8777C48.3123 33.3297 48.2579 33.7838 48.2384 34.2398L48.8007 34.2639ZM48.9534 32.9863L49.5057 33.0949C49.6016 32.607 49.6127 32.1147 49.5393 31.6208L48.9826 31.7035L48.4259 31.7862C48.4805 32.1539 48.4721 32.5168 48.4011 32.8777L48.9534 32.9863ZM48.9826 31.7035L49.5393 31.6208C49.4815 31.2315 49.4682 30.8456 49.4989 30.4623L48.9378 30.4174L48.3768 30.3724C48.3391 30.8424 48.3557 31.3139 48.4259 31.7862L48.9826 31.7035ZM48.9378 30.4174L49.4989 30.4623C49.5357 30.0033 49.5328 29.5413 49.4906 29.0768L48.9301 29.1277L48.3695 29.1786C48.406 29.5804 48.4084 29.9782 48.3768 30.3724L48.9378 30.4174ZM48.9301 29.1277L49.4906 29.0768C49.4635 28.7779 49.3712 28.4918 49.1864 28.2488C49.0004 28.0043 48.7487 27.8405 48.4646 27.7427L48.2814 28.2749L48.0981 28.807C48.2071 28.8446 48.2602 28.8906 48.2904 28.9304C48.3219 28.9717 48.3573 29.0443 48.3695 29.1786L48.9301 29.1277ZM48.2814 28.2749L48.4646 27.7427C48.27 27.6757 48.1287 27.6247 48.0365 27.5889C47.9892 27.5706 47.9631 27.5594 47.952 27.5542C47.9456 27.5512 47.9531 27.5544 47.9676 27.5629C47.9748 27.5672 47.9916 27.5774 48.0125 27.5933C48.0271 27.6044 48.0773 27.643 48.1246 27.7094L47.6661 28.036L47.2077 28.3625C47.2572 28.4319 47.3109 28.474 47.3305 28.4889C47.3565 28.5087 47.3799 28.5232 47.3951 28.5321C47.4256 28.5502 47.455 28.5645 47.4764 28.5745C47.5208 28.5952 47.5737 28.6168 47.629 28.6383C47.7418 28.6821 47.8996 28.7387 48.0981 28.807L48.2814 28.2749ZM47.6661 28.036L48.1246 27.7094C48.0451 27.5978 47.9473 27.5453 47.9066 27.5256C47.8581 27.502 47.8154 27.4895 47.7905 27.4831C47.7402 27.4702 47.6948 27.465 47.6678 27.4624C47.6097 27.4569 47.5448 27.4558 47.4834 27.4562C47.3562 27.457 47.1812 27.4647 46.9647 27.4782L46.9996 28.0399L47.0345 28.6017C47.2454 28.5886 47.3951 28.5824 47.4901 28.5819C47.5131 28.5817 47.5309 28.5819 47.544 28.5823C47.5579 28.5827 47.5631 28.5832 47.562 28.5831C47.5613 28.5831 47.5568 28.5826 47.5495 28.5815C47.5427 28.5805 47.5286 28.5781 47.5098 28.5733C47.4934 28.569 47.4577 28.559 47.4145 28.538C47.392 28.5271 47.3609 28.51 47.3269 28.4845C47.2931 28.4593 47.2487 28.42 47.2077 28.3625L47.6661 28.036Z" fill="#868B94"/>
<path d="M45.2404 54.2302C45.2325 52.4965 45.2376 51.3784 45.2426 51.3784C45.2795 51.2637 45.5047 50.9912 45.5533 50.9544C45.6615 50.8998 45.8521 50.8505 47.5715 50.8947C48.3093 50.9673 48.7055 51.0088 48.8639 51.0906C49.0025 51.1621 49.285 52.7753 48.9725 54.1249C48.8445 54.6775 48.7706 55.0914 48.6467 55.1505C48.5075 55.2168 48.3597 55.2935 48.2101 55.3253C47.8887 55.3934 47.408 55.5409 46.978 55.5373C46.3126 55.5316 45.723 55.5537 45.487 55.2583C45.3596 55.0988 45.2436 54.9261 45.2404 54.2302Z" fill="#868B94"/>
<path d="M45.3078 54.5531L44.7667 54.708L45.3078 54.5531ZM47.2577 55.41L47.2606 55.9728L47.2577 55.41ZM49.0035 52.8119L48.4413 52.7868L49.0035 52.8119ZM46.791 50.9777L46.748 51.5389L46.791 50.9777ZM45.3168 51.4023L45.1445 51.9381L45.3168 51.4023ZM45.2737 52.0199L44.7115 52.0471C44.7305 52.4405 44.7139 52.8343 44.6613 53.2289L45.2193 53.3032L45.7772 53.3775C45.8386 52.9162 45.8582 52.4544 45.8358 51.9926L45.2737 52.0199ZM45.2193 53.3032L44.6613 53.2289C44.5944 53.7317 44.6289 54.2264 44.7667 54.708L45.3078 54.5531L45.849 54.3982C45.7547 54.0691 45.7302 53.7305 45.7772 53.3775L45.2193 53.3032ZM45.3078 54.5531L44.7667 54.708C44.8458 54.9843 44.9795 55.238 45.1856 55.4413C45.3937 55.6466 45.6494 55.7746 45.9304 55.8368L46.052 55.2873L46.1736 54.7377C46.0745 54.7158 46.0162 54.6794 45.9762 54.64C45.9342 54.5986 45.8859 54.5272 45.849 54.3982L45.3078 54.5531ZM46.052 55.2873L45.9304 55.8368C46.3548 55.9307 46.7987 55.9753 47.2606 55.9728L47.2577 55.41L47.2547 54.8472C46.8692 54.8492 46.5093 54.812 46.1736 54.7377L46.052 55.2873ZM47.2577 55.41L47.2606 55.9728C47.7917 55.97 48.279 55.8224 48.7001 55.5187L48.3709 55.0622L48.0418 54.6056C47.8259 54.7612 47.571 54.8455 47.2547 54.8472L47.2577 55.41ZM48.3709 55.0622L48.7001 55.5187C49.1616 55.186 49.4154 54.7065 49.4721 54.1372L48.912 54.0815L48.3519 54.0258C48.3241 54.3049 48.2173 54.479 48.0418 54.6056L48.3709 55.0622ZM48.912 54.0815L49.4721 54.1372C49.5152 53.703 49.5465 53.2696 49.5658 52.8371L49.0035 52.8119L48.4413 52.7868C48.4229 53.1988 48.3931 53.6118 48.3519 54.0258L48.912 54.0815ZM49.0035 52.8119L49.5658 52.8371C49.587 52.3625 49.5427 51.8884 49.4343 51.4161L48.8857 51.5421L48.3371 51.668C48.4235 52.0443 48.4578 52.4168 48.4413 52.7868L49.0035 52.8119ZM48.8857 51.5421L49.4343 51.4161C49.365 51.1145 49.2175 50.8217 48.9411 50.6229C48.6653 50.4245 48.341 50.3772 48.0332 50.4056L48.085 50.9661L48.1368 51.5265C48.2008 51.5206 48.2406 51.525 48.2618 51.5296C48.2722 51.5318 48.2781 51.5341 48.2808 51.5352C48.2822 51.5358 48.283 51.5363 48.2833 51.5365C48.2835 51.5366 48.2836 51.5367 48.2837 51.5367C48.2837 51.5367 48.2838 51.5367 48.2838 51.5368C48.2838 51.5368 48.2838 51.5368 48.2839 51.5368C48.2839 51.5368 48.284 51.5369 48.2841 51.537C48.2843 51.5372 48.2849 51.5378 48.2858 51.5388C48.2875 51.5407 48.2912 51.5452 48.2963 51.5538C48.3068 51.5716 48.323 51.6067 48.3371 51.668L48.8857 51.5421ZM48.085 50.9661L48.0332 50.4056C47.6275 50.4431 47.2279 50.4466 46.8339 50.4165L46.791 50.9777L46.748 51.5389C47.2066 51.574 47.6697 51.5697 48.1368 51.5265L48.085 50.9661ZM46.791 50.9777L46.8339 50.4165C46.3336 50.3782 45.8557 50.4497 45.4632 50.7064L45.7713 51.1774L46.0793 51.6485C46.1939 51.5736 46.3958 51.5119 46.748 51.5389L46.791 50.9777ZM45.7713 51.1774L45.4632 50.7064C45.343 50.785 45.2637 50.8309 45.2179 50.8535C45.1939 50.8654 45.1952 50.8628 45.2143 50.8572C45.2244 50.8542 45.251 50.8469 45.2892 50.8434C45.3241 50.8403 45.3986 50.8374 45.489 50.8664L45.3168 51.4023L45.1445 51.9381C45.3284 51.9972 45.489 51.9497 45.5317 51.9372C45.6011 51.9168 45.6654 51.888 45.7171 51.8625C45.8228 51.8102 45.946 51.7357 46.0793 51.6485L45.7713 51.1774ZM45.3168 51.4023L45.489 50.8664C45.396 50.8365 45.2833 50.8265 45.1652 50.8574C45.05 50.8876 44.9648 50.9475 44.9077 51.003C44.8063 51.1015 44.7665 51.2116 44.7527 51.2526C44.7207 51.3479 44.7116 51.4456 44.7074 51.5055C44.6978 51.6434 44.7009 51.8294 44.7115 52.0471L45.2737 52.0199L45.8358 51.9926C45.8257 51.7827 45.8256 51.652 45.8304 51.584C45.8334 51.541 45.8359 51.5634 45.8198 51.6112C45.814 51.6286 45.7833 51.7218 45.6921 51.8104C45.6401 51.8609 45.5602 51.9176 45.4507 51.9463C45.3381 51.9758 45.2314 51.966 45.1445 51.9381L45.3168 51.4023Z" fill="#868B94"/>
</svg>
