<svg width="36" height="36" viewBox="0 0 36 36" fill="none" xmlns="http://www.w3.org/2000/svg">
<path d="M0 18C0 8.05888 8.05888 0 18 0C27.9411 0 36 8.05888 36 18C36 27.9411 27.9411 36 18 36C8.05888 36 0 27.9411 0 18Z" fill="white"/>
<path d="M27.6001 18.2269C27.6001 17.5178 27.5365 16.8359 27.4183 16.1814H18.0001V20.0541H23.3819C23.1456 21.2996 22.4365 22.3541 21.3728 23.0632V25.5814H24.6183C26.5092 23.8359 27.6001 21.2723 27.6001 18.2269Z" fill="#4285F4"/>
<path d="M17.995 28.0006C20.695 28.0006 22.9587 27.1097 24.6132 25.5825L21.3677 23.0643C20.4768 23.6643 19.3405 24.0279 17.995 24.0279C15.395 24.0279 13.1859 22.2734 12.395 19.9097H9.06775V22.4915C10.7132 25.7552 14.0859 28.0006 17.995 28.0006Z" fill="#34A853"/>
<path d="M12.4 19.9005C12.2 19.3005 12.0818 18.6641 12.0818 18.0005C12.0818 17.3369 12.2 16.7005 12.4 16.1005V13.5187H9.07273C8.39091 14.8641 8 16.3823 8 18.0005C8 19.6187 8.39091 21.1369 9.07273 22.4823L11.6636 20.4641L12.4 19.9005Z" fill="#FBBC05"/>
<path d="M17.995 11.9818C19.4677 11.9818 20.7768 12.4909 21.8223 13.4727L24.6859 10.6091C22.9496 8.99091 20.695 8 17.995 8C14.0859 8 10.7132 10.2455 9.06775 13.5182L12.395 16.1C13.1859 13.7364 15.395 11.9818 17.995 11.9818Z" fill="#EA4335"/>
</svg>
