<svg width="28" height="28" viewBox="0 0 28 28" fill="none" xmlns="http://www.w3.org/2000/svg">
<path d="M22.2041 4.01074C23.2128 4.113 24 4.96435 24 6V22L23.9893 22.2041C23.8938 23.1456 23.1456 23.8938 22.2041 23.9893L22 24H6C4.96457 23.9998 4.11299 23.2126 4.01074 22.2041L4 22V6C4 4.89559 4.89565 4.00026 6 4H22L22.2041 4.01074ZM6 5.5C5.72408 5.50026 5.5 5.72402 5.5 6V22C5.5 22.276 5.72408 22.4997 6 22.5H22C22.2761 22.5 22.5 22.2761 22.5 22V6C22.5 5.72386 22.2761 5.5 22 5.5H6Z" fill="#2A3038" style="fill:#2A3038;fill:color(display-p3 0.1647 0.1882 0.2196);fill-opacity:1;"/>
</svg>
