<svg width="42" height="42" viewBox="0 0 42 42" fill="none" xmlns="http://www.w3.org/2000/svg">
<circle cx="21" cy="21" r="20.3438" fill="#F7F8F9" stroke="#EEEFF1" style="fill:#F7F8F9;fill:color(display-p3 0.9686 0.9725 0.9765);fill-opacity:1;stroke:#EEEFF1;stroke:color(display-p3 0.9333 0.9373 0.9451);stroke-opacity:1;" stroke-width="1.3125"/>
<path d="M25.7307 11.3129L26.5466 11.4432C26.6859 11.5264 27.1272 11.7105 27.2276 11.8608C27.3845 12.0953 27.4695 12.2136 27.4258 12.3309C27.405 12.3865 27.3746 12.459 27.1285 12.7838C26.9116 13.0702 26.5135 13.585 26.2252 13.9222C25.9368 14.2594 25.7633 14.4142 25.6205 14.5285C25.4777 14.6427 25.369 14.7142 25.1112 14.8564C24.8534 14.9987 24.4586 15.2055 24.2167 15.3203C23.9748 15.4352 23.8883 15.4574 23.6945 15.4874C23.5006 15.5174 23.2082 15.5541 22.9907 15.562C22.7733 15.57 22.635 15.5499 22.3957 15.4915C22.1564 15.4331 21.826 15.3392 21.532 15.2286C21.2379 15.1181 20.9877 14.9945 20.7321 14.8373C20.4766 14.6801 20.2233 14.4949 19.9827 14.2875C19.7421 14.0802 19.5209 13.8573 19.2957 13.5762C19.0705 13.295 18.8481 12.9656 18.5685 12.4279C18.2889 11.8902 17.962 11.1664 17.7954 10.788C17.6288 10.4097 17.6167 10.3759 17.6273 10.353C17.6467 10.3109 17.7135 10.2526 17.933 10.1736L17.9367 10.1722C18.1807 10.0844 18.3674 10.0171 18.9575 10.1292C19.5173 10.2355 20.5699 10.4464 21.9324 10.6853C23.2948 10.9242 24.9178 11.1832 25.7304 11.3129L25.7307 11.3129Z" fill="#F7F8F9" style="fill:#F7F8F9;fill:color(display-p3 0.9686 0.9725 0.9765);fill-opacity:1;"/>
<path d="M18.8756 9.87787C19.1777 9.87175 19.4736 9.91617 19.7617 10.0087C20.0159 10.0905 20.2739 10.1586 20.533 10.2151C20.7911 10.2714 21.0519 10.3153 21.3152 10.3432C21.5934 10.3728 21.8705 10.4101 22.1452 10.4589C22.4197 10.5077 22.6926 10.5667 22.9638 10.635C23.2194 10.6993 23.4784 10.7477 23.7393 10.7797C24.0054 10.8124 24.2736 10.8366 24.5423 10.8531C24.8334 10.871 25.1207 10.9191 25.4022 10.9959C25.6549 11.0648 25.912 11.1136 26.1709 11.1437C26.4432 11.1754 26.6529 11.2098 26.7893 11.2454C26.9005 11.2745 27.0003 11.3393 27.0865 11.4137C27.1747 11.4899 27.2637 11.5891 27.3536 11.7049C27.46 11.8418 27.5317 11.9959 27.5502 12.1632C27.5685 12.3312 27.5307 12.4936 27.4522 12.6457C27.3297 12.8829 27.1933 13.1206 27.0414 13.358C26.8814 13.608 26.6908 13.8345 26.4714 14.0353C26.2678 14.2217 26.0645 14.4049 25.8626 14.5855C25.6458 14.7794 25.4071 14.9446 25.148 15.0811C24.8999 15.2118 24.647 15.3307 24.3902 15.4354C24.1372 15.5385 23.8793 15.637 23.6162 15.729C23.3102 15.836 22.9957 15.8501 22.6802 15.7722C22.4122 15.7061 22.1459 15.6392 21.8813 15.5734C21.5925 15.5016 21.3195 15.3888 21.0653 15.2358C20.8411 15.1009 20.6068 14.978 20.3639 14.8664C20.0741 14.7331 19.832 14.537 19.6413 14.2812C19.4805 14.0654 19.3118 13.8591 19.1363 13.6636C18.9463 13.452 18.7751 13.225 18.6214 12.9838C18.4717 12.7489 18.3296 12.5088 18.1968 12.2629C18.0594 12.0082 17.9474 11.7411 17.8595 11.4637C17.778 11.2065 17.6931 10.9661 17.605 10.7439C17.5459 10.5945 17.5194 10.413 17.615 10.2472C17.7077 10.0866 17.8744 10.0126 18.031 9.9779C18.3027 9.91781 18.5853 9.88386 18.8756 9.87787ZM19.6078 10.4905C19.3724 10.4148 19.1308 10.3787 18.8843 10.3838C18.626 10.3891 18.3786 10.4197 18.1413 10.4721C18.0991 10.4815 18.073 10.4913 18.0591 10.4989C18.0606 10.5102 18.0644 10.5292 18.0756 10.5576C18.1686 10.7921 18.2577 11.0439 18.3424 11.3112C18.4208 11.5583 18.5199 11.7958 18.642 12.0222C18.769 12.2575 18.9045 12.4878 19.0476 12.7125C19.1866 12.9305 19.3417 13.1349 19.513 13.3258C19.6989 13.5328 19.8769 13.7507 20.0467 13.9785C20.1867 14.1664 20.3632 14.3081 20.5762 14.406C20.836 14.5254 21.0863 14.6587 21.327 14.8036C21.5376 14.9303 21.7628 15.0226 22.0025 15.0823C22.2669 15.148 22.5336 15.215 22.8014 15.2811C23.022 15.3355 23.2362 15.324 23.4491 15.2495C23.7043 15.1602 23.9546 15.0659 24.1996 14.9661C24.441 14.8677 24.6799 14.758 24.9137 14.6349C25.1362 14.5176 25.3392 14.3746 25.5248 14.2087C25.7252 14.0294 25.9271 13.8467 26.1294 13.6615C26.3164 13.4904 26.4785 13.298 26.6147 13.0852C26.7588 12.8601 26.8884 12.6356 27.0033 12.413C27.0432 12.3356 27.0527 12.2727 27.0467 12.218C27.0406 12.1621 27.0171 12.0943 26.9554 12.0149C26.8777 11.9149 26.811 11.8442 26.7564 11.797C26.7014 11.7494 26.6702 11.7359 26.6624 11.7336C26.5628 11.7076 26.3825 11.6784 26.1121 11.6469C25.8278 11.6139 25.5464 11.5607 25.2693 11.4851C25.0213 11.4175 24.7692 11.3748 24.5127 11.359C24.2335 11.3419 23.9546 11.3165 23.678 11.2826C23.3961 11.248 23.1167 11.1948 22.8407 11.1254C22.581 11.06 22.3198 11.0037 22.0571 10.957C21.7942 10.9103 21.5288 10.8733 21.2624 10.845C20.9808 10.8151 20.7012 10.7702 20.4252 10.71C20.1501 10.6501 19.8773 10.5772 19.6078 10.4905Z" fill="#D2D3D9" style="fill:#D2D3D9;fill:color(display-p3 0.8235 0.8275 0.8510);fill-opacity:1;"/>
<path d="M15.8043 9.90674C16.3859 9.97968 16.8206 10.0445 17.0637 10.0826L17.9436 10.2205C18.0331 10.2328 18.1252 10.2464 18.2161 10.2619C18.2412 10.2662 18.2645 10.2701 18.2868 10.2743L18.4306 10.2969C18.4312 10.297 18.3871 10.2906 18.3165 10.2803C18.4353 10.3056 18.5314 10.3465 18.7287 10.4982C18.9778 10.6896 19.04 10.8257 19.1643 11.0977C19.3045 11.4047 19.476 11.7107 19.7112 11.8596C20.1126 12.1136 20.9325 12.7776 22.5244 12.7351C23.6108 12.7061 24.4052 12.672 24.8864 12.4828C25.4218 12.2723 25.0597 11.5968 26.5252 11.4808C28.2038 11.5403 29.5942 12.0852 29.9555 12.4558C30.7769 13.2982 31.4329 13.578 32.0441 14.8874C32.5284 15.925 33.0315 16.6165 33.3434 17.2999C33.8397 18.3872 34.5359 19.3876 34.4359 20.0083C34.4027 20.214 34.2695 21.2779 34.2159 21.3727C34.1624 21.4674 33.7874 22.1796 33.4331 22.3016C31.8852 22.8349 32.6144 22.5743 32.3052 22.7529C31.8073 23.0407 30.9209 23.4726 30.1489 23.0384C29.9178 22.9085 29.6212 22.8438 29.4996 22.6077C29.2295 22.0827 28.9364 21.351 28.6217 20.8967C28.5352 20.7718 28.5977 20.9773 28.5508 21.17C28.3897 21.8326 28.4345 22.7421 28.1755 24.486C27.9752 25.8342 27.7359 28.3622 27.2803 30.0394C26.8247 31.7167 26.8241 31.583 26.5705 31.8243C26.3421 32.0417 25.4684 31.8291 25.0897 31.8274C24.1808 31.8234 23.064 31.8088 21.0726 31.501C19.6694 31.2841 17.1673 30.8938 15.7508 30.6042C13.991 30.2445 13.5259 30.1191 13.3641 29.9667C13.2844 29.8916 13.2199 29.7991 13.1208 29.5189C12.642 28.165 12.3068 27.5226 12.7217 24.6672C12.9305 23.2302 13.3219 21.0703 13.5172 19.9251C13.7125 18.7799 13.7253 18.5895 13.6612 18.6093C13.1619 18.763 12.062 19.6991 11.4453 19.3837C11.0617 19.1875 10.6024 18.836 10.2897 18.39C9.76076 17.6354 8.54287 16.2775 8.54625 15.4387C8.54717 15.2106 8.60276 14.989 8.79544 14.7426C9.10001 14.3531 10.1916 13.0605 12.3025 11.7051C14.1691 10.5066 15.256 9.83798 15.8043 9.90674Z" fill="#D2D3D9" style="fill:#D2D3D9;fill:color(display-p3 0.8235 0.8275 0.8510);fill-opacity:1;"/>
<path d="M27.414 11.3461C27.7045 11.359 27.9912 11.4017 28.2724 11.4746C28.5398 11.544 28.807 11.6196 29.0728 11.6997C29.3617 11.7866 29.63 11.9171 29.8765 12.0913C30.1163 12.2609 30.3337 12.456 30.5292 12.6751C30.7027 12.8695 30.8912 13.0477 31.0933 13.2103C31.3257 13.3972 31.5264 13.6138 31.6935 13.8598C31.8546 14.0973 31.9938 14.3481 32.1113 14.6097C32.2177 14.8467 32.3417 15.076 32.4825 15.2981C32.635 15.5385 32.7739 15.7862 32.8973 16.0417C33.0143 16.2842 33.1372 16.5227 33.2665 16.7557C33.3966 16.9904 33.5308 17.2249 33.6702 17.4576C33.8136 17.6971 33.9501 17.9413 34.0788 18.1879C34.2088 18.4373 34.326 18.6925 34.4298 18.9534C34.54 19.2308 34.6054 19.518 34.6257 19.8118C34.6459 20.1039 34.6236 20.3955 34.559 20.686C34.4964 20.967 34.4122 21.235 34.3054 21.4896C34.1931 21.7572 34.0367 22.0017 33.8371 22.2212C33.6244 22.4551 33.362 22.6184 33.0559 22.7077C32.8111 22.7792 32.5797 22.8752 32.361 22.9943C32.1076 23.1322 31.8388 23.2364 31.5576 23.3091C31.2747 23.3821 30.9861 23.4177 30.6921 23.4136C30.3706 23.409 30.0732 23.3143 29.8083 23.133C29.5476 22.9546 29.3505 22.7208 29.2201 22.4356C29.1159 22.2075 28.9874 21.9864 28.8364 21.7732C28.7971 21.7179 28.757 21.6736 28.7246 21.6332C28.6875 21.8979 28.654 22.1627 28.6265 22.4281C28.5979 22.7047 28.5617 22.9812 28.5175 23.2555C28.4769 23.5073 28.4631 23.7636 28.4757 24.0232C28.4899 24.3158 28.4778 24.6061 28.4375 24.8921C28.3993 25.1632 28.3588 25.4345 28.3167 25.7056C28.2736 25.9825 28.2189 26.2584 28.1533 26.5321C28.0925 26.7864 28.0522 27.0433 28.0311 27.3029C28.009 27.5766 27.9844 27.8504 27.9585 28.1242C27.9317 28.4079 27.8857 28.6893 27.8227 28.967C27.762 29.2341 27.701 29.5013 27.6395 29.7684C27.5772 30.0391 27.5091 30.3095 27.4355 30.5763C27.3579 30.8572 27.2514 31.1255 27.1156 31.3796C26.9651 31.6608 26.7498 31.8753 26.4712 32.0123C26.1976 32.1467 25.8985 32.1956 25.5834 32.1655C25.3164 32.14 25.0482 32.1227 24.7812 32.1125C24.5059 32.102 24.2302 32.0854 23.9545 32.0633C23.6776 32.0411 23.401 32.012 23.1258 31.9755C22.8646 31.9408 22.6016 31.9199 22.3368 31.9146C22.0404 31.9088 21.7491 31.8645 21.4634 31.7817C21.2246 31.7124 20.9789 31.6826 20.7275 31.6911C20.4339 31.7009 20.1428 31.6839 19.8567 31.6389C19.5814 31.5956 19.3079 31.5421 19.0357 31.4806C18.7777 31.4223 18.5168 31.378 18.2541 31.3484C17.9778 31.3173 17.7017 31.2789 17.4277 31.2334C17.1535 31.1878 16.8803 31.1345 16.6089 31.0733C16.3362 31.0118 16.0646 30.9414 15.7963 30.8603C15.5533 30.787 15.3044 30.7433 15.0487 30.7295C14.745 30.7132 14.4513 30.6472 14.1693 30.5338C13.9019 30.4262 13.6499 30.303 13.4161 30.1642C13.1488 30.0054 12.9453 29.7767 12.8064 29.4873C12.6763 29.216 12.5899 28.9299 12.548 28.6308C12.5113 28.3688 12.4569 28.1103 12.3844 27.858C12.2993 27.561 12.2767 27.2572 12.3164 26.9501C12.3503 26.6888 12.3659 26.427 12.3628 26.1666C12.3595 25.8843 12.3728 25.6018 12.4032 25.3204C12.4326 25.0476 12.4646 24.775 12.4991 24.5029C12.5338 24.2286 12.575 23.9543 12.6211 23.6817C12.6665 23.4137 12.7098 23.1444 12.751 22.8758C12.7938 22.5974 12.8501 22.3203 12.921 22.0467C12.9884 21.7863 13.0476 21.5238 13.0996 21.2607C13.152 20.9957 13.1999 20.7294 13.2423 20.4626C13.2847 20.1954 13.3238 19.9272 13.3578 19.6586C13.3869 19.4298 13.3823 19.2365 13.3601 19.0745C13.3483 19.0802 13.3331 19.0857 13.3186 19.0938C13.0692 19.2337 12.81 19.3523 12.5409 19.449C12.2498 19.5537 11.9562 19.5882 11.666 19.5479C11.3878 19.5091 11.1142 19.4165 10.8475 19.2741C10.5729 19.1273 10.3396 18.9298 10.1497 18.6831C9.97919 18.4614 9.81291 18.2354 9.65385 18.0084C9.49774 17.7857 9.34116 17.5633 9.18302 17.3419C9.02061 17.1146 8.86521 16.8814 8.71911 16.6427C8.55805 16.3795 8.4573 16.0964 8.41918 15.7956C8.38151 15.498 8.40289 15.203 8.48311 14.9131C8.56519 14.617 8.71228 14.3503 8.91979 14.1167C9.10527 13.908 9.29695 13.705 9.49299 13.5064C9.70222 13.2944 9.93677 13.1115 10.1975 12.9613C10.4191 12.8336 10.6191 12.6802 10.7959 12.5009C10.9959 12.2983 11.2065 12.1075 11.4287 11.9303C11.6582 11.7472 11.9069 11.5915 12.1724 11.4636C12.4082 11.3501 12.6327 11.2193 12.8443 11.0695C13.0669 10.9121 13.2885 10.7527 13.5098 10.5923C13.7453 10.4218 13.9954 10.2747 14.2595 10.1526C14.5127 10.0356 14.7694 9.92402 15.0279 9.81981C15.3175 9.7032 15.6205 9.65493 15.932 9.67538C16.2191 9.69428 16.5024 9.73776 16.7824 9.80257C17.0326 9.86051 17.4116 9.91413 17.9254 9.96292L17.9391 9.96512L17.9804 9.96972L18.0001 9.97289C18.0743 9.96714 18.1511 9.97683 18.2241 10.0127C18.2472 10.0069 18.2898 9.999 18.3404 10.0096C18.367 10.0153 18.3924 10.0261 18.4159 10.0399L18.4468 10.0449L18.4973 10.105L18.5106 10.1092L18.5297 10.1164L18.5477 10.1271C18.6274 10.1783 18.7745 10.2983 18.9753 10.4685C19.2076 10.6654 19.3922 10.9039 19.5272 11.1798C19.6252 11.3799 19.768 11.5325 19.9589 11.6439C20.1955 11.7817 20.4303 11.924 20.6631 12.0698C20.868 12.1981 21.0894 12.2865 21.3268 12.3346C21.5795 12.3858 21.8338 12.4155 22.0897 12.4218C22.3557 12.4282 22.6234 12.4261 22.8913 12.417C23.1684 12.4076 23.4466 12.4065 23.7248 12.4112C23.9781 12.4155 24.2292 12.3891 24.4766 12.3321C24.6878 12.2834 24.8551 12.1764 24.9872 12.008C25.1782 11.7642 25.4139 11.5704 25.691 11.4286C25.9823 11.2795 26.2945 11.2264 26.6193 11.272C26.8845 11.3093 27.1494 11.3344 27.414 11.3461ZM28.1452 11.9644C27.8985 11.9004 27.6477 11.8626 27.3927 11.8513C27.1116 11.8389 26.8297 11.8128 26.5484 11.7733C26.3262 11.7421 26.1192 11.7769 25.921 11.8783C25.7089 11.9868 25.5309 12.133 25.3856 12.3183C25.1814 12.5789 24.9129 12.7501 24.5893 12.8247C24.3017 12.8909 24.0102 12.9209 23.7156 12.9159C23.4459 12.9113 23.1765 12.913 22.908 12.9221C22.6306 12.9316 22.354 12.9332 22.0784 12.9265C21.7927 12.9196 21.5085 12.8883 21.227 12.8313C20.93 12.7711 20.6523 12.6597 20.3956 12.499C20.167 12.3559 19.9364 12.2166 19.7042 12.0813C19.4263 11.9194 19.2149 11.6906 19.0732 11.4009C18.9684 11.187 18.8272 11.0051 18.649 10.854C18.4692 10.7016 18.3535 10.6121 18.2961 10.5709C18.244 10.5769 18.2008 10.5733 18.1732 10.5634L18.1104 10.531C18.1132 10.5325 18.1146 10.5339 18.1137 10.5336C18.1127 10.5332 18.1102 10.5315 18.1064 10.5304C18.1025 10.5293 18.0975 10.5273 18.0911 10.5259C18.0677 10.5207 18.045 10.5098 18.0206 10.5025C17.9282 10.4947 17.8123 10.4863 17.6732 10.4746C17.6237 10.4704 17.5817 10.4677 17.5586 10.4643C17.5549 10.4638 17.5488 10.4629 17.5429 10.4618C17.5385 10.461 17.5244 10.4574 17.5086 10.4522C17.5018 10.4499 17.4762 10.4423 17.4488 10.4244C17.4459 10.4224 17.4429 10.4182 17.4384 10.4149C17.1244 10.3772 16.8667 10.3403 16.6689 10.2945C16.4155 10.2359 16.1587 10.1978 15.8987 10.1807C15.6629 10.1652 15.4356 10.2023 15.2162 10.2908C14.9657 10.3918 14.7174 10.498 14.472 10.6114C14.2377 10.7197 14.0157 10.8491 13.8068 11.0004C13.584 11.1618 13.3606 11.3225 13.1366 11.481C12.9016 11.6473 12.6524 11.7936 12.3912 11.9193C12.1598 12.0307 11.9445 12.1667 11.745 12.3258C11.5382 12.4908 11.3409 12.6686 11.1548 12.8572C10.9458 13.069 10.7109 13.2502 10.4507 13.4003C10.2289 13.528 10.029 13.6816 9.85218 13.8606C9.66227 14.053 9.47791 14.2517 9.29822 14.4539C9.14069 14.6312 9.03089 14.8281 8.97004 15.0477C8.90757 15.2733 8.89269 15.5015 8.92191 15.7324C8.95079 15.9596 9.0257 16.1744 9.15006 16.3779C9.2899 16.6064 9.43932 16.8305 9.59475 17.048C9.75398 17.2709 9.91177 17.495 10.0689 17.7192C10.2235 17.9398 10.3842 18.1574 10.5501 18.373C10.6964 18.5633 10.8756 18.715 11.0875 18.8281C11.3075 18.9455 11.524 19.0174 11.7369 19.047C11.938 19.0748 12.1477 19.0525 12.3691 18.9729C12.6122 18.8855 12.8463 18.7781 13.0717 18.6517C13.201 18.5792 13.371 18.5115 13.5399 18.5549C13.7465 18.6081 13.8291 18.7865 13.8551 18.9338C13.8965 19.169 13.8964 19.4345 13.8597 19.7234C13.825 19.9971 13.7849 20.2708 13.7416 20.5431C13.6983 20.8158 13.6497 21.0876 13.5962 21.3585C13.5422 21.6313 13.4807 21.9035 13.4108 22.1735C13.3442 22.4307 13.2915 22.6912 13.2514 22.9528C13.2098 23.224 13.166 23.4957 13.1202 23.7663C13.0753 24.032 13.0351 24.2988 13.0012 24.5661C12.9671 24.8355 12.9357 25.1055 12.9066 25.3756C12.8783 25.6372 12.8649 25.8996 12.868 26.1619C12.8714 26.446 12.8555 26.7306 12.8187 27.015C12.7878 27.254 12.805 27.4895 12.8712 27.72C12.9501 27.9949 13.01 28.2748 13.0499 28.5596C13.0846 28.8076 13.1545 29.0444 13.2621 29.2685C13.3607 29.474 13.4983 29.6248 13.6741 29.7294C13.884 29.854 14.1123 29.9651 14.3572 30.0637C14.5877 30.1564 14.8278 30.2103 15.0762 30.2237C15.3718 30.2397 15.6607 30.2902 15.9425 30.3753C16.1994 30.4529 16.4591 30.5217 16.7201 30.5806C16.9824 30.6398 17.2472 30.6902 17.5122 30.7342C17.7774 30.7783 18.0436 30.8169 18.311 30.8469C18.5921 30.8786 18.8708 30.9255 19.1468 30.9878C19.4081 31.0469 19.6711 31.0973 19.9353 31.1388C20.1893 31.1788 20.4485 31.1948 20.7108 31.186C21.0151 31.1758 21.3135 31.2114 21.604 31.2957C21.8472 31.3663 22.0943 31.4046 22.3461 31.4096C22.6298 31.4152 22.9124 31.4367 23.1926 31.4739C23.4591 31.5093 23.7276 31.5378 23.9958 31.5593C24.2643 31.5807 24.5328 31.5968 24.8009 31.607C25.0779 31.6176 25.3558 31.6364 25.6327 31.6628C25.8618 31.6846 26.0649 31.648 26.2481 31.558C26.4258 31.4706 26.5661 31.335 26.6696 31.1416C26.7876 30.9209 26.8808 30.6871 26.9486 30.4418C27.0203 30.182 27.0868 29.9186 27.1475 29.6549C27.2089 29.3885 27.2699 29.1219 27.3304 28.8555C27.3886 28.599 27.4291 28.3387 27.4539 28.0766C27.4795 27.805 27.5032 27.5328 27.5251 27.2613C27.5482 26.976 27.5948 26.6937 27.6616 26.4145C27.724 26.154 27.7757 25.89 27.8166 25.6267C27.8584 25.3582 27.8987 25.0897 27.9366 24.8212C27.9724 24.5674 27.9836 24.3094 27.9709 24.0482C27.9566 23.7539 27.9714 23.4621 28.0177 23.1749C28.0604 22.9102 28.0968 22.6442 28.1244 22.3773C28.1529 22.1025 28.1867 21.8267 28.2252 21.5527C28.245 21.4121 28.2752 21.2761 28.3302 21.1752C28.3583 21.1239 28.4064 21.0567 28.4864 21.0141C28.5323 20.9897 28.5799 20.9784 28.6263 20.9769L28.7607 21.0002L28.8962 21.0801C28.938 21.1123 28.9765 21.1486 29.0112 21.1848C29.0856 21.2625 29.1659 21.3634 29.2498 21.4817C29.4183 21.7196 29.5624 21.9681 29.6801 22.2258C29.7716 22.4257 29.9082 22.5874 30.0938 22.7145C30.2763 22.8394 30.4772 22.9034 30.6997 22.9066C30.949 22.9101 31.1935 22.882 31.4324 22.8203C31.6736 22.7579 31.9021 22.6667 32.1187 22.5488C32.37 22.412 32.6353 22.3018 32.9144 22.2204C33.1324 22.1567 33.3144 22.0444 33.4633 21.8806C33.6252 21.7026 33.7489 21.5069 33.8381 21.2944C33.9328 21.0687 34.0096 20.8296 34.066 20.5764C34.1203 20.3324 34.1386 20.0889 34.1218 19.8464C34.1051 19.606 34.0519 19.3714 33.9609 19.142C33.8634 18.8969 33.7527 18.6566 33.6305 18.4223C33.5064 18.1844 33.3743 17.9488 33.2359 17.7178C33.0936 17.4802 32.9556 17.2405 32.8226 17.0007C32.6888 16.7596 32.5623 16.5132 32.4413 16.2625C32.3264 16.0245 32.1967 15.7936 32.0546 15.5696C31.9011 15.3274 31.7655 15.0767 31.6491 14.8175C31.5437 14.5829 31.42 14.358 31.2753 14.1448C31.1365 13.9402 30.9692 13.7596 30.7756 13.6038C30.552 13.4239 30.3445 13.2258 30.1528 13.0109C29.9828 12.8204 29.7921 12.652 29.5836 12.5045C29.3818 12.3619 29.1629 12.2559 28.9266 12.1847C28.6671 12.1065 28.4063 12.0321 28.1452 11.9644Z" fill="#D2D3D9" style="fill:#D2D3D9;fill:color(display-p3 0.8235 0.8275 0.8510);fill-opacity:1;"/>
<path d="M26.2622 11.8227C26.3942 11.7411 26.5684 11.7823 26.6502 11.9141C26.732 12.0462 26.6908 12.2207 26.5587 12.3025L26.524 12.3236L26.4373 12.3785C26.381 12.414 26.2787 12.4971 26.1273 12.6447C25.9685 12.7993 25.8031 12.947 25.6309 13.0877C25.4222 13.2582 25.1808 13.3591 24.9127 13.3857C24.7255 13.4042 24.5411 13.4491 24.3615 13.5194C24.1353 13.608 23.9057 13.6621 23.6741 13.6823C23.4752 13.6996 23.2692 13.7224 23.0582 13.75C22.8164 13.7815 22.5739 13.7773 22.3343 13.738C22.1239 13.7034 21.915 13.6714 21.7089 13.6417C21.4972 13.6112 21.2846 13.5757 21.0712 13.5368C20.8451 13.4956 20.6243 13.4347 20.4087 13.3542C20.1878 13.2717 19.9783 13.1642 19.7817 13.0326C19.6053 12.9146 19.4298 12.801 19.2558 12.6919C19.0623 12.5706 18.8806 12.4285 18.7124 12.2663C18.5334 12.0937 18.3889 11.8944 18.281 11.6692C18.2386 11.5805 18.1806 11.4732 18.1059 11.3471L17.8295 10.9085L17.8146 10.8884C17.7226 10.7639 17.7475 10.5874 17.8715 10.4949C17.9963 10.4026 18.1726 10.4291 18.2651 10.5538L18.2907 10.5868L18.2964 10.5922L18.2998 10.5994C18.5219 10.9363 18.6879 11.2135 18.7897 11.426C18.8687 11.5909 18.9722 11.7362 19.1024 11.8618C19.2432 11.9976 19.3937 12.1148 19.5529 12.2147C19.7317 12.3268 19.9117 12.4457 20.0925 12.5667C20.2532 12.6743 20.425 12.7602 20.6049 12.8273C20.7894 12.8962 20.9783 12.9477 21.1716 12.983C21.3783 13.0207 21.5847 13.0556 21.7895 13.0851C21.9996 13.1153 22.2121 13.148 22.4262 13.1832C22.6112 13.2135 22.7976 13.2173 22.9851 13.1929C23.2035 13.1644 23.4169 13.1404 23.6242 13.1224C23.7989 13.1072 23.9769 13.0652 24.1567 12.9947C24.3835 12.9059 24.6169 12.8484 24.8564 12.8248C25.0146 12.8091 25.1526 12.7526 25.2758 12.6521C25.4352 12.5218 25.5891 12.3843 25.736 12.2411C25.8905 12.0907 26.026 11.9716 26.1356 11.9025L26.1352 11.9049L26.2248 11.848L26.2272 11.8459L26.2622 11.8227Z" fill="#F7F8F9" style="fill:#F7F8F9;fill:color(display-p3 0.9686 0.9725 0.9765);fill-opacity:1;"/>
</svg>
