<svg width="15" height="15" viewBox="0 0 15 15" fill="none" xmlns="http://www.w3.org/2000/svg">
<path fill-rule="evenodd" clip-rule="evenodd" d="M15 6V0.75C15 0.3375 14.6625 0 14.25 0H9C8.5875 0 8.25 0.3375 8.25 0.75C8.25 1.1625 8.5875 1.5 9 1.5H12.4425L8.475 5.4675C8.40556 5.53694 8.35048 5.61937 8.31291 5.71009C8.27533 5.80082 8.25599 5.89805 8.25599 5.99625C8.25599 6.09445 8.27533 6.19168 8.31291 6.28241C8.35048 6.37313 8.40556 6.45556 8.475 6.525C8.54444 6.59444 8.62687 6.64952 8.71759 6.6871C8.80832 6.72467 8.90555 6.74402 9.00375 6.74402C9.10195 6.74402 9.19919 6.72467 9.28991 6.6871C9.38063 6.64952 9.46306 6.59444 9.5325 6.525L13.5 2.5575V6C13.5 6.4125 13.8375 6.75 14.25 6.75C14.6625 6.75 15 6.4125 15 6ZM0.75 8.25C0.3375 8.25 0 8.5875 0 9V14.25C0 14.6625 0.3375 15 0.75 15H6C6.4125 15 6.75 14.6625 6.75 14.25C6.75 13.8375 6.4125 13.5 6 13.5H2.5575L6.525 9.5325C6.59444 9.46306 6.64952 9.38063 6.6871 9.28991C6.72467 9.19919 6.74402 9.10195 6.74402 9.00375C6.74402 8.90555 6.72467 8.80832 6.6871 8.71759C6.64952 8.62687 6.59444 8.54444 6.525 8.475C6.45556 8.40556 6.37313 8.35048 6.28241 8.31291C6.19168 8.27533 6.09445 8.25599 5.99625 8.25599C5.89805 8.25599 5.80082 8.27533 5.71009 8.31291C5.61937 8.35048 5.53694 8.40556 5.4675 8.475L1.5 12.4425V9C1.5 8.5875 1.1625 8.25 0.75 8.25Z" fill="#EEEFF1"/>
</svg>
