<svg width="42" height="42" viewBox="0 0 42 42" fill="none" xmlns="http://www.w3.org/2000/svg">
<circle cx="21" cy="21" r="20.3438" fill="#F7F8F9" stroke="#EEEFF1" style="fill:#F7F8F9;fill:color(display-p3 0.9686 0.9725 0.9765);fill-opacity:1;stroke:#EEEFF1;stroke:color(display-p3 0.9333 0.9373 0.9451);stroke-opacity:1;" stroke-width="1.3125"/>
<path d="M11.9267 14.9619C11.7228 12.5673 11.6208 11.3699 12.3014 10.5627C12.982 9.75538 14.1793 9.65341 16.574 9.44949L23.8518 8.82971C26.2464 8.62579 27.4438 8.52382 28.251 9.20439C29.0583 9.88496 29.1603 11.0823 29.3642 13.4769L30.4436 26.1521C30.6475 28.5467 30.7495 29.744 30.0689 30.5513C29.3883 31.3586 28.191 31.4606 25.7964 31.6645L18.5186 32.2843C16.1239 32.4882 14.9266 32.5901 14.1193 31.9096C13.312 31.229 13.2101 30.0317 13.0061 27.637L11.9267 14.9619Z" fill="#D2D3D9" style="fill:#D2D3D9;fill:color(display-p3 0.8235 0.8275 0.8510);fill-opacity:1;"/>
<path d="M22.2634 8.36178C22.8307 8.28976 23.4034 8.25417 23.9766 8.25182C24.5222 8.24958 25.0665 8.23868 25.6088 8.21696C26.1929 8.19355 26.7789 8.22901 27.3609 8.32341C28.0517 8.43576 28.6041 8.79614 28.9859 9.38404C29.3384 9.92716 29.5312 10.5265 29.5619 11.1699C29.5867 11.6859 29.6672 12.1958 29.8001 12.7006C29.952 13.2772 30.0354 13.8637 30.0536 14.4539C30.0699 14.9839 30.1198 15.512 30.2002 16.0366C30.2886 16.6142 30.3203 17.1967 30.297 17.7832C30.2761 18.3109 30.2968 18.8366 30.3588 19.3567C30.4238 19.9028 30.4895 20.4488 30.5542 20.9949C30.6184 21.5366 30.6917 22.0789 30.7726 22.6192C30.8605 23.2064 30.877 23.8005 30.8204 24.3982C30.7733 24.8943 30.8117 25.3816 30.941 25.863C31.0994 26.4521 31.1686 27.051 31.1456 27.6564C31.1241 28.2199 31.0869 28.7858 31.0341 29.3488C30.9682 30.0476 30.6402 30.6139 30.0636 31.0021C29.5901 31.3209 29.0819 31.5947 28.5381 31.8198C27.9694 32.0551 27.3765 32.1849 26.7647 32.2105C26.2161 32.2334 25.6674 32.2642 25.1211 32.2986C24.5778 32.3328 24.0348 32.3777 23.4937 32.4331C22.9216 32.4917 22.3458 32.5084 21.7673 32.4842C21.2508 32.4625 20.7396 32.4959 20.2332 32.587C19.6749 32.6877 19.1125 32.7663 18.5499 32.8182C17.9749 32.8712 17.3973 32.876 16.8204 32.8377C16.2741 32.8013 15.7275 32.77 15.1818 32.7452C14.4728 32.713 13.8942 32.394 13.4911 31.8098C13.1319 31.289 12.9093 30.7102 12.8323 30.0833C12.7665 29.5477 12.6861 29.0112 12.5918 28.4768C12.4935 27.9198 12.4205 27.3588 12.3687 26.7969C12.316 26.2243 12.3026 25.6482 12.3334 25.0692C12.3601 24.5692 12.3095 24.075 12.1754 23.5875C12.0113 22.9905 11.9536 22.383 12.0045 21.7672C12.0478 21.2433 12.0412 20.7241 11.9838 20.2101C11.9251 19.6852 11.8298 19.1629 11.7025 18.643C11.6329 18.3591 11.576 18.0724 11.5295 17.7863L11.4245 16.9278C11.3778 16.3541 11.3716 15.7745 11.4088 15.1943C11.4424 14.6697 11.43 14.1499 11.3679 13.6349C11.2973 13.0495 11.2954 12.4644 11.3622 11.8805C11.4379 11.2205 11.7143 10.6501 12.1906 10.1989C12.6481 9.76548 13.1965 9.48675 13.8217 9.36041C14.3783 9.24798 14.9424 9.17218 15.5138 9.13627C15.7825 9.11941 15.9839 9.10279 16.1207 9.08458C16.1791 9.07678 16.2205 9.06884 16.2464 9.06327C16.3201 9.02512 16.3921 9.00517 16.4292 8.99461C16.4964 8.97546 16.5762 8.95512 16.6601 8.93901C16.829 8.90663 17.0547 8.87317 17.331 8.83776C17.9029 8.76451 18.4795 8.73759 19.0584 8.75069C19.5765 8.76236 20.0898 8.71843 20.5987 8.62361C21.152 8.52048 21.7072 8.43241 22.2634 8.36178ZM22.3933 9.37413C21.8565 9.44229 21.3184 9.52757 20.7842 9.62715C20.2062 9.73473 19.6213 9.78141 19.0332 9.76809C18.5057 9.75622 17.9818 9.78345 17.4613 9.85008C17.192 9.88459 16.9881 9.91562 16.8497 9.9422C16.7807 9.95546 16.7348 9.96669 16.7082 9.97425C16.7018 9.97611 16.6983 9.97834 16.6968 9.9789C16.6973 9.97867 16.6994 9.97654 16.7037 9.97423C16.6184 10.0205 16.535 10.0426 16.4951 10.052C16.4251 10.0686 16.3435 10.0808 16.2588 10.0922C16.0873 10.1151 15.8586 10.1365 15.5805 10.154C15.0545 10.187 14.5337 10.2553 14.0227 10.3585C13.581 10.4479 13.208 10.6406 12.8931 10.9387C12.5967 11.2195 12.4247 11.5646 12.3753 11.9939C12.3174 12.4989 12.3197 13.0054 12.3809 13.5127C12.4506 14.0903 12.4671 14.6731 12.4296 15.2593C12.3955 15.7907 12.3978 16.3215 12.4405 16.8453C12.483 17.3661 12.5668 17.8839 12.6928 18.3986C12.8305 18.9607 12.9338 19.5264 12.9974 20.0956C13.0623 20.6762 13.0675 21.2638 13.0188 21.8527C12.9781 22.3488 13.0235 22.8384 13.1561 23.3202C13.3187 23.9118 13.3856 24.5126 13.3532 25.122C13.3249 25.6527 13.3362 26.1829 13.3844 26.7063C13.4336 27.2394 13.5027 27.7707 13.596 28.2994C13.6935 28.8518 13.7773 29.4071 13.8453 29.9611C13.9023 30.4241 14.0632 30.8451 14.3292 31.2308C14.5514 31.5531 14.8369 31.7125 15.2273 31.7302C15.7798 31.7553 16.3327 31.7837 16.8857 31.8205C17.4092 31.8553 17.9338 31.8509 18.4552 31.8028C18.9888 31.7536 19.522 31.6787 20.0517 31.5832C20.6318 31.4787 21.2177 31.4408 21.8083 31.4654C22.3387 31.4876 22.868 31.472 23.3913 31.4184C23.9455 31.3617 24.5022 31.3156 25.0585 31.2805C25.6116 31.2457 26.1666 31.2139 26.7219 31.1907C27.2133 31.1702 27.6874 31.0677 28.1463 30.8779C28.6303 30.6776 29.0802 30.4351 29.4958 30.1553C29.8081 29.9447 29.98 29.659 30.0183 29.2512C30.0693 28.7073 30.1063 28.1631 30.1272 27.619C30.1464 27.1165 30.0881 26.6181 29.956 26.1266C29.7953 25.528 29.7461 24.9179 29.8046 24.3009C29.8535 23.7847 29.8374 23.2733 29.762 22.7694C29.6797 22.2195 29.607 21.6685 29.5416 21.1171C29.4768 20.5701 29.411 20.0218 29.3458 19.4749C29.2775 18.9011 29.2548 18.3227 29.2779 17.7417C29.2985 17.22 29.2684 16.7032 29.1899 16.1904C29.1033 15.6249 29.0544 15.056 29.0368 14.4845C29.0211 13.9725 28.9472 13.4634 28.8147 12.9606C28.6637 12.3868 28.5706 11.8051 28.5425 11.2167C28.5203 10.7559 28.3848 10.3337 28.13 9.94087C27.9042 9.59305 27.6036 9.39453 27.1986 9.32838C26.6833 9.24481 26.1662 9.21204 25.6512 9.23268C25.0956 9.25496 24.5384 9.26861 23.9797 9.27089C23.448 9.27306 22.9191 9.30741 22.3933 9.37413Z" fill="#D2D3D9" style="fill:#D2D3D9;fill:color(display-p3 0.8235 0.8275 0.8510);fill-opacity:1;"/>
<path d="M11.583 15.8276C11.3791 13.433 11.2771 12.2356 11.9577 11.4284C12.6382 10.6211 13.8356 10.5191 16.2302 10.3152L23.508 9.69544C25.9027 9.49151 27.1 9.38955 27.9073 10.0701C28.7146 10.7507 28.8165 11.948 29.0204 14.3427L30.0998 27.0178C30.3038 29.4124 30.4057 30.6098 29.7252 31.417C29.0446 32.2243 27.8473 32.3263 25.4526 32.5302L18.1748 33.15C15.7802 33.3539 14.5828 33.4559 13.7756 32.7753C12.9683 32.0947 12.8663 30.8974 12.6624 28.5027L11.583 15.8276Z" fill="#D2D3D9" style="fill:#D2D3D9;fill:color(display-p3 0.8235 0.8275 0.8510);fill-opacity:1;"/>
<path d="M21.9177 9.2275C22.485 9.15548 23.0577 9.11989 23.6309 9.11754C24.1765 9.1153 24.7207 9.1044 25.2631 9.08268C25.8471 9.05928 26.4332 9.09474 27.0152 9.18913C27.706 9.30148 28.2584 9.66186 28.6402 10.2498C28.9927 10.7929 29.1854 11.3922 29.2162 12.0356C29.241 12.5516 29.3215 13.0615 29.4544 13.5664C29.6063 14.1429 29.6897 14.7295 29.7078 15.3196C29.7242 15.8496 29.7741 16.3777 29.8545 16.9023C29.9429 17.4799 29.9746 18.0624 29.9513 18.6489C29.9304 19.1766 29.9511 19.7024 30.0131 20.2225C30.0781 20.7685 30.1438 21.3145 30.2085 21.8606C30.2727 22.4023 30.346 22.9446 30.4269 23.485C30.5148 24.0721 30.5313 24.6662 30.4746 25.2639C30.4276 25.76 30.466 26.2473 30.5953 26.7287C30.7537 27.3178 30.8229 27.9167 30.7999 28.5221C30.7784 29.0856 30.7412 29.6515 30.6884 30.2146C30.6225 30.9134 30.2945 31.4796 29.7179 31.8679C29.2444 32.1866 28.7362 32.4604 28.1924 32.6855C27.6237 32.9208 27.0308 33.0506 26.419 33.0762C25.8704 33.0991 25.3217 33.1299 24.7754 33.1643C24.2321 33.1986 23.6891 33.2434 23.148 33.2988C22.5759 33.3574 22.0001 33.3741 21.4216 33.3499C20.9051 33.3283 20.3939 33.3616 19.8874 33.4528C19.3292 33.5535 18.7668 33.632 18.2042 33.6839C17.6292 33.7369 17.0516 33.7417 16.4747 33.7034C15.9284 33.667 15.3818 33.6358 14.8361 33.6109C14.1271 33.5787 13.5485 33.2597 13.1454 32.6756C12.7862 32.1547 12.5636 31.5759 12.4866 30.9491C12.4208 30.4134 12.3404 29.8769 12.2461 29.3425C12.1478 28.7855 12.0748 28.2245 12.023 27.6626C11.9703 27.09 11.9569 26.514 11.9877 25.9349C12.0144 25.4349 11.9638 24.9407 11.8297 24.4532C11.6656 23.8563 11.6079 23.2487 11.6588 22.6329C11.7021 22.109 11.6955 21.5899 11.6381 21.0759C11.5794 20.551 11.4841 20.0286 11.3568 19.5087C11.2872 19.2248 11.2303 18.9381 11.1838 18.652L11.0788 17.7935C11.0321 17.2198 11.0259 16.6402 11.0631 16.06C11.0967 15.5354 11.0843 15.0156 11.0222 14.5006C10.9516 13.9152 10.9497 13.3301 11.0165 12.7462C11.0922 12.0862 11.3686 11.5159 11.8449 11.0646C12.3024 10.6312 12.8508 10.3525 13.476 10.2261C14.0326 10.1137 14.5967 10.0379 15.1681 10.002C15.4368 9.98513 15.6382 9.96851 15.775 9.9503C15.8334 9.9425 15.8748 9.93456 15.9006 9.92899C15.9744 9.89084 16.0464 9.87089 16.0835 9.86033C16.1507 9.84118 16.2305 9.82084 16.3144 9.80473C16.4833 9.77235 16.709 9.73889 16.9853 9.70349C17.5572 9.63023 18.1338 9.60331 18.7127 9.61641C19.2308 9.62808 19.7441 9.58416 20.253 9.48933C20.8063 9.3862 21.3615 9.29813 21.9177 9.2275ZM22.0476 10.2399C21.5108 10.308 20.9727 10.3933 20.4385 10.4929C19.8605 10.6005 19.2756 10.6471 18.6875 10.6338C18.16 10.6219 17.6361 10.6492 17.1156 10.7158C16.8463 10.7503 16.6424 10.7813 16.5039 10.8079C16.435 10.8212 16.3891 10.8324 16.3625 10.84C16.3561 10.8418 16.3526 10.8441 16.3511 10.8446C16.3516 10.8444 16.3537 10.8423 16.358 10.8399C16.2727 10.8862 16.1893 10.9083 16.1494 10.9177C16.0794 10.9343 15.9978 10.9465 15.9131 10.9579C15.7416 10.9808 15.5129 11.0023 15.2348 11.0197C14.7088 11.0527 14.188 11.121 13.677 11.2243C13.2353 11.3136 12.8623 11.5063 12.5474 11.8044C12.251 12.0853 12.079 12.4304 12.0296 12.8597C11.9717 13.3646 11.974 13.8712 12.0352 14.3784C12.1049 14.9561 12.1214 15.5388 12.0839 16.125C12.0498 16.6565 12.0521 17.1872 12.0948 17.7111C12.1373 18.2318 12.2211 18.7497 12.3471 19.2643C12.4848 19.8264 12.5881 20.3922 12.6517 20.9614C12.7166 21.5419 12.7218 22.1296 12.6731 22.7185C12.6324 23.2145 12.6778 23.7041 12.8104 24.186C12.973 24.7775 13.0399 25.3784 13.0075 25.9877C12.9792 26.5184 12.9905 27.0486 13.0387 27.572C13.0879 28.1051 13.157 28.6364 13.2503 29.1651C13.3478 29.7175 13.4316 30.2728 13.4996 30.8268C13.5566 31.2898 13.7175 31.7108 13.9835 32.0966C14.2057 32.4188 14.4912 32.5782 14.8816 32.5959C15.4341 32.621 15.987 32.6495 16.54 32.6862C17.0635 32.7211 17.5881 32.7166 18.1095 32.6686C18.6431 32.6194 19.1763 32.5444 19.706 32.4489C20.2861 32.3444 20.872 32.3065 21.4626 32.3311C21.993 32.3534 22.5223 32.3377 23.0456 32.2841C23.5998 32.2274 24.1565 32.1813 24.7128 32.1463C25.2659 32.1114 25.8209 32.0796 26.3762 32.0565C26.8676 32.0359 27.3417 31.9334 27.8006 31.7436C28.2846 31.5434 28.7345 31.3008 29.15 31.021C29.4624 30.8105 29.6343 30.5247 29.6726 30.1169C29.7235 29.573 29.7606 29.0289 29.7815 28.4847C29.8007 27.9822 29.7424 27.4838 29.6103 26.9923C29.4496 26.3937 29.4004 25.7836 29.4589 25.1666C29.5078 24.6504 29.4917 24.139 29.4163 23.6351C29.334 23.0852 29.2613 22.5342 29.1959 21.9828C29.1311 21.4359 29.0653 20.8875 29.0001 20.3406C28.9318 19.7668 28.9091 19.1884 28.9322 18.6075C28.9528 18.0857 28.9227 17.5689 28.8442 17.0561C28.7576 16.4906 28.7087 15.9217 28.6911 15.3503C28.6754 14.8382 28.6015 14.3291 28.469 13.8263C28.318 13.2525 28.2249 12.6708 28.1968 12.0824C28.1746 11.6216 28.0391 11.1994 27.7843 10.8066C27.5585 10.4588 27.2579 10.2602 26.8529 10.1941C26.3376 10.1105 25.8205 10.0778 25.3055 10.0984C24.7499 10.1207 24.1927 10.1343 23.634 10.1366C23.1023 10.1388 22.5734 10.1731 22.0476 10.2399Z" fill="#D2D3D9" style="fill:#D2D3D9;fill:color(display-p3 0.8235 0.8275 0.8510);fill-opacity:1;"/>
<path d="M27.6127 10.1095C27.767 10.0957 27.9046 10.2094 27.919 10.3636L27.9214 10.392L27.9808 10.9358C27.993 11.0977 27.9983 11.2399 27.9928 11.3607C27.9843 11.5515 28.0001 11.7411 28.0411 11.9275C28.0887 12.144 28.1283 12.3612 28.1603 12.579C28.1934 12.8044 28.2084 13.0321 28.2074 13.261C28.2064 13.4671 28.217 13.6726 28.2356 13.8761C28.2543 14.0794 28.2821 14.2821 28.3205 14.4839C28.3628 14.7064 28.3907 14.9304 28.4043 15.1559C28.4177 15.3802 28.4192 15.6063 28.4068 15.8328C28.3967 16.0149 28.4193 16.1937 28.4745 16.3698C28.5475 16.6022 28.5876 16.8399 28.5943 17.0804C28.5998 17.2803 28.6204 17.4802 28.6562 17.6775C28.6983 17.9106 28.7111 18.1462 28.6967 18.3838C28.6847 18.5813 28.6934 18.7772 28.7201 18.9707C28.7494 19.1828 28.7784 19.3954 28.8074 19.6073C28.836 19.8156 28.8682 20.0244 28.9047 20.232C28.9468 20.4714 28.9522 20.714 28.9204 20.9584C28.8976 21.1343 28.9135 21.3063 28.9685 21.4746C29.0462 21.7127 29.0814 21.9566 29.0747 22.2044C29.0694 22.4019 29.082 22.5981 29.1137 22.792C29.1523 23.0272 29.1609 23.265 29.1393 23.5045C29.1234 23.6811 29.1433 23.8546 29.2013 24.0264C29.2805 24.2608 29.3251 24.5 29.331 24.7431C29.336 24.9534 29.345 25.164 29.3581 25.3734C29.3711 25.5822 29.3885 25.7919 29.4114 25.9998C29.4367 26.2293 29.4407 26.4611 29.4239 26.6934C29.4102 26.8836 29.4232 27.0719 29.4609 27.2571C29.5059 27.4778 29.5375 27.7004 29.5577 27.9235C29.5783 28.1514 29.5813 28.3809 29.5652 28.611C29.5523 28.7953 29.5687 28.9775 29.6163 29.158C29.678 29.392 29.7076 29.6295 29.7054 29.8692C29.7034 30.0862 29.7008 30.3043 29.6927 30.5208C29.685 30.727 29.6894 30.8454 29.6983 30.8977L29.718 30.9708L29.7244 30.9988L29.7269 31.0276L29.7284 31.0691C29.7361 31.2239 29.6169 31.3547 29.4622 31.3629C29.3072 31.3706 29.1742 31.2524 29.1664 31.0974L29.1669 31.0793L29.1515 31.028L29.1487 31.0192L29.148 31.0107C29.1249 30.8912 29.1205 30.7112 29.1284 30.4982C29.1363 30.2872 29.1431 30.0757 29.1451 29.8642C29.1468 29.6753 29.1218 29.4873 29.0726 29.3011C29.0096 29.0618 28.987 28.8185 29.0041 28.5726C29.0181 28.3721 29.015 28.171 28.9971 27.9733C28.9788 27.7714 28.949 27.5705 28.9082 27.3704C28.8601 27.1344 28.8452 26.8942 28.8626 26.653C28.8769 26.4545 28.8735 26.2579 28.852 26.063C28.8281 25.8462 28.81 25.6279 28.7964 25.4102C28.7829 25.1935 28.7726 24.9756 28.7674 24.758C28.763 24.5728 28.7314 24.3884 28.6698 24.2061C28.587 23.9611 28.5561 23.7087 28.5791 23.4529C28.5964 23.2605 28.5898 23.0707 28.5592 22.8833C28.5217 22.6542 28.5047 22.4215 28.511 22.1887C28.5159 22.0065 28.4901 21.8261 28.4319 21.6482C28.3511 21.4004 28.327 21.1454 28.3606 20.8869C28.3853 20.6972 28.3826 20.5103 28.3505 20.3278C28.3128 20.1135 28.279 19.8985 28.2495 19.6834C28.2205 19.4716 28.1915 19.2588 28.1622 19.0468C28.1305 18.8165 28.1218 18.5842 28.136 18.3503C28.1477 18.1571 28.1364 17.966 28.1023 17.7774C28.0615 17.5521 28.0374 17.3237 28.0312 17.0953C28.0259 16.9078 27.9953 16.7225 27.9376 16.5389C27.8623 16.299 27.8303 16.0534 27.844 15.8036C27.8553 15.5982 27.8545 15.3933 27.8424 15.1907C27.8304 14.9892 27.8049 14.7876 27.767 14.5886C27.7254 14.3695 27.6956 14.1489 27.6753 13.9279C27.6549 13.7064 27.6437 13.4818 27.6447 13.2579C27.6456 13.0575 27.6319 12.8589 27.603 12.6619C27.5729 12.457 27.5359 12.2511 27.491 12.0471C27.4395 11.8127 27.4196 11.5752 27.4304 11.3355C27.4389 11.1463 27.4182 10.8607 27.3632 10.4701L27.3586 10.4154C27.3448 10.2608 27.4581 10.1235 27.6127 10.1095Z" fill="#F7F8F9" style="fill:#F7F8F9;fill:color(display-p3 0.9686 0.9725 0.9765);fill-opacity:1;"/>
<path d="M22.5374 13.6273C22.7712 13.5875 23.0086 13.5762 23.2467 13.5931C23.48 13.6096 23.6896 13.6497 23.8683 13.719C24.1444 13.8262 24.2689 14.0777 24.3033 14.348C24.3298 14.5566 24.3616 14.7649 24.3962 14.9727C24.4361 15.213 24.4373 15.4576 24.4032 15.7023C24.3705 15.9356 24.3186 16.1443 24.2424 16.3225C24.1857 16.4549 24.09 16.5603 23.9596 16.6267C23.8345 16.6902 23.6938 16.7101 23.5558 16.7052C23.3584 16.6982 23.1618 16.7096 22.9678 16.7398C22.7326 16.7763 22.4943 16.7842 22.2549 16.7609C22.0783 16.7437 21.9047 16.7616 21.733 16.8184C21.4984 16.8959 21.2587 16.9368 21.0157 16.9411C20.8054 16.9449 20.5945 16.9542 20.3849 16.9663C20.1764 16.9782 19.9683 16.9952 19.7607 17.0174C19.5311 17.0419 19.2994 17.045 19.0669 17.0279C18.8768 17.0139 18.6885 17.0269 18.5032 17.0648C18.283 17.1099 18.0614 17.1419 17.839 17.1631C17.6116 17.1847 17.3818 17.1892 17.1519 17.1754C16.9684 17.1645 16.7871 17.1841 16.6081 17.2348C16.3762 17.3004 16.1407 17.3362 15.9025 17.3414C15.7607 17.3445 15.6125 17.319 15.4855 17.2357C15.3528 17.1484 15.2753 17.0184 15.2408 16.8751C15.1985 16.6979 15.1568 16.5002 15.1159 16.2858C15.074 16.0663 15.0427 15.845 15.0219 15.6236C15.0004 15.3942 14.9997 15.1633 15.0201 14.9311C15.029 14.8299 15.0301 14.7612 15.0288 14.7209C15.0102 14.6824 14.9947 14.6359 14.999 14.578C15.0053 14.4976 15.0426 14.4406 15.0685 14.4108C15.0939 14.3817 15.1211 14.364 15.1364 14.3544C15.1864 14.3232 15.2437 14.3091 15.2644 14.3039C15.326 14.2885 15.4148 14.2727 15.5211 14.2579C15.7506 14.226 15.9823 14.2158 16.2152 14.2274C16.4064 14.2369 16.5959 14.2233 16.7828 14.1836C16.9999 14.1375 17.218 14.0983 17.4366 14.0683C17.6626 14.0372 17.8901 14.0244 18.1188 14.0277C18.3247 14.0308 18.5304 14.0228 18.7345 14.0063C18.9381 13.9899 19.1412 13.9641 19.3432 13.9279C19.566 13.8881 19.7905 13.8617 20.0158 13.8507C20.2403 13.8397 20.4671 13.8421 20.6935 13.8571C20.875 13.8691 21.0536 13.8492 21.2306 13.7958C21.464 13.7253 21.7015 13.6862 21.9421 13.6821C22.1418 13.6787 22.3402 13.6609 22.5374 13.6273ZM22.6332 14.1815C22.4079 14.2199 22.1808 14.2421 21.9526 14.246C21.765 14.2492 21.5782 14.2775 21.3936 14.3333C21.1524 14.4061 20.9049 14.4347 20.6551 14.4182C20.4504 14.4047 20.2465 14.4032 20.0441 14.413C19.8429 14.4229 19.6426 14.4461 19.4435 14.4818C19.2236 14.5211 19.002 14.5489 18.7802 14.5668C18.5585 14.5847 18.3348 14.5919 18.1115 14.5887C17.9109 14.5857 17.7106 14.5989 17.5127 14.6262C17.3075 14.6544 17.1019 14.6903 16.8978 14.7337C16.6639 14.7832 16.4269 14.8014 16.1879 14.7896C15.9902 14.7798 15.7934 14.7887 15.5992 14.8157C15.595 14.8162 15.5903 14.8162 15.5862 14.8168C15.5842 14.8664 15.5853 14.9223 15.5802 14.9806C15.5627 15.1795 15.5636 15.3764 15.5819 15.5714C15.601 15.7753 15.6283 15.9793 15.6669 16.1817C15.7066 16.3894 15.748 16.5776 15.788 16.7447C15.7916 16.7593 15.7956 16.765 15.7963 16.7661L15.7939 16.7663C15.7945 16.7667 15.8181 16.7817 15.8902 16.7801C16.0801 16.7759 16.2694 16.7473 16.4563 16.6944C16.6955 16.6267 16.9389 16.6 17.1858 16.6147C17.3869 16.6267 17.5868 16.6221 17.7848 16.6033C17.9875 16.584 18.1914 16.5531 18.3924 16.5119C18.6283 16.4637 18.8683 16.4486 19.1094 16.4664C19.308 16.481 19.505 16.4785 19.7 16.4577C19.9171 16.4346 20.1366 16.417 20.3546 16.4044C20.5711 16.392 20.7882 16.3835 21.0055 16.3796C21.1906 16.3763 21.3748 16.3444 21.5572 16.2841C21.8026 16.203 22.0552 16.1754 22.3109 16.2003C22.5035 16.219 22.6935 16.2139 22.8809 16.1848C23.1104 16.1491 23.3437 16.1348 23.5766 16.1431C23.6527 16.1457 23.6906 16.1329 23.7049 16.1257C23.7129 16.1216 23.7183 16.1172 23.725 16.1019C23.7762 15.9821 23.8196 15.8242 23.8476 15.6239C23.8741 15.4344 23.8699 15.247 23.8396 15.0642C23.8039 14.8498 23.7724 14.6349 23.7451 14.4197C23.7258 14.2678 23.6798 14.2488 23.6659 14.2435C23.5556 14.2006 23.4042 14.1688 23.2063 14.1548C23.013 14.1411 22.822 14.1494 22.6332 14.1815Z" fill="#F7F8F9" style="fill:#F7F8F9;fill:color(display-p3 0.9686 0.9725 0.9765);fill-opacity:1;"/>
<path d="M23.6888 9.87578C23.9306 9.79963 24.1781 9.77102 24.4287 9.78833C24.6311 9.80241 24.8344 9.80059 25.0358 9.7868C25.2822 9.76996 25.5271 9.79424 25.7676 9.86083C25.9374 9.90782 26.1089 9.91803 26.2857 9.88746C26.5437 9.84282 26.7993 9.85592 27.0493 9.92663C27.2569 9.98544 27.4172 10.0272 27.5283 10.0531C27.5876 10.0669 27.6372 10.0811 27.6744 10.0921C27.6916 10.0972 27.7159 10.1032 27.7379 10.1124C27.7475 10.1165 27.7693 10.1276 27.7933 10.1437C27.805 10.1516 27.8295 10.1675 27.853 10.1952C27.868 10.213 27.89 10.2521 27.9047 10.304C27.9082 10.3151 27.908 10.3267 27.9102 10.3383C27.9123 10.3528 27.9208 10.3673 27.9205 10.3837L27.9156 10.6736L27.6908 10.6618C27.6624 10.6672 27.6328 10.6733 27.6026 10.6693L27.4737 10.6507L27.4748 10.6185C27.4552 10.6135 27.43 10.6074 27.4 10.6004C27.2762 10.5715 27.1074 10.5265 26.8972 10.467C26.7295 10.4195 26.5582 10.411 26.3818 10.4414C26.124 10.486 25.8678 10.4731 25.617 10.4036C25.437 10.3538 25.2564 10.3358 25.0746 10.3482C24.8473 10.3638 24.6183 10.3645 24.3903 10.3486C24.2109 10.3362 24.0338 10.3566 23.8579 10.4119C23.6108 10.4897 23.3559 10.5141 23.0986 10.483C22.9098 10.4604 22.7254 10.4668 22.5445 10.5019C22.3307 10.5434 22.1163 10.5808 21.9019 10.6145C21.6908 10.6478 21.4796 10.6814 21.2685 10.7148C21.0386 10.7511 20.8053 10.7638 20.5708 10.7536C20.3769 10.7452 20.1851 10.7593 19.9968 10.7961C19.7724 10.84 19.545 10.8673 19.3167 10.8759C19.1289 10.8829 18.9431 10.916 18.7591 10.9748C18.5188 11.0516 18.2715 11.0831 18.0211 11.0698C17.8158 11.0589 17.6115 11.0598 17.4089 11.0718C17.2077 11.0836 17.0069 11.1076 16.808 11.1448C16.5883 11.1859 16.3661 11.2155 16.1442 11.2348C15.9223 11.254 15.6985 11.2632 15.4749 11.2609C15.2742 11.2588 15.0739 11.2699 14.876 11.2978C14.6709 11.3266 14.4655 11.3643 14.2615 11.408C14.0273 11.4581 13.7893 11.4775 13.5499 11.466C13.3612 11.457 13.1054 11.4748 12.7793 11.5252L12.7614 11.5267L12.6301 11.5405C12.4757 11.5536 12.3402 11.4377 12.3265 11.2833C12.3133 11.1288 12.4278 10.9933 12.5823 10.9798L12.7137 10.9661L12.7139 10.9686C13.0504 10.9174 13.3396 10.8929 13.5767 10.9041C13.7675 10.9133 13.9573 10.8983 14.1439 10.8584C14.3609 10.8119 14.5794 10.773 14.7978 10.7423C15.0236 10.7105 15.2523 10.6959 15.481 10.6982C15.6866 10.7004 15.8927 10.6918 16.0964 10.6741C16.2999 10.6565 16.5026 10.6292 16.7043 10.5915C16.9268 10.5499 17.1512 10.5231 17.3765 10.5098C17.6 10.4967 17.8247 10.4958 18.0504 10.5077C18.2319 10.5174 18.4114 10.4938 18.5873 10.4376C18.8191 10.3635 19.0558 10.3219 19.2957 10.3129C19.495 10.3055 19.6935 10.284 19.8895 10.2456C20.1216 10.2003 20.3572 10.1817 20.595 10.192C20.792 10.2005 20.9867 10.1892 21.1788 10.159C21.3901 10.1256 21.6033 10.0918 21.8147 10.0585C22.0225 10.0258 22.2309 9.98908 22.4382 9.94883C22.678 9.90237 22.9222 9.89436 23.1681 9.92398C23.3456 9.94526 23.5184 9.92937 23.6888 9.87578ZM27.3588 10.3737C27.3573 10.4689 27.4024 10.5336 27.4234 10.5585C27.4442 10.5833 27.4653 10.5991 27.4764 10.6068L27.4966 10.3761L27.3588 10.3737Z" fill="#F7F8F9" style="fill:#F7F8F9;fill:color(display-p3 0.9686 0.9725 0.9765);fill-opacity:1;"/>
</svg>
