<svg width="42" height="42" viewBox="0 0 42 42" fill="none" xmlns="http://www.w3.org/2000/svg">
<circle cx="21" cy="21" r="20.3438" fill="#F7F8F9" stroke="#EEEFF1" style="fill:#F7F8F9;fill:color(display-p3 0.9686 0.9725 0.9765);fill-opacity:1;stroke:#EEEFF1;stroke:color(display-p3 0.9333 0.9373 0.9451);stroke-opacity:1;" stroke-width="1.3125"/>
<path d="M23.5537 8.12158C25.155 8.12158 25.9556 8.12158 26.5734 8.54346C27.1911 8.96534 27.4824 9.71111 28.065 11.2026L29.5084 14.8975C30.5655 17.6037 31.094 18.9568 30.4743 19.9794C29.8545 21.0019 28.4104 21.1595 25.5222 21.4745L21.1313 21.9535C21.1259 21.9541 21.1217 21.9587 21.1217 21.9642C21.1217 21.9706 21.1162 21.9756 21.1098 21.9749L21.0316 21.9663C21.0257 21.9657 21.0198 21.9657 21.0139 21.9663L20.9357 21.9749C20.9294 21.9756 20.9238 21.9706 20.9238 21.9642C20.9238 21.9587 20.9197 21.9541 20.9142 21.9535L16.5233 21.4745C13.6351 21.1595 12.191 21.0019 11.5712 19.9794C10.9515 18.9568 11.4801 17.6037 12.5372 14.8976L13.9805 11.2026C14.5631 9.71111 14.8544 8.96534 15.4722 8.54346C16.0899 8.12158 16.8905 8.12158 18.4918 8.12158H23.5537Z" fill="#D2D3D9" style="fill:#D2D3D9;fill:color(display-p3 0.8235 0.8275 0.8510);fill-opacity:1;"/>
<path d="M20.1909 7.67535C20.746 7.58974 21.3032 7.56042 21.8594 7.58837C22.3838 7.61475 22.909 7.64423 23.4335 7.67535C23.9436 7.7056 24.4547 7.71541 24.9662 7.7055C25.5815 7.69362 26.1581 7.84614 26.6837 8.16359C27.2295 8.49333 27.6107 8.97256 27.8152 9.57843C27.9763 10.0556 28.1329 10.3475 28.2656 10.5019C28.3647 10.6174 28.4496 10.728 28.5076 10.8197C28.5319 10.8583 28.5782 10.9346 28.6023 11.0277C28.6108 11.061 28.6164 11.1232 28.61 11.202C28.6118 11.2074 28.6151 11.2146 28.6173 11.221C28.6531 11.3249 28.7219 11.4921 28.8257 11.7278C29.0462 12.2286 29.2265 12.7451 29.3704 13.2756C29.4992 13.7506 29.6767 14.2068 29.9 14.6452C30.1442 15.1245 30.3702 15.6142 30.5772 16.1095C30.7934 16.6268 30.9498 17.1636 31.0465 17.7176C31.1469 18.2932 31.1419 18.8619 31.0276 19.4205C30.9011 20.037 30.5746 20.5468 30.0666 20.93C29.5881 21.291 29.0484 21.5259 28.4546 21.6301C27.9079 21.7259 27.356 21.7738 26.8012 21.7739C26.3192 21.774 25.8427 21.8383 25.3748 21.9707C24.8311 22.1244 24.2796 22.2162 23.7211 22.2467C23.2176 22.2741 22.7158 22.3328 22.2189 22.421C21.6452 22.5227 21.0705 22.5177 20.4975 22.4094C19.9997 22.3153 19.4987 22.2505 18.9953 22.2127C18.4733 22.1734 17.9504 22.1351 17.4285 22.0955C16.9114 22.0564 16.3929 22.0221 15.8733 21.9969C15.3028 21.9693 14.742 21.8627 14.1972 21.6753C13.7193 21.511 13.23 21.3832 12.729 21.2934C12.0533 21.1723 11.5434 20.7909 11.2384 20.177C10.9639 19.6244 10.8453 19.0366 10.8901 18.4251C10.9334 17.8363 11.0924 17.2762 11.3632 16.7489C11.5828 16.3213 11.7375 15.8678 11.8248 15.3905C11.9276 14.8291 12.0953 14.2915 12.3281 13.7785C12.5424 13.3062 12.7495 12.8303 12.9486 12.3521C13.1473 11.8746 13.3348 11.3914 13.516 10.9067C13.7129 10.3802 13.9687 9.88477 14.2842 9.42341C14.6086 8.94898 15.0022 8.54895 15.4574 8.22776C15.9397 7.88794 16.4901 7.69967 17.0957 7.66027C17.6473 7.62449 18.201 7.63824 18.7529 7.70202C19.2322 7.75735 19.7111 7.74926 20.1909 7.67535ZM21.8103 8.55711C21.3205 8.53251 20.8294 8.55682 20.3386 8.6325C19.7733 8.71958 19.2057 8.73231 18.6396 8.6669C18.1458 8.60988 17.6526 8.5971 17.1598 8.62902C16.7215 8.65748 16.3426 8.79045 16.0137 9.02254C15.6576 9.27401 15.3483 9.58876 15.0863 9.97196C14.8151 10.3685 14.5942 10.7932 14.4245 11.2472C14.2392 11.7428 14.0447 12.2347 13.8415 12.7228C13.6385 13.2105 13.428 13.6981 13.2095 14.1798C13.0102 14.6193 12.8633 15.08 12.7746 15.5644C12.6704 16.1343 12.4892 16.679 12.2261 17.1915C12.0141 17.6042 11.8886 18.0383 11.855 18.497C11.823 18.9333 11.9067 19.3467 12.1047 19.7456C12.2724 20.0832 12.5236 20.2723 12.8995 20.3397C13.4497 20.4383 13.9892 20.5791 14.5149 20.7599C14.9737 20.9176 15.4414 21.0089 15.919 21.0321C16.4473 21.0577 16.9745 21.0908 17.5004 21.1306C18.0222 21.1702 18.5454 21.2086 19.0672 21.2478C19.607 21.2884 20.1453 21.3591 20.6788 21.46C21.1365 21.5463 21.5949 21.5486 22.0526 21.4673C22.5875 21.3725 23.1261 21.3113 23.6681 21.2818C24.1549 21.2553 24.6371 21.1746 25.1135 21.0398C25.6664 20.8834 26.2296 20.8052 26.8012 20.8052C27.2999 20.805 27.7968 20.7591 28.2884 20.6729C28.7321 20.5949 29.1295 20.422 29.484 20.1546C29.8087 19.9091 30.0003 19.6052 30.0778 19.2272C30.1671 18.7916 30.1736 18.3451 30.0933 17.8842C30.009 17.4014 29.8723 16.9342 29.6843 16.4841C29.4868 16.0117 29.2705 15.5451 29.0375 15.0878C28.7836 14.5895 28.5821 14.0687 28.4357 13.5288C28.3043 13.0444 28.1374 12.5742 27.9362 12.1174C27.8298 11.8757 27.751 11.6785 27.7016 11.5349C27.6783 11.4672 27.6536 11.3886 27.6413 11.3153C27.6394 11.3044 27.6393 11.2881 27.6374 11.2701C27.6114 11.2366 27.5794 11.1894 27.5315 11.1336C27.278 10.8384 27.0709 10.4071 26.896 9.88884C26.7641 9.49829 26.5292 9.20638 26.1808 8.99587C25.8125 8.77349 25.4178 8.66588 24.9848 8.67424C24.4481 8.68463 23.9119 8.67196 23.3766 8.64023C22.8551 8.60928 22.3318 8.58334 21.8103 8.55711ZM28.4662 11.5159C28.4187 11.5625 28.3668 11.6047 28.3035 11.6296C28.375 11.6015 28.4251 11.5584 28.4662 11.5159Z" fill="#D2D3D9" style="fill:#D2D3D9;fill:color(display-p3 0.8235 0.8275 0.8510);fill-opacity:1;"/>
<path d="M20.1328 17.4242C20.1328 16.8776 20.5759 16.4346 21.1224 16.4346V16.4346C21.669 16.4346 22.112 16.8776 22.112 17.4242V31.6747C22.112 32.2212 21.669 32.6643 21.1224 32.6643V32.6643C20.5759 32.6643 20.1328 32.2212 20.1328 31.6747V17.4242Z" fill="#D2D3D9" style="fill:#D2D3D9;fill:color(display-p3 0.8235 0.8275 0.8510);fill-opacity:1;"/>
<path d="M21.0698 15.8784L21.263 15.9542L21.5468 16.1811C21.6592 16.2813 21.8043 16.4176 21.9817 16.5862C22.4532 17.0345 22.647 17.6187 22.5758 18.2775C22.5231 18.7668 22.5197 19.2564 22.5685 19.7456C22.6215 20.2777 22.6597 20.81 22.6817 21.3422C22.7042 21.8846 22.691 22.427 22.6477 22.9692C22.607 23.48 22.5892 23.9914 22.5874 24.502C22.5856 25.0125 22.6028 25.5237 22.6404 26.0343C22.6801 26.5738 22.69 27.1141 22.6744 27.6537C22.6588 28.1912 22.6182 28.7285 22.553 29.2657C22.4952 29.7418 22.5071 30.2189 22.5874 30.696C22.6989 31.357 22.5365 31.9595 22.0953 32.4552C21.873 32.7048 21.5882 32.8963 21.2402 32.9284C20.8943 32.9603 20.58 32.8266 20.3132 32.6257C19.758 32.207 19.5143 31.6155 19.5981 30.9229C19.6593 30.4201 19.6829 29.9183 19.6661 29.4207C19.6485 28.8975 19.6305 28.3736 19.6132 27.8504C19.596 27.3325 19.5704 26.8132 19.5374 26.2953C19.5017 25.7334 19.5344 25.1716 19.636 24.6114C19.7205 24.1454 19.7237 23.6776 19.6398 23.2116C19.5381 22.6462 19.5132 22.0796 19.5679 21.5126C19.6162 21.0139 19.6257 20.5128 19.5981 20.0143C19.5674 19.459 19.5924 18.9037 19.6739 18.3494C19.757 17.7831 19.9129 17.2523 20.1428 16.7602C20.2496 16.5315 20.352 16.3371 20.4493 16.2C20.4945 16.1364 20.5662 16.0475 20.6611 15.9805C20.7324 15.9305 20.8871 15.8487 21.0698 15.8784ZM21.0207 17.1688C20.8335 17.5695 20.7015 18.0097 20.631 18.4893C20.5589 18.9802 20.5397 19.4713 20.5668 19.9613C20.5971 20.5084 20.5856 21.0566 20.5328 21.6035C20.4865 22.0818 20.5067 22.5613 20.5931 23.0411C20.6975 23.6208 20.6943 24.2022 20.5892 24.7819C20.5013 25.2667 20.4754 25.7518 20.5061 26.235C20.5398 26.7629 20.5644 27.2923 20.5819 27.8203C20.5992 28.3424 20.6173 28.8645 20.6349 29.3867C20.6533 29.9345 20.6261 30.4854 20.5591 31.0365C20.5152 31.3975 20.6251 31.6455 20.8958 31.8499C21.0421 31.9602 21.1233 31.9663 21.1532 31.9635C21.183 31.9603 21.2578 31.9411 21.3728 31.812C21.6099 31.5455 21.6983 31.2427 21.6338 30.8587C21.5379 30.2901 21.5229 29.7178 21.592 29.1482C21.6536 28.6402 21.691 28.1311 21.7057 27.6235C21.7202 27.1178 21.7089 26.6121 21.6716 26.1062C21.6322 25.5708 21.6168 25.0336 21.6187 24.4981C21.6206 23.9634 21.6402 23.4285 21.6828 22.8939C21.723 22.3908 21.7337 21.8868 21.713 21.3839C21.6918 20.8702 21.6548 20.3538 21.6036 19.84C21.5483 19.2839 21.5509 18.7275 21.6109 18.1715C21.6528 17.7842 21.5486 17.5071 21.316 17.2859C21.2262 17.2005 21.1438 17.128 21.0736 17.0629C21.0575 17.0958 21.0386 17.1305 21.0207 17.1688Z" fill="#D2D3D9" style="fill:#D2D3D9;fill:color(display-p3 0.8235 0.8275 0.8510);fill-opacity:1;"/>
<path d="M17.7806 31.2404C17.8643 30.9726 17.9061 30.8386 18.0107 30.7617C18.1154 30.6848 18.2557 30.6848 18.5362 30.6848H23.937C24.2024 30.6848 24.3351 30.6848 24.4368 30.7553C24.5385 30.8258 24.5851 30.95 24.6783 31.1985L25.2721 32.7819C25.4543 33.2679 25.5454 33.5108 25.4273 33.6812C25.3093 33.8516 25.0498 33.8516 24.5308 33.8516H18.0414C17.549 33.8516 17.3027 33.8516 17.1841 33.6902C17.0654 33.5288 17.1389 33.2938 17.2858 32.8238L17.7806 31.2404Z" fill="#D2D3D9" style="fill:#D2D3D9;fill:color(display-p3 0.8235 0.8275 0.8510);fill-opacity:1;"/>
<path d="M19.3002 30.1665C19.8474 30.1432 20.3955 30.1643 20.9423 30.2233C21.4316 30.2762 21.9214 30.2758 22.4105 30.2272C22.989 30.1695 23.5595 30.2123 24.1134 30.3555C24.7807 30.5284 25.2279 30.9773 25.4188 31.642C25.5749 32.186 25.6483 32.7057 25.6268 33.1972C25.6128 33.516 25.4984 33.8187 25.2449 34.0411C25.0041 34.2515 24.6924 34.343 24.3743 34.3704C23.8339 34.417 23.2923 34.4313 22.7511 34.4157C22.2132 34.4001 21.6733 34.3599 21.1356 34.2947C20.6595 34.237 20.1824 34.2483 19.7053 34.3287C19.139 34.4241 18.5694 34.4424 17.9986 34.3816C17.6614 34.3457 17.3358 34.2269 17.1018 33.9653C16.8665 33.702 16.7864 33.3653 16.7956 33.0271C16.812 32.4408 16.9513 31.8785 17.2077 31.3471C17.3289 31.096 17.4536 30.8772 17.5862 30.7077C17.7102 30.5491 17.8846 30.3736 18.1196 30.3026L18.6117 30.2156C18.8104 30.1937 19.0422 30.1775 19.3002 30.1665ZM20.8403 31.1843C20.3412 31.1304 19.8407 31.114 19.342 31.1352C18.838 31.1567 18.5472 31.1959 18.4188 31.2299C18.4067 31.2407 18.3835 31.263 18.3504 31.3053C18.2773 31.3988 18.1841 31.5475 18.0783 31.7669C17.8806 32.1764 17.7765 32.6051 17.764 33.0534C17.7592 33.2311 17.8041 33.2955 17.8247 33.3186C17.8469 33.3434 17.912 33.3965 18.1007 33.4168C18.5839 33.4682 19.0669 33.4559 19.5464 33.375C20.1146 33.2793 20.6837 33.2646 21.2528 33.3337C21.7611 33.3954 22.2698 33.4322 22.7778 33.4469C23.2822 33.4615 23.7873 33.4489 24.2912 33.4056C24.4941 33.388 24.5795 33.3367 24.609 33.3108C24.6259 33.2957 24.6531 33.2627 24.658 33.1558C24.6741 32.7888 24.6216 32.3725 24.488 31.9072C24.389 31.564 24.1968 31.3787 23.8714 31.2941C23.4307 31.1802 22.9766 31.1455 22.5091 31.1921C21.9531 31.2475 21.3962 31.2443 20.8403 31.1843Z" fill="#D2D3D9" style="fill:#D2D3D9;fill:color(display-p3 0.8235 0.8275 0.8510);fill-opacity:1;"/>
<path d="M15.5308 9.20469C15.5888 9.06938 15.746 9.00543 15.8815 9.06282L15.9108 9.07519L16.2823 9.23601C16.3917 9.28966 16.486 9.34429 16.5641 9.39875C16.6681 9.47119 16.7817 9.52275 16.9043 9.55338C17.0631 9.59306 17.2198 9.63658 17.374 9.68481C17.5369 9.73576 17.6962 9.79848 17.8499 9.87462C17.9776 9.93789 18.1089 9.99056 18.2446 10.0312C18.3795 10.0716 18.5171 10.1011 18.6578 10.117C18.8231 10.1356 18.9871 10.1613 19.1483 10.1962C19.3076 10.2308 19.467 10.2732 19.6265 10.3215C19.7352 10.3544 19.8456 10.3588 19.9605 10.3339C20.1465 10.2934 20.3342 10.2823 20.5199 10.3025C20.6564 10.3173 20.7939 10.3173 20.9312 10.3025C21.1151 10.2828 21.2991 10.291 21.4821 10.3277C21.6121 10.3537 21.7404 10.3588 21.8682 10.3443C22.0184 10.3272 22.169 10.3068 22.3171 10.2797C22.461 10.2534 22.6031 10.2177 22.7431 10.1754C22.8775 10.1347 23.0162 10.1122 23.1578 10.1066H23.3399C23.4307 10.103 23.5128 10.0748 23.5904 10.0231C23.7538 9.91436 23.9312 9.83972 24.1208 9.80156C24.2495 9.77568 24.3714 9.73207 24.4861 9.67012C24.651 9.58094 24.8288 9.52165 25.0161 9.49075C25.1192 9.47378 25.2069 9.42888 25.2836 9.35275C25.4026 9.23434 25.55 9.114 25.7134 9.08563L25.7467 9.08138H25.7846C25.9144 9.03592 26.0573 9.09344 26.1143 9.22132C26.1743 9.35595 26.115 9.51405 25.9806 9.57425L25.9431 9.58894L25.8971 9.60982L25.8472 9.61175L25.7989 9.61368C25.7938 9.61643 25.787 9.62234 25.778 9.62837C25.7491 9.64783 25.711 9.68136 25.6613 9.73081C25.5068 9.88445 25.3182 9.98146 25.1038 10.0169C24.9735 10.0383 24.8524 10.0795 24.7408 10.1398C24.5792 10.2272 24.4076 10.2894 24.2271 10.3257C24.1075 10.3498 23.9946 10.3978 23.8869 10.4695C23.7272 10.576 23.5499 10.6321 23.3612 10.6389H23.1799C23.0816 10.6431 22.9874 10.6595 22.8973 10.6868C22.7383 10.735 22.5769 10.7736 22.4133 10.8035C22.2534 10.8328 22.091 10.8581 21.9289 10.8766C21.7451 10.8975 21.5609 10.8885 21.3777 10.8519C21.247 10.8257 21.1164 10.819 20.9873 10.8329C20.8118 10.8518 20.6366 10.852 20.4615 10.8329C20.3354 10.8192 20.2068 10.8272 20.0753 10.8557C19.8727 10.8999 19.6694 10.8927 19.4719 10.8329C19.3254 10.7886 19.1787 10.7496 19.0335 10.7181C18.8904 10.6871 18.7443 10.6636 18.5971 10.647C18.4254 10.6276 18.2573 10.592 18.0922 10.5426C17.9276 10.4933 17.7668 10.4313 17.6121 10.3547C17.4835 10.291 17.3513 10.2368 17.2155 10.1943C17.0713 10.1492 16.9238 10.1082 16.7748 10.071C16.5892 10.0246 16.4162 9.94648 16.2591 9.83712C16.1545 9.76424 15.9775 9.67609 15.7164 9.57425L15.7083 9.57L15.6727 9.55531C15.5374 9.49734 15.4734 9.34011 15.5308 9.20469Z" fill="#F7F8F9" style="fill:#F7F8F9;fill:color(display-p3 0.9686 0.9725 0.9765);fill-opacity:1;"/>
</svg>
