<svg width="36" height="36" viewBox="0 0 36 36" fill="none" xmlns="http://www.w3.org/2000/svg">
<path d="M0 18C0 8.05888 8.05888 0 18 0C27.9411 0 36 8.05888 36 18C36 27.9411 27.9411 36 18 36C8.05888 36 0 27.9411 0 18Z" fill="#FEE500"/>
<path opacity="0.902" fill-rule="evenodd" clip-rule="evenodd" d="M18 8C12.505 8 7.5 12.4834 7.5 16.2764C7.5 19.1185 9.31767 21.6254 12.0862 23.1151L10.9218 27.4564C10.818 27.8413 11.2485 28.1468 11.5787 27.9254L16.6852 24.4853C17.1157 24.5279 17.5543 24.5528 18 24.5528C23.7983 24.5528 28.5 20.8474 28.5 16.2764C28.5 12.4834 23.7983 8 18 8Z" fill="black"/>
</svg>
