<svg width="20" height="20" viewBox="0 0 20 20" fill="none" xmlns="http://www.w3.org/2000/svg">
<path d="M4.05405 0C4.50185 0 4.86486 0.363012 4.86486 0.810811V3.24324H14.8649C15.9097 3.24324 16.7568 4.09027 16.7568 5.13513V15.1351H19.1892C19.637 15.1351 20 15.4981 20 15.9459C20 16.3937 19.637 16.7568 19.1892 16.7568H16.7568V19.1892C16.7568 19.637 16.3937 20 15.9459 20C15.4981 20 15.1351 19.637 15.1351 19.1892V16.7568H5.13513C4.09027 16.7568 3.24324 15.9097 3.24324 14.8649V4.86486H0.810811C0.363013 4.86486 0 4.50185 0 4.05405C0 3.60626 0.363013 3.24324 0.810811 3.24324H3.24324V0.810811C3.24324 0.363012 3.60626 0 4.05405 0ZM4.86486 14.8649C4.86487 15.0141 4.98587 15.1351 5.13513 15.1351H15.1351V5.13513C15.1351 4.98587 15.0141 4.86486 14.8649 4.86486H4.86486V14.8649Z" fill="#2A3038"/>
</svg>
