<svg width="20" height="20" viewBox="0 0 20 20" fill="none" xmlns="http://www.w3.org/2000/svg">
<path d="M3.96003 8.05081C4.12597 7.89054 4.34823 7.80186 4.57892 7.80387C4.80962 7.80587 5.0303 7.8984 5.19343 8.06153C5.35657 8.22466 5.4491 8.44533 5.4511 8.67602C5.45311 8.90671 5.36442 9.12895 5.20415 9.29489L3.85444 10.6445C3.14796 11.3788 2.75771 12.3609 2.76758 13.3797C2.77744 14.3986 3.18662 15.3729 3.90719 16.0934C4.62775 16.8138 5.60219 17.2228 6.6211 17.2325C7.64001 17.2422 8.62206 16.8518 9.35621 16.1452L10.7059 14.7965C10.8719 14.6362 11.0941 14.5475 11.3248 14.5495C11.5555 14.5515 11.7762 14.6441 11.9393 14.8072C12.1025 14.9703 12.195 15.191 12.197 15.4217C12.199 15.6524 12.1103 15.8746 11.95 16.0405L10.6003 17.3902C9.53661 18.43 8.10575 19.0084 6.61824 18.9999C5.13072 18.9915 3.70656 18.3968 2.65476 17.3449C1.60297 16.293 1.00841 14.8688 1.00009 13.3814C0.991768 11.8939 1.57036 10.4632 2.61032 9.39959L3.96003 8.05081Z" fill="#2A3038"/>
<path d="M12.055 6.70144C12.2201 6.53646 12.444 6.44383 12.6774 6.44391C12.9108 6.44399 13.1346 6.53679 13.2996 6.70188C13.4645 6.86697 13.5572 7.09084 13.5571 7.32423C13.557 7.55762 13.4642 7.78142 13.2991 7.9464L7.90293 13.3424C7.73795 13.5075 7.51414 13.6003 7.28074 13.6004C7.04734 13.6004 6.82347 13.5078 6.65837 13.3428C6.49327 13.1779 6.40047 12.9541 6.40039 12.7207C6.40031 12.4873 6.49295 12.2634 6.65793 12.0983L12.055 6.70144Z" fill="#2A3038"/>
<path d="M13.352 1C14.4691 1.00029 15.5611 1.33175 16.4899 1.95247C17.4186 2.5732 18.1425 3.45533 18.57 4.48737C18.9976 5.51941 19.1095 6.65502 18.8917 7.75067C18.674 8.84631 18.1363 9.85281 17.3466 10.6429L15.9977 11.9935C15.8318 12.1537 15.6095 12.2424 15.3789 12.2404C15.1482 12.2384 14.9275 12.1459 14.7643 11.9828C14.6012 11.8196 14.5087 11.599 14.5067 11.3683C14.5047 11.1376 14.5933 10.9153 14.7536 10.7494L16.1025 9.39973C16.8317 8.67001 17.2414 7.68059 17.2414 6.64894C17.2414 5.6173 16.8317 4.62788 16.1025 3.89816C15.7413 3.53676 15.3124 3.25007 14.8404 3.05446C14.3684 2.85886 13.8625 2.75818 13.3516 2.75818C12.8406 2.75818 12.3347 2.85886 11.8627 3.05446C11.3907 3.25007 10.9618 3.53676 10.6007 3.89816L9.25185 5.24782C9.08591 5.40808 8.86365 5.49677 8.63296 5.49476C8.40226 5.49276 8.18158 5.40023 8.01845 5.2371C7.85531 5.07397 7.76278 4.8533 7.76078 4.62261C7.75877 4.39192 7.84746 4.16968 8.00773 4.00374L9.35656 2.65408C9.88115 2.12959 10.5039 1.71356 11.1893 1.42975C11.8747 1.14594 12.6093 0.999914 13.3511 1" fill="#2A3038"/>
</svg>
