<svg width="140" height="140" viewBox="0 0 140 140" fill="none" xmlns="http://www.w3.org/2000/svg">
<path d="M66.4974 10.7472C67.9567 10.3985 69.3651 10.5939 70.6624 11.3332C71.8948 12.0356 72.8416 13.0175 73.4759 14.2658C74.1109 15.5157 74.3436 16.8629 74.181 18.2775C74.009 19.7725 73.3207 21.0256 72.1526 21.9836C71.0081 22.9221 69.688 23.3917 68.2337 23.3517C66.8892 23.3147 65.613 22.982 64.4192 22.3566C63.1033 21.6672 62.2161 20.5735 61.7923 19.1408C61.6244 18.5732 61.4938 18.1761 61.3997 17.9308C61.389 17.903 61.3792 17.8783 61.3704 17.8566C61.3138 17.7969 61.2592 17.7318 61.2142 17.6564C61.0456 17.374 61.0458 17.1017 61.0491 17.0031C61.0566 16.7838 61.1223 16.5876 61.1556 16.4924C61.2375 16.258 61.3755 15.9617 61.5413 15.6349C61.8951 14.9378 62.4108 14.0884 63.0726 13.0978C63.8862 11.8802 65.0496 11.0934 66.4974 10.7472Z" fill="#DDDEE4"/>
<path d="M66.0166 93.9938C67.2999 93.9344 68.575 93.9849 69.8399 94.1452C71.102 94.3051 72.3422 94.5689 73.5596 94.9362C74.842 95.3232 76.0214 95.9183 77.0909 96.7194C78.0509 97.4386 79.013 98.1479 79.9776 98.8464C81.035 99.612 81.9638 100.517 82.7618 101.557C83.5686 102.61 84.1844 103.765 84.6065 105.017C84.9817 106.131 85.394 107.237 85.8428 108.336C86.3296 109.527 86.6105 110.636 86.5996 111.631C86.5953 112.025 86.5911 112.325 86.5869 112.527C86.5849 112.627 86.5825 112.71 86.5801 112.77C86.579 112.798 86.5769 112.834 86.5743 112.868C86.5733 112.881 86.5706 112.92 86.5635 112.966C86.5632 112.967 86.562 112.97 86.5616 112.972C86.5609 112.98 86.5604 112.989 86.5596 113C86.5543 113.068 86.547 113.175 86.5371 113.325C86.5176 113.623 86.4899 114.072 86.4541 114.674C86.3746 116.01 86.0651 117.294 85.5264 118.517C85.0411 119.62 84.5561 120.722 84.0723 121.823C83.5487 123.014 82.8746 124.122 82.0528 125.144C81.2163 126.185 80.2348 127.067 79.1123 127.787C78.051 128.467 76.955 129.074 75.8262 129.606C74.6976 130.138 73.5334 130.597 72.335 130.981C71.0734 131.386 69.776 131.591 68.4483 131.596C67.1251 131.602 65.832 131.417 64.5733 131.039C63.4499 130.701 62.3068 130.408 61.1455 130.16C59.8003 129.872 58.569 129.318 57.4629 128.502C56.4592 127.76 55.488 126.977 54.5489 126.152C53.5233 125.251 52.7063 124.185 52.1045 122.96C51.5596 121.85 51.0461 120.737 50.5635 119.62C50.0574 118.449 49.6759 117.233 49.42 115.976C49.1662 114.73 49.022 113.464 48.9873 112.179C48.95 110.793 49.2158 109.459 49.7803 108.19C50.2548 107.124 50.6475 106.029 50.958 104.904C51.3306 103.555 51.9951 102.359 52.9444 101.334C53.7857 100.425 54.6482 99.5416 55.5313 98.6852C56.5084 97.7378 57.637 97.0186 58.9082 96.5329C59.9939 96.1182 61.056 95.6327 62.0938 95.0768C63.3187 94.4207 64.6306 94.0581 66.0166 93.9938ZM86.295 113.536C86.2992 113.531 86.3041 113.527 86.3076 113.523C86.3117 113.518 86.3146 113.512 86.3184 113.508C86.3109 113.516 86.3033 113.526 86.295 113.536ZM86.4209 113.364C86.4481 113.318 86.4664 113.281 86.4756 113.26C86.4793 113.252 86.4811 113.243 86.4844 113.235C86.4683 113.273 86.4483 113.317 86.4209 113.364ZM86.5303 113.107C86.5347 113.092 86.5386 113.081 86.5401 113.075C86.5477 113.045 86.5525 113.018 86.5557 113C86.5508 113.026 86.5428 113.064 86.5303 113.107Z" fill="#DDDEE4"/>
<path d="M69.6638 15.9935C70.9606 15.9985 72.2398 16.1594 73.4988 16.4769C74.6297 16.7621 75.7724 16.9823 76.9265 17.138C78.1783 17.307 79.4115 17.5709 80.6257 17.929C81.8624 18.2938 83.0475 18.7874 84.1784 19.4076C85.2453 19.9926 86.3036 20.5846 87.3523 21.1849C88.4005 21.7849 89.4468 22.3957 90.4909 23.0169C91.5921 23.6721 92.6201 24.4291 93.573 25.2855C94.5229 26.1392 95.3866 27.0741 96.1628 28.0882C96.8528 28.9896 97.6277 29.8195 98.488 30.5785C99.4893 31.4616 100.33 32.4771 101.006 33.6204C101.616 34.6539 102.242 35.6803 102.881 36.6986C103.581 37.8152 104.113 39.0113 104.472 40.2826C104.797 41.4297 105.155 42.5587 105.547 43.6693C105.958 44.8357 106.313 46.0214 106.613 47.2249C106.91 48.4175 107.17 49.6224 107.391 50.8382C107.631 52.1538 107.647 53.4806 107.443 54.8128C107.276 55.9031 107.29 56.9874 107.485 58.0687C107.72 59.3704 107.774 60.6756 107.648 61.9808C107.537 63.1274 107.513 64.2741 107.577 65.4202C107.648 66.6982 107.589 67.9764 107.401 69.2523C107.243 70.331 107.267 71.4092 107.472 72.4906C107.718 73.7798 107.806 75.0729 107.737 76.3665C107.673 77.5574 107.629 78.749 107.602 79.9398C107.576 81.1227 107.582 82.3044 107.618 83.4837C107.653 84.6121 107.793 85.7272 108.041 86.8285C108.265 87.8266 108.703 88.7199 109.362 89.5199C110.148 90.4728 110.898 91.4491 111.613 92.4476C112.357 93.4867 112.989 94.5893 113.507 95.7542C113.984 96.828 114.498 97.8902 115.049 98.9408C115.68 100.147 116.048 101.435 116.147 102.793C116.243 104.097 116.166 105.384 115.917 106.651C115.672 107.892 115.303 109.101 114.811 110.273C114.287 111.522 113.523 112.617 112.527 113.551C111.512 114.504 110.331 115.164 108.998 115.522C107.85 115.829 106.698 116.148 105.541 116.479C104.234 116.852 102.896 116.956 101.539 116.79C100.398 116.651 99.2636 116.622 98.1355 116.701C96.9827 116.781 95.8314 116.936 94.6824 117.163C93.4297 117.412 92.1713 117.557 90.9079 117.6C89.6495 117.642 88.3884 117.59 87.1257 117.445C85.9914 117.314 84.8625 117.297 83.738 117.396C82.5169 117.503 81.2945 117.575 80.071 117.613C78.8542 117.65 77.6364 117.663 76.4187 117.653C75.2151 117.642 74.0114 117.631 72.8083 117.619C71.5972 117.608 70.3868 117.582 69.1775 117.543C68.0366 117.506 66.8932 117.562 65.7478 117.709C64.473 117.873 63.1979 117.913 61.9236 117.828C60.7688 117.752 59.612 117.748 58.4538 117.818C57.1723 117.895 55.8937 117.842 54.6199 117.656C53.473 117.488 52.3247 117.403 51.1745 117.4C49.9598 117.396 48.7455 117.374 47.532 117.332C46.3468 117.292 45.16 117.279 43.9724 117.292C42.741 117.306 41.5112 117.274 40.2829 117.198C39.0802 117.123 37.8769 117.046 36.6745 116.966C35.4758 116.887 34.2775 116.812 33.0798 116.74C31.8249 116.664 30.5802 116.495 29.3464 116.235C28.0372 115.958 26.8081 115.46 25.6638 114.745C24.507 114.023 23.5235 113.105 22.7195 111.998C21.9216 110.9 21.3389 109.696 20.9753 108.393C20.6068 107.072 20.5159 105.732 20.7058 104.383C20.8777 103.163 21.0905 101.959 21.3445 100.773C21.6029 99.566 21.9403 98.3698 22.3562 97.1859C22.7856 95.9635 23.3512 94.8081 24.0515 93.722C24.7172 92.6895 25.4156 91.6783 26.1462 90.6898C26.8062 89.7969 27.3415 88.8371 27.7517 87.8089C28.1491 86.8128 28.3643 85.779 28.3982 84.7025C28.4359 83.5012 28.466 82.3009 28.489 81.1029C28.5116 79.9208 28.5019 78.7381 28.4597 77.556C28.4161 76.3352 28.4031 75.1137 28.4197 73.8929C28.4362 72.679 28.4712 71.4642 28.5251 70.2503C28.5758 69.1091 28.532 67.9669 28.3943 66.8245C28.2466 65.6002 28.1358 64.3754 28.0613 63.1507C27.9857 61.9083 27.9768 60.6647 28.0349 59.4222C28.0907 58.2297 28.131 57.0362 28.155 55.8421C28.1796 54.6193 28.2351 53.3965 28.321 52.1751C28.4084 50.9336 28.5601 49.6993 28.7771 48.473C29.0005 47.21 29.3504 45.9814 29.8259 44.7894C30.2593 43.7029 30.6358 42.5981 30.9558 41.4759C31.3071 40.2441 31.7803 39.0601 32.3747 37.9261C32.9452 36.8378 33.5513 35.7694 34.1921 34.722C34.8423 33.6594 35.5516 32.6375 36.3191 31.6566C37.0947 30.6653 37.9394 29.7373 38.8533 28.8743C39.6849 28.089 40.4605 27.2369 41.1784 26.3167C42.0354 25.2186 43.0964 24.3602 44.3513 23.7513C45.4193 23.2331 46.4429 22.669 47.4216 22.0599C48.4397 21.4262 49.4675 20.7988 50.5046 20.1781C51.5716 19.5394 52.6742 18.9605 53.8113 18.4408C54.9668 17.9126 56.1592 17.4821 57.3865 17.1497C58.5844 16.8253 59.7943 16.5496 61.0154 16.3245C62.3052 16.0868 63.6086 16.0251 64.9216 16.138C65.5115 16.1887 65.9832 16.2125 66.3445 16.2132C66.7258 16.2139 66.9149 16.1877 66.9763 16.1722C67.5356 16.0309 68.4795 15.989 69.6638 15.9935Z" fill="#EEEFF1"/>
<path d="M102.948 87.4989C103.557 87.4427 104.096 87.8904 104.152 88.4989C104.208 89.1072 103.76 89.6456 103.152 89.7021L103.053 89.7118L103.029 89.7138L102.468 89.7528C102.103 89.7801 101.527 89.8734 100.715 90.0487C99.786 90.2491 98.8433 90.3172 97.8896 90.2528C97.1015 90.1997 96.3227 90.2152 95.5527 90.2987C94.6978 90.3915 93.8402 90.4616 92.9804 90.5087C92.1239 90.5557 91.2653 90.5834 90.4062 90.5927C89.6758 90.6007 88.9503 90.7177 88.2275 90.9472C87.2559 91.2556 86.2617 91.3544 85.2548 91.2392C84.4932 91.152 83.7413 91.1582 82.997 91.2568C82.0891 91.3769 81.176 91.4064 80.2587 91.3466C79.5393 91.2997 78.8244 91.3736 78.1103 91.5712C77.1167 91.8461 76.1069 91.8896 75.0937 91.7001C74.3496 91.5609 73.6152 91.5318 72.8876 91.6103C72.0308 91.7027 71.1721 91.7721 70.3124 91.8193C69.4659 91.8657 68.6193 91.905 67.7724 91.9364C66.8519 91.9707 65.9336 91.9057 65.0195 91.7421C64.2643 91.6069 63.5086 91.5585 62.7509 91.5966C61.849 91.642 60.9487 91.6142 60.0517 91.5136C59.3144 91.4309 58.5698 91.4477 57.8163 91.5663C56.8346 91.721 55.8569 91.6962 54.8905 91.4902C54.0967 91.3209 53.3009 91.1954 52.5038 91.1142C51.7117 91.0335 50.916 91.0014 50.1171 91.0185C49.2358 91.0373 48.3575 91.0117 47.4823 90.9413C46.6076 90.871 45.7359 90.7565 44.8681 90.5986C44.0897 90.4569 43.3072 90.3735 42.5204 90.3476C41.7043 90.3207 40.8834 90.3217 40.0585 90.3505C39.1119 90.3836 38.1759 90.2937 37.2538 90.08C36.5277 89.9117 35.3912 89.7843 33.8017 89.7157L33.747 89.7118L33.6474 89.7021C33.039 89.6454 32.592 89.1064 32.6484 88.498C32.705 87.8896 33.244 87.4425 33.8525 87.4989L33.9208 87.5058C35.5376 87.5762 36.8295 87.7095 37.7538 87.9237C38.4866 88.0936 39.2286 88.1649 39.9814 88.1386C40.8557 88.108 41.7261 88.1071 42.5927 88.1357C43.4887 88.1651 44.3795 88.2607 45.2646 88.4218C46.0602 88.5666 46.8584 88.6709 47.6591 88.7353C48.4594 88.7996 49.2634 88.8238 50.0702 88.8066C50.9596 88.7876 51.8458 88.823 52.7284 88.913C53.6059 89.0024 54.4804 89.1394 55.3515 89.3251C56.0501 89.4741 56.7548 89.4937 57.4716 89.3808C58.4167 89.2319 59.3598 89.2091 60.2978 89.3144C61.0761 89.4017 61.8569 89.4251 62.6396 89.3857C63.5664 89.339 64.4901 89.3989 65.4091 89.5634C66.1693 89.6995 66.9297 89.7528 67.6903 89.7245C68.5242 89.6935 69.3579 89.655 70.1913 89.6093C71.0121 89.5643 71.8321 89.4974 72.6503 89.4091C73.5977 89.3069 74.5487 89.3464 75.4999 89.5243C76.1819 89.6519 76.8515 89.6235 77.5204 89.4384C78.4688 89.176 79.4311 89.0753 80.4023 89.1386C81.1753 89.189 81.9429 89.1634 82.706 89.0624C83.6329 88.9397 84.5677 88.9325 85.5068 89.04C86.2002 89.1193 86.881 89.0529 87.5585 88.8378C88.4847 88.5438 89.4274 88.3902 90.3827 88.3798C91.2094 88.3708 92.0353 88.3439 92.8593 88.2987C93.6798 88.2538 94.4978 88.187 95.3134 88.0986C96.2141 88.0009 97.1228 87.9831 98.038 88.0448C98.7874 88.0954 99.5232 88.042 100.248 87.8857C101.089 87.7043 101.783 87.5856 102.304 87.5468L102.308 87.5458L102.871 87.5058L102.948 87.4989Z" fill="#DDDEE4"/>
<path d="M115.794 10.0442C116.653 9.1852 118.046 9.18519 118.906 10.0442C119.765 10.9033 119.765 12.2964 118.906 13.1555L118.878 13.1819C116.681 15.6296 114.816 17.4743 113.312 18.6194C112.121 19.5265 111.067 20.5686 110.15 21.7483C109.368 22.7533 108.561 23.7341 107.731 24.6917C108.22 25.1481 108.725 25.59 109.245 26.0159C110.6 27.1239 111.896 28.2915 113.133 29.5178C114.371 30.7448 115.549 32.0316 116.667 33.3772C117.152 33.961 117.523 34.3799 117.788 34.6555L118.245 34.6839L118.906 35.344C119.765 36.2031 119.765 37.5962 118.906 38.4553C118.306 39.0551 117.447 39.2339 116.69 38.9964L116.648 38.9944L116.465 38.9524C115.878 38.8148 115.453 38.4703 115.325 38.3674C115.113 38.1984 114.904 37.9995 114.709 37.801C114.314 37.3987 113.834 36.8524 113.284 36.1897C112.256 34.9525 111.172 33.7698 110.035 32.6428C108.898 31.5154 107.706 30.442 106.459 29.4221C105.854 28.9272 105.268 28.4128 104.7 27.8811C104.131 28.4127 103.546 28.9273 102.941 29.4221C101.694 30.442 100.502 31.5154 99.3646 32.6428C98.2276 33.7698 97.1445 34.9525 96.1165 36.1897C95.5659 36.8524 95.0862 37.3987 94.6908 37.801C94.4957 37.9995 94.2866 38.1984 94.0755 38.3674C93.9471 38.4702 93.5219 38.8147 92.9349 38.9524L92.7523 38.9944L92.7103 38.9964C91.9535 39.234 91.0942 39.055 90.4945 38.4553C89.6354 37.5962 89.6353 36.2031 90.4945 35.344L91.1546 34.6839L91.6117 34.6555C91.877 34.3799 92.2477 33.961 92.7327 33.3772C93.8508 32.0316 95.029 30.7448 96.2669 29.5178C97.5042 28.2915 98.8004 27.1238 100.155 26.0159C100.675 25.5901 101.179 25.148 101.668 24.6917C100.838 23.7342 100.032 22.7532 99.2503 21.7483C98.3327 20.5686 97.2795 19.5265 96.0882 18.6194C94.5845 17.4744 92.7196 15.6297 90.5218 13.1819L90.4945 13.1555C89.6353 12.2964 89.6353 10.9034 90.4945 10.0442C91.3536 9.18518 92.7467 9.18509 93.6058 10.0442L93.6761 10.1145L93.7181 10.1575L93.7581 10.2014C95.9263 12.6189 97.582 14.2258 98.7542 15.1184C100.248 16.2555 101.572 17.5661 102.723 19.0462C103.364 19.8703 104.024 20.6754 104.7 21.4651C105.375 20.6753 106.036 19.8704 106.677 19.0462C107.828 17.5661 109.153 16.2555 110.646 15.1184C111.818 14.2258 113.474 12.6188 115.642 10.2014L115.682 10.1575L115.724 10.1145L115.794 10.0442Z" fill="#D2D3D9"/>
</svg>
