<svg width="42" height="42" viewBox="0 0 42 42" fill="none" xmlns="http://www.w3.org/2000/svg">
<circle cx="21" cy="21" r="20.3438" fill="#F7F8F9" stroke="#EEEFF1" style="fill:#F7F8F9;fill:color(display-p3 0.9686 0.9725 0.9765);fill-opacity:1;stroke:#EEEFF1;stroke:color(display-p3 0.9333 0.9373 0.9451);stroke-opacity:1;" stroke-width="1.3125"/>
<path d="M19.9214 23.1885C19.4582 21.3009 19.3452 15.6583 19.4925 11.5308C19.5353 10.3318 19.5567 9.73231 19.9688 9.34088C20.3809 8.94944 20.9994 8.9592 22.2364 8.97871L25.6405 9.03241C27.0629 9.05485 27.7741 9.06607 28.1753 9.48033C28.5765 9.8946 28.5644 10.6349 28.5403 12.1157C28.5013 14.5139 28.5508 17.2676 28.5334 18.3765C28.5008 20.4423 34.2843 23.6331 34.255 25.4923C34.2257 27.3515 34.1866 29.8305 30.2517 30.3883C26.4164 30.9321 20.6957 26.5381 20.024 23.6305L19.9297 23.2223L19.9214 23.1885Z" fill="#D2D3D9" style="fill:#D2D3D9;fill:color(display-p3 0.8235 0.8275 0.8510);fill-opacity:1;"/>
<path d="M23.3901 8.66655C23.704 8.66371 24.0179 8.68268 24.3308 8.72469C24.6216 8.76374 24.913 8.78726 25.2041 8.7974C25.504 8.80782 25.8043 8.81789 26.1039 8.82657C26.4065 8.83533 26.7079 8.84978 27.008 8.8672C27.3404 8.88651 27.6569 8.96566 27.9526 9.1061C28.2847 9.26405 28.513 9.52661 28.6277 9.87794C28.7279 10.1852 28.781 10.5039 28.7865 10.8308C28.7917 11.1348 28.7885 11.4395 28.7786 11.7442C28.7692 12.0379 28.7708 12.333 28.7823 12.6272C28.7942 12.9315 28.8012 13.2366 28.8004 13.5407C28.7997 13.838 28.8036 14.1354 28.8124 14.4327C28.8217 14.7466 28.8072 15.0619 28.7715 15.3759C28.7394 15.6578 28.7352 15.9404 28.7601 16.2218C28.7876 16.5343 28.7947 16.8468 28.7801 17.1595C28.7669 17.4427 28.7803 17.7253 28.8192 18.0063C28.8582 18.2878 28.9204 18.5581 29.0063 18.816C29.089 19.0641 29.2099 19.2994 29.3673 19.522C29.5341 19.7578 29.7144 19.9851 29.9068 20.2025C30.1001 20.4209 30.3021 20.6313 30.5145 20.8319C30.7278 21.0335 30.9487 21.2277 31.1773 21.4122C31.4263 21.6131 31.655 21.8378 31.8605 22.0864C32.0464 22.3115 32.2447 22.5218 32.4551 22.7177C32.6665 22.9145 32.8903 23.1005 33.1271 23.2743C33.3889 23.4664 33.6267 23.6843 33.8389 23.9291C34.0644 24.1896 34.2237 24.4878 34.3142 24.8176C34.3956 25.1146 34.4641 25.4159 34.5194 25.7211C34.5801 26.0567 34.5702 26.3927 34.4905 26.7257C34.4195 27.0221 34.3474 27.3154 34.2744 27.6052C34.198 27.9087 34.097 28.2062 33.9713 28.4964C33.8356 28.8093 33.6403 29.0835 33.3883 29.3135C33.1487 29.5321 32.887 29.7177 32.6034 29.8689C32.3407 30.0089 32.0742 30.1505 31.8071 30.2956C31.5065 30.4589 31.185 30.5578 30.8453 30.5893C30.5422 30.6175 30.2401 30.6433 29.9397 30.6665C29.6332 30.6903 29.3246 30.7023 29.0145 30.7018C28.6793 30.7012 28.3522 30.6423 28.0366 30.5278C27.7556 30.4258 27.4739 30.331 27.1927 30.2423C26.8961 30.1487 26.6046 30.036 26.3215 29.9069C26.0403 29.7786 25.766 29.6371 25.4997 29.4808C25.2561 29.3377 24.9986 29.2161 24.727 29.116C24.4057 28.9976 24.1175 28.8211 23.8673 28.5893C23.6539 28.3918 23.429 28.2112 23.1931 28.048C22.9299 27.8659 22.6888 27.6571 22.4698 27.4232C22.2778 27.2181 22.0646 27.0332 21.8306 26.8694C21.5473 26.6713 21.3172 26.4207 21.1441 26.1215C20.9979 25.8689 20.8363 25.6305 20.6595 25.4067C20.4644 25.1597 20.2913 24.8971 20.1412 24.6201C19.99 24.3409 19.8668 24.0482 19.7725 23.7443C19.6769 23.4362 19.6188 23.119 19.6003 22.7955C19.5837 22.5062 19.5506 22.2186 19.4986 21.9347C19.4419 21.6253 19.4088 21.3125 19.4004 20.9981C19.3928 20.7172 19.3562 20.4376 19.2919 20.1591C19.2169 19.8348 19.1931 19.5053 19.2182 19.175C19.2405 18.8808 19.2504 18.5872 19.2493 18.2945C19.2483 18.0023 19.2326 17.7089 19.2046 17.4173C19.175 17.1096 19.1589 16.8006 19.156 16.4923C19.1531 16.1843 19.165 15.8764 19.1882 15.5685C19.21 15.2782 19.2148 14.9867 19.2039 14.6965C19.1928 14.4008 19.1744 14.1047 19.1485 13.8085C19.1205 13.4876 19.1267 13.167 19.1679 12.8474C19.205 12.5603 19.2218 12.2722 19.2183 11.9847C19.2165 11.8367 19.2119 11.7331 19.206 11.6691C19.2057 11.6646 19.2066 11.6598 19.2062 11.656C19.2049 11.6538 19.2008 11.6534 19.1998 11.6517C19.1788 11.6112 19.1722 11.5714 19.1688 11.5532C19.1612 11.5125 19.1585 11.468 19.1577 11.4293C19.1561 11.3466 19.1603 11.2303 19.1696 11.088C19.1888 10.7956 19.2272 10.4951 19.2838 10.187C19.3481 9.8372 19.501 9.52942 19.742 9.27219C19.9913 9.00642 20.3032 8.84928 20.6648 8.80816C20.9706 8.77338 21.2786 8.75502 21.588 8.75337C21.8795 8.75181 22.1719 8.73696 22.4651 8.71056C22.7735 8.6828 23.0821 8.66936 23.3901 8.66655ZM23.3964 9.2211C23.1032 9.22376 22.8087 9.23936 22.515 9.2658C22.2061 9.29359 21.8973 9.30849 21.59 9.31013C21.3008 9.3117 21.0135 9.3292 20.728 9.36165C20.4981 9.3878 20.3085 9.48283 20.1491 9.6527C19.9821 9.83083 19.8755 10.0401 19.8302 10.2871C19.7771 10.5759 19.7434 10.8556 19.7258 11.1251C19.7213 11.1943 19.7183 11.253 19.7165 11.3017L19.7146 11.4205C19.7286 11.45 19.7381 11.4756 19.7418 11.4906C19.7517 11.5304 19.7575 11.5759 19.7613 11.6169C19.7692 11.7036 19.7736 11.8263 19.7755 11.9782C19.7793 12.2919 19.7597 12.6064 19.7193 12.9192C19.6832 13.1989 19.6792 13.4798 19.7037 13.7606C19.7304 14.0659 19.7495 14.3721 19.7609 14.677C19.7725 14.9877 19.7654 15.299 19.742 15.6098C19.7199 15.9025 19.71 16.1954 19.7128 16.488C19.7156 16.7806 19.7318 17.0732 19.7598 17.3652C19.7894 17.6736 19.805 17.9833 19.8061 18.2925C19.8072 18.6004 19.7955 18.9092 19.772 19.2182C19.7512 19.492 19.773 19.7632 19.8353 20.0328C19.9081 20.3476 19.9488 20.6659 19.9573 20.9851C19.9651 21.2706 19.9947 21.5537 20.0462 21.8346C20.1024 22.1416 20.1396 22.4526 20.1575 22.7652C20.1734 23.0433 20.2216 23.3143 20.3035 23.5785C20.3871 23.8477 20.4967 24.1066 20.6305 24.3537C20.7655 24.6028 20.9202 24.8393 21.0957 25.0613C21.2893 25.3064 21.4655 25.5668 21.6248 25.8419C21.7573 26.0709 21.932 26.2618 22.1487 26.4134C22.4142 26.5992 22.6573 26.8086 22.8762 27.0425C23.0684 27.2478 23.2805 27.4301 23.5113 27.5897C23.7692 27.7682 24.0133 27.9668 24.2459 28.1821C24.4419 28.3637 24.6671 28.4997 24.9198 28.5929C25.2216 28.7042 25.5089 28.8401 25.7814 29.0001C26.0314 29.1469 26.2894 29.2813 26.5535 29.4017C26.8158 29.5212 27.0852 29.6234 27.3599 29.71C27.6493 29.8013 27.9386 29.8995 28.2275 30.0043C28.4825 30.0969 28.7445 30.1445 29.0148 30.145C29.3102 30.1456 29.6045 30.1336 29.896 30.1111C30.1938 30.088 30.4949 30.062 30.7955 30.0341C31.0593 30.0094 31.3086 29.934 31.543 29.8066C31.811 29.661 32.0776 29.5182 32.3412 29.3777C32.5837 29.2485 32.8083 29.0889 33.0142 28.901C33.2078 28.7241 33.3548 28.5155 33.4591 28.2751C33.573 28.0122 33.6661 27.7443 33.7351 27.4704C33.8076 27.1824 33.8783 26.89 33.9488 26.5954C34.0107 26.337 34.0191 26.0784 33.9722 25.8192C33.9198 25.53 33.8537 25.2445 33.7766 24.9635C33.7084 24.7151 33.5893 24.4928 33.4177 24.2946C33.2329 24.0814 33.0263 23.8911 32.798 23.7236C32.544 23.5372 32.302 23.337 32.0746 23.1251C31.8464 22.9125 31.6317 22.6841 31.4306 22.4407C31.2488 22.2206 31.0486 22.0211 30.829 21.8439C30.589 21.6503 30.3556 21.4487 30.1317 21.2371C29.9074 21.0252 29.694 20.8029 29.4898 20.5722C29.284 20.3398 29.0905 20.0957 28.912 19.8433C28.7243 19.5778 28.5798 19.294 28.4794 18.9926C28.3821 18.7008 28.3113 18.3966 28.2678 18.0822C28.2242 17.7675 28.209 17.4507 28.2238 17.1334C28.2372 16.8457 28.2326 16.5576 28.2072 16.2698C28.179 15.951 28.1814 15.6317 28.2177 15.3128C28.2504 15.0252 28.2639 14.737 28.2554 14.4499C28.2464 14.1464 28.243 13.8421 28.2437 13.5385C28.2445 13.2421 28.2388 12.9454 28.2272 12.6487C28.2151 12.3415 28.2123 12.0334 28.2222 11.7266C28.2317 11.4308 28.2347 11.1343 28.2297 10.8393C28.225 10.567 28.1812 10.3036 28.0985 10.05C28.0304 9.84171 27.9055 9.70011 27.7142 9.60893C27.485 9.50008 27.2382 9.43641 26.9755 9.42114C26.6812 9.40406 26.3854 9.39166 26.0886 9.38305C25.7879 9.37435 25.4853 9.36428 25.1843 9.35381C24.8749 9.34302 24.5656 9.31748 24.257 9.27602C23.9703 9.23754 23.6834 9.21855 23.3964 9.2211Z" fill="#D2D3D9" style="fill:#D2D3D9;fill:color(display-p3 0.8235 0.8275 0.8510);fill-opacity:1;"/>
<path d="M26.2137 10.4637C26.5297 10.4316 26.8481 10.427 27.1665 10.4504C27.32 10.4617 27.448 10.4757 27.5485 10.4893L27.8064 10.5455L27.8258 10.5546L27.8433 10.5633L27.8713 10.5836C27.9943 10.6148 28.0853 10.7198 28.0822 10.8519C28.0782 11.0055 27.9509 11.1278 27.7973 11.1239L27.7647 11.1233L27.6909 11.1199L27.6306 11.0841L27.5873 11.0597C27.5721 11.0561 27.5376 11.0488 27.4747 11.0403C27.3899 11.0289 27.2736 11.0177 27.1252 11.0068C26.839 10.9857 26.5535 10.9883 26.2701 11.0171C25.9644 11.0481 25.6573 11.0708 25.3513 11.083C25.0459 11.0952 24.7398 11.0992 24.4333 11.0946C24.1419 11.0901 23.8516 11.1002 23.5629 11.1267C23.2661 11.154 22.9678 11.1854 22.6697 11.2191C22.3486 11.2554 22.0253 11.2556 21.704 11.2192C21.4244 11.1876 21.0017 11.1788 20.4278 11.199L20.4235 11.2009L20.3841 11.2003C20.2304 11.1995 20.1052 11.0735 20.1059 10.9198C20.1069 10.7663 20.2328 10.643 20.3864 10.6436L20.4082 10.644C20.9898 10.6234 21.4457 10.629 21.7671 10.6654C22.0469 10.6971 22.3273 10.6972 22.6068 10.6656C22.9087 10.6314 23.21 10.6011 23.5107 10.5734C23.8196 10.545 24.1307 10.5333 24.4421 10.538C24.7383 10.5424 25.0347 10.5377 25.3298 10.5259C25.6242 10.5142 25.9195 10.4936 26.2137 10.4637Z" fill="#F7F8F9" style="fill:#F7F8F9;fill:color(display-p3 0.9686 0.9725 0.9765);fill-opacity:1;"/>
<path d="M26.1362 11.8581C26.4451 11.8467 26.7543 11.8479 27.0627 11.864C27.2136 11.8718 27.3356 11.88 27.4277 11.8873C27.5114 11.8939 27.59 11.903 27.6405 11.9144L27.6577 11.917L27.6752 11.9238L27.6946 11.9329C27.835 11.9503 27.9419 12.0663 27.9383 12.2105C27.9338 12.3639 27.8066 12.4864 27.6533 12.4824L27.6185 12.4819L27.573 12.4789L27.5319 12.4629L27.506 12.4537C27.5008 12.453 27.4933 12.4525 27.4842 12.4514C27.4597 12.4487 27.4264 12.4467 27.384 12.4433C27.2992 12.4367 27.183 12.428 27.0344 12.4203C26.7423 12.4051 26.4484 12.4043 26.1558 12.4152C25.8507 12.4265 25.5448 12.4301 25.2401 12.4268C24.9378 12.4234 24.6343 12.4162 24.3311 12.4059C24.0386 12.396 23.7472 12.3992 23.4568 12.4162C23.1602 12.4336 22.8621 12.456 22.564 12.4826C22.244 12.511 21.9242 12.5065 21.6051 12.4674C21.3261 12.4332 20.9021 12.4222 20.3267 12.4385L20.2811 12.4378C20.1276 12.4353 20.005 12.3087 20.0072 12.1551C20.0095 12.0014 20.1362 11.8789 20.2899 11.8812L20.3117 11.8815C20.8944 11.865 21.3515 11.8743 21.6728 11.9137C21.953 11.948 22.2333 11.9519 22.5141 11.927C22.8178 11.9 23.122 11.8786 23.4242 11.8609C23.7321 11.8429 24.0411 11.839 24.3509 11.8495C24.65 11.8597 24.9485 11.8669 25.2466 11.8702C25.5426 11.8734 25.8399 11.8691 26.1362 11.8581Z" fill="#F7F8F9" style="fill:#F7F8F9;fill:color(display-p3 0.9686 0.9725 0.9765);fill-opacity:1;"/>
<path d="M12.5033 29.3899C11.6037 27.6671 10.1493 22.214 9.30881 18.1703C9.06467 16.9956 8.94259 16.4083 9.24956 15.93C9.55652 15.4516 10.1595 15.3137 11.3655 15.0379L14.6843 14.2789C16.0711 13.9617 16.7645 13.8031 17.2528 14.1099C17.7412 14.4166 17.9059 15.1385 18.2353 16.5823C18.7689 18.9207 19.4732 21.5833 19.7205 22.6644C20.1811 24.6785 26.5584 26.3991 26.973 28.2118C27.3875 30.0245 27.9403 32.4414 24.2517 33.9208C20.6564 35.3628 14.0535 32.4585 12.7083 29.7948L12.5194 29.4209L12.5033 29.3899Z" fill="#D2D3D9" style="fill:#D2D3D9;fill:color(display-p3 0.8235 0.8275 0.8510);fill-opacity:1;"/>
<path d="M12.4127 14.4598C12.7168 14.3823 13.0261 14.3259 13.34 14.2922C13.6318 14.2608 13.9204 14.2142 14.2056 14.1547C14.4993 14.0933 14.7934 14.0315 15.0863 13.9686C15.3823 13.905 15.6785 13.8472 15.9741 13.7926C16.3016 13.7321 16.6278 13.7336 16.9484 13.7995C17.3086 13.8738 17.5929 14.0744 17.788 14.3883C17.9585 14.6628 18.086 14.9597 18.1693 15.2758C18.2468 15.5698 18.3162 15.8665 18.3793 16.1648C18.4401 16.4523 18.512 16.7385 18.5933 17.0215C18.6773 17.3142 18.7568 17.6089 18.8286 17.9044C18.8987 18.1933 18.9733 18.4812 19.0528 18.7678C19.1366 19.0705 19.1977 19.3801 19.2378 19.6935C19.2738 19.975 19.3371 20.2505 19.4283 20.5179C19.5295 20.8148 19.6108 21.1166 19.6712 21.4237C19.7259 21.7019 19.8062 21.9732 19.9109 22.2368C20.0159 22.5009 20.1408 22.7487 20.2856 22.9786C20.425 23.1999 20.5985 23.3996 20.8044 23.5782C21.0226 23.7675 21.2518 23.9453 21.4905 24.1106C21.7303 24.2766 21.9766 24.4328 22.2307 24.5771C22.4859 24.7221 22.7467 24.858 23.0127 24.9827C23.3025 25.1185 23.5781 25.2822 23.8368 25.4747C24.071 25.649 24.3138 25.8059 24.5648 25.9461C24.817 26.0869 25.0787 26.2142 25.35 26.3265C25.6501 26.4507 25.933 26.6057 26.1974 26.7929C26.4785 26.9921 26.7043 27.2438 26.8707 27.5425C27.0205 27.8115 27.1589 28.0878 27.2853 28.3711C27.4242 28.6825 27.4947 29.0112 27.4966 29.3536C27.4983 29.6585 27.4982 29.9604 27.4964 30.2593C27.4945 30.5723 27.4673 30.8853 27.4143 31.197C27.3571 31.5333 27.2328 31.8461 27.0428 32.1295C26.8622 32.399 26.6523 32.6415 26.4129 32.856C26.1911 33.0545 25.966 33.2555 25.7412 33.4601C25.4881 33.6903 25.1995 33.863 24.8771 33.9746C24.5894 34.0742 24.3022 34.1712 24.016 34.2654C23.724 34.3615 23.4271 34.4467 23.1258 34.5201C22.8002 34.5993 22.4685 34.6201 22.1347 34.5841C21.8374 34.552 21.5413 34.5271 21.247 34.5079C20.9367 34.4878 20.6267 34.4477 20.321 34.3898C20.0173 34.3322 19.7172 34.2602 19.4213 34.1718C19.1506 34.0909 18.8716 34.0342 18.5839 34.0016C18.2437 33.9632 17.9218 33.8605 17.6235 33.695C17.3693 33.554 17.1078 33.4322 16.8398 33.3299C16.5408 33.2158 16.2569 33.0705 15.9884 32.8955C15.753 32.742 15.502 32.6132 15.2357 32.51C14.9133 32.3851 14.6302 32.1965 14.3907 31.9472C14.1886 31.7367 13.9748 31.5437 13.7498 31.3685C13.5014 31.1751 13.2707 30.9613 13.059 30.728C12.8456 30.4929 12.6562 30.2379 12.4922 29.9654C12.3258 29.6888 12.1939 29.3947 12.0988 29.0849C12.0137 28.8078 11.9131 28.5364 11.7949 28.2731C11.6662 27.9862 11.5595 27.6903 11.4764 27.3869C11.402 27.1159 11.2999 26.8531 11.171 26.5979C11.021 26.3009 10.9193 25.9865 10.865 25.6597C10.8166 25.3687 10.7562 25.0812 10.6854 24.7972C10.6148 24.5136 10.5296 24.2324 10.4329 23.9559C10.3309 23.6641 10.2416 23.3679 10.1653 23.0691C10.0891 22.7707 10.0273 22.4688 9.97641 22.1643C9.92847 21.8771 9.86359 21.5928 9.78388 21.3137C9.70262 21.0291 9.61426 20.746 9.51852 20.4644C9.41483 20.1594 9.34444 19.8466 9.30833 19.5263C9.27593 19.2387 9.22359 18.9549 9.15172 18.6766C9.11472 18.5333 9.08548 18.4337 9.06458 18.3729C9.06313 18.3686 9.06293 18.3637 9.06167 18.3602C9.05984 18.3583 9.05571 18.359 9.05438 18.3575C9.02434 18.3232 9.00843 18.2861 9.0008 18.2693C8.98374 18.2315 8.9705 18.189 8.96053 18.1516C8.93924 18.0716 8.91563 17.9577 8.89075 17.8172C8.83963 17.5287 8.80539 17.2277 8.78692 16.915C8.766 16.56 8.84121 16.2246 9.01392 15.9174C9.19274 15.5998 9.45822 15.3729 9.79959 15.2468C10.0883 15.1402 10.383 15.0489 10.6831 14.9736C10.9658 14.9026 11.2463 14.8185 11.5248 14.723C11.8177 14.6226 12.1142 14.536 12.4127 14.4598ZM12.5508 14.9969C12.2668 15.0694 11.9845 15.1547 11.7055 15.2504C11.4122 15.351 11.1158 15.439 10.8177 15.5139C10.5372 15.5843 10.2624 15.6697 9.99288 15.7693C9.77578 15.8495 9.61429 15.9869 9.50001 16.1899C9.38025 16.4027 9.3266 16.6313 9.34139 16.882C9.35869 17.1751 9.39258 17.4548 9.43971 17.7208C9.45182 17.7891 9.46292 17.8468 9.47277 17.8945L9.49926 18.0103C9.51987 18.0356 9.53518 18.0582 9.5424 18.0719C9.56145 18.1082 9.578 18.151 9.59143 18.19C9.61976 18.2722 9.6533 18.3904 9.69127 18.5375C9.7697 18.8412 9.82563 19.1513 9.86093 19.4647C9.89259 19.745 9.9556 20.0188 10.0463 20.2856C10.145 20.5758 10.2364 20.8685 10.3202 21.162C10.4056 21.461 10.4728 21.765 10.5241 22.0724C10.5724 22.362 10.6326 22.6488 10.7051 22.9323C10.7774 23.2157 10.8629 23.4961 10.9598 23.773C11.062 24.0655 11.1509 24.3625 11.2257 24.6626C11.3001 24.9613 11.3623 25.264 11.4131 25.5698C11.4581 25.8406 11.5439 26.0988 11.6687 26.3458C11.8144 26.6342 11.9298 26.9336 12.0142 27.2416C12.0897 27.517 12.1859 27.7848 12.3029 28.0454C12.4307 28.3302 12.5409 28.6233 12.6327 28.9227C12.7145 29.189 12.8258 29.4407 12.9684 29.6778C13.1137 29.9193 13.2819 30.1446 13.4707 30.3527C13.6611 30.5625 13.8677 30.7552 14.0911 30.9291C14.3375 31.121 14.5707 31.3319 14.791 31.5611C14.9742 31.7519 15.1893 31.8957 15.436 31.9913C15.7381 32.1084 16.024 32.2539 16.2924 32.4289C16.528 32.5825 16.7774 32.709 17.0396 32.809C17.3326 32.9209 17.617 33.0556 17.8942 33.2093C18.1278 33.3389 18.379 33.4174 18.6466 33.4477C18.9662 33.4838 19.2776 33.5474 19.5804 33.6378C19.8582 33.7208 20.1407 33.7898 20.4259 33.8439C20.7091 33.8975 20.9951 33.9324 21.2826 33.9511C21.5854 33.9708 21.8898 33.9973 22.1953 34.0303C22.465 34.0594 22.7308 34.0431 22.9935 33.9793C23.2805 33.9094 23.5634 33.8277 23.8412 33.7363C24.1249 33.643 24.4111 33.546 24.6964 33.4472C24.9468 33.3604 25.1709 33.2277 25.3682 33.0482C25.5937 32.8429 25.8187 32.6407 26.0412 32.4414C26.2459 32.2581 26.4261 32.0496 26.5812 31.818C26.7271 31.6001 26.8202 31.3625 26.8641 31.1042C26.9121 30.8217 26.9387 30.5394 26.9405 30.2569C26.9423 29.9599 26.9412 29.6591 26.9395 29.3561C26.938 29.0905 26.8845 28.8374 26.7772 28.5968C26.6574 28.3284 26.5252 28.0668 26.3834 27.8123C26.258 27.5873 26.0893 27.3998 25.8754 27.2482C25.6451 27.0851 25.3992 26.9496 25.1375 26.8413C24.8464 26.7208 24.5637 26.584 24.2923 26.4325C24.02 26.2804 23.7571 26.1097 23.5038 25.9212C23.2748 25.7508 23.0328 25.6048 22.7773 25.485C22.4981 25.3541 22.2234 25.2139 21.9555 25.0618C21.6872 24.9094 21.4269 24.7445 21.1736 24.5691C20.9184 24.3923 20.6723 24.2014 20.4388 23.9988C20.1932 23.7857 19.9853 23.5445 19.8159 23.2757C19.652 23.0155 19.5107 22.7369 19.3935 22.442C19.2762 22.1467 19.186 21.8426 19.1247 21.531C19.0691 21.2484 18.996 20.9696 18.9027 20.6962C18.7994 20.3933 18.7257 20.0826 18.6849 19.7642C18.6482 19.4772 18.5926 19.194 18.5159 18.9173C18.4348 18.6246 18.359 18.3299 18.2874 18.0348C18.2175 17.7468 18.1412 17.4601 18.0593 17.1747C17.9744 16.8792 17.8982 16.5807 17.8347 16.2803C17.7735 15.9907 17.7057 15.7021 17.6305 15.4167C17.5611 15.1534 17.4558 14.908 17.3151 14.6814C17.1993 14.4954 17.0443 14.3876 16.8367 14.3447C16.5882 14.2936 16.3333 14.2906 16.0745 14.3383C15.7846 14.3919 15.4944 14.4503 15.2041 14.5127C14.91 14.5759 14.6137 14.6382 14.3189 14.6998C14.0158 14.763 13.7094 14.8119 13.3997 14.8452C13.1122 14.8761 12.829 14.9261 12.5508 14.9969Z" fill="#D2D3D9" style="fill:#D2D3D9;fill:color(display-p3 0.8235 0.8275 0.8510);fill-opacity:1;"/>
<path d="M18.8374 29.8842C18.9638 29.7957 19.1092 29.7588 19.2635 29.7847C19.3514 29.7995 19.4438 29.8105 19.5386 29.821C19.7175 29.8408 19.8548 29.944 19.9285 30.1068C19.9498 30.1539 19.9679 30.1952 19.9797 30.227C19.9853 30.2418 19.9929 30.2621 19.9977 30.2823C20 30.2919 20.0031 30.3108 20.004 30.333C20.0044 30.3446 20.0048 30.3644 20.0002 30.388L19.999 30.3902L19.9998 30.3937C19.9994 30.4133 19.9993 30.446 20.0008 30.4927C20.0057 30.6555 19.9424 30.7995 19.8174 30.9059C19.7392 30.9725 19.6579 31.0346 19.5734 31.0917C19.4486 31.176 19.3062 31.2083 19.1579 31.192C18.9973 31.1742 18.8606 31.0966 18.7637 30.9666C18.6875 30.8643 18.6325 30.7519 18.6039 30.6298C18.5755 30.5085 18.5748 30.3845 18.5968 30.2601C18.6245 30.104 18.7081 29.9749 18.8374 29.8842ZM19.1897 30.2273C19.1595 30.2223 19.131 30.2269 19.0946 30.2524C19.0611 30.276 19.0448 30.3011 19.0383 30.3375C19.0262 30.4056 19.0283 30.4693 19.0421 30.5279C19.0557 30.5857 19.0827 30.6424 19.1245 30.6984C19.1457 30.7267 19.1687 30.7401 19.2071 30.7443C19.2575 30.7498 19.2924 30.7402 19.3224 30.7199C19.393 30.6722 19.4607 30.619 19.5263 30.5631C19.5446 30.5474 19.552 30.5354 19.5512 30.507C19.5497 30.4582 19.5481 30.4164 19.5487 30.385C19.5488 30.3789 19.5491 30.3715 19.5494 30.3648C19.5424 30.3475 19.5326 30.3237 19.5186 30.2927C19.5148 30.2844 19.5114 30.2791 19.5096 30.2768C19.5081 30.2749 19.5069 30.2737 19.5069 30.2737L19.5049 30.2725C19.5027 30.2716 19.4977 30.2696 19.4897 30.2686C19.387 30.2573 19.2865 30.2437 19.1897 30.2273ZM19.9812 30.4394C19.9734 30.4562 19.9642 30.4755 19.9485 30.4936C19.9607 30.4797 19.9692 30.4665 19.9746 30.4569C19.9779 30.4509 19.979 30.4443 19.9812 30.4394ZM19.6088 30.198C19.5938 30.2152 19.5831 30.2329 19.5754 30.249C19.5829 30.2332 19.5938 30.2152 19.6088 30.198Z" fill="#F7F8F9" style="fill:#F7F8F9;fill:color(display-p3 0.9686 0.9725 0.9765);fill-opacity:1;"/>
<path d="M13.2437 23.0031C13.37 22.9146 13.5154 22.8777 13.6697 22.9036C13.7577 22.9184 13.85 22.9294 13.9448 22.9399C14.1237 22.9597 14.2611 23.0629 14.3348 23.2257C14.3561 23.2728 14.3742 23.3141 14.386 23.3459C14.3915 23.3607 14.3992 23.381 14.404 23.4012C14.4062 23.4108 14.4093 23.4297 14.4102 23.4519C14.4107 23.4635 14.4111 23.4833 14.4064 23.5069L14.4053 23.5091L14.4061 23.5126C14.4057 23.5322 14.4055 23.5649 14.407 23.6116C14.412 23.7744 14.3487 23.9184 14.2237 24.0248C14.1455 24.0914 14.0641 24.1535 13.9796 24.2106C13.8548 24.2949 13.7125 24.3272 13.5641 24.3109C13.4035 24.2931 13.2669 24.2155 13.17 24.0855C13.0938 23.9832 13.0388 23.8708 13.0101 23.7487C12.9817 23.6274 12.9811 23.5034 13.0031 23.379C13.0307 23.2229 13.1144 23.0938 13.2437 23.0031ZM13.596 23.3462C13.5658 23.3412 13.5373 23.3458 13.5009 23.3713C13.4674 23.3949 13.451 23.4199 13.4445 23.4564C13.4324 23.5244 13.4346 23.5882 13.4483 23.6468C13.462 23.7046 13.489 23.7613 13.5307 23.8173C13.5519 23.8456 13.575 23.859 13.6134 23.8632C13.6638 23.8687 13.6986 23.8591 13.7287 23.8388C13.7992 23.7911 13.8669 23.7379 13.9326 23.682C13.9509 23.6663 13.9583 23.6543 13.9575 23.6259C13.9559 23.5771 13.9543 23.5353 13.955 23.5039C13.9551 23.4978 13.9554 23.4904 13.9557 23.4837C13.9486 23.4664 13.9388 23.4426 13.9248 23.4116C13.9211 23.4033 13.9177 23.398 13.9158 23.3956C13.9143 23.3937 13.9132 23.3926 13.9131 23.3926L13.9112 23.3914C13.9089 23.3905 13.904 23.3884 13.8959 23.3875C13.7932 23.3762 13.6928 23.3625 13.596 23.3462ZM14.3875 23.5583C14.3797 23.5751 14.3705 23.5944 14.3548 23.6125C14.3669 23.5985 14.3754 23.5854 14.3808 23.5758C14.3842 23.5698 14.3853 23.5632 14.3875 23.5583ZM14.015 23.3169C14 23.3341 13.9893 23.3518 13.9816 23.3679C13.9892 23.3521 14 23.3341 14.015 23.3169Z" fill="#F7F8F9" style="fill:#F7F8F9;fill:color(display-p3 0.9686 0.9725 0.9765);fill-opacity:1;"/>
<path d="M19.48 25.1012C19.6064 25.0127 19.7518 24.9759 19.9061 25.0018C19.994 25.0166 20.0863 25.0275 20.1812 25.038C20.36 25.0579 20.4974 25.161 20.5711 25.3238C20.5924 25.371 20.6105 25.4123 20.6223 25.444C20.6278 25.4589 20.6355 25.4792 20.6403 25.4994C20.6426 25.5089 20.6456 25.5278 20.6466 25.55C20.647 25.5617 20.6474 25.5815 20.6428 25.605L20.6416 25.6073L20.6424 25.6108C20.642 25.6303 20.6419 25.663 20.6433 25.7097C20.6483 25.8726 20.585 26.0166 20.46 26.123C20.3818 26.1895 20.3005 26.2516 20.216 26.3087C20.0911 26.393 19.9488 26.4253 19.8005 26.4091C19.6399 26.3913 19.5032 26.3137 19.4063 26.1836C19.3301 26.0814 19.2751 25.969 19.2465 25.8469C19.218 25.7256 19.2174 25.6016 19.2394 25.4771C19.2671 25.321 19.3507 25.1919 19.48 25.1012ZM19.8323 25.4444C19.8021 25.4393 19.7736 25.444 19.7372 25.4695C19.7037 25.4931 19.6873 25.5181 19.6808 25.5545C19.6688 25.6226 19.6709 25.6863 19.6847 25.745C19.6983 25.8027 19.7253 25.8594 19.7671 25.9155C19.7883 25.9438 19.8113 25.9571 19.8497 25.9614C19.9001 25.9669 19.935 25.9573 19.965 25.937C20.0356 25.8893 20.1032 25.836 20.1689 25.7802C20.1872 25.7645 20.1946 25.7525 20.1938 25.724C20.1923 25.6753 20.1907 25.6334 20.1913 25.6021C20.1914 25.596 20.1917 25.5885 20.192 25.5819C20.1849 25.5646 20.1752 25.5407 20.1612 25.5098C20.1574 25.5014 20.154 25.4962 20.1522 25.4938C20.1506 25.4919 20.1495 25.4908 20.1495 25.4907L20.1475 25.4895C20.1452 25.4887 20.1403 25.4866 20.1323 25.4857C20.0296 25.4743 19.9291 25.4607 19.8323 25.4444ZM20.6238 25.6564C20.616 25.6733 20.6068 25.6926 20.5911 25.7106C20.6032 25.6967 20.6117 25.6836 20.6171 25.674C20.6205 25.6679 20.6216 25.6614 20.6238 25.6564ZM20.2514 25.415C20.2363 25.4323 20.2256 25.45 20.2179 25.4661C20.2255 25.4502 20.2363 25.4322 20.2514 25.415Z" fill="#F7F8F9" style="fill:#F7F8F9;fill:color(display-p3 0.9686 0.9725 0.9765);fill-opacity:1;"/>
<path d="M28.7437 22.9825C28.87 22.8941 29.0154 22.8572 29.1697 22.8831C29.2577 22.8979 29.35 22.9089 29.4448 22.9194C29.6237 22.9392 29.7611 23.0424 29.8348 23.2052C29.8561 23.2523 29.8742 23.2936 29.886 23.3254C29.8915 23.3402 29.8992 23.3605 29.904 23.3807C29.9062 23.3903 29.9093 23.4092 29.9102 23.4314C29.9107 23.443 29.9111 23.4628 29.9064 23.4863L29.9053 23.4886L29.9061 23.4921C29.9057 23.5117 29.9055 23.5444 29.907 23.5911C29.912 23.7539 29.8487 23.8979 29.7237 24.0043C29.6455 24.0709 29.5641 24.1329 29.4796 24.19C29.3548 24.2744 29.2125 24.3067 29.0641 24.2904C28.9035 24.2726 28.7669 24.195 28.67 24.065C28.5938 23.9627 28.5388 23.8503 28.5101 23.7282C28.4817 23.6069 28.4811 23.4829 28.5031 23.3585C28.5307 23.2024 28.6144 23.0733 28.7437 22.9825ZM29.096 23.3257C29.0658 23.3207 29.0373 23.3253 29.0009 23.3508C28.9674 23.3744 28.951 23.3994 28.9445 23.4358C28.9324 23.5039 28.9346 23.5677 28.9483 23.6263C28.962 23.6841 28.989 23.7408 29.0307 23.7968C29.0519 23.8251 29.075 23.8385 29.1134 23.8427C29.1638 23.8482 29.1986 23.8386 29.2287 23.8183C29.2992 23.7706 29.3669 23.7174 29.4326 23.6615C29.4509 23.6458 29.4583 23.6338 29.4575 23.6054C29.4559 23.5566 29.4543 23.5148 29.455 23.4834C29.4551 23.4773 29.4554 23.4699 29.4557 23.4632C29.4486 23.4459 29.4388 23.4221 29.4248 23.3911C29.4211 23.3828 29.4177 23.3775 29.4158 23.3751C29.4143 23.3732 29.4132 23.3721 29.4131 23.3721L29.4112 23.3709C29.4089 23.37 29.404 23.3679 29.3959 23.367C29.2932 23.3557 29.1928 23.342 29.096 23.3257ZM29.8875 23.5378C29.8797 23.5546 29.8705 23.5739 29.8548 23.592C29.8669 23.578 29.8754 23.5649 29.8808 23.5553C29.8842 23.5493 29.8853 23.5427 29.8875 23.5378ZM29.515 23.2964C29.5 23.3136 29.4893 23.3313 29.4816 23.3474C29.4892 23.3316 29.5 23.3136 29.515 23.2964Z" fill="#F7F8F9" style="fill:#F7F8F9;fill:color(display-p3 0.9686 0.9725 0.9765);fill-opacity:1;"/>
<path d="M23.2319 16.9557C23.3583 16.8672 23.5037 16.8304 23.658 16.8562C23.746 16.8711 23.8383 16.882 23.9331 16.8925C24.112 16.9123 24.2494 17.0155 24.3231 17.1783C24.3444 17.2254 24.3624 17.2667 24.3743 17.2985C24.3798 17.3134 24.3875 17.3337 24.3923 17.3539C24.3945 17.3634 24.3976 17.3823 24.3985 17.4045C24.399 17.4162 24.3994 17.4359 24.3947 17.4595L24.3936 17.4618L24.3944 17.4652C24.394 17.4848 24.3938 17.5175 24.3953 17.5642C24.4003 17.7271 24.3369 17.8711 24.212 17.9775C24.1338 18.044 24.0524 18.1061 23.9679 18.1632C23.8431 18.2475 23.7008 18.2798 23.5524 18.2636C23.3918 18.2457 23.2552 18.1682 23.1583 18.0381C23.0821 17.9359 23.027 17.8235 22.9984 17.7013C22.97 17.5801 22.9693 17.4561 22.9913 17.3316C23.019 17.1755 23.1026 17.0464 23.2319 16.9557ZM23.5843 17.2989C23.5541 17.2938 23.5255 17.2984 23.4891 17.324C23.4557 17.3475 23.4393 17.3726 23.4328 17.409C23.4207 17.4771 23.4229 17.5408 23.4366 17.5995C23.4503 17.6572 23.4773 17.7139 23.519 17.77C23.5402 17.7983 23.5633 17.8116 23.6016 17.8158C23.652 17.8214 23.6869 17.8118 23.717 17.7915C23.7875 17.7438 23.8552 17.6905 23.9209 17.6346C23.9392 17.619 23.9465 17.607 23.9458 17.5785C23.9442 17.5298 23.9426 17.4879 23.9432 17.4566C23.9434 17.4505 23.9437 17.443 23.944 17.4363C23.9369 17.4191 23.9271 17.3952 23.9131 17.3643C23.9093 17.3559 23.906 17.3507 23.9041 17.3483C23.9026 17.3464 23.9015 17.3453 23.9014 17.3452L23.8995 17.344C23.8972 17.3432 23.8923 17.3411 23.8842 17.3401C23.7815 17.3288 23.681 17.3152 23.5843 17.2989ZM24.3758 17.5109C24.3679 17.5278 24.3588 17.5471 24.3431 17.5651C24.3552 17.5512 24.3637 17.5381 24.3691 17.5285C24.3724 17.5224 24.3735 17.5159 24.3758 17.5109ZM24.0033 17.2695C23.9883 17.2867 23.9776 17.3045 23.9699 17.3206C23.9774 17.3047 23.9883 17.2867 24.0033 17.2695Z" fill="#F7F8F9" style="fill:#F7F8F9;fill:color(display-p3 0.9686 0.9725 0.9765);fill-opacity:1;"/>
<path d="M15.5835 15.533C15.8828 15.4265 16.1909 15.3461 16.5058 15.293C16.6575 15.2674 16.7851 15.2506 16.886 15.2398L17.1499 15.2329L17.1709 15.2371L17.1899 15.2414L17.2219 15.2545C17.3488 15.2555 17.4623 15.3357 17.4908 15.4648C17.5234 15.6149 17.4289 15.764 17.2788 15.7968L17.2471 15.804L17.1745 15.8183L17.1074 15.7979L17.0596 15.7845C17.044 15.7846 17.0088 15.7858 16.9456 15.7925C16.8605 15.8016 16.7449 15.8185 16.5982 15.8432C16.3152 15.891 16.0386 15.9615 15.7702 16.057C15.4807 16.16 15.1879 16.2552 14.8935 16.34C14.5998 16.4246 14.3035 16.5014 14.0047 16.5699C13.7207 16.6351 13.4412 16.714 13.1671 16.8086C12.8853 16.9058 12.6031 17.0074 12.3216 17.1112C12.0184 17.223 11.7045 17.3001 11.3838 17.3413C11.1047 17.3773 10.692 17.4695 10.1395 17.6259L10.1358 17.6287L10.0974 17.6375C9.94798 17.6734 9.79636 17.5808 9.76042 17.4314C9.72473 17.2821 9.81768 17.1323 9.96696 17.0963L9.98822 17.0915C10.5482 16.9329 10.9923 16.8297 11.3131 16.7885C11.5924 16.7526 11.8648 16.6859 12.1286 16.5886C12.4137 16.4835 12.6991 16.3822 12.9846 16.2837C13.2778 16.1825 13.5771 16.0969 13.8806 16.0273C14.1694 15.961 14.4561 15.8858 14.7399 15.8041C15.0231 15.7225 15.3049 15.6321 15.5835 15.533Z" fill="#F7F8F9" style="fill:#F7F8F9;fill:color(display-p3 0.9686 0.9725 0.9765);fill-opacity:1;"/>
<path d="M15.84 16.9055C16.1373 16.8208 16.4379 16.7483 16.7412 16.6904C16.8896 16.662 17.01 16.641 17.1012 16.6261C17.1841 16.6125 17.2626 16.6026 17.3143 16.6017L17.3317 16.6001L17.3503 16.6025L17.3713 16.6067C17.5118 16.5902 17.6433 16.6773 17.6741 16.8183C17.7063 16.9683 17.612 17.1176 17.4622 17.1503L17.4282 17.158L17.3833 17.166L17.3396 17.1603L17.3122 17.1575C17.307 17.1581 17.2996 17.1593 17.2905 17.1605C17.2661 17.1636 17.2333 17.1696 17.1913 17.1765C17.1074 17.1902 16.9925 17.2095 16.8463 17.2374C16.559 17.2922 16.2733 17.3616 15.9917 17.4418C15.6982 17.5255 15.4019 17.6019 15.1052 17.6713C14.8108 17.7401 14.5143 17.8054 14.2174 17.8676C13.931 17.9277 13.6487 18.0003 13.3707 18.086C13.0869 18.1735 12.8027 18.2663 12.5195 18.3632C12.2155 18.467 11.9038 18.5388 11.5846 18.577C11.3055 18.6102 10.8911 18.7005 10.3361 18.8535L10.2917 18.8636C10.142 18.8979 9.99277 18.804 9.95832 18.6544C9.92387 18.5045 10.0178 18.3554 10.1676 18.321L10.1889 18.3161C10.7508 18.1613 11.197 18.0614 11.5184 18.0231C11.7987 17.9896 12.0719 17.9266 12.3387 17.8355C12.6272 17.7369 12.9175 17.6436 13.2068 17.5545C13.5015 17.4636 13.8007 17.3861 14.1041 17.3225C14.3969 17.2611 14.6886 17.197 14.9789 17.1291C15.2671 17.0618 15.5548 16.9868 15.84 16.9055Z" fill="#F7F8F9" style="fill:#F7F8F9;fill:color(display-p3 0.9686 0.9725 0.9765);fill-opacity:1;"/>
<path d="M20.0552 21.2677C20.1775 21.1749 20.3538 21.1988 20.4467 21.321L20.4662 21.3476L20.4881 21.3764L20.4998 21.4071C20.7246 21.9322 20.9164 22.2946 21.0732 22.5095C21.2186 22.7087 21.4063 22.8554 21.6381 22.9513C21.9192 23.0678 22.1985 23.1879 22.4749 23.3133C22.7566 23.4411 23.0327 23.5835 23.3016 23.7377C23.5555 23.8832 23.8153 24.0169 24.0804 24.1396C24.3492 24.264 24.6216 24.3823 24.8976 24.4947C25.2039 24.6194 25.4864 24.7887 25.7427 24.9997C26.0032 25.2142 26.2177 25.4678 26.3826 25.759C26.5239 26.0085 26.6819 26.2506 26.8601 26.4819C27.0645 26.7473 27.2231 27.0377 27.3316 27.3532C27.43 27.6396 27.5292 27.9249 27.6278 28.2091C27.7263 28.4926 27.7918 28.7343 27.7959 28.9047L27.7953 28.9225L27.7903 29.0465C27.814 29.1802 27.7418 29.3135 27.6093 29.3577C27.4635 29.4061 27.3054 29.3277 27.2569 29.1819L27.2473 29.1503L27.2294 29.101L27.2314 29.0515L27.238 28.914C27.2351 28.8385 27.1982 28.6732 27.1007 28.3921C27.0018 28.1073 26.903 27.8213 26.8043 27.5342C26.7156 27.2763 26.5878 27.039 26.4202 26.8213C26.2261 26.5694 26.0511 26.3059 25.8966 26.0331C25.7657 25.802 25.5967 25.6005 25.3881 25.4287C25.175 25.2534 24.9417 25.1145 24.6878 25.0112C24.4037 24.8955 24.1227 24.7741 23.8459 24.646C23.5658 24.5164 23.2918 24.3744 23.0237 24.2207C22.7702 24.0754 22.5108 23.9414 22.2453 23.8209C21.9744 23.698 21.6989 23.5788 21.4232 23.4647C21.0985 23.33 20.8301 23.12 20.6239 22.8377C20.433 22.576 20.2254 22.1783 20.0018 21.6592L19.9544 21.5585C19.9279 21.4536 19.9637 21.3373 20.0552 21.2677Z" fill="#F7F8F9" style="fill:#F7F8F9;fill:color(display-p3 0.9686 0.9725 0.9765);fill-opacity:1;"/>
</svg>
