<svg width="20" height="20" viewBox="0 0 20 20" fill="none" xmlns="http://www.w3.org/2000/svg">
<path fill-rule="evenodd" clip-rule="evenodd" d="M14.7603 10.9096H9.99889C9.49689 10.9096 9.08984 10.5026 9.08984 10.0006V5.23818C9.08984 4.73619 9.49689 4.32812 9.99889 4.32812C10.5009 4.32812 10.9089 4.73619 10.9089 5.23818V9.09051H14.7603C15.2623 9.09051 15.6693 9.49857 15.6693 10.0006C15.6693 10.5026 15.2623 10.9096 14.7603 10.9096ZM9.99949 0C4.48563 0 0 4.48664 0 10.0005C0 15.5144 4.48563 20 9.99949 20C15.5134 20 20 15.5144 20 10.0005C20 4.48664 15.5134 0 9.99949 0Z" fill="#2A3038"/>
</svg>
