<svg width="42" height="42" viewBox="0 0 42 42" fill="none" xmlns="http://www.w3.org/2000/svg">
<circle cx="21" cy="21" r="20.3438" fill="#F7F8F9" stroke="#EEEFF1" style="fill:#F7F8F9;fill:color(display-p3 0.9686 0.9725 0.9765);fill-opacity:1;stroke:#EEEFF1;stroke:color(display-p3 0.9333 0.9373 0.9451);stroke-opacity:1;" stroke-width="1.3125"/>
<path d="M10.6777 13.4172C10.6777 11.2543 10.6777 10.1728 11.3497 9.50081C12.0216 8.82886 13.1031 8.82886 15.2661 8.82886H26.715C28.878 8.82886 29.9595 8.82886 30.6315 9.50081C31.3034 10.1728 31.3034 11.2543 31.3034 13.4172V28.6163C31.3034 30.7793 31.3034 31.8607 30.6315 32.5327C29.9595 33.2047 28.878 33.2047 26.715 33.2047H15.2661C13.1031 33.2047 12.0216 33.2047 11.3497 32.5327C10.6777 31.8607 10.6777 30.7793 10.6777 28.6163V13.4172Z" fill="#D2D3D9" style="fill:#D2D3D9;fill:color(display-p3 0.8235 0.8275 0.8510);fill-opacity:1;"/>
<path d="M20.4497 8.28777C20.9633 8.26654 21.4777 8.27909 21.9912 8.32C22.4746 8.35857 22.9595 8.37904 23.4429 8.38079C23.9263 8.38251 24.4111 8.36292 24.8946 8.32732C25.4055 8.28968 25.9178 8.28026 26.4291 8.2951C26.9417 8.31 27.4537 8.35155 27.9632 8.42401C28.4379 8.49156 28.9188 8.53359 29.4043 8.54596C30.0414 8.56214 30.5782 8.82641 30.9816 9.32015C31.3459 9.76619 31.594 10.2712 31.7162 10.833C31.8334 11.3723 31.859 11.9171 31.7986 12.4638C31.7461 12.939 31.7289 13.4139 31.7448 13.887C31.7615 14.3824 31.7786 14.8793 31.795 15.3746C31.8112 15.8653 31.8355 16.3571 31.8667 16.8479C31.9007 17.3811 31.8702 17.9151 31.7737 18.4468C31.6937 18.8882 31.6906 19.3282 31.7701 19.7696C31.8667 20.306 31.8902 20.8446 31.8382 21.3824C31.7925 21.8546 31.7835 22.3267 31.8096 22.7986C31.8388 23.3246 31.8148 23.8508 31.7378 24.3759C31.6726 24.8204 31.6815 25.2675 31.7664 25.713C31.8673 26.2436 31.9025 26.7755 31.8741 27.3079C31.8478 27.7987 31.8281 28.2902 31.8166 28.7812C31.8049 29.2775 31.7941 29.775 31.7807 30.2725C31.7655 30.8332 31.6389 31.3653 31.3972 31.8604C31.1507 32.3653 30.7934 32.7749 30.3326 33.0829C29.873 33.3898 29.3543 33.5677 28.7875 33.6172C28.263 33.6629 27.7359 33.6577 27.2102 33.5993C26.7551 33.5488 26.3001 33.5576 25.8446 33.6278C25.3187 33.7089 24.7905 33.7367 24.2636 33.7102C23.7677 33.6853 23.2718 33.6569 22.776 33.6278C22.3021 33.6001 21.8268 33.6065 21.3528 33.6458C20.8464 33.6878 20.3396 33.7103 19.833 33.7139C19.3151 33.7175 18.7946 33.6855 18.2773 33.6136C17.8318 33.5516 17.3868 33.5594 16.9402 33.6421C16.3918 33.7439 15.84 33.7494 15.2911 33.6564C14.8202 33.5766 14.3496 33.5359 13.8826 33.5348C13.3761 33.5336 12.8645 33.5075 12.3482 33.4594C11.7095 33.3998 11.1857 33.0976 10.8067 32.5738C10.4452 32.0738 10.2705 31.5087 10.2907 30.8998C10.3069 30.4112 10.2976 29.9266 10.2654 29.4481C10.2317 28.9445 10.2147 28.44 10.212 27.9353C10.2092 27.4345 10.2156 26.9339 10.2296 26.4334C10.2434 25.9389 10.2548 25.444 10.2654 24.9495C10.2761 24.4524 10.2914 23.9553 10.3087 23.4582C10.3249 22.9894 10.301 22.5188 10.2369 22.0493C10.1652 21.5258 10.1424 20.9999 10.1688 20.4757C10.1926 20.0014 10.1832 19.527 10.1439 19.0525C10.1002 18.5264 10.1105 17.9974 10.1724 17.4715C10.2281 16.9985 10.247 16.5247 10.2332 16.0521C10.2187 15.5527 10.2129 15.0532 10.212 14.5538C10.211 14.0654 10.1993 13.5764 10.1761 13.0875C10.1516 12.5721 10.1599 12.055 10.201 11.5391C10.2449 10.9898 10.3814 10.4635 10.6097 9.96544C10.8632 9.41341 11.2773 9.00918 11.8358 8.77521C12.3303 8.56829 12.8487 8.43937 13.3879 8.38812C13.8865 8.34072 14.3232 8.30993 14.6964 8.29143C14.8817 8.28226 15.0371 8.2785 15.1516 8.28411C15.2045 8.28672 15.2744 8.2929 15.3413 8.30938C15.3606 8.31414 15.3911 8.33098 15.431 8.34856H15.6768C15.7637 8.34678 15.8679 8.34314 15.9902 8.33794C16.5087 8.31593 17.0278 8.33582 17.546 8.39178C18.0096 8.44181 18.4733 8.44161 18.9369 8.39544C19.441 8.34521 19.9456 8.30864 20.4497 8.28777ZM20.4889 9.20553C20.0023 9.22565 19.5133 9.26104 19.0266 9.30953C18.5001 9.36187 17.972 9.35907 17.4456 9.30221C16.9735 9.25128 16.5016 9.23569 16.0298 9.2557C15.7797 9.26633 15.5795 9.27057 15.4383 9.26632C15.3714 9.2643 15.2983 9.25962 15.234 9.24837C15.2061 9.24349 15.1462 9.23111 15.0835 9.20186L15.0761 9.1982C15.0058 9.19647 14.8968 9.19792 14.7429 9.20553C14.3872 9.22314 13.9637 9.25565 13.4739 9.30221C13.0254 9.34488 12.5987 9.45401 12.1907 9.62485C11.8462 9.76916 11.5998 10.0034 11.4414 10.3489C11.2582 10.7487 11.1504 11.1707 11.1151 11.6142C11.0772 12.0912 11.0676 12.5685 11.0902 13.0446C11.1141 13.5473 11.1284 14.0516 11.1294 14.5538C11.1303 15.0446 11.1366 15.5364 11.151 16.0272C11.166 16.5447 11.1437 17.0621 11.0829 17.5792C11.0281 18.044 11.0195 18.5093 11.058 18.9738C11.1008 19.4895 11.1088 20.0064 11.0829 20.5222C11.0594 20.9889 11.0797 21.4563 11.1436 21.9237C11.215 22.4449 11.2408 22.9685 11.2228 23.4904C11.2057 23.9833 11.1938 24.4778 11.1832 24.9707C11.1725 25.4666 11.1612 25.9628 11.1473 26.4587C11.1336 26.949 11.1267 27.4414 11.1294 27.932C11.1321 28.4176 11.1507 28.9028 11.1832 29.3873C11.2174 29.8974 11.2257 30.4128 11.2085 30.9321C11.1952 31.3316 11.3065 31.6962 11.5524 32.0362C11.7806 32.3511 12.0668 32.5146 12.4342 32.5489C12.9237 32.5946 13.4077 32.616 13.8859 32.6171C14.4047 32.6182 14.9252 32.6652 15.4453 32.7533C15.8874 32.8281 16.3293 32.8244 16.7718 32.7423C17.3153 32.6414 17.8615 32.6273 18.4062 32.7031C18.8795 32.7689 19.3534 32.7994 19.8261 32.7961C20.3097 32.7928 20.7941 32.7718 21.2778 32.7317C21.7946 32.6889 22.3129 32.6835 22.8298 32.7137C23.3233 32.7426 23.817 32.7677 24.3105 32.7925C24.7745 32.8158 25.2397 32.7928 25.7047 32.7211C26.2399 32.6385 26.7781 32.6256 27.3142 32.6852C27.7796 32.7368 28.2454 32.7435 28.7088 32.7031C29.1296 32.6662 29.4992 32.5359 29.8236 32.3193C30.1457 32.1038 30.3958 31.8182 30.5729 31.4554C30.7548 31.082 30.8516 30.6804 30.8633 30.2476C30.8767 29.7513 30.8872 29.255 30.8988 28.76C30.9106 28.2597 30.9332 27.7577 30.96 27.2578C30.9843 26.8009 30.9505 26.3435 30.8633 25.8848C30.7594 25.3393 30.7471 24.7895 30.8274 24.243C30.8956 23.778 30.9176 23.313 30.8919 22.8488C30.8632 22.3303 30.874 21.8114 30.9241 21.2931C30.9679 20.84 30.9485 20.3852 30.8666 19.9307C30.7679 19.3818 30.7707 18.8309 30.8702 18.282C30.9535 17.8228 30.9781 17.363 30.949 16.9054C30.9172 16.4059 30.8941 15.9062 30.8776 15.4068C30.8612 14.9114 30.8441 14.4148 30.8274 13.9192C30.81 13.4013 30.8308 12.8824 30.8882 12.3635C30.9376 11.9162 30.9125 11.4726 30.8164 11.03C30.7251 10.61 30.5444 10.2353 30.2715 9.90098C30.037 9.61408 29.7521 9.47317 29.3826 9.46371C28.8617 9.4505 28.3446 9.40712 27.8339 9.33444C27.3584 9.2668 26.8818 9.22641 26.4038 9.21248C25.9237 9.19853 25.4426 9.20935 24.9627 9.24471C24.4562 9.28202 23.9495 9.3003 23.4429 9.29855C22.9357 9.29675 22.4265 9.27455 21.9194 9.23409C21.4425 9.19606 20.9656 9.18584 20.4889 9.20553ZM14.8099 8.82026C14.8148 8.86347 14.826 8.90204 14.8396 8.93672C14.8266 8.90149 14.8149 8.86301 14.8099 8.81989V8.82026ZM15.6068 8.47784C15.6037 8.47441 15.6025 8.46678 15.5995 8.46356C15.594 8.45788 15.5837 8.45763 15.5782 8.45257C15.587 8.46132 15.5981 8.46763 15.6068 8.47784Z" fill="#D2D3D9" style="fill:#D2D3D9;fill:color(display-p3 0.8235 0.8275 0.8510);fill-opacity:1;"/>
<path d="M24.528 10.4527C24.7445 10.401 24.9622 10.3809 25.1806 10.3955C25.3697 10.4082 25.5592 10.4178 25.7483 10.423C25.9361 10.4282 26.1241 10.4292 26.3119 10.4252C26.5196 10.4208 26.7277 10.4353 26.9349 10.4684C27.1044 10.4955 27.2741 10.4982 27.4432 10.4783C27.6441 10.4547 27.8453 10.443 28.0463 10.441C28.2518 10.4389 28.458 10.4525 28.6631 10.4823C28.827 10.5062 28.991 10.5025 29.1556 10.4706C29.3992 10.4235 29.6427 10.4566 29.8262 10.6347C30.0008 10.8044 30.0575 11.0355 30.0397 11.2774C30.0267 11.4547 30.0289 11.6321 30.0474 11.8095C30.0682 12.0097 30.0793 12.2102 30.0811 12.4105C30.0829 12.6184 30.0659 12.8263 30.0298 13.0334C30.0022 13.1919 30.0066 13.3507 30.0437 13.5103C30.0967 13.7382 30.0997 13.9678 30.0514 14.1962C30.0148 14.3689 29.9985 14.5412 30.0042 14.7126C30.0101 14.8911 30.0301 15.0713 30.0653 15.2506C30.1061 15.4588 30.1274 15.668 30.1265 15.8772C30.1255 16.0843 30.1062 16.2816 30.0672 16.4668C30.0396 16.5969 29.976 16.717 29.8657 16.8048C29.7579 16.8904 29.6264 16.9279 29.4959 16.9374C29.2981 16.9517 29.1003 16.9598 28.9026 16.9612C28.7068 16.9625 28.5109 16.96 28.3151 16.9531C28.1236 16.9464 27.9314 16.9403 27.7398 16.9352C27.546 16.93 27.352 16.922 27.1583 16.9136C26.9841 16.906 26.8091 16.9173 26.6342 16.9473C26.423 16.9834 26.2114 16.9961 25.9995 16.9828C25.8212 16.9715 25.6418 16.9741 25.4634 16.9927C25.2501 17.0148 25.0358 17.0102 24.8228 16.9788C24.6459 16.9527 24.469 16.9426 24.2926 16.9491C24.0975 16.9562 23.9024 16.9607 23.7073 16.9612C23.5203 16.9616 23.3326 16.9669 23.1455 16.9788C22.946 16.9914 22.7459 16.9958 22.5464 16.9908C22.3542 16.986 22.1611 16.982 21.9689 16.9769C21.7775 16.9719 21.5849 16.9678 21.3935 16.9648C21.2063 16.962 21.019 16.9645 20.8318 16.9729C20.6394 16.9815 20.447 16.9886 20.2546 16.9967C20.0582 17.005 19.8613 17.0083 19.665 17.0066C19.4716 17.0049 19.2772 17.0031 19.0838 16.9985C18.8809 16.9937 18.6773 16.9751 18.4747 16.9451C18.2972 16.9188 18.1197 16.9081 17.9426 16.9136C17.7589 16.9193 17.5747 16.9346 17.3907 16.959C17.1879 16.9859 16.9848 17.0003 16.7817 17.0007C16.5815 17.0012 16.3808 16.993 16.1807 16.9747C15.9929 16.9576 15.8049 16.9447 15.6171 16.9374C15.4262 16.93 15.2345 16.9237 15.0436 16.9194C14.8511 16.9152 14.6585 16.9101 14.4661 16.9055C14.2796 16.901 14.093 16.9034 13.9065 16.9117C13.7089 16.9206 13.5107 16.925 13.3132 16.9216C13.1177 16.9183 12.9213 16.9105 12.7258 16.8997C12.509 16.8875 12.3042 16.8369 12.1501 16.714C11.9747 16.5741 11.9064 16.3553 11.8893 16.1324C11.8738 15.929 11.8734 15.7247 11.8853 15.5212C11.8964 15.3326 11.9023 15.1425 11.9051 14.9539C11.9078 14.7647 11.9066 14.5754 11.9029 14.3863C11.8991 14.1927 11.8981 13.9983 11.897 13.8047C11.8959 13.6009 11.9095 13.3973 11.9366 13.1938C11.9594 13.022 11.9601 12.8492 11.9406 12.6775C11.9175 12.474 11.9076 12.2703 11.9128 12.0666C11.9176 11.8772 11.9207 11.6862 11.919 11.4968C11.9172 11.3029 11.9174 11.121 11.9208 10.9511C11.9225 10.8679 11.9241 10.8048 11.9248 10.7632C11.9252 10.7424 11.9247 10.7254 11.9248 10.7156L11.9267 10.7218C11.9269 10.7247 11.9273 10.7332 11.9289 10.7435C11.9295 10.7475 11.9319 10.7644 11.9388 10.7848C11.9417 10.7935 11.9505 10.8196 11.9703 10.8482C11.9828 10.8662 12.0344 10.9278 12.1266 10.9471C11.9306 10.7151 12.1193 10.4592 12.1424 10.4527C12.1468 10.4521 12.1544 10.4529 12.1563 10.4527L12.1581 10.4508H12.1819C12.1939 10.4502 12.2133 10.4481 12.2372 10.4468C12.2852 10.4442 12.3572 10.4402 12.4529 10.4351C12.6612 10.424 12.8698 10.4326 13.0777 10.4607C13.2484 10.4838 13.4194 10.4861 13.5901 10.4648C13.7883 10.44 13.9868 10.4216 14.1852 10.4113C14.3902 10.4007 14.5952 10.4065 14.8001 10.427C14.9844 10.4455 15.1695 10.454 15.3538 10.4549C15.5377 10.4557 15.7217 10.448 15.9057 10.4311C16.1085 10.4123 16.3118 10.4058 16.5147 10.4131C16.7169 10.4205 16.9201 10.4399 17.1219 10.4706C17.2838 10.4952 17.4454 10.4911 17.6083 10.4567C17.823 10.4113 18.0389 10.3944 18.255 10.4091C18.4343 10.4213 18.6136 10.4205 18.793 10.4054C19.0057 10.3875 19.2195 10.3956 19.4317 10.4289C19.6074 10.4564 19.7828 10.4659 19.9579 10.4585C20.15 10.4504 20.343 10.4431 20.5351 10.4351C20.724 10.4273 20.9138 10.4165 21.1028 10.4014C21.3213 10.3839 21.5407 10.3993 21.7576 10.4486C21.9129 10.4839 22.067 10.4837 22.2223 10.4486C22.4421 10.399 22.6635 10.3886 22.8848 10.4153C23.0613 10.4367 23.2385 10.4411 23.4147 10.4289C23.6285 10.414 23.8423 10.4256 24.0552 10.4648C24.2125 10.4937 24.3696 10.4905 24.528 10.4527ZM25.147 10.9017C24.9807 10.8905 24.813 10.9051 24.6449 10.9452C24.4191 10.9991 24.1914 11.0045 23.9644 10.9628C23.7928 10.9312 23.6209 10.9213 23.4502 10.9332C23.2421 10.9476 23.0334 10.9426 22.8255 10.9174C22.6624 10.8976 22.4975 10.9059 22.3329 10.943C22.104 10.9946 21.8736 10.9951 21.6448 10.943C21.4771 10.9049 21.3105 10.8925 21.1445 10.9057C20.9489 10.9213 20.7527 10.9331 20.5571 10.9412C20.3648 10.9492 20.1719 10.9569 19.9795 10.965C19.7704 10.9738 19.5611 10.9622 19.3526 10.9295C19.1802 10.9025 19.0084 10.8953 18.8366 10.9097C18.6317 10.927 18.4263 10.9295 18.2213 10.9156C18.0529 10.9041 17.8832 10.9152 17.7134 10.9511C17.4915 10.998 17.2674 11.0048 17.0446 10.9709C16.8621 10.9431 16.6794 10.9262 16.4971 10.9196C16.3159 10.913 16.1346 10.9186 15.9533 10.9354C15.7531 10.9538 15.5522 10.9619 15.352 10.961C15.1518 10.9601 14.9507 10.9495 14.7506 10.9295C14.571 10.9115 14.3903 10.9081 14.2108 10.9174C14.0247 10.9271 13.8375 10.9436 13.6512 10.9668C13.4377 10.9934 13.2238 10.9917 13.0103 10.9628C12.8338 10.9389 12.6566 10.9319 12.4804 10.9412C12.4619 10.9422 12.4436 10.9422 12.4269 10.943C12.4268 10.9487 12.4271 10.9551 12.4269 10.961C12.4236 11.1256 12.4234 11.3031 12.4251 11.4931C12.4269 11.6882 12.4242 11.8833 12.4192 12.0783C12.4146 12.2586 12.4226 12.4399 12.443 12.6203C12.4672 12.8333 12.4651 13.0481 12.4368 13.2609C12.4128 13.4416 12.4025 13.6225 12.4035 13.8029C12.4045 13.994 12.4056 14.1853 12.4094 14.3764C12.4132 14.5715 12.4141 14.7665 12.4112 14.9616C12.4083 15.1576 12.4011 15.3548 12.3896 15.5509C12.379 15.7315 12.3817 15.9122 12.3954 16.0929C12.4078 16.2545 12.4503 16.3055 12.4665 16.3185C12.5043 16.3482 12.5887 16.3843 12.7554 16.3935C12.9443 16.4041 13.1342 16.4119 13.3231 16.4151C13.5096 16.4183 13.6962 16.4158 13.8827 16.4075C14.0807 16.3986 14.2797 16.3965 14.4778 16.4012C14.67 16.4058 14.8631 16.4091 15.0553 16.4133C15.2489 16.4176 15.4433 16.4234 15.6369 16.4309C15.8333 16.4385 16.0297 16.4525 16.2261 16.4704C16.4106 16.4873 16.5955 16.4946 16.7799 16.4943C16.9609 16.4939 17.1424 16.4828 17.3237 16.4587C17.5243 16.4321 17.726 16.4156 17.9269 16.4093C18.1344 16.4028 18.3427 16.4141 18.5498 16.4448C18.7318 16.4718 18.9139 16.4881 19.0955 16.4924C19.2864 16.497 19.478 16.4985 19.669 16.5001C19.8568 16.5017 20.0448 16.5003 20.2326 16.4924C20.4248 16.4843 20.618 16.4754 20.8101 16.4668C21.0072 16.458 21.2045 16.4557 21.4016 16.4587C21.5946 16.4617 21.7879 16.4653 21.981 16.4704C22.1732 16.4755 22.3663 16.4795 22.5585 16.4844C22.7434 16.489 22.9291 16.4862 23.1141 16.4745C23.3111 16.462 23.5084 16.4552 23.7055 16.4547C23.8949 16.4542 24.0855 16.4499 24.275 16.443C24.4827 16.4354 24.6907 16.4479 24.8979 16.4785C25.0694 16.5038 25.241 16.508 25.4121 16.4902C25.6183 16.4688 25.8247 16.4637 26.031 16.4767C26.2034 16.4875 26.3761 16.4785 26.5492 16.4488C26.759 16.4129 26.9694 16.4002 27.1799 16.4093C27.3708 16.4176 27.5624 16.4239 27.7534 16.4291C27.9463 16.4343 28.1401 16.4402 28.3331 16.447C28.5216 16.4536 28.7101 16.456 28.8985 16.4547C29.0854 16.4534 29.2734 16.4466 29.4603 16.4331C29.5185 16.4288 29.5421 16.4146 29.5493 16.4093C29.5524 16.4068 29.5634 16.3972 29.5709 16.3617C29.602 16.2142 29.6195 16.0523 29.6204 15.8753L29.6086 15.6102C29.6002 15.5226 29.5863 15.4351 29.5691 15.3472C29.5288 15.142 29.5045 14.9361 29.4977 14.7302C29.4906 14.517 29.5103 14.3033 29.5552 14.0915C29.5882 13.9358 29.5874 13.7811 29.5512 13.6249C29.4988 13.3999 29.492 13.1728 29.5314 12.9466C29.5624 12.7691 29.5765 12.5914 29.575 12.4145C29.5733 12.2303 29.5623 12.0451 29.5431 11.8608C29.5216 11.6539 29.5202 11.4467 29.5354 11.2397C29.5458 11.0976 29.5095 11.0336 29.4739 10.9987C29.447 10.9726 29.3929 10.9399 29.2527 10.9668C29.0327 11.0094 28.8108 11.0147 28.5902 10.9826C28.4107 10.9564 28.2313 10.9453 28.0522 10.9471C27.8692 10.9489 27.6857 10.9593 27.5025 10.9808C27.287 11.0061 27.0708 11.0012 26.8558 10.9668C26.6783 10.9385 26.5005 10.9276 26.3236 10.9313C26.1273 10.9355 25.9307 10.9349 25.7344 10.9295C25.5388 10.9241 25.3425 10.9148 25.147 10.9017ZM12.2292 10.4607V10.4567L12.1779 10.4508C12.1964 10.4508 12.2133 10.4575 12.2292 10.4607Z" fill="#F7F8F9" style="fill:#F7F8F9;fill:color(display-p3 0.9686 0.9725 0.9765);fill-opacity:1;"/>
<path d="M24.528 17.9532C24.7445 17.9015 24.9622 17.8814 25.1806 17.896C25.3697 17.9087 25.5592 17.9183 25.7483 17.9235C25.9361 17.9287 26.1241 17.9297 26.3119 17.9257C26.5196 17.9213 26.7277 17.9358 26.9349 17.9689C27.1044 17.996 27.2741 17.9987 27.4432 17.9788C27.6441 17.9552 27.8453 17.9434 28.0463 17.9414C28.2518 17.9394 28.458 17.953 28.6631 17.9828C28.827 18.0067 28.991 18.0029 29.1556 17.9711C29.3992 17.924 29.6427 17.9571 29.8262 18.1352C30.0008 18.3049 30.0575 18.536 30.0397 18.7779C30.0267 18.9552 30.0289 19.1326 30.0474 19.31C30.0682 19.5102 30.0793 19.7106 30.0811 19.911C30.0829 20.1188 30.0659 20.3268 30.0298 20.5339C30.0022 20.6924 30.0066 20.8512 30.0437 21.0108C30.0967 21.2387 30.0997 21.4683 30.0514 21.6967C30.0148 21.8694 29.9985 22.0417 30.0042 22.2131C30.0101 22.3916 30.0301 22.5718 30.0653 22.751C30.1061 22.9593 30.1274 23.1685 30.1265 23.3777C30.1255 23.5848 30.1062 23.7821 30.0672 23.9673C30.0396 24.0974 29.976 24.2175 29.8657 24.3053C29.7579 24.3909 29.6264 24.4284 29.4959 24.4379C29.2981 24.4522 29.1003 24.4603 28.9026 24.4617C28.7068 24.463 28.5109 24.4605 28.3151 24.4536C28.1236 24.4469 27.9314 24.4408 27.7398 24.4357C27.546 24.4304 27.352 24.4225 27.1583 24.4141C26.9841 24.4065 26.8091 24.4178 26.6342 24.4478C26.423 24.4839 26.2114 24.4966 25.9995 24.4833C25.8212 24.472 25.6418 24.4746 25.4634 24.4932C25.2501 24.5153 25.0358 24.5107 24.8228 24.4793C24.6459 24.4532 24.469 24.4431 24.2926 24.4496C24.0975 24.4567 23.9024 24.4612 23.7073 24.4617C23.5203 24.4621 23.3326 24.4674 23.1455 24.4793C22.946 24.4919 22.7459 24.4963 22.5464 24.4913C22.3542 24.4865 22.1611 24.4825 21.9689 24.4774C21.7775 24.4723 21.5849 24.4683 21.3935 24.4653C21.2063 24.4625 21.019 24.465 20.8318 24.4734C20.6394 24.482 20.447 24.4891 20.2546 24.4972C20.0582 24.5055 19.8613 24.5088 19.665 24.5071C19.4716 24.5054 19.2772 24.5036 19.0838 24.499C18.8809 24.4942 18.6773 24.4756 18.4747 24.4456C18.2972 24.4193 18.1197 24.4085 17.9426 24.4141C17.7589 24.4198 17.5747 24.435 17.3907 24.4595C17.1879 24.4864 16.9848 24.5008 16.7817 24.5012C16.5815 24.5017 16.3808 24.4935 16.1807 24.4752C15.9929 24.4581 15.8049 24.4452 15.6171 24.4379C15.4262 24.4304 15.2345 24.4241 15.0436 24.4199C14.8511 24.4157 14.6585 24.4106 14.4661 24.406C14.2796 24.4015 14.093 24.4039 13.9065 24.4122C13.7089 24.4211 13.5107 24.4255 13.3132 24.4221C13.1177 24.4188 12.9213 24.411 12.7258 24.4001C12.509 24.388 12.3042 24.3374 12.1501 24.2145C11.9747 24.0746 11.9064 23.8558 11.8893 23.6329C11.8738 23.4295 11.8734 23.2252 11.8853 23.0217C11.8964 22.8331 11.9023 22.643 11.9051 22.4544C11.9078 22.2652 11.9066 22.0759 11.9029 21.8868C11.8991 21.6932 11.8981 21.4988 11.897 21.3052C11.8959 21.1014 11.9095 20.8978 11.9366 20.6943C11.9594 20.5225 11.9601 20.3497 11.9406 20.178C11.9175 19.9745 11.9076 19.7708 11.9128 19.5671C11.9176 19.3776 11.9207 19.1867 11.919 18.9973C11.9172 18.8034 11.9174 18.6215 11.9208 18.4516C11.9225 18.3684 11.9241 18.3053 11.9248 18.2637C11.9252 18.2429 11.9247 18.2258 11.9248 18.2161L11.9267 18.2223C11.9269 18.2252 11.9273 18.2337 11.9289 18.2439C11.9295 18.248 11.9319 18.2649 11.9388 18.2853C11.9417 18.294 11.9505 18.3201 11.9703 18.3487C11.9828 18.3667 12.0344 18.4283 12.1266 18.4476C11.9306 18.2156 12.1193 17.9597 12.1424 17.9532C12.1468 17.9526 12.1544 17.9533 12.1563 17.9532L12.1581 17.9513H12.1819C12.1939 17.9507 12.2133 17.9486 12.2372 17.9473C12.2852 17.9447 12.3572 17.9407 12.4529 17.9356C12.6612 17.9245 12.8698 17.9331 13.0777 17.9612C13.2484 17.9843 13.4194 17.9866 13.5901 17.9652C13.7883 17.9405 13.9868 17.9221 14.1852 17.9118C14.3902 17.9012 14.5952 17.907 14.8001 17.9275C14.9844 17.946 15.1695 17.9545 15.3538 17.9554C15.5377 17.9562 15.7217 17.9485 15.9057 17.9316C16.1085 17.9128 16.3118 17.9063 16.5147 17.9136C16.7169 17.9209 16.9201 17.9404 17.1219 17.9711C17.2838 17.9957 17.4454 17.9916 17.6083 17.9572C17.823 17.9118 18.0389 17.8949 18.255 17.9096C18.4343 17.9218 18.6136 17.921 18.793 17.9059C19.0057 17.888 19.2195 17.896 19.4317 17.9294C19.6074 17.9569 19.7828 17.9664 19.9579 17.959C20.15 17.9509 20.343 17.9435 20.5351 17.9356C20.724 17.9278 20.9138 17.917 21.1028 17.9019C21.3213 17.8844 21.5407 17.8998 21.7576 17.9491C21.9129 17.9844 22.067 17.9842 22.2223 17.9491C22.4421 17.8995 22.6635 17.8891 22.8848 17.9158C23.0613 17.9372 23.2385 17.9416 23.4147 17.9294C23.6285 17.9145 23.8423 17.926 24.0552 17.9652C24.2125 17.9942 24.3696 17.991 24.528 17.9532ZM25.147 18.4021C24.9807 18.391 24.813 18.4056 24.6449 18.4457C24.4191 18.4995 24.1914 18.505 23.9644 18.4633C23.7928 18.4317 23.6209 18.4218 23.4502 18.4336C23.2421 18.4481 23.0334 18.4431 22.8255 18.4179C22.6624 18.3981 22.4975 18.4064 22.3329 18.4435C22.104 18.4951 21.8736 18.4956 21.6448 18.4435C21.4771 18.4054 21.3105 18.393 21.1445 18.4062C20.9489 18.4218 20.7527 18.4336 20.5571 18.4417C20.3648 18.4497 20.1719 18.4574 19.9795 18.4655C19.7704 18.4743 19.5611 18.4627 19.3526 18.43C19.1802 18.4029 19.0084 18.3958 18.8366 18.4102C18.6317 18.4274 18.4263 18.43 18.2213 18.4161C18.0529 18.4046 17.8832 18.4157 17.7134 18.4516C17.4915 18.4985 17.2674 18.5053 17.0446 18.4714C16.8621 18.4436 16.6794 18.4267 16.4971 18.4201C16.3159 18.4135 16.1346 18.4191 15.9533 18.4358C15.7531 18.4543 15.5522 18.4623 15.352 18.4615C15.1518 18.4606 14.9507 18.45 14.7506 18.43C14.571 18.412 14.3903 18.4086 14.2108 18.4179C14.0247 18.4276 13.8375 18.4441 13.6512 18.4673C13.4377 18.4939 13.2238 18.4921 13.0103 18.4633C12.8338 18.4394 12.6566 18.4323 12.4804 18.4417C12.4619 18.4427 12.4436 18.4426 12.4269 18.4435C12.4268 18.4492 12.4271 18.4556 12.4269 18.4615C12.4236 18.6261 12.4234 18.8036 12.4251 18.9936C12.4269 19.1886 12.4242 19.3838 12.4192 19.5788C12.4146 19.7591 12.4226 19.9403 12.443 20.1208C12.4672 20.3338 12.4651 20.5485 12.4368 20.7614C12.4128 20.942 12.4025 21.123 12.4035 21.3034C12.4045 21.4945 12.4056 21.6858 12.4094 21.8769C12.4132 22.072 12.4141 22.267 12.4112 22.4621C12.4083 22.6581 12.4011 22.8553 12.3896 23.0513C12.379 23.232 12.3817 23.4127 12.3954 23.5934C12.4078 23.7549 12.4503 23.806 12.4665 23.819C12.5043 23.8487 12.5887 23.8847 12.7554 23.894C12.9443 23.9045 13.1342 23.9124 13.3231 23.9156C13.5096 23.9188 13.6962 23.9163 13.8827 23.9079C14.0807 23.8991 14.2797 23.897 14.4778 23.9017C14.67 23.9063 14.8631 23.9096 15.0553 23.9138C15.2489 23.9181 15.4433 23.9238 15.6369 23.9314C15.8333 23.939 16.0297 23.953 16.2261 23.9709C16.4106 23.9878 16.5955 23.9951 16.7799 23.9947C16.9609 23.9943 17.1424 23.9832 17.3237 23.9592C17.5243 23.9326 17.726 23.916 17.9269 23.9098C18.1344 23.9033 18.3427 23.9146 18.5498 23.9453C18.7318 23.9723 18.9139 23.9886 19.0955 23.9929C19.2864 23.9975 19.478 23.999 19.669 24.0006C19.8568 24.0022 20.0448 24.0008 20.2326 23.9929C20.4248 23.9848 20.618 23.9759 20.8101 23.9673C21.0072 23.9585 21.2045 23.9562 21.4016 23.9592C21.5946 23.9622 21.7879 23.9658 21.981 23.9709C22.1732 23.976 22.3663 23.98 22.5585 23.9849C22.7434 23.9895 22.9291 23.9867 23.1141 23.975C23.3111 23.9625 23.5084 23.9557 23.7055 23.9552C23.8949 23.9547 24.0855 23.9504 24.275 23.9435C24.4827 23.9359 24.6907 23.9484 24.8979 23.979C25.0694 24.0043 25.241 24.0085 25.4121 23.9907C25.6183 23.9693 25.8247 23.9641 26.031 23.9772C26.2034 23.988 26.3761 23.979 26.5492 23.9493C26.759 23.9133 26.9694 23.9006 27.1799 23.9098C27.3708 23.9181 27.5624 23.9244 27.7534 23.9296C27.9463 23.9348 28.1401 23.9407 28.3331 23.9475C28.5216 23.9541 28.7101 23.9565 28.8985 23.9552C29.0854 23.9539 29.2734 23.9471 29.4603 23.9336C29.5185 23.9293 29.5421 23.9151 29.5493 23.9098C29.5524 23.9073 29.5634 23.8977 29.5709 23.8622C29.602 23.7147 29.6195 23.5528 29.6204 23.3758L29.6086 23.1107C29.6002 23.0231 29.5863 22.9355 29.5691 22.8477C29.5288 22.6425 29.5045 22.4366 29.4977 22.2306C29.4906 22.0175 29.5103 21.8038 29.5552 21.5919C29.5882 21.4362 29.5874 21.2816 29.5512 21.1254C29.4988 20.9004 29.492 20.6733 29.5314 20.4471C29.5624 20.2696 29.5765 20.0918 29.575 19.915C29.5733 19.7308 29.5623 19.5456 29.5431 19.3613C29.5216 19.1544 29.5202 18.9472 29.5354 18.7402C29.5458 18.5981 29.5095 18.5341 29.4739 18.4992C29.447 18.4731 29.3929 18.4404 29.2527 18.4673C29.0327 18.5099 28.8108 18.5152 28.5902 18.4831C28.4107 18.4569 28.2313 18.4458 28.0522 18.4476C27.8692 18.4494 27.6857 18.4597 27.5025 18.4813C27.287 18.5066 27.0708 18.5017 26.8558 18.4673C26.6783 18.439 26.5005 18.428 26.3236 18.4318C26.1273 18.436 25.9307 18.4354 25.7344 18.43C25.5388 18.4246 25.3425 18.4153 25.147 18.4021ZM12.2292 17.9612V17.9572L12.1779 17.9513C12.1964 17.9513 12.2133 17.958 12.2292 17.9612Z" fill="#F7F8F9" style="fill:#F7F8F9;fill:color(display-p3 0.9686 0.9725 0.9765);fill-opacity:1;"/>
<path d="M24.528 25.4529C24.7445 25.4012 24.9622 25.3811 25.1806 25.3958C25.3697 25.4085 25.5592 25.418 25.7483 25.4233C25.9361 25.4284 26.1241 25.4295 26.3119 25.4254C26.5196 25.421 26.7277 25.4356 26.9349 25.4687C27.1044 25.4958 27.2741 25.4984 27.4432 25.4786C27.6441 25.4549 27.8453 25.4432 28.0463 25.4412C28.2518 25.4392 28.458 25.4527 28.6631 25.4826C28.827 25.5064 28.991 25.5027 29.1556 25.4709C29.3992 25.4238 29.6427 25.4568 29.8262 25.6349C30.0008 25.8047 30.0575 26.0357 30.0397 26.2776C30.0267 26.4549 30.0289 26.6324 30.0474 26.8098C30.0682 27.01 30.0793 27.2104 30.0811 27.4107C30.0829 27.6186 30.0659 27.8265 30.0298 28.0337C30.0022 28.1921 30.0066 28.3509 30.0437 28.5105C30.0967 28.7384 30.0997 28.968 30.0514 29.1964C30.0148 29.3692 29.9985 29.5414 30.0042 29.7128C30.0101 29.8914 30.0301 30.0715 30.0653 30.2508C30.1061 30.459 30.1274 30.6683 30.1265 30.8774C30.1255 31.0845 30.1062 31.2818 30.0672 31.467C30.0396 31.5972 29.976 31.7173 29.8657 31.8051C29.7579 31.8907 29.6264 31.9282 29.4959 31.9376C29.2981 31.9519 29.1003 31.9601 28.9026 31.9614C28.7068 31.9628 28.5109 31.9602 28.3151 31.9534C28.1236 31.9467 27.9314 31.9406 27.7398 31.9354C27.546 31.9302 27.352 31.9222 27.1583 31.9138C26.9841 31.9063 26.8091 31.9175 26.6342 31.9475C26.423 31.9837 26.2114 31.9964 25.9995 31.983C25.8212 31.9718 25.6418 31.9743 25.4634 31.9929C25.2501 32.0151 25.0358 32.0104 24.8228 31.979C24.6459 31.9529 24.469 31.9429 24.2926 31.9493C24.0975 31.9565 23.9024 31.961 23.7073 31.9614C23.5203 31.9619 23.3326 31.9672 23.1455 31.979C22.946 31.9916 22.7459 31.9961 22.5464 31.9911C22.3542 31.9863 22.1611 31.9823 21.9689 31.9772C21.7775 31.9721 21.5849 31.968 21.3935 31.9651C21.2063 31.9622 21.019 31.9648 20.8318 31.9731C20.6394 31.9817 20.447 31.9889 20.2546 31.997C20.0582 32.0052 19.8613 32.0085 19.665 32.0068C19.4716 32.0052 19.2772 32.0034 19.0838 31.9988C18.8809 31.994 18.6773 31.9753 18.4747 31.9453C18.2972 31.919 18.1197 31.9083 17.9426 31.9138C17.7589 31.9195 17.5747 31.9348 17.3907 31.9592C17.1879 31.9862 16.9848 32.0005 16.7817 32.001C16.5815 32.0014 16.3808 31.9932 16.1807 31.975C15.9929 31.9579 15.8049 31.9449 15.6171 31.9376C15.4262 31.9302 15.2345 31.9239 15.0436 31.9197C14.8511 31.9154 14.6585 31.9104 14.4661 31.9058C14.2796 31.9013 14.093 31.9036 13.9065 31.912C13.7089 31.9208 13.5107 31.9252 13.3132 31.9219C13.1177 31.9185 12.9213 31.9108 12.7258 31.8999C12.509 31.8877 12.3042 31.8371 12.1501 31.7142C11.9747 31.5744 11.9064 31.3555 11.8893 31.1327C11.8738 30.9292 11.8734 30.7249 11.8853 30.5214C11.8964 30.3328 11.9023 30.1427 11.9051 29.9542C11.9078 29.765 11.9066 29.5757 11.9029 29.3865C11.8991 29.1929 11.8981 28.9985 11.897 28.805C11.8959 28.6012 11.9095 28.3976 11.9366 28.1941C11.9594 28.0222 11.9601 27.8495 11.9406 27.6777C11.9175 27.4742 11.9076 27.2706 11.9128 27.0669C11.9176 26.8774 11.9207 26.6865 11.919 26.497C11.9172 26.3032 11.9174 26.1213 11.9208 25.9513C11.9225 25.8682 11.9241 25.805 11.9248 25.7635C11.9252 25.7426 11.9247 25.7256 11.9248 25.7159L11.9267 25.7221C11.9269 25.7249 11.9273 25.7334 11.9289 25.7437C11.9295 25.7478 11.9319 25.7646 11.9388 25.7851C11.9417 25.7937 11.9505 25.8199 11.9703 25.8484C11.9828 25.8664 12.0344 25.928 12.1266 25.9473C11.9306 25.7154 12.1193 25.4595 12.1424 25.4529C12.1468 25.4523 12.1544 25.4531 12.1563 25.4529L12.1581 25.4511H12.1819C12.1939 25.4504 12.2133 25.4483 12.2372 25.4471C12.2852 25.4445 12.3572 25.4404 12.4529 25.4353C12.6612 25.4242 12.8698 25.4328 13.0777 25.461C13.2484 25.4841 13.4194 25.4863 13.5901 25.465C13.7883 25.4402 13.9868 25.4218 14.1852 25.4115C14.3902 25.4009 14.5952 25.4068 14.8001 25.4273C14.9844 25.4457 15.1695 25.4543 15.3538 25.4551C15.5377 25.4559 15.7217 25.4483 15.9057 25.4313C16.1085 25.4126 16.3118 25.406 16.5147 25.4134C16.7169 25.4207 16.9201 25.4401 17.1219 25.4709C17.2838 25.4955 17.4454 25.4913 17.6083 25.4569C17.823 25.4116 18.0389 25.3946 18.255 25.4093C18.4343 25.4215 18.6136 25.4207 18.793 25.4057C19.0057 25.3878 19.2195 25.3958 19.4317 25.4291C19.6074 25.4567 19.7828 25.4661 19.9579 25.4588C20.15 25.4507 20.343 25.4433 20.5351 25.4353C20.724 25.4275 20.9138 25.4167 21.1028 25.4016C21.3213 25.3842 21.5407 25.3996 21.7576 25.4489C21.9129 25.4842 22.067 25.484 22.2223 25.4489C22.4421 25.3993 22.6635 25.3888 22.8848 25.4156C23.0613 25.437 23.2385 25.4414 23.4147 25.4291C23.6285 25.4143 23.8423 25.4258 24.0552 25.465C24.2125 25.494 24.3696 25.4907 24.528 25.4529ZM25.147 25.9019C24.9807 25.8907 24.813 25.9053 24.6449 25.9455C24.4191 25.9993 24.1914 26.0047 23.9644 25.9631C23.7928 25.9315 23.6209 25.9216 23.4502 25.9334C23.2421 25.9479 23.0334 25.9428 22.8255 25.9177C22.6624 25.8979 22.4975 25.9061 22.3329 25.9433C22.104 25.9949 21.8736 25.9953 21.6448 25.9433C21.4771 25.9051 21.3105 25.8927 21.1445 25.9059C20.9489 25.9216 20.7527 25.9333 20.5571 25.9415C20.3648 25.9494 20.1719 25.9571 19.9795 25.9653C19.7704 25.9741 19.5611 25.9625 19.3526 25.9297C19.1802 25.9027 19.0084 25.8955 18.8366 25.91C18.6317 25.9272 18.4263 25.9297 18.2213 25.9158C18.0529 25.9044 17.8832 25.9155 17.7134 25.9513C17.4915 25.9982 17.2674 26.005 17.0446 25.9711C16.8621 25.9434 16.6794 25.9265 16.4971 25.9198C16.3159 25.9133 16.1346 25.9189 15.9533 25.9356C15.7531 25.9541 15.5522 25.9621 15.352 25.9612C15.1518 25.9603 14.9507 25.9497 14.7506 25.9297C14.571 25.9118 14.3903 25.9083 14.2108 25.9177C14.0247 25.9273 13.8375 25.9438 13.6512 25.9671C13.4377 25.9937 13.2238 25.9919 13.0103 25.9631C12.8338 25.9392 12.6566 25.9321 12.4804 25.9415C12.4619 25.9424 12.4436 25.9424 12.4269 25.9433C12.4268 25.9489 12.4271 25.9554 12.4269 25.9612C12.4236 26.1259 12.4234 26.3033 12.4251 26.4934C12.4269 26.6884 12.4242 26.8835 12.4192 27.0786C12.4146 27.2589 12.4226 27.4401 12.443 27.6206C12.4672 27.8335 12.4651 28.0483 12.4368 28.2611C12.4128 28.4418 12.4025 28.6227 12.4035 28.8031C12.4045 28.9942 12.4056 29.1855 12.4094 29.3766C12.4132 29.5717 12.4141 29.7668 12.4112 29.9619C12.4083 30.1579 12.4011 30.3551 12.3896 30.5511C12.379 30.7317 12.3817 30.9124 12.3954 31.0931C12.4078 31.2547 12.4503 31.3058 12.4665 31.3187C12.5043 31.3485 12.5887 31.3845 12.7554 31.3938C12.9443 31.4043 13.1342 31.4122 13.3231 31.4154C13.5096 31.4185 13.6962 31.416 13.8827 31.4077C14.0807 31.3988 14.2797 31.3967 14.4778 31.4015C14.67 31.4061 14.8631 31.4093 15.0553 31.4136C15.2489 31.4178 15.4433 31.4236 15.6369 31.4311C15.8333 31.4388 16.0297 31.4528 16.2261 31.4707C16.4106 31.4875 16.5955 31.4949 16.7799 31.4945C16.9609 31.4941 17.1424 31.483 17.3237 31.459C17.5243 31.4323 17.726 31.4158 17.9269 31.4095C18.1344 31.4031 18.3427 31.4143 18.5498 31.4451C18.7318 31.472 18.9139 31.4883 19.0955 31.4927C19.2864 31.4972 19.478 31.4987 19.669 31.5004C19.8568 31.502 20.0448 31.5006 20.2326 31.4927C20.4248 31.4846 20.618 31.4756 20.8101 31.467C21.0072 31.4582 21.2045 31.456 21.4016 31.459C21.5946 31.4619 21.7879 31.4656 21.981 31.4707C22.1732 31.4758 22.3663 31.4798 22.5585 31.4846C22.7434 31.4892 22.9291 31.4864 23.1141 31.4747C23.3111 31.4623 23.5084 31.4554 23.7055 31.4549C23.8949 31.4545 24.0855 31.4502 24.275 31.4432C24.4827 31.4357 24.6907 31.4481 24.8979 31.4787C25.0694 31.504 25.241 31.5083 25.4121 31.4905C25.6183 31.469 25.8247 31.4639 26.031 31.4769C26.2034 31.4878 26.3761 31.4788 26.5492 31.4491C26.759 31.4131 26.9694 31.4004 27.1799 31.4095C27.3708 31.4178 27.5624 31.4242 27.7534 31.4293C27.9463 31.4345 28.1401 31.4405 28.3331 31.4473C28.5216 31.4538 28.7101 31.4562 28.8985 31.4549C29.0854 31.4537 29.2734 31.4469 29.4603 31.4333C29.5185 31.429 29.5421 31.4148 29.5493 31.4095C29.5524 31.4071 29.5634 31.3974 29.5709 31.3619C29.602 31.2144 29.6195 31.0525 29.6204 30.8756L29.6086 30.6104C29.6002 30.5229 29.5863 30.4353 29.5691 30.3475C29.5288 30.1423 29.5045 29.9363 29.4977 29.7304C29.4906 29.5172 29.5103 29.3036 29.5552 29.0917C29.5882 28.936 29.5874 28.7813 29.5512 28.6251C29.4988 28.4001 29.492 28.1731 29.5314 27.9469C29.5624 27.7694 29.5765 27.5916 29.575 27.4148C29.5733 27.2305 29.5623 27.0454 29.5431 26.861C29.5216 26.6542 29.5202 26.4469 29.5354 26.2399C29.5458 26.0979 29.5095 26.0338 29.4739 25.999C29.447 25.9728 29.3929 25.9402 29.2527 25.9671C29.0327 26.0096 28.8108 26.015 28.5902 25.9828C28.4107 25.9567 28.2313 25.9456 28.0522 25.9473C27.8692 25.9491 27.6857 25.9595 27.5025 25.981C27.287 26.0063 27.0708 26.0014 26.8558 25.9671C26.6783 25.9387 26.5005 25.9278 26.3236 25.9316C26.1273 25.9358 25.9307 25.9352 25.7344 25.9297C25.5388 25.9243 25.3425 25.915 25.147 25.9019ZM12.2292 25.461V25.4569L12.1779 25.4511C12.1964 25.4511 12.2133 25.4577 12.2292 25.461Z" fill="#F7F8F9" style="fill:#F7F8F9;fill:color(display-p3 0.9686 0.9725 0.9765);fill-opacity:1;"/>
<path d="M20.9844 12.7169C20.9959 12.7151 21.0366 12.7079 21.0855 12.7187C21.0942 12.7207 21.1048 12.7264 21.117 12.7308C21.1331 12.7323 21.1583 12.7335 21.1943 12.7349C21.3098 12.7391 21.4282 12.7527 21.5462 12.7762C21.7256 12.8122 21.8684 12.919 21.9476 13.0886C21.9922 13.1844 22.0373 13.2813 22.0783 13.3794C22.1406 13.528 22.1482 13.6858 22.0981 13.8401C22.0707 13.9241 22.0469 14.0179 22.0267 14.1192C21.9888 14.309 21.872 14.4554 21.6927 14.5323C21.5731 14.5834 21.4508 14.6177 21.3269 14.6352C21.2111 14.6514 21.093 14.6577 20.9745 14.6531C20.8253 14.6473 20.6856 14.6025 20.5593 14.5224C20.4163 14.4315 20.3167 14.2983 20.2787 14.1309C20.2532 14.0181 20.2383 13.9039 20.2329 13.7888C20.2277 13.6751 20.2306 13.5571 20.2428 13.4369C20.2602 13.2665 20.3362 13.1165 20.4644 13.0018C20.5622 12.9145 20.6698 12.8418 20.7867 12.788C20.834 12.7662 20.8775 12.749 20.9116 12.7367C20.9259 12.7315 20.9542 12.7218 20.9844 12.7169ZM20.9984 13.249C20.9291 13.281 20.8628 13.3238 20.8006 13.3794C20.7688 13.4079 20.752 13.4405 20.7471 13.4882C20.7372 13.5859 20.7355 13.6783 20.7394 13.765C20.7434 13.8504 20.7541 13.9361 20.7731 14.0203C20.78 14.0499 20.7942 14.0725 20.8303 14.0954C20.8831 14.1289 20.9366 14.1444 20.9943 14.1466C21.0832 14.1501 21.1702 14.1469 21.2554 14.1349C21.332 14.1242 21.4126 14.101 21.495 14.0657C21.5108 14.0588 21.5165 14.0523 21.5184 14.05C21.5206 14.047 21.5267 14.0392 21.5305 14.0203C21.5541 13.9019 21.583 13.7893 21.6173 13.6841C21.6284 13.6497 21.6268 13.6166 21.6096 13.5753C21.5711 13.4834 21.5304 13.3918 21.4887 13.3021C21.483 13.29 21.4788 13.286 21.477 13.2846C21.4748 13.2829 21.4659 13.2766 21.4455 13.2725C21.3528 13.254 21.2628 13.2441 21.1763 13.241C21.1242 13.2391 21.0771 13.2358 21.0401 13.2311L21.0379 13.2293C21.0266 13.2342 21.0138 13.2419 20.9984 13.249ZM20.8581 13.1502C20.8606 13.1524 20.8655 13.1539 20.868 13.156C20.8631 13.1516 20.8574 13.1475 20.8522 13.1421C20.8545 13.1444 20.8557 13.1479 20.8581 13.1502Z" fill="#F7F8F9" style="fill:#F7F8F9;fill:color(display-p3 0.9686 0.9725 0.9765);fill-opacity:1;"/>
<path d="M20.9844 20.2169C20.9959 20.2151 21.0366 20.2079 21.0855 20.2187C21.0942 20.2207 21.1048 20.2264 21.117 20.2308C21.1331 20.2323 21.1583 20.2335 21.1943 20.2349C21.3098 20.2391 21.4282 20.2527 21.5462 20.2762C21.7256 20.3122 21.8684 20.419 21.9476 20.5886C21.9922 20.6844 22.0373 20.7813 22.0783 20.8794C22.1406 21.028 22.1482 21.1858 22.0981 21.3401C22.0707 21.4241 22.0469 21.5179 22.0267 21.6192C21.9888 21.809 21.872 21.9554 21.6927 22.0323C21.5731 22.0834 21.4508 22.1177 21.3269 22.1352C21.2111 22.1514 21.093 22.1577 20.9745 22.1531C20.8253 22.1473 20.6856 22.1025 20.5593 22.0224C20.4163 21.9315 20.3167 21.7983 20.2787 21.6309C20.2532 21.5181 20.2383 21.4039 20.2329 21.2888C20.2277 21.1751 20.2306 21.0571 20.2428 20.9369C20.2602 20.7665 20.3362 20.6165 20.4644 20.5018C20.5622 20.4145 20.6698 20.3418 20.7867 20.288C20.834 20.2662 20.8775 20.249 20.9116 20.2367C20.9259 20.2315 20.9542 20.2218 20.9844 20.2169ZM20.9984 20.749C20.9291 20.781 20.8628 20.8238 20.8006 20.8794C20.7688 20.9079 20.752 20.9405 20.7471 20.9882C20.7372 21.0859 20.7355 21.1783 20.7394 21.265C20.7434 21.3504 20.7541 21.4361 20.7731 21.5203C20.78 21.5499 20.7942 21.5725 20.8303 21.5954C20.8831 21.6289 20.9366 21.6444 20.9943 21.6466C21.0832 21.6501 21.1702 21.6469 21.2554 21.6349C21.332 21.6242 21.4126 21.601 21.495 21.5657C21.5108 21.5588 21.5165 21.5523 21.5184 21.55C21.5206 21.547 21.5267 21.5392 21.5305 21.5203C21.5541 21.4019 21.583 21.2893 21.6173 21.1841C21.6284 21.1497 21.6268 21.1166 21.6096 21.0753C21.5711 20.9834 21.5304 20.8918 21.4887 20.8021C21.483 20.79 21.4788 20.786 21.477 20.7846C21.4748 20.7829 21.4659 20.7766 21.4455 20.7725C21.3528 20.754 21.2628 20.7441 21.1763 20.741C21.1242 20.7391 21.0771 20.7358 21.0401 20.7311L21.0379 20.7293C21.0266 20.7342 21.0138 20.7419 20.9984 20.749ZM20.8581 20.6502C20.8606 20.6524 20.8655 20.6539 20.868 20.656C20.8631 20.6516 20.8574 20.6475 20.8522 20.6421C20.8545 20.6444 20.8557 20.6479 20.8581 20.6502Z" fill="#F7F8F9" style="fill:#F7F8F9;fill:color(display-p3 0.9686 0.9725 0.9765);fill-opacity:1;"/>
<path d="M20.9844 27.7174C20.9959 27.7156 21.0366 27.7084 21.0855 27.7192C21.0942 27.7212 21.1048 27.7269 21.117 27.7313C21.1331 27.7328 21.1583 27.734 21.1943 27.7353C21.3098 27.7396 21.4282 27.7531 21.5462 27.7767C21.7256 27.8127 21.8684 27.9195 21.9476 28.0891C21.9922 28.1849 22.0373 28.2818 22.0783 28.3799C22.1406 28.5285 22.1482 28.6863 22.0981 28.8406C22.0707 28.9246 22.0469 29.0184 22.0267 29.1197C21.9888 29.3095 21.872 29.4559 21.6927 29.5328C21.5731 29.5839 21.4508 29.6182 21.3269 29.6357C21.2111 29.6519 21.093 29.6582 20.9745 29.6536C20.8253 29.6478 20.6856 29.603 20.5593 29.5229C20.4163 29.432 20.3167 29.2988 20.2787 29.1314C20.2532 29.0186 20.2383 28.9044 20.2329 28.7893C20.2277 28.6756 20.2306 28.5576 20.2428 28.4374C20.2602 28.2669 20.3362 28.117 20.4644 28.0023C20.5622 27.915 20.6698 27.8423 20.7867 27.7884C20.834 27.7667 20.8775 27.7495 20.9116 27.7372C20.9259 27.732 20.9542 27.7223 20.9844 27.7174ZM20.9984 28.2495C20.9291 28.2815 20.8628 28.3243 20.8006 28.3799C20.7688 28.4084 20.752 28.441 20.7471 28.4887C20.7372 28.5864 20.7355 28.6787 20.7394 28.7655C20.7434 28.8509 20.7541 28.9366 20.7731 29.0208C20.78 29.0504 20.7942 29.073 20.8303 29.0959C20.8831 29.1294 20.9366 29.1449 20.9943 29.1471C21.0832 29.1506 21.1702 29.1474 21.2554 29.1354C21.332 29.1247 21.4126 29.1015 21.495 29.0662C21.5108 29.0592 21.5165 29.0528 21.5184 29.0504C21.5206 29.0475 21.5267 29.0397 21.5305 29.0208C21.5541 28.9024 21.583 28.7898 21.6173 28.6846C21.6284 28.6501 21.6268 28.617 21.6096 28.5758C21.5711 28.4839 21.5304 28.3923 21.4887 28.3026C21.483 28.2905 21.4788 28.2865 21.477 28.285C21.4748 28.2833 21.4659 28.2771 21.4455 28.273C21.3528 28.2545 21.2628 28.2446 21.1763 28.2415C21.1242 28.2395 21.0771 28.2363 21.0401 28.2316L21.0379 28.2297C21.0266 28.2347 21.0138 28.2424 20.9984 28.2495ZM20.8581 28.1506C20.8606 28.1529 20.8655 28.1544 20.868 28.1565C20.8631 28.1521 20.8574 28.148 20.8522 28.1426C20.8545 28.1449 20.8557 28.1484 20.8581 28.1506Z" fill="#F7F8F9" style="fill:#F7F8F9;fill:color(display-p3 0.9686 0.9725 0.9765);fill-opacity:1;"/>
</svg>
