<svg width="20" height="20" viewBox="0 0 20 20" fill="none" xmlns="http://www.w3.org/2000/svg">
<path d="M12.4199 6.90119C13.5191 7.01292 14.377 7.94307 14.3771 9.07455V17.8149L14.3653 18.0379C14.2613 19.0666 13.446 19.884 12.4199 19.9883L12.1975 20H3.47935C2.35072 20 1.42295 19.1399 1.31151 18.0379L1.2998 17.8149V9.07455C1.29983 7.86778 2.27563 6.88946 3.47935 6.88946H12.1975L12.4199 6.90119ZM3.47935 8.52827C3.17843 8.52827 2.93449 8.77287 2.93446 9.07455V17.8149C2.93446 18.1166 3.17841 18.3612 3.47935 18.3612H12.1975C12.4984 18.3612 12.7424 18.1166 12.7424 17.8149V9.07455C12.7424 8.77287 12.4984 8.52827 12.1975 8.52827H3.47935ZM10.9992 0.0589147C11.2897 -0.10878 11.6526 0.101482 11.6526 0.437678V1.87164C12.5736 1.89291 13.9992 2.01038 15.2934 2.68999C16.103 3.11516 16.8654 3.76017 17.4208 4.72677C17.9744 5.69077 18.2998 6.93643 18.2998 8.52827C18.2995 8.89008 18.0073 9.18338 17.6464 9.18338C17.2854 9.18338 16.9932 8.89008 16.9929 8.52827C16.9929 7.11652 16.7051 6.10766 16.2884 5.38187C15.8732 4.65897 15.3073 4.17668 14.6867 3.85082C13.661 3.31219 12.498 3.20523 11.6526 3.18291V4.60087C11.6526 4.93712 11.2897 5.14738 10.9992 4.97964L7.4021 2.89804C7.11176 2.72978 7.11173 2.30875 7.4021 2.14051L10.9992 0.0589147Z" fill="#2A3038"/>
</svg>
