<svg width="20" height="20" viewBox="0 0 20 20" fill="none" xmlns="http://www.w3.org/2000/svg">
<path d="M12.2949 1.23096C12.6724 1.23096 12.8617 1.23094 13.0195 1.25635C13.8713 1.39344 14.5387 2.06178 14.6758 2.91357C14.7012 3.07138 14.7021 3.26002 14.7021 3.63721C14.7021 3.71 14.76 3.76904 14.8328 3.76907C16.9282 3.76977 18.0028 3.78948 18.7637 4.34229C19.0181 4.52719 19.2419 4.75095 19.4268 5.00537C19.9997 5.79397 20 6.91959 20 9.16943V13.3687C20 15.6185 19.9997 16.7441 19.4268 17.5327C19.2419 17.7871 19.0181 18.0109 18.7637 18.1958C17.9751 18.7687 16.8494 18.769 14.5996 18.769H5.40039C3.15055 18.769 2.02492 18.7687 1.23633 18.1958C0.981903 18.0109 0.758148 17.7871 0.573242 17.5327C0.000293154 16.7441 0 15.6185 0 13.3687V9.16943C0 6.91959 0.000293154 5.79397 0.573242 5.00537C0.758148 4.75095 0.981903 4.52719 1.23633 4.34229C1.99709 3.78956 3.0715 3.76978 5.16629 3.76907C5.23907 3.76904 5.29883 3.70999 5.29883 3.63721C5.29883 3.26002 5.29882 3.07138 5.32422 2.91357C5.46132 2.06178 6.12867 1.39344 6.98047 1.25635C7.13834 1.23094 7.32761 1.23096 7.70508 1.23096H12.2949ZM10 7.41846C7.79095 7.41846 6.00015 9.20945 6 11.4185C6 13.6276 7.79086 15.4185 10 15.4185C12.2091 15.4185 14 13.6276 14 11.4185C13.9998 9.20945 12.209 7.41846 10 7.41846ZM10 9.41846C11.1045 9.41846 11.9998 10.314 12 11.4185C12 12.523 11.1046 13.4185 10 13.4185C8.89543 13.4185 8 12.523 8 11.4185C8.00015 10.314 8.89552 9.41846 10 9.41846ZM14.25 6.48877C13.7548 6.48901 13.3535 6.89099 13.3535 7.38623C13.3536 7.88137 13.7549 8.28248 14.25 8.28271C14.7453 8.28271 15.1473 7.88152 15.1475 7.38623C15.1475 6.89085 14.7454 6.48877 14.25 6.48877Z" fill="#2A3038"/>
</svg>
