<svg width="20" height="20" viewBox="0 0 20 20" fill="none" xmlns="http://www.w3.org/2000/svg">
<path d="M15 1C17.2091 1 19 2.79086 19 5V15C19 17.2091 17.2091 19 15 19H5C2.79086 19 1 17.2091 1 15V5C1 2.79086 2.79086 1 5 1H15ZM8.83594 9.37207C8.53624 8.82805 7.7587 8.81824 7.44531 9.35449L3.92676 15.374C3.6153 15.9072 3.99977 16.5768 4.61719 16.5771H12.8047L15.6465 16.5762C16.3144 16.5762 16.6886 15.806 16.2754 15.2812L13.1318 11.29C12.8115 10.8834 12.1953 10.8833 11.875 11.29L11.4561 11.8223C11.1017 12.2722 10.4023 12.2155 10.126 11.7139L8.83594 9.37207ZM14 4C12.8954 4 12 4.89543 12 6C12 7.10457 12.8954 8 14 8C15.1046 8 16 7.10457 16 6C16 4.89543 15.1046 4 14 4Z" fill="#2A3038"/>
</svg>
