<svg width="140" height="140" viewBox="0 0 140 140" fill="none" xmlns="http://www.w3.org/2000/svg">
<path d="M106.371 106.742C108.471 104.774 109.521 103.79 110.076 102.507C110.632 101.225 110.632 99.7861 110.632 96.9078V31.4805C110.632 25.1259 110.631 21.9488 108.657 19.9746C106.683 18.0005 103.506 18 97.1514 18H42.4805C36.1257 18 32.9488 18.0004 30.9746 19.9746C29.0005 21.9488 29 25.1257 29 31.4805V107.92C29 114.274 29.0005 117.452 30.9746 119.426C32.9488 121.4 36.126 121.4 42.4805 121.4H85.4047C88.0378 121.4 89.3543 121.4 90.5486 120.928C91.7429 120.456 92.7034 119.555 94.6243 117.755L106.371 106.742Z" fill="#EEEFF1"/>
<path d="M110.568 86.7828L111.812 86.9067L110.568 86.7828ZM110.854 82.7328L109.605 82.6811L110.854 82.7328ZM110.607 74.6328L111.857 74.6283L110.607 74.6328ZM110.84 66.5328L109.59 66.5689L110.84 66.5328ZM110.535 62.4828L111.776 62.3321L110.535 62.4828ZM110.631 58.4328L109.398 58.2249L110.631 58.4328ZM110.862 54.3828L109.614 54.4506L110.862 54.3828ZM110.888 50.3328L112.135 50.4165L110.888 50.3328ZM110.771 46.2828L109.53 46.4381L110.771 46.2828ZM110.585 42.2328L111.834 42.2748L110.585 42.2328ZM110.916 34.1328L112.164 34.2122L110.916 34.1328ZM109.869 22.1187L108.748 22.673L109.869 22.1187ZM107.23 19.2202L106.578 20.2865L107.23 19.2202ZM95.3508 17.6915L95.4176 18.9397L95.3508 17.6915ZM91.2997 17.8447L91.3272 19.0944L91.2997 17.8447ZM87.2497 17.8548L87.2283 19.1046L87.2497 17.8548ZM66.9997 18.0833L66.8091 19.3187L66.9997 18.0833ZM42.6984 18.0365L42.471 19.2657L42.6984 18.0365ZM38.6598 18.0527L38.4213 16.8257L38.6598 18.0527ZM34.7022 18.7575L34.9012 19.9916V19.9916L34.7022 18.7575ZM31.1292 20.2742L30.3863 19.2689L31.1292 20.2742ZM29.1114 23.5221L30.3393 23.7563L29.1114 23.5221ZM29.1257 43.8152L27.876 43.8421L29.1257 43.8152ZM35.4674 121.186L35.5357 119.937L35.4674 121.186ZM39.5293 121.262L39.551 122.512L39.5293 121.262ZM63.8298 121.232L63.6801 122.473L63.8298 121.232ZM80.0298 121.517L80.0103 122.767V122.767L80.0298 121.517ZM88.079 121.193L88.311 122.422L88.079 121.193ZM91.7914 119.867L91.1904 118.771L91.7914 119.867ZM94.9813 117.5L94.1091 116.605L94.9813 117.5ZM100.865 111.932L99.9975 111.033L100.865 111.932ZM103.702 109.037L104.619 109.886L103.702 109.037ZM109.268 103.399L108.108 102.933L109.268 103.399ZM110.718 94.8828L109.469 94.8297C109.524 93.5425 109.482 92.2551 109.342 90.967L110.585 90.8328L111.828 90.6985C111.98 92.1104 112.027 93.523 111.967 94.9358L110.718 94.8828ZM110.585 90.8328L109.342 90.967C109.187 89.5313 109.181 88.0948 109.324 86.6588L110.568 86.7828L111.812 86.9067C111.686 88.1708 111.691 89.4342 111.828 90.6985L110.585 90.8328ZM110.568 86.7828L109.324 86.6588C109.457 85.3328 109.55 84.0069 109.605 82.6811L110.854 82.7328L112.103 82.7844C112.046 84.1586 111.949 85.5328 111.812 86.9067L110.568 86.7828ZM110.854 82.7328L109.605 82.6811C109.659 81.3816 109.634 80.082 109.53 78.7822L110.776 78.6828L112.022 78.5834C112.134 79.9835 112.161 81.3839 112.103 82.7844L110.854 82.7328ZM110.776 78.6828L109.53 78.7822C109.42 77.4007 109.362 76.019 109.357 74.6372L110.607 74.6328L111.857 74.6283C111.862 75.9465 111.917 77.2648 112.022 78.5834L110.776 78.6828ZM110.607 74.6328L109.357 74.6372C109.352 73.255 109.401 71.8729 109.503 70.4909L110.749 70.5828L111.996 70.6746C111.899 71.9927 111.853 73.3105 111.857 74.6283L110.607 74.6328ZM110.749 70.5828L109.503 70.4909C109.599 69.1834 109.628 67.8761 109.59 66.5689L110.84 66.5328L112.089 66.4966C112.13 67.8894 112.098 69.2821 111.996 70.6746L110.749 70.5828ZM110.84 66.5328L109.59 66.5689C109.552 65.2574 109.454 63.9457 109.295 62.6334L110.535 62.4828L111.776 62.3321C111.945 63.7199 112.049 65.1081 112.089 66.4966L110.84 66.5328ZM110.535 62.4828L109.295 62.6334C109.116 61.1633 109.151 59.6926 109.398 58.2249L110.631 58.4328L111.864 58.6406C111.656 59.8729 111.627 61.1022 111.776 62.3321L110.535 62.4828ZM110.631 58.4328L109.398 58.2249C109.611 56.9648 109.683 55.7072 109.614 54.4506L110.862 54.3828L112.111 54.3149C112.189 55.7583 112.106 57.2007 111.864 58.6406L110.631 58.4328ZM110.862 54.3828L109.614 54.4506C109.538 53.0501 109.547 51.6495 109.641 50.2491L110.888 50.3328L112.135 50.4165C112.048 51.716 112.04 53.0155 112.111 54.3149L110.862 54.3828ZM110.888 50.3328L109.641 50.2491C109.726 48.9792 109.689 47.7093 109.53 46.4381L110.771 46.2828L112.011 46.1274C112.19 47.5563 112.231 48.9863 112.135 50.4165L110.888 50.3328ZM110.771 46.2828L109.53 46.4381C109.353 45.0231 109.288 43.6071 109.336 42.1907L110.585 42.2328L111.834 42.2748C111.791 43.5584 111.85 44.8424 112.011 46.1274L110.771 46.2828ZM110.585 42.2328L109.336 42.1907C109.381 40.841 109.426 39.4912 109.471 38.1415L110.72 38.1828L111.97 38.2241C111.925 39.5743 111.88 40.9246 111.834 42.2748L110.585 42.2328ZM110.72 38.1828L109.471 38.1415C109.516 36.7787 109.582 35.416 109.669 34.0533L110.916 34.1328L112.164 34.2122C112.079 35.5495 112.014 36.8868 111.97 38.2241L110.72 38.1828ZM110.916 34.1328L109.669 34.0533C109.748 32.8076 109.673 31.5613 109.441 30.3122L110.67 30.0843L111.899 29.8564C112.168 31.3052 112.256 32.758 112.164 34.2122L110.916 34.1328ZM110.67 30.0843L109.441 30.3122C109.168 28.8393 109.12 27.3551 109.296 25.8639L110.537 26.0106L111.779 26.1573C111.632 27.3997 111.672 28.6314 111.899 29.8564L110.67 30.0843ZM110.537 26.0106L109.296 25.8639C109.429 24.7362 109.248 23.6826 108.748 22.673L109.869 22.1187L110.989 21.5645C111.704 23.0104 111.968 24.5513 111.779 26.1573L110.537 26.0106ZM109.869 22.1187L108.748 22.673C108.244 21.6534 107.525 20.8661 106.578 20.2865L107.23 19.2202L107.882 18.1539C109.238 18.9835 110.279 20.1286 110.989 21.5645L109.869 22.1187ZM107.23 19.2202L106.578 20.2865C105.644 19.7156 104.639 19.4623 103.527 19.5232L103.459 18.2751L103.391 17.0269C105.003 16.9387 106.512 17.3155 107.882 18.1539L107.23 19.2202ZM103.459 18.2751L103.527 19.5232C102.06 19.6035 100.601 19.4992 99.1525 19.2109L99.3965 17.9849L99.6405 16.759C100.885 17.0066 102.134 17.0957 103.391 17.0269L103.459 18.2751ZM99.3965 17.9849L99.1525 19.2109C97.9068 18.963 96.6627 18.873 95.4176 18.9397L95.3508 17.6915L95.2839 16.4433C96.7403 16.3653 98.1933 16.4709 99.6405 16.759L99.3965 17.9849ZM95.3508 17.6915L95.4176 18.9397C94.0538 19.0128 92.6904 19.0643 91.3272 19.0944L91.2997 17.8447L91.2721 16.595C92.609 16.5655 93.9462 16.5149 95.2839 16.4433L95.3508 17.6915ZM91.2997 17.8447L91.3272 19.0944C89.9609 19.1245 88.5946 19.1279 87.2283 19.1046L87.2497 17.8548L87.271 16.6049C88.6047 16.6277 89.9384 16.6244 91.2721 16.595L91.2997 17.8447ZM87.2497 17.8548L87.2283 19.1046C85.9388 19.0826 84.6488 19.1538 83.3578 19.3184L83.1997 18.0784L83.0416 16.8385C84.4506 16.6588 85.8605 16.5809 87.271 16.6049L87.2497 17.8548ZM83.1997 18.0784L83.3578 19.3184C81.917 19.5021 80.4748 19.5265 79.033 19.3913L79.1497 18.1467L79.2664 16.9022C80.5245 17.0202 81.7824 16.999 83.0416 16.8385L83.1997 18.0784ZM79.1497 18.1467L79.033 19.3913C77.7183 19.268 76.404 19.2012 75.0899 19.1909L75.0997 17.9409L75.1095 16.691C76.4953 16.7018 77.881 16.7723 79.2664 16.9022L79.1497 18.1467ZM75.0997 17.9409L75.0899 19.1909C73.7917 19.1807 72.4931 19.251 71.1939 19.402L71.0497 18.1603L70.9054 16.9187C72.3062 16.7559 73.7076 16.68 75.1095 16.691L75.0997 17.9409ZM71.0497 18.1603L71.1939 19.402C69.732 19.5718 68.2694 19.5439 66.8091 19.3187L66.9997 18.0833L67.1902 16.8479C68.43 17.0391 69.6673 17.0625 70.9054 16.9187L71.0497 18.1603ZM66.9997 18.0833L66.8091 19.3187C65.542 19.1232 64.2769 19.0576 63.0124 19.1212L62.9497 17.8728L62.8869 16.6244C64.3224 16.5522 65.7573 16.6269 67.1902 16.8479L66.9997 18.0833ZM62.9497 17.8728L63.0124 19.1212C61.6659 19.1889 60.3193 19.2622 58.9727 19.3411L58.8997 18.0932L58.8266 16.8453C60.18 16.7661 61.5335 16.6924 62.8869 16.6244L62.9497 17.8728ZM58.8997 18.0932L58.9727 19.3411C57.5639 19.4236 56.1549 19.4064 54.7464 19.2896L54.8497 18.0439L54.953 16.7981C56.2444 16.9052 57.5355 16.921 58.8266 16.8453L58.8997 18.0932ZM54.8497 18.0439L54.7464 19.2896C53.4277 19.1802 52.1093 19.121 50.791 19.1119L50.7997 17.8619L50.8083 16.6119C52.19 16.6215 53.5716 16.6836 54.953 16.7981L54.8497 18.0439ZM50.7997 17.8619L50.791 19.1119C49.5021 19.1029 48.2126 19.1881 46.9219 19.3677L46.7497 18.1296L46.5774 16.8916C47.9867 16.6954 49.3972 16.6021 50.8083 16.6119L50.7997 17.8619ZM46.7497 18.1296L46.9219 19.3677C45.438 19.5742 43.9527 19.5398 42.471 19.2657L42.6984 18.0365L42.9258 16.8074C44.1458 17.0331 45.3613 17.0608 46.5774 16.8916L46.7497 18.1296ZM42.6984 18.0365L42.471 19.2657C41.2734 19.0441 40.0852 19.0491 38.8982 19.2797L38.6598 18.0527L38.4213 16.8257C39.9175 16.5349 41.4218 16.5291 42.9258 16.8074L42.6984 18.0365ZM38.6598 18.0527L38.8982 19.2797C37.544 19.5429 36.2117 19.7802 34.9012 19.9916L34.7022 18.7575L34.5032 17.5235C35.7862 17.3165 37.0923 17.0839 38.4213 16.8257L38.6598 18.0527ZM34.7022 18.7575L34.9012 19.9916C33.8069 20.1681 32.8015 20.5927 31.8721 21.2795L31.1292 20.2742L30.3863 19.2689C31.6274 18.3517 33.004 17.7653 34.5032 17.5235L34.7022 18.7575ZM31.1292 20.2742L31.8721 21.2795C31.0476 21.8888 30.5422 22.6922 30.3393 23.7563L29.1114 23.5221L27.8835 23.288C28.2005 21.6256 29.0403 20.2636 30.3863 19.2689L31.1292 20.2742ZM29.1114 23.5221L30.3393 23.7563C30.1034 24.9935 30.0626 26.2229 30.2148 27.4492L28.9744 27.6032L27.7339 27.7573C27.549 26.2687 27.5996 24.7773 27.8835 23.288L29.1114 23.5221ZM28.9744 27.6032L30.2148 27.4492C30.3927 28.881 30.4402 30.3107 30.3571 31.7375L29.1092 31.6648L27.8613 31.5921C27.9356 30.3183 27.8933 29.0404 27.7339 27.7573L28.9744 27.6032ZM29.1092 31.6648L30.3571 31.7375C30.2796 33.0659 30.2373 34.3941 30.23 35.7221L28.98 35.7152L27.73 35.7084C27.7376 34.3363 27.7813 32.9642 27.8613 31.5921L29.1092 31.6648ZM28.98 35.7152L30.23 35.7221C30.2227 37.0581 30.2377 38.3942 30.2751 39.7303L29.0255 39.7652L27.776 39.8002C27.7379 38.4362 27.7226 37.0723 27.73 35.7084L28.98 35.7152ZM29.0255 39.7652L30.2751 39.7303C30.3129 41.083 30.3463 42.4357 30.3754 43.7884L29.1257 43.8152L27.876 43.8421C27.847 42.4948 27.8137 41.1475 27.776 39.8002L29.0255 39.7652ZM29.1257 43.8152L30.3754 43.7884C30.4043 45.1329 30.4421 46.4774 30.4887 47.8219L29.2394 47.8652L27.9902 47.9085C27.9432 46.5531 27.9051 45.1976 27.876 43.8421L29.1257 43.8152ZM29.2394 47.8652L30.4887 47.8219C30.538 49.2436 30.4653 50.6648 30.271 52.0847L29.0326 51.9152L27.7941 51.7458C27.9693 50.4656 28.0345 49.1868 27.9902 47.9085L29.2394 47.8652ZM29.0326 51.9152L30.271 52.0847C30.0968 53.3583 30.0418 54.6306 30.1058 55.9024L28.8574 55.9652L27.609 56.028C27.5371 54.5999 27.599 53.1721 27.7941 51.7458L29.0326 51.9152ZM28.8574 55.9652L30.1058 55.9024C30.1765 57.308 30.1535 58.7135 30.0368 60.1187L28.7911 60.0152L27.5454 59.9118C27.6529 58.6169 27.6741 57.3225 27.609 56.028L28.8574 55.9652ZM28.7911 60.0152L30.0368 60.1187C29.9317 61.3852 29.9536 62.6516 30.1029 63.919L28.8615 64.0652L27.6201 64.2114C27.4513 62.7789 27.4264 61.3452 27.5454 59.9118L28.7911 60.0152ZM28.8615 64.0652L30.1029 63.919C30.269 65.3292 30.3316 66.7403 30.2904 68.1517L29.0409 68.1152L27.7914 68.0788C27.829 66.7902 27.772 65.5012 27.6201 64.2114L28.8615 64.0652ZM29.0409 68.1152L30.2904 68.1517C30.2513 69.4903 30.2305 70.829 30.2279 72.1676L28.9779 72.1652L27.7279 72.1628C27.7305 70.8015 27.7517 69.4401 27.7914 68.0788L29.0409 68.1152ZM28.9779 72.1652L30.2279 72.1676C30.2253 73.5378 30.1895 74.908 30.1204 76.2782L28.872 76.2152L27.6235 76.1523C27.6906 74.8224 27.7254 73.4926 27.7279 72.1628L28.9779 72.1652ZM28.872 76.2152L30.1204 76.2782C30.0538 77.5989 30.0337 78.9196 30.0602 80.2402L28.8104 80.2652L27.5607 80.2903C27.533 78.9109 27.554 77.5315 27.6235 76.1523L28.872 76.2152ZM28.8104 80.2652L30.0602 80.2402C30.0872 81.5897 30.115 82.9393 30.1435 84.2888L28.8938 84.3152L27.6441 84.3417C27.6155 82.9912 27.5877 81.6407 27.5607 80.2903L28.8104 80.2652ZM28.8938 84.3152L30.1435 84.2888C30.1722 85.6425 30.1947 86.9963 30.2112 88.35L28.9613 88.3652L27.7114 88.3804C27.695 87.0342 27.6726 85.6879 27.6441 84.3417L28.8938 84.3152ZM28.9613 88.3652L30.2112 88.35C30.2278 89.7199 30.2118 91.0898 30.163 92.4597L28.9138 92.4152L27.6646 92.3707C27.7119 91.0406 27.7275 89.7105 27.7114 88.3804L28.9613 88.3652ZM28.9138 92.4152L30.163 92.4597C30.1149 93.8089 30.0682 95.158 30.0229 96.5072L28.7736 96.4652L27.5243 96.4233C27.5697 95.0724 27.6164 93.7216 27.6646 92.3707L28.9138 92.4152ZM28.7736 96.4652L30.0229 96.5072C29.9782 97.8403 29.9604 99.1735 29.9695 100.507L28.7196 100.515L27.4696 100.524C27.4602 99.157 27.4784 97.7901 27.5243 96.4233L28.7736 96.4652ZM28.7196 100.515L29.9695 100.507C29.9788 101.852 29.9962 103.197 30.0217 104.542L28.7719 104.565L27.5221 104.589C27.4964 103.234 27.4789 101.879 27.4696 100.524L28.7196 100.515ZM28.7719 104.565L30.0217 104.542C30.0465 105.849 30.1374 107.157 30.2946 108.465L29.0535 108.614L27.8124 108.763C27.6454 107.373 27.5486 105.981 27.5221 104.589L28.7719 104.565ZM29.0535 108.614L30.2946 108.465C30.4617 109.857 30.5566 111.246 30.579 112.633L29.3292 112.653L28.0793 112.673C28.0583 111.374 27.9694 110.07 27.8124 108.763L29.0535 108.614ZM29.3292 112.653L30.579 112.633C30.5996 113.909 30.722 115.183 30.9464 116.454L29.7154 116.671L28.4845 116.889C28.2373 115.489 28.1021 114.083 28.0793 112.673L29.3292 112.653ZM29.7154 116.671L30.9464 116.454C31.1244 117.462 31.6176 118.244 32.4755 118.857L31.749 119.874L31.0225 120.891C29.6406 119.905 28.7782 118.552 28.4845 116.889L29.7154 116.671ZM31.749 119.874L32.4755 118.857C33.4047 119.521 34.4163 119.876 35.5357 119.937L35.4674 121.186L35.399 122.434C33.8004 122.346 32.3332 121.828 31.0225 120.891L31.749 119.874ZM35.4674 121.186L35.5357 119.937C36.865 120.01 38.189 120.035 39.5077 120.012L39.5293 121.262L39.551 122.512C38.1717 122.536 36.7877 122.51 35.399 122.434L35.4674 121.186ZM39.5293 121.262L39.5077 120.012C40.8565 119.989 42.2062 119.965 43.5568 119.942L43.5788 121.192L43.6007 122.441C42.2499 122.465 40.9 122.489 39.551 122.512L39.5293 121.262ZM43.5788 121.192L43.5568 119.942C44.9068 119.918 46.2565 119.893 47.6058 119.867L47.6298 121.117L47.6537 122.367C46.3031 122.393 44.9521 122.418 43.6007 122.441L43.5788 121.192ZM47.6298 121.117L47.6058 119.867C48.9787 119.841 50.3516 119.852 51.7244 119.902L51.6798 121.151L51.6351 122.4C50.308 122.352 48.9809 122.341 47.6537 122.367L47.6298 121.117ZM51.6798 121.151L51.7244 119.902C53.0539 119.949 54.3834 119.964 55.7128 119.946L55.7298 121.196L55.7468 122.445C54.3762 122.464 53.0057 122.449 51.6351 122.4L51.6798 121.151ZM55.7298 121.196L55.7128 119.946C57.0499 119.928 58.3871 119.889 59.7243 119.829L59.7798 121.078L59.8353 122.327C58.4725 122.387 57.1096 122.427 55.7468 122.445L55.7298 121.196ZM59.7798 121.078L59.7243 119.829C61.1432 119.766 62.5618 119.82 63.9794 119.991L63.8298 121.232L63.6801 122.473C62.3978 122.319 61.1164 122.27 59.8353 122.327L59.7798 121.078ZM63.8298 121.232L63.9794 119.991C65.3051 120.151 66.6305 120.271 67.9557 120.352L67.8798 121.6L67.8039 122.847C66.4291 122.764 65.0545 122.639 63.6801 122.473L63.8298 121.232ZM67.8798 121.6L67.9557 120.352C69.261 120.431 70.5662 120.441 71.8714 120.379L71.9298 121.628L71.9882 122.877C70.5934 122.942 69.1986 122.932 67.8039 122.847L67.8798 121.6ZM71.9298 121.628L71.8714 120.379C73.2359 120.316 74.6005 120.276 75.9651 120.26L75.9798 121.51L75.9944 122.759C74.6591 122.775 73.3237 122.814 71.9882 122.877L71.9298 121.628ZM75.9798 121.51L75.9651 120.26C77.3265 120.244 78.6879 120.246 80.0492 120.267L80.0298 121.517L80.0103 122.767C78.6717 122.746 77.3331 122.744 75.9944 122.759L75.9798 121.51ZM80.0298 121.517L80.0492 120.267C81.3945 120.288 82.7399 120.302 84.0853 120.308L84.08 121.557L84.0747 122.807C82.7198 122.802 81.365 122.788 80.0103 122.767L80.0298 121.517ZM84.08 121.557L84.0853 120.308C85.3565 120.313 86.61 120.199 87.8471 119.965L88.079 121.193L88.311 122.422C86.9162 122.685 85.5037 122.814 84.0747 122.807L84.08 121.557ZM88.079 121.193L87.8471 119.965C89.0355 119.741 90.1482 119.343 91.1904 118.771L91.7914 119.867L92.3923 120.963C91.1165 121.663 89.7543 122.149 88.311 122.422L88.079 121.193ZM91.7914 119.867L91.1904 118.771C92.2482 118.191 93.2206 117.47 94.1091 116.605L94.9813 117.5L95.8535 118.396C94.8067 119.415 93.6525 120.272 92.3923 120.963L91.7914 119.867ZM94.9813 117.5L94.1091 116.605C95.0846 115.655 96.0722 114.718 97.0718 113.794L97.9201 114.712L98.7684 115.63C97.7849 116.539 96.8133 117.461 95.8535 118.396L94.9813 117.5ZM97.9201 114.712L97.0718 113.794C98.0568 112.884 99.0321 111.964 99.9975 111.033L100.865 111.932L101.733 112.832C100.755 113.775 99.7665 114.708 98.7684 115.63L97.9201 114.712ZM100.865 111.932L99.9975 111.033C100.952 110.112 101.881 109.163 102.785 108.188L103.702 109.037L104.619 109.886C103.684 110.896 102.722 111.878 101.733 112.832L100.865 111.932ZM103.702 109.037L102.785 108.188C103.773 107.12 104.881 106.18 106.108 105.366L106.799 106.408L107.49 107.45C106.426 108.155 105.47 108.967 104.619 109.886L103.702 109.037ZM106.799 106.408L106.108 105.366C107.047 104.743 107.704 103.939 108.108 102.933L109.268 103.399L110.428 103.865C109.83 105.352 108.841 106.554 107.49 107.45L106.799 106.408ZM109.268 103.399L108.108 102.933C108.562 101.804 108.83 100.649 108.916 99.4636L110.163 99.5541L111.41 99.6446C111.305 101.092 110.976 102.501 110.428 103.865L109.268 103.399ZM110.163 99.5541L108.916 99.4636C108.965 98.7951 109.016 98.2455 109.072 97.8249C109.1 97.6152 109.131 97.4223 109.166 97.2548C109.196 97.1118 109.248 96.8975 109.344 96.6982L110.469 97.2435L111.594 97.7889C111.636 97.7015 111.634 97.6674 111.612 97.7729C111.595 97.854 111.574 97.9778 111.55 98.1533C111.504 98.5028 111.457 98.9966 111.41 99.6446L110.163 99.5541ZM110.469 97.2435L109.344 96.6982C109.295 96.7992 109.297 96.845 109.317 96.7374C109.333 96.6575 109.351 96.5331 109.37 96.3544C109.407 95.9987 109.441 95.494 109.469 94.8297L110.718 94.8828L111.967 94.9358C111.938 95.6215 111.901 96.1853 111.856 96.6165C111.833 96.8313 111.807 97.03 111.774 97.2027C111.746 97.3478 111.697 97.576 111.594 97.7889L110.469 97.2435Z" fill="#EEEFF1"/>
<path d="M87.916 115.41C87.9149 116.101 87.3544 116.66 86.664 116.658C85.9737 116.657 85.4149 116.097 85.416 115.406L86.666 115.408L87.916 115.41ZM86.6662 115.308L85.4162 115.306L85.4162 115.273L85.4181 115.24L86.6662 115.308ZM104.219 98.0818L104.119 99.3278L104.219 98.0818ZM105.468 98.0091L106.542 97.3705L106.713 97.6574L106.718 97.9911L105.468 98.0091ZM105.365 97.8366L104.291 98.4751L103.176 96.5996L105.358 96.5866L105.365 97.8366ZM105.458 96.586C106.148 96.5819 106.711 97.1382 106.715 97.8286C106.719 98.5189 106.163 99.0819 105.473 99.086L105.465 97.836L105.458 96.586ZM86.666 115.408L85.416 115.406L85.4162 115.306L86.6662 115.308L87.9162 115.31L87.916 115.41L86.666 115.408ZM86.6662 115.308L85.4181 115.24C85.518 113.428 85.4989 112.131 85.387 111.301L86.6258 111.134L87.8645 110.967C88.0088 112.036 88.0166 113.523 87.9143 115.377L86.6662 115.308ZM86.6258 111.134L85.387 111.301C85.2444 110.243 85.2404 109.183 85.3751 108.125L86.6151 108.283L87.8551 108.441C87.7479 109.283 87.751 110.124 87.8645 110.967L86.6258 111.134ZM86.6151 108.283L85.3751 108.125C85.4926 107.203 85.5787 106.282 85.6336 105.362L86.8814 105.436L88.1291 105.511C88.0709 106.487 87.9796 107.464 87.8551 108.441L86.6151 108.283ZM86.8814 105.436L85.6336 105.362C85.6898 104.419 85.7405 103.48 85.7855 102.545L87.0341 102.605L88.2826 102.666C88.2371 103.61 88.186 104.558 88.1291 105.511L86.8814 105.436ZM87.0341 102.605L85.7855 102.545C85.8435 101.343 86.256 100.253 87.0092 99.3139L87.9844 100.096L88.9597 100.878C88.5363 101.406 88.3152 101.99 88.2826 102.666L87.0341 102.605ZM87.9844 100.096L87.0092 99.3139C87.7762 98.3572 88.7785 97.7355 89.9756 97.4782L90.2383 98.7003L90.501 99.9224C89.8695 100.058 89.3693 100.367 88.9597 100.878L87.9844 100.096ZM90.2383 98.7003L89.9756 97.4782C90.9261 97.2739 91.8881 97.1111 92.8617 96.9897L93.0164 98.2301L93.171 99.4705C92.2692 99.5829 91.3793 99.7336 90.501 99.9224L90.2383 98.7003ZM93.0164 98.2301L92.8617 96.9897C93.7843 96.8747 94.7128 96.7418 95.6473 96.5909L95.8465 97.8249L96.0457 99.0589C95.0821 99.2145 94.1239 99.3517 93.171 99.4705L93.0164 98.2301ZM95.8465 97.8249L95.6473 96.5909C96.7532 96.4124 97.861 96.445 98.9624 96.6866L98.6947 97.9075L98.4269 99.1285C97.6288 98.9535 96.8378 98.9311 96.0457 99.0589L95.8465 97.8249ZM98.6947 97.9075L98.9624 96.6866C99.7926 96.8686 100.617 96.9239 101.44 96.8551L101.544 98.1007L101.648 99.3464C100.571 99.4365 99.4962 99.363 98.4269 99.1285L98.6947 97.9075ZM101.544 98.1007L101.44 96.8551C102.448 96.7706 103.409 96.7628 104.319 96.8358L104.219 98.0818L104.119 99.3278C103.362 99.267 102.539 99.2718 101.648 99.3464L101.544 98.1007ZM104.219 98.0818L104.319 96.8358C104.724 96.8683 104.966 96.8728 105.084 96.8659C105.158 96.8616 105.102 96.8569 104.992 96.8939C104.939 96.9116 104.779 96.9695 104.612 97.1193C104.416 97.2964 104.212 97.6094 104.218 98.027L105.468 98.0091L106.718 97.9911C106.724 98.4376 106.508 98.7766 106.286 98.9768C106.094 99.1497 105.894 99.228 105.79 99.2631C105.576 99.335 105.364 99.3539 105.23 99.3617C104.932 99.379 104.549 99.3622 104.119 99.3278L104.219 98.0818ZM105.468 98.0091L104.393 98.6476L104.291 98.4751L105.365 97.8366L106.44 97.1981L106.542 97.3705L105.468 98.0091ZM105.365 97.8366L105.358 96.5866L105.458 96.586L105.465 97.836L105.473 99.086L105.373 99.0866L105.365 97.8366Z" fill="white"/>
</svg>
