<svg width="140" height="140" viewBox="0 0 140 140" fill="none" xmlns="http://www.w3.org/2000/svg">
<path d="M93.7098 37.9214C96.2924 37.9214 97.5836 37.9214 98.7669 38.3629C99.9502 38.8043 100.926 39.6501 102.877 41.3417L117.555 54.0648C119.931 56.1246 121.12 57.1546 121.752 58.5391C122.384 59.9236 122.384 61.496 122.384 64.6409V105.828C122.384 112.426 122.384 115.725 120.334 117.775C118.284 119.825 114.985 119.825 108.387 119.825H31.9964C25.3984 119.825 22.0995 119.825 20.0497 117.775C18 115.725 18 112.426 18 105.828V64.6409C18 61.496 18 59.9236 18.6321 58.5391C19.2643 57.1546 20.4524 56.1246 22.8287 54.0648L37.5063 41.3417C39.4578 39.6501 40.4336 38.8043 41.6169 38.3629C42.8001 37.9214 44.0914 37.9214 46.674 37.9214H93.7098Z" fill="#EEEFF1"/>
<path d="M104.34 42.5044L103.623 43.4064L104.34 42.5044ZM107.081 45.0421L107.925 44.2576L107.081 45.0421ZM112.885 49.7457L112.167 50.6468L112.885 49.7457ZM115.659 52.2451L116.48 51.4373L115.659 52.2451ZM122.596 72.0565L121.446 71.994L122.596 72.0565ZM122.646 90.7228L121.496 90.7961L122.646 90.7228ZM122.426 94.4561L121.292 94.2504L122.426 94.4561ZM122.579 101.923L121.432 101.812L122.579 101.923ZM122.501 105.657L121.351 105.72L122.501 105.657ZM118.333 118.92L118.746 119.996L118.333 118.92ZM107.239 119.689L107.131 118.542L107.239 119.689ZM88.5721 119.739L88.6395 118.589L88.5721 119.739ZM84.8388 119.784L84.9341 120.933L84.8388 119.784ZM81.1056 119.952L81.1136 121.104L81.1056 119.952ZM77.3723 119.705L77.2135 120.846L77.3723 119.705ZM69.9058 119.823L70.0978 118.687L69.9058 119.823ZM62.4393 119.898L62.2611 118.76L62.4393 119.898ZM58.7061 120.184L58.7019 121.336L58.7061 120.184ZM43.773 119.801L43.8052 118.649L43.773 119.801ZM36.3065 119.604L36.3464 118.452L36.3065 119.604ZM28.8378 119.93L28.7641 121.079L28.8378 119.93ZM17.7913 90.1507L16.6398 90.1894L17.7913 90.1507ZM17.9763 71.4844L16.8305 71.6058L17.9763 71.4844ZM22.6014 54.6179L23.3431 55.4997L22.6014 54.6179ZM31.0809 47.3047L30.3656 46.4014L31.0809 47.3047ZM33.8087 44.752L34.6623 45.5261L33.8087 44.752ZM36.4084 42.0505L35.6023 41.2272L36.4084 42.0505ZM94.9159 37.6718L94.8978 38.8239L94.9159 37.6718ZM98.6122 38.3075L98.2481 39.4008L98.6122 38.3075ZM104.34 42.5044L103.623 43.4064C104.552 44.1454 105.424 44.9521 106.237 45.8267L107.081 45.0421L107.925 44.2576C107.033 43.2989 106.077 42.4137 105.057 41.6025L104.34 42.5044ZM107.081 45.0421L106.237 45.8267C107.143 46.8016 108.14 47.6731 109.227 48.4404L109.891 47.4992L110.556 46.558C109.6 45.8826 108.723 45.116 107.925 44.2576L107.081 45.0421ZM109.891 47.4992L109.227 48.4404C110.23 49.1491 111.21 49.8845 112.167 50.6468L112.885 49.7457L113.603 48.8446C112.611 48.0544 111.596 47.2922 110.556 46.558L109.891 47.4992ZM112.885 49.7457L112.167 50.6468C113.104 51.3939 113.994 52.196 114.837 53.053L115.659 52.2451L116.48 51.4373C115.573 50.5141 114.613 49.6498 113.603 48.8446L112.885 49.7457ZM115.659 52.2451L114.837 53.053C115.73 53.9614 116.651 54.8376 117.6 55.6815L118.366 54.8206L119.132 53.9596C118.221 53.1499 117.338 52.3091 116.48 51.4373L115.659 52.2451ZM118.366 54.8206L117.6 55.6815C118.487 56.4705 119.316 57.3249 120.086 58.2454L120.97 57.5058L121.854 56.7662C121.011 55.76 120.104 54.8243 119.132 53.9596L118.366 54.8206ZM120.97 57.5058L120.086 58.2454C120.741 59.0273 121.108 59.9145 121.199 60.9377L122.347 60.8358L123.495 60.734C123.362 59.2438 122.812 57.911 121.854 56.7662L120.97 57.5058ZM122.347 60.8358L121.199 60.9377C121.304 62.1155 121.286 63.2866 121.147 64.4523L122.291 64.5888L123.435 64.7253C123.593 63.4004 123.613 62.0696 123.495 60.734L122.347 60.8358ZM122.291 64.5888L121.147 64.4523C120.985 65.8074 121.019 67.1627 121.247 68.5149L122.383 68.3233L123.519 68.1317C123.328 66.995 123.3 65.8607 123.435 64.7253L122.291 64.5888ZM122.383 68.3233L121.247 68.5149C121.443 69.6764 121.509 70.8356 121.446 71.994L122.596 72.0565L123.747 72.1191C123.819 70.7886 123.743 69.459 123.519 68.1317L122.383 68.3233ZM122.596 72.0565L121.446 71.994C121.376 73.285 121.384 74.5761 121.471 75.8669L122.62 75.7898L123.77 75.7127C123.689 74.5147 123.682 73.3169 123.747 72.1191L122.596 72.0565ZM122.62 75.7898L121.471 75.8669C121.549 77.0375 121.515 78.2081 121.368 79.3799L122.512 79.5231L123.655 79.6662C123.82 78.3491 123.858 77.031 123.77 75.7127L122.62 75.7898ZM122.512 79.5231L121.368 79.3799C121.205 80.6842 121.145 81.9894 121.189 83.2951L122.341 83.2563L123.492 83.2176C123.453 82.0343 123.507 80.8507 123.655 79.6662L122.512 79.5231ZM122.341 83.2563L121.189 83.2951C121.231 84.5393 121.273 85.7834 121.314 87.0276L122.465 86.9896L123.617 86.9515C123.576 85.7069 123.534 84.4622 123.492 83.2176L122.341 83.2563ZM122.465 86.9896L121.314 87.0276C121.355 88.2838 121.416 89.54 121.496 90.7961L122.646 90.7228L123.796 90.6495C123.717 89.4168 123.658 88.1842 123.617 86.9515L122.465 86.9896ZM122.646 90.7228L121.496 90.7961C121.569 91.9459 121.502 93.0966 121.292 94.2504L122.426 94.4561L123.56 94.6618C123.802 93.3267 123.881 91.9886 123.796 90.6495L122.646 90.7228ZM122.426 94.4561L121.292 94.2504C121.042 95.6303 121.041 97.0136 121.29 98.3936L122.424 98.1893L123.558 97.9851C123.358 96.8763 123.359 95.7707 123.56 94.6618L122.426 94.4561ZM122.424 98.1893L121.29 98.3936C121.495 99.5352 121.543 100.674 121.432 101.812L122.579 101.923L123.726 102.034C123.857 100.683 123.8 99.3323 123.558 97.9851L122.424 98.1893ZM122.579 101.923L121.432 101.812C121.306 103.114 121.279 104.417 121.351 105.72L122.501 105.657L123.652 105.593C123.587 104.407 123.611 103.22 123.726 102.034L122.579 101.923ZM122.501 105.657L121.351 105.72C121.415 106.88 121.351 108.038 121.16 109.195L122.296 109.383L123.433 109.571C123.652 108.249 123.725 106.923 123.652 105.593L122.501 105.657ZM122.296 109.383L121.16 109.195C120.94 110.521 120.873 111.862 120.957 113.217L122.107 113.146L123.257 113.074C123.183 111.891 123.242 110.723 123.433 109.571L122.296 109.383ZM122.107 113.146L120.957 113.217C121.02 114.233 120.772 115.151 120.2 116.008L121.158 116.648L122.116 117.288C122.967 116.015 123.352 114.598 123.257 113.074L122.107 113.146ZM121.158 116.648L120.2 116.008C119.618 116.879 118.865 117.482 117.92 117.845L118.333 118.92L118.746 119.996C120.145 119.459 121.275 118.547 122.116 117.288L121.158 116.648ZM118.333 118.92L117.92 117.845C116.845 118.257 115.738 118.518 114.598 118.629L114.709 119.776L114.82 120.922C116.168 120.792 117.477 120.483 118.746 119.996L118.333 118.92ZM114.709 119.776L114.598 118.629C113.437 118.741 112.275 118.729 111.11 118.591L110.975 119.735L110.84 120.879C112.167 121.036 113.494 121.051 114.82 120.922L114.709 119.776ZM110.975 119.735L111.11 118.591C109.784 118.434 108.457 118.418 107.131 118.542L107.239 119.689L107.347 120.837C108.51 120.727 109.674 120.742 110.84 120.879L110.975 119.735ZM107.239 119.689L107.131 118.542C105.919 118.656 104.707 118.717 103.496 118.727L103.505 119.879L103.514 121.031C104.792 121.021 106.069 120.956 107.347 120.837L107.239 119.689ZM103.505 119.879L103.496 118.727C102.299 118.736 101.102 118.672 99.9048 118.532L99.7719 119.677L99.6389 120.821C100.93 120.971 102.222 121.041 103.514 121.031L103.505 119.879ZM99.7719 119.677L99.9048 118.532C98.5572 118.376 97.209 118.402 95.863 118.609L96.0386 119.748L96.2142 120.887C97.357 120.71 98.4977 120.689 99.6389 120.821L99.7719 119.677ZM96.0386 119.748L95.863 118.609C94.695 118.789 93.5288 118.85 92.3632 118.791L92.3054 119.942L92.2475 121.093C93.5708 121.159 94.8934 121.09 96.2142 120.887L96.0386 119.748ZM92.3054 119.942L92.3632 118.791C91.122 118.729 89.8807 118.661 88.6395 118.589L88.5721 119.739L88.5047 120.889C89.7523 120.962 90.9999 121.03 92.2475 121.093L92.3054 119.942ZM88.5721 119.739L88.6395 118.589C87.3408 118.512 86.042 118.528 84.7436 118.636L84.8388 119.784L84.9341 120.933C86.1245 120.834 87.3146 120.819 88.5047 120.889L88.5721 119.739ZM84.8388 119.784L84.7436 118.636C83.5281 118.737 82.3128 118.791 81.0976 118.8L81.1056 119.952L81.1136 121.104C82.3872 121.095 83.6607 121.038 84.9341 120.933L84.8388 119.784ZM81.1056 119.952L81.0976 118.8C79.9095 118.808 78.7208 118.73 77.5311 118.564L77.3723 119.705L77.2135 120.846C78.5127 121.027 79.8128 121.113 81.1136 121.104L81.1056 119.952ZM77.3723 119.705L77.5311 118.564C76.1631 118.374 74.7941 118.406 73.4288 118.659L73.6391 119.792L73.8494 120.925C74.9729 120.716 76.0927 120.69 77.2135 120.846L77.3723 119.705ZM73.6391 119.792L73.4288 118.659C72.3168 118.865 71.2086 118.875 70.0978 118.687L69.9058 119.823L69.7139 120.959C71.0919 121.192 72.4725 121.18 73.8494 120.925L73.6391 119.792ZM69.9058 119.823L70.0978 118.687C68.781 118.464 67.4621 118.37 66.1422 118.405L66.1726 119.557L66.2029 120.709C67.3719 120.678 68.5418 120.761 69.7139 120.959L69.9058 119.823ZM66.1726 119.557L66.1422 118.405C64.8477 118.439 63.5539 118.558 62.2611 118.76L62.4393 119.898L62.6175 121.037C63.8136 120.849 65.0086 120.74 66.2029 120.709L66.1726 119.557ZM62.4393 119.898L62.2611 118.76C61.0763 118.945 59.8929 119.036 58.7103 119.031L58.7061 120.184L58.7019 121.336C60.0081 121.341 61.3135 121.241 62.6175 121.037L62.4393 119.898ZM58.7061 120.184L58.7103 119.031C57.5222 119.027 56.3335 118.936 55.1436 118.757L54.9728 119.897L54.802 121.036C56.1009 121.231 57.401 121.331 58.7019 121.336L58.7061 120.184ZM54.9728 119.897L55.1436 118.757C53.8214 118.559 52.4975 118.498 51.1731 118.575L51.2395 119.725L51.306 120.875C52.4704 120.808 53.6353 120.862 54.802 121.036L54.9728 119.897ZM51.2395 119.725L51.1731 118.575C49.9486 118.645 48.7243 118.684 47.5 118.691L47.5063 119.843L47.5126 120.995C48.7771 120.988 50.0416 120.948 51.306 120.875L51.2395 119.725ZM47.5063 119.843L47.5 118.691C46.2684 118.698 45.0368 118.684 43.8052 118.649L43.773 119.801L43.7408 120.953C44.9981 120.988 46.2553 121.002 47.5126 120.995L47.5063 119.843ZM43.773 119.801L43.8052 118.649C42.5583 118.615 41.3114 118.584 40.0645 118.557L40.0398 119.709L40.015 120.861C41.2569 120.888 42.4989 120.918 43.7408 120.953L43.773 119.801ZM40.0398 119.709L40.0645 118.557C38.8252 118.53 37.5858 118.495 36.3464 118.452L36.3065 119.604L36.2666 120.756C37.5161 120.799 38.7655 120.834 40.015 120.861L40.0398 119.709ZM36.3065 119.604L36.3464 118.452C35.036 118.407 33.7258 118.474 32.4165 118.653L32.5725 119.794L32.7284 120.936C33.9091 120.775 35.0882 120.715 36.2666 120.756L36.3065 119.604ZM32.5725 119.794L32.4165 118.653C31.2471 118.812 30.0792 118.855 28.9116 118.78L28.8378 119.93L28.7641 121.079C30.0861 121.164 31.4079 121.116 32.7284 120.936L32.5725 119.794ZM28.8378 119.93L28.9116 118.78C27.6505 118.699 26.382 118.644 25.1062 118.616L25.0809 119.768L25.0557 120.92C26.2995 120.948 27.5356 121.001 28.7641 121.079L28.8378 119.93ZM25.0809 119.768L25.1062 118.616C24.0628 118.594 23.1226 118.299 22.2604 117.728L21.6241 118.689L20.9878 119.65C22.2151 120.463 23.5795 120.888 25.0557 120.92L25.0809 119.768ZM21.6241 118.689L22.2604 117.728C21.3752 117.142 20.7106 116.402 20.2468 115.499L19.2219 116.025L18.197 116.552C18.8465 117.816 19.7833 118.852 20.9878 119.65L21.6241 118.689ZM19.2219 116.025L20.2468 115.499C19.7579 114.547 19.4591 113.527 19.3515 112.43L18.2047 112.542L17.058 112.655C17.1933 114.034 17.5726 115.336 18.197 116.552L19.2219 116.025ZM18.2047 112.542L19.3515 112.43C19.2313 111.205 19.1326 109.977 19.0554 108.746L17.9054 108.818L16.7554 108.89C16.8344 110.148 16.9352 111.403 17.058 112.655L18.2047 112.542ZM17.9054 108.818L19.0554 108.746C18.9793 107.533 18.9533 106.32 18.9775 105.107L17.8254 105.084L16.6734 105.061C16.648 106.338 16.6753 107.614 16.7554 108.89L17.9054 108.818ZM17.8254 105.084L18.9775 105.107C19.0022 103.863 19.0278 102.619 19.0541 101.375L17.9021 101.35L16.7501 101.326C16.7238 102.571 16.6982 103.816 16.6734 105.061L17.8254 105.084ZM17.9021 101.35L19.0541 101.375C19.0805 100.127 19.1013 98.8791 19.1164 97.6312L17.9643 97.6172L16.8121 97.6032C16.797 98.8441 16.7764 100.085 16.7501 101.326L17.9021 101.35ZM17.9643 97.6172L19.1164 97.6312C19.1318 96.3684 19.117 95.1057 19.072 93.8429L17.9205 93.8839L16.769 93.925C16.8127 95.151 16.8271 96.3771 16.8121 97.6032L17.9643 97.6172ZM17.9205 93.8839L19.072 93.8429C19.0277 92.5993 18.9847 91.3556 18.9429 90.112L17.7913 90.1507L16.6398 90.1894C16.6816 91.4346 16.7246 92.6798 16.769 93.925L17.9205 93.8839ZM17.7913 90.1507L18.9429 90.112C18.9017 88.8831 18.8853 87.6542 18.8937 86.4253L17.7415 86.4174L16.5893 86.4095C16.5806 87.6695 16.5974 88.9294 16.6398 90.1894L17.7913 90.1507ZM17.7415 86.4174L18.8937 86.4253C18.9022 85.1856 18.9183 83.9458 18.9418 82.706L17.7898 82.6842L16.6377 82.6623C16.614 83.9114 16.5979 85.1604 16.5893 86.4095L17.7415 86.4174ZM17.7898 82.6842L18.9418 82.706C18.9647 81.4998 19.0475 80.2932 19.1902 79.0862L18.046 78.9509L16.9017 78.8156C16.7501 80.0974 16.6621 81.3797 16.6377 82.6623L17.7898 82.6842ZM18.046 78.9509L19.1902 79.0862C19.3438 77.7878 19.4045 76.4886 19.3723 75.189L18.2204 75.2177L17.0685 75.2463C17.098 76.4356 17.0425 77.6252 16.9017 78.8156L18.046 78.9509ZM18.2204 75.2177L19.3723 75.189C19.3406 73.9135 19.2572 72.6381 19.1221 71.363L17.9763 71.4844L16.8305 71.6058C16.959 72.8195 17.0383 74.033 17.0685 75.2463L18.2204 75.2177ZM17.9763 71.4844L19.1221 71.363C18.9945 70.1581 18.9297 68.9535 18.9276 67.7491L17.7754 67.7511L16.6231 67.7532C16.6254 69.0377 16.6945 70.3219 16.8305 71.6058L17.9763 71.4844ZM17.7754 67.7511L18.9276 67.7491C18.9255 66.5352 18.9715 65.3214 19.0658 64.1074L17.917 64.0183L16.7682 63.9291C16.6693 65.2035 16.6209 66.4782 16.6231 67.7532L17.7754 67.7511ZM17.917 64.0183L19.0658 64.1074C19.1587 62.9097 19.3227 61.7375 19.5572 60.5904L18.4283 60.3596L17.2994 60.1288C17.0453 61.3715 16.8684 62.6384 16.7682 63.9291L17.917 64.0183ZM18.4283 60.3596L19.5572 60.5904C19.7622 59.5878 20.1928 58.7127 20.8558 57.9468L19.9847 57.1926L19.1135 56.4385C18.19 57.5053 17.5831 58.7414 17.2994 60.1288L18.4283 60.3596ZM19.9847 57.1926L20.8558 57.9468C21.6083 57.0775 22.4371 56.2618 23.3431 55.4997L22.6014 54.6179L21.8598 53.7361C20.8632 54.5743 19.9475 55.4751 19.1135 56.4385L19.9847 57.1926ZM22.6014 54.6179L23.3431 55.4997C24.3093 54.6871 25.2551 53.8498 26.1805 52.9878L25.3951 52.1447L24.6098 51.3015C23.7128 52.137 22.7961 52.9485 21.8598 53.7361L22.6014 54.6179ZM25.3951 52.1447L26.1805 52.9878C27.0778 52.152 27.9949 51.3391 28.9318 50.549L28.189 49.6681L27.4462 48.7873C26.4803 49.6018 25.5348 50.4399 24.6098 51.3015L25.3951 52.1447ZM28.189 49.6681L28.9318 50.549C29.8742 49.7543 30.829 48.974 31.7962 48.208L31.0809 47.3047L30.3656 46.4014C29.3798 47.1821 28.4066 47.9774 27.4462 48.7873L28.189 49.6681ZM31.0809 47.3047L31.7962 48.208C32.8226 47.3952 33.7781 46.501 34.6623 45.5261L33.8087 44.752L32.9552 43.978C32.1554 44.8599 31.2923 45.6675 30.3656 46.4014L31.0809 47.3047ZM33.8087 44.752L34.6623 45.5261C35.4891 44.6144 36.3398 43.7303 37.2145 42.8738L36.4084 42.0505L35.6023 41.2272C34.6948 42.1158 33.8125 43.0327 32.9552 43.978L33.8087 44.752ZM36.4084 42.0505L37.2145 42.8738C38.0597 42.0463 38.9709 41.2918 39.9487 40.6101L39.2898 39.6649L38.6309 38.7197C37.549 39.4738 36.5393 40.3098 35.6023 41.2272L36.4084 42.0505ZM39.2898 39.6649L39.9487 40.6101C40.849 39.9826 41.828 39.5653 42.8946 39.3533L42.6699 38.2232L42.4452 37.093C41.0647 37.3675 39.7903 37.9114 38.6309 38.7197L39.2898 39.6649ZM42.6699 38.2232L42.8946 39.3533C44.0517 39.1232 45.2185 38.9966 46.3958 38.9734L46.3731 37.8214L46.3503 36.6694C45.0371 36.6953 43.7351 36.8366 42.4452 37.093L42.6699 38.2232ZM46.3731 37.8214L46.3958 38.9734C47.6352 38.9489 48.8741 38.934 50.1126 38.9286L50.1076 37.7764L50.1026 36.6242C48.8523 36.6296 47.6015 36.6447 46.3503 36.6694L46.3731 37.8214ZM50.1076 37.7764L50.1126 38.9286C51.3145 38.9234 52.5166 38.9846 53.7192 39.1122L53.8409 37.9664L53.9625 36.8206C52.6763 36.6841 51.3896 36.6186 50.1026 36.6242L50.1076 37.7764ZM53.8409 37.9664L53.7192 39.1122C55.0385 39.2523 56.3584 39.2626 57.678 39.1432L57.5741 37.9956L57.4702 36.8481C56.301 36.9539 55.1321 36.9448 53.9625 36.8206L53.8409 37.9664ZM57.5741 37.9956L57.678 39.1432C58.8802 39.0343 60.0821 38.9922 61.2838 39.0168L61.3074 37.8648L61.3309 36.7128C60.0438 36.6865 58.7568 36.7316 57.4702 36.8481L57.5741 37.9956ZM61.3074 37.8648L61.2838 39.0168C62.5389 39.0424 63.7939 39.0507 65.049 39.0417L65.0406 37.8895L65.0323 36.7372C63.7985 36.7462 62.5647 36.738 61.3309 36.7128L61.3074 37.8648ZM65.0406 37.8895L65.049 39.0417C66.2852 39.0327 67.5214 39.037 68.7576 39.0545L68.7739 37.9023L68.7902 36.7502C67.5375 36.7325 66.2849 36.7282 65.0323 36.7372L65.0406 37.8895ZM68.7739 37.9023L68.7576 39.0545C69.9802 39.0717 71.2029 39.1237 72.4256 39.2104L72.5071 38.0611L72.5887 36.9117C71.3226 36.8219 70.0564 36.7681 68.7902 36.7502L68.7739 37.9023ZM72.5071 38.0611L72.4256 39.2104C73.7652 39.3055 75.1039 39.235 76.4399 39.0002L76.2404 37.8654L76.0409 36.7305C74.888 36.9332 73.738 36.9933 72.5887 36.9117L72.5071 38.0611ZM76.2404 37.8654L76.4399 39.0002C77.5459 38.8058 78.649 38.8147 79.7562 39.0274L79.9737 37.8959L80.1911 36.7643C78.8094 36.4989 77.4237 36.4874 76.0409 36.7305L76.2404 37.8654ZM79.9737 37.8959L79.7562 39.0274C81.0743 39.2807 82.395 39.4019 83.7172 39.3901L83.7069 38.2379L83.6966 37.0857C82.53 37.0961 81.3618 36.9893 80.1911 36.7643L79.9737 37.8959ZM83.7069 38.2379L83.7172 39.3901C84.991 39.3787 86.2648 39.3186 87.5383 39.2097L87.4402 38.0616L87.342 36.9136C86.1267 37.0175 84.9116 37.0749 83.6966 37.0857L83.7069 38.2379ZM87.4402 38.0616L87.5383 39.2097C88.7767 39.1038 90.015 39.0078 91.2534 38.9216L91.1734 37.7722L91.0935 36.6227C89.843 36.7097 88.5925 36.8067 87.342 36.9136L87.4402 38.0616ZM91.1734 37.7722L91.2534 38.9216C92.4651 38.8373 93.6798 38.8048 94.8978 38.8239L94.9159 37.6718L94.934 36.5197C93.6508 36.4995 92.3706 36.5339 91.0935 36.6227L91.1734 37.7722ZM94.9159 37.6718L94.8978 38.8239C96.028 38.8417 97.1435 39.0329 98.2481 39.4008L98.6122 38.3075L98.9762 37.2143C97.6535 36.7739 96.3049 36.5413 94.934 36.5197L94.9159 37.6718ZM98.6122 38.3075L98.2481 39.4008C99.2831 39.7454 100.08 40.2784 100.68 40.9852L101.558 40.2394L102.437 39.4936C101.536 38.4329 100.369 37.678 98.9762 37.2143L98.6122 38.3075ZM101.558 40.2394L100.68 40.9852C101.06 41.4323 101.375 41.7851 101.615 42.0233C101.727 42.1347 101.864 42.2634 102.007 42.3635C102.068 42.4059 102.212 42.5029 102.407 42.5619C102.575 42.6124 103.19 42.7403 103.651 42.2081L102.781 41.4534L101.91 40.6987C102.109 40.4696 102.369 40.3525 102.61 40.3199C102.823 40.2911 102.99 40.3306 103.073 40.3557C103.231 40.4034 103.327 40.4741 103.329 40.4753C103.354 40.4928 103.33 40.479 103.239 40.3881C103.071 40.2217 102.807 39.9302 102.437 39.4936L101.558 40.2394ZM102.781 41.4534L103.651 42.2081C103.442 42.4497 103.183 42.5466 102.997 42.5793C102.826 42.6095 102.689 42.5914 102.624 42.5798C102.552 42.5669 102.499 42.5493 102.474 42.5402C102.446 42.5301 102.428 42.5218 102.422 42.5191C102.414 42.5152 102.457 42.5365 102.575 42.6158C102.796 42.7647 103.141 43.0231 103.623 43.4064L104.34 42.5044L105.057 41.6025C104.564 41.2107 104.162 40.9063 103.863 40.7049C103.721 40.609 103.561 40.5082 103.406 40.4353C103.338 40.4029 103.2 40.3416 103.028 40.311C102.937 40.2947 102.347 40.1942 101.91 40.6987L102.781 41.4534Z" fill="#EEEFF1"/>
<path d="M23.0056 59.6955C22.3911 59.6976 21.8946 60.1975 21.8968 60.8121C21.8989 61.4266 22.3989 61.923 23.0134 61.9209L23.0095 60.8082L23.0056 59.6955ZM23.1095 60.8078L23.1134 61.9205L23.147 61.9204L23.1806 61.9183L23.1095 60.8078ZM49.6411 60.5818L49.5663 61.692L49.6411 60.5818ZM52.1785 60.56L52.0843 59.4513V59.4513L52.1785 60.56ZM57.2483 60.7953L57.2958 61.907L57.2483 60.7953ZM59.7858 60.6879L59.7392 59.5761L59.7858 60.6879ZM69.9367 60.5858L70.0702 59.4811L69.9367 60.5858ZM72.4738 60.6503L72.3962 59.5403L72.4738 60.6503ZM75.0108 60.7946L75.2119 59.7002L75.0108 60.7946ZM82.6214 60.6247L82.5912 61.737L82.6214 60.6247ZM87.6963 60.8061L87.5211 61.905L87.6963 60.8061ZM90.2341 60.8587L90.1037 59.7537L90.2341 60.8587ZM97.8473 60.8057L97.6355 59.7134L97.8473 60.8057ZM105.457 60.7717L105.572 61.8784L105.457 60.7717ZM113.07 60.7621L112.817 59.6784L113.07 60.7621ZM115.607 60.7345L115.376 61.8232L115.607 60.7345ZM117.126 60.8676L117.654 61.8469L117.77 61.784L117.869 61.6956L117.126 60.8676ZM117.276 60.7325L117.276 59.6197L116.85 59.6199L116.533 59.9045L117.276 60.7325ZM117.377 61.8451C117.991 61.8449 118.489 61.3465 118.489 60.732C118.489 60.1174 117.99 59.6195 117.376 59.6197L117.376 60.7324L117.377 61.8451ZM23.0095 60.8082L23.0134 61.9209L23.1134 61.9205L23.1095 60.8078L23.1056 59.6951L23.0056 59.6955L23.0095 60.8082ZM23.1095 60.8078L23.1806 61.9183C24.7787 61.816 25.9245 61.8265 26.6618 61.9246L26.8086 60.8216L26.9553 59.7186C25.9976 59.5912 24.6773 59.5925 23.0384 59.6974L23.1095 60.8078ZM26.8086 60.8216L26.6618 61.9246C27.6039 62.0499 28.546 62.0532 29.4855 61.9342L29.3456 60.8303L29.2058 59.7264C28.4576 59.8212 27.7082 59.8187 26.9553 59.7186L26.8086 60.8216ZM29.3456 60.8303L29.4855 61.9342C30.3026 61.8307 31.1202 61.7572 31.9384 61.7138L31.8794 60.6027L31.8204 59.4915C30.948 59.5378 30.0764 59.6161 29.2058 59.7264L29.3456 60.8303ZM31.8794 60.6027L31.9384 61.7138C32.7272 61.672 33.517 61.6901 34.3082 61.7683L34.4177 60.661L34.5272 59.5537C33.6246 59.4645 32.7222 59.4437 31.8204 59.4915L31.8794 60.6027ZM34.4177 60.661L34.3082 61.7683C35.1899 61.8555 36.0707 61.9007 36.9505 61.9039L36.9545 60.7912L36.9585 59.6785C36.1497 59.6756 35.3393 59.634 34.5272 59.5537L34.4177 60.661ZM36.9545 60.7912L36.9505 61.9039C37.8307 61.907 38.711 61.8675 39.5912 61.7854L39.4879 60.6775L39.3845 59.5696C38.5754 59.6451 37.7667 59.6814 36.9585 59.6785L36.9545 60.7912ZM39.4879 60.6775L39.5912 61.7854C40.3884 61.7111 41.1876 61.6881 41.9891 61.7165L42.0284 60.6044L42.0678 59.4924C41.1712 59.4607 40.2767 59.4864 39.3845 59.5696L39.4879 60.6775ZM42.0284 60.6044L41.9891 61.7165C42.7951 61.745 43.5983 61.8201 44.3989 61.9419L44.5662 60.8418L44.7335 59.7417C43.8484 59.6071 42.9598 59.524 42.0678 59.4924L42.0284 60.6044ZM44.5662 60.8418L44.3989 61.9419C45.3759 62.0904 46.3553 62.0602 47.3305 61.8536L47.0999 60.7651L46.8693 59.6765C46.1518 59.8285 45.4421 59.8495 44.7335 59.7417L44.5662 60.8418ZM47.0999 60.7651L47.3305 61.8536C48.0784 61.6952 48.8227 61.6419 49.5663 61.692L49.6411 60.5818L49.7159 59.4716C48.7639 59.4075 47.8141 59.4764 46.8693 59.6765L47.0999 60.7651ZM49.6411 60.5818L49.5663 61.692C50.4701 61.7529 51.3724 61.7451 52.2726 61.6687L52.1785 60.56L52.0843 59.4513C51.2969 59.5181 50.5076 59.5249 49.7159 59.4716L49.6411 60.5818ZM52.1785 60.56L52.2726 61.6687C53.0267 61.6047 53.7818 61.6317 54.5399 61.7503L54.712 60.651L54.8841 59.5517C53.9517 59.4057 53.0179 59.372 52.0843 59.4513L52.1785 60.56ZM54.712 60.651L54.5399 61.7503C55.4569 61.8939 56.3759 61.9463 57.2958 61.907L57.2483 60.7953L57.2008 59.6836C56.4293 59.7165 55.6574 59.6728 54.8841 59.5517L54.712 60.651ZM57.2483 60.7953L57.2958 61.907C58.1412 61.8709 58.9868 61.8351 59.8325 61.7996L59.7858 60.6879L59.7392 59.5761C58.893 59.6116 58.0468 59.6474 57.2008 59.6836L57.2483 60.7953ZM59.7858 60.6879L59.8325 61.7996C60.6927 61.7635 61.5528 61.7109 62.4129 61.6418L62.3238 60.5326L62.2346 59.4235C61.4028 59.4904 60.571 59.5412 59.7392 59.5761L59.7858 60.6879ZM62.3238 60.5326L62.4129 61.6418C63.144 61.583 63.877 61.6362 64.6155 61.8038L64.8618 60.7187L65.108 59.6335C64.1545 59.4171 63.1955 59.3463 62.2346 59.4235L62.3238 60.5326ZM64.8618 60.7187L64.6155 61.8038C65.6234 62.0325 66.6373 62.0329 67.6451 61.8049L67.3995 60.7196L67.1539 59.6343C66.4701 59.789 65.7923 59.7888 65.108 59.6335L64.8618 60.7187ZM67.3995 60.7196L67.6451 61.8049C68.3687 61.6411 69.0863 61.6038 69.8033 61.6904L69.9367 60.5858L70.0702 59.4811C69.0956 59.3633 68.1217 59.4153 67.1539 59.6343L67.3995 60.7196ZM69.9367 60.5858L69.8033 61.6904C70.7187 61.801 71.6351 61.8244 72.5515 61.7603L72.4738 60.6503L72.3962 59.5403C71.6213 59.5945 70.8463 59.5748 70.0702 59.4811L69.9367 60.5858ZM72.4738 60.6503L72.5515 61.7603C73.3026 61.7078 74.0546 61.7503 74.8097 61.889L75.0108 60.7946L75.2119 59.7002C74.2756 59.5282 73.3363 59.4745 72.3962 59.5403L72.4738 60.6503ZM75.0108 60.7946L74.8097 61.889C75.8096 62.0727 76.8119 62.0444 77.8065 61.8064L77.5476 60.7242L77.2887 59.6421C76.5922 59.8087 75.9033 59.8273 75.2119 59.7002L75.0108 60.7946ZM77.5476 60.7242L77.8065 61.8064C78.5459 61.6295 79.2792 61.5669 80.0102 61.6157L80.0844 60.5055L80.1585 59.3952C79.1982 59.3311 78.2403 59.4144 77.2887 59.6421L77.5476 60.7242ZM80.0844 60.5055L80.0102 61.6157C80.8705 61.6732 81.7308 61.7136 82.5912 61.737L82.6214 60.6247L82.6517 59.5124C81.8206 59.4898 80.9896 59.4507 80.1585 59.3952L80.0844 60.5055ZM82.6214 60.6247L82.5912 61.737C83.455 61.7605 84.319 61.7628 85.1829 61.744L85.1587 60.6315L85.1344 59.5191C84.3068 59.5372 83.4792 59.5349 82.6517 59.5124L82.6214 60.6247ZM85.1587 60.6315L85.1829 61.744C85.9611 61.727 86.7403 61.7805 87.5211 61.905L87.6963 60.8061L87.8714 59.7073C86.9604 59.5621 86.0478 59.4992 85.1344 59.5191L85.1587 60.6315ZM87.6963 60.8061L87.5211 61.905C88.4675 62.0558 89.4163 62.0756 90.3644 61.9638L90.2341 60.8587L90.1037 59.7537C89.36 59.8414 88.6169 59.8261 87.8714 59.7073L87.6963 60.8061ZM90.2341 60.8587L90.3644 61.9638C91.1712 61.8686 91.9774 61.8169 92.7835 61.8087L92.7721 60.696L92.7607 59.5834C91.8746 59.5924 90.9889 59.6492 90.1037 59.7537L90.2341 60.8587ZM92.7721 60.696L92.7835 61.8087C93.5716 61.8006 94.3605 61.8537 95.1505 61.9684L95.3103 60.8673L95.4702 59.7661C94.568 59.6351 93.6646 59.5741 92.7607 59.5834L92.7721 60.696ZM95.3103 60.8673L95.1505 61.9684C96.121 62.1094 97.0923 62.0856 98.0591 61.8981L97.8473 60.8057L97.6355 59.7134C96.912 59.8537 96.192 59.8709 95.4702 59.7661L95.3103 60.8673ZM97.8473 60.8057L98.0591 61.8981C98.8132 61.7519 99.5639 61.7029 100.314 61.7499L100.383 60.6394L100.453 59.5288C99.5117 59.4698 98.5718 59.5318 97.6355 59.7134L97.8473 60.8057ZM100.383 60.6394L100.314 61.7499C101.155 61.8026 101.997 61.8597 102.839 61.9212L102.92 60.8115L103.001 59.7017C102.152 59.6397 101.302 59.582 100.453 59.5288L100.383 60.6394ZM102.92 60.8115L102.839 61.9212C103.75 61.9878 104.662 61.9734 105.572 61.8784L105.457 60.7717L105.341 59.665C104.561 59.7464 103.781 59.7587 103.001 59.7017L102.92 60.8115ZM105.457 60.7717L105.572 61.8784C106.383 61.7937 107.194 61.7478 108.004 61.7404L107.994 60.6277L107.984 59.515C107.103 59.5231 106.222 59.5731 105.341 59.665L105.457 60.7717ZM107.994 60.6277L108.004 61.7404C108.782 61.7333 109.561 61.7974 110.341 61.9332L110.532 60.837L110.723 59.7408C109.812 59.5822 108.898 59.5067 107.984 59.515L107.994 60.6277ZM110.532 60.837L110.341 61.9332C111.336 62.1064 112.333 62.0764 113.322 61.8457L113.07 60.7621L112.817 59.6784C112.115 59.8421 111.42 59.8621 110.723 59.7408L110.532 60.837ZM113.07 60.7621L113.322 61.8457C114.01 61.6853 114.691 61.6782 115.376 61.8232L115.607 60.7345L115.837 59.6459C114.831 59.4332 113.821 59.4444 112.817 59.6784L113.07 60.7621ZM115.607 60.7345L115.376 61.8232C115.817 61.9164 116.205 61.9825 116.523 62.0104C116.682 62.0243 116.85 62.0312 117.012 62.0201C117.15 62.0107 117.403 61.9824 117.654 61.8469L117.126 60.8676L116.597 59.8883C116.692 59.8374 116.769 59.8172 116.803 59.8094C116.823 59.8049 116.838 59.8026 116.847 59.8014C116.856 59.8002 116.861 59.7998 116.861 59.7998C116.862 59.7998 116.859 59.8 116.852 59.8001C116.845 59.8002 116.836 59.8002 116.823 59.7999C116.797 59.7992 116.763 59.7974 116.718 59.7935C116.53 59.777 116.242 59.7315 115.837 59.6459L115.607 60.7345ZM117.126 60.8676L117.869 61.6956L118.019 61.5604L117.276 60.7325L116.533 59.9045L116.382 60.0396L117.126 60.8676ZM117.276 60.7325L117.277 61.8452L117.377 61.8451L117.376 60.7324L117.376 59.6197L117.276 59.6197L117.276 60.7325Z" fill="#DDDEE4"/>
<path d="M48.5807 46.1541C47.0537 46.1503 45.8126 47.3852 45.8088 48.9123C45.805 50.4394 47.0398 51.6804 48.5669 51.6842L48.5738 48.9192L48.5807 46.1541ZM48.6738 48.9194L48.6669 51.6845L48.7421 51.6847L48.8171 51.6808L48.6738 48.9194ZM64.3313 49.0806L64.6668 51.8252L64.3313 49.0806ZM91.8162 48.9425L94.3834 49.9696L94.5738 49.4939L94.581 48.9816L91.8162 48.9425ZM91.7126 49.2016L89.1454 48.1744L87.6451 51.9243L91.6837 51.9665L91.7126 49.2016ZM91.7837 51.9675C93.3107 51.9835 94.5615 50.7586 94.5775 49.2315C94.5934 47.7045 93.3685 46.4537 91.8415 46.4377L91.8126 49.2026L91.7837 51.9675ZM48.5738 48.9192L48.5669 51.6842L48.6669 51.6845L48.6738 48.9194L48.6807 46.1544L48.5807 46.1541L48.5738 48.9192ZM48.6738 48.9194L48.8171 51.6808C52.9089 51.4684 55.815 51.5182 57.6492 51.771L58.0267 49.0319L58.4042 46.2927C56.0371 45.9665 52.7079 45.9413 48.5305 46.1581L48.6738 48.9194ZM58.0267 49.0319L57.6492 51.771C59.9861 52.0931 62.3272 52.1112 64.6668 51.8252L64.3313 49.0806L63.9957 46.336C62.1306 46.564 60.2688 46.5497 58.4042 46.2927L58.0267 49.0319ZM64.3313 49.0806L64.6668 51.8252C66.7027 51.5764 68.7379 51.4025 70.7726 51.3035L70.6383 48.5418L70.504 45.78C68.334 45.8855 66.1645 46.0709 63.9957 46.336L64.3313 49.0806ZM70.6383 48.5418L70.7726 51.3035C72.7322 51.2083 74.6914 51.2646 76.6515 51.473L76.9437 48.7234L77.236 45.9738C74.9937 45.7355 72.7493 45.6708 70.504 45.78L70.6383 48.5418ZM76.9437 48.7234L76.6515 51.473C78.8317 51.7047 81.012 51.8416 83.1921 51.8834L83.2452 49.1188L83.2982 46.3543C81.2789 46.3155 79.2582 46.1888 77.236 45.9738L76.9437 48.7234ZM83.2452 49.1188L83.1921 51.8834C85.3784 51.9253 87.4355 51.8606 89.3596 51.6843L89.1074 48.9308L88.8551 46.1773C87.1625 46.3323 85.3115 46.3929 83.2982 46.3543L83.2452 49.1188ZM89.1074 48.9308L89.3596 51.6843C90.245 51.6032 90.815 51.5731 91.129 51.5745C91.3132 51.5753 91.2681 51.5875 91.1141 51.5571C91.0626 51.547 90.7475 51.488 90.3779 51.2717C90.0117 51.0573 89.0314 50.3196 89.0515 48.9034L91.8162 48.9425L94.581 48.9816C94.6017 47.522 93.5937 46.7462 93.1715 46.4991C92.7459 46.25 92.3466 46.1635 92.1826 46.1312C91.8034 46.0566 91.4201 46.0456 91.1528 46.0444C90.5638 46.0419 89.7782 46.0927 88.8551 46.1773L89.1074 48.9308ZM91.8162 48.9425L89.2491 47.9153L89.1454 48.1744L91.7126 49.2016L94.2798 50.2287L94.3834 49.9696L91.8162 48.9425ZM91.7126 49.2016L91.6837 51.9665L91.7837 51.9675L91.8126 49.2026L91.8415 46.4377L91.7415 46.4367L91.7126 49.2016Z" fill="#D2D3D9"/>
<path d="M67.0457 21.8358C67.6991 21.509 68.3951 21.4206 69.112 21.5711C69.7743 21.7104 70.3911 21.9656 70.9579 22.3348C71.5336 22.7099 72.0066 23.1888 72.3717 23.7681C72.6865 24.2676 73.0184 24.7516 73.3665 25.2186C73.7258 25.7007 74.0805 26.1882 74.4293 26.6789C74.7725 27.1618 75.1233 27.6399 75.4802 28.1133C75.8679 28.6274 76.1894 29.1852 76.4448 29.7842C76.6568 30.2814 76.9482 30.7245 77.3207 31.116C77.7735 31.5917 78.1528 32.1183 78.457 32.694C78.7242 33.1997 79.0271 33.6824 79.3664 34.1403C79.7449 34.6509 80.0709 35.1963 80.3418 35.7766C80.5707 36.2673 80.8747 36.7086 81.2555 37.1008C81.7095 37.5684 82.0996 38.0802 82.4242 38.6356C82.723 39.1469 83.03 39.6533 83.3444 40.1542C83.6579 40.6537 83.9806 41.1472 84.3133 41.634C84.6655 42.1494 84.98 42.6913 85.2562 43.2563C85.5041 43.7634 85.8003 44.2387 86.144 44.682C86.5277 45.1768 86.8733 45.6972 87.1799 46.2417C87.5012 46.8125 87.7271 47.4171 87.8538 48.053C87.9754 48.6631 88.0419 49.2804 88.0536 49.9032C88.0672 50.6253 87.8398 51.2818 87.3851 51.8506C87.3803 51.8566 87.3747 51.862 87.3699 51.8679C85.9075 51.9723 84.3327 52.0105 82.6445 51.9781C80.6253 51.9393 78.604 51.8128 76.5819 51.5979C74.3398 51.3596 72.0947 51.2954 69.8497 51.4046C67.68 51.5101 65.5105 51.6947 63.3421 51.9597C61.4771 52.1877 59.6148 52.1735 57.7504 51.9165C56.9281 51.8032 55.99 51.7283 54.9411 51.6854C54.8014 51.4632 54.6616 51.241 54.522 51.019C54.205 50.5148 53.8844 50.0124 53.5629 49.5111C53.2454 49.0161 52.9167 48.5283 52.5757 48.0487C52.2293 47.5615 51.8831 47.073 51.5377 46.5852C51.1881 46.0913 50.8483 45.59 50.5192 45.0827C50.1928 44.5798 49.8693 44.074 49.5492 43.5663C49.2193 43.0428 48.9189 42.5006 48.6495 41.9407C48.3956 41.4131 48.1213 40.899 47.8286 40.4005C47.5178 39.8709 47.2359 39.3224 46.9829 38.7555C46.6963 38.1132 46.598 37.4344 46.687 36.7314C46.7766 36.0244 47.0491 35.3913 47.5014 34.8466C47.9106 34.3538 48.3667 33.9119 48.8677 33.5214C49.3474 33.1474 49.8409 32.7904 50.3463 32.451C50.8448 32.1163 51.3477 31.7874 51.8552 31.4648C52.104 31.3067 52.2764 31.1907 52.3802 31.1127C52.3877 31.1071 52.3945 31.1013 52.4007 31.0965L52.4018 31.0944C52.4369 31.0299 52.4785 30.9796 52.5033 30.9518C52.5566 30.8921 52.6229 30.832 52.6869 30.7779C52.8204 30.6651 53.0144 30.5183 53.2594 30.3415C53.7666 29.9757 54.3005 29.6491 54.859 29.3619C55.3589 29.1049 55.8271 28.7997 56.2631 28.446C56.7373 28.0611 57.222 27.6899 57.7159 27.3345C58.2192 26.9723 58.744 26.6414 59.2885 26.3419C59.801 26.06 60.3018 25.759 60.7898 25.4401C61.2777 25.1211 61.7537 24.7831 62.2177 24.4269C62.7104 24.0487 63.2244 23.7003 63.7579 23.3835C64.2972 23.0635 64.8589 22.7874 65.4418 22.5551C65.9834 22.3393 66.5185 22.0995 67.0457 21.8358Z" fill="#DDDEE4"/>
</svg>
