<svg width="20" height="20" viewBox="0 0 20 20" fill="none" xmlns="http://www.w3.org/2000/svg">
<path fill-rule="evenodd" clip-rule="evenodd" d="M1.9 10.8999H9.099V18.0999C9.099 18.5969 9.503 18.9999 10 18.9999C10.497 18.9999 10.9 18.5969 10.9 18.0999V10.8999H18.099C18.596 10.8999 19 10.4969 19 9.99988C19 9.50288 18.596 9.09988 18.099 9.09988H10.9V1.89988C10.9 1.40288 10.497 0.999878 10 0.999878C9.503 0.999878 9.099 1.40288 9.099 1.89988V9.09988H1.9C1.403 9.09988 1 9.50288 1 9.99988C1 10.4969 1.403 10.8999 1.9 10.8999Z" fill="#2A3038" style="fill:#2A3038;fill:color(display-p3 0.1647 0.1882 0.2196);fill-opacity:1;"/>
</svg>
