<svg width="28" height="28" viewBox="0 0 28 28" fill="none" xmlns="http://www.w3.org/2000/svg">
<path d="M22.2041 0.0107422C23.2128 0.113005 24 0.96435 24 2V26L23.9893 26.2041C23.8938 27.1457 23.1457 27.8938 22.2041 27.9893L22 28H6C4.96435 28 4.113 27.2128 4.01074 26.2041L4 26V2C4 0.895431 4.89543 1.61064e-08 6 0H22L22.2041 0.0107422ZM6 1.5C5.72386 1.5 5.5 1.72386 5.5 2V26C5.5 26.2761 5.72386 26.5 6 26.5H22C22.2761 26.5 22.5 26.2761 22.5 26V2C22.5 1.72386 22.2761 1.5 22 1.5H6Z" fill="#FFFFFF" style="fill:#FFFFFF;fill:#FFFFFF;fill-opacity:1;"/>
</svg>
